<?xml version="1.0" encoding="utf-8"?>
<!-- Generator: Adobe Illustrator 27.5.0, SVG Export Plug-In . SVG Version: 6.00 Build 0)  -->
<svg version="1.1" id="Layer_1" xmlns="http://www.w3.org/2000/svg" xmlns:xlink="http://www.w3.org/1999/xlink" x="0px" y="0px"
	 viewBox="0 0 313.089 218.374" style="enable-background:new 0 0 313.089 218.374;" xml:space="preserve">
<g>
	<g>
		<path style="fill:#FFFFFF;" d="M282.536,64.455c-11.263-11.857-24.941-22.041-43.047-32.051
			c-14.376-7.944-33.559-10.29-48.971-12.174l-3.68-0.453c-1.956-0.248-3.947-0.479-5.96-0.715
			c-9.11-1.063-18.529-2.161-26.732-4.95c-7.375-2.493-13.819-3.235-20.843-2.446c-12.864,1.411-23.484,10.959-25.252,22.698
			c-0.916,6.032-3.389,12.535-7.763,20.391c-1.136,0.772-2.188,1.621-3.141,2.533c-4.398,4.222-6.976,9.146-7.853,15.023
			c-1.409,2.154-2.963,4.554-4.396,6.882l-2.365,3.857c-8.673,14.144-17.64,28.767-27.037,42.753
			c-0.753,0.921-1.493,1.854-2.215,2.793c-2.759,3.564-4.92,7.383-6.732,10.7c-2.479,3.934-4.669,7.614-6.69,11.249
			c-0.037,0.066-0.11,0.209-0.144,0.276c-0.044,0.088-0.088,0.178-0.13,0.269c-2.621,4.545-4.941,9.245-7.061,13.664
			c-3.461,5.776-7.05,11.735-11.789,16.784c-2.898,3.072-6.69,8.039-8.312,14.271c-0.215,0.839-0.451,2.155-0.646,3.61
			c-0.09,0.674-0.038,1.358,0.153,2.011c1.238,4.214,3.189,8.085,5.8,11.508c0.771,1.013,1.912,1.682,3.173,1.86
			c1.397,0.199,2.825,0.3,4.245,0.3h0.001c7.238,0,13.578-2.56,19.708-5.035c3.467-1.4,7.051-2.848,10.698-3.765
			c7.116-1.798,14.578-2.973,21.794-4.108c5.591-0.88,11.373-1.79,17.071-2.994c11.166-2.35,22.396-5.092,33.256-7.743
			c11.572-2.825,23.54-5.747,35.443-8.192c8.497-1.896,16.997-3.749,25.501-5.605l7.694-1.679
			c9.123-1.996,18.569-3.651,27.705-5.252c10.686-1.873,21.737-3.809,32.459-6.317c14.724-3.455,27.798-9.915,36.815-18.191
			c11.664-10.709,16.727-24.443,14.641-39.723C306.312,94.646,297.768,80.502,282.536,64.455z"/>
		<path style="fill:#F1F1F1;" d="M281.897,63.72c-11.264-11.857-24.943-22.042-43.049-32.051
			c-14.375-7.945-33.557-10.29-48.971-12.175l-3.68-0.452c-1.955-0.248-3.946-0.479-5.96-0.716
			c-9.109-1.063-18.529-2.16-26.731-4.95c-7.376-2.493-13.819-3.233-20.843-2.444c-12.865,1.41-23.484,10.958-25.252,22.697
			c-0.916,6.033-3.39,12.536-7.764,20.391c-1.136,0.773-2.188,1.621-3.14,2.534c-4.398,4.22-6.976,9.145-7.852,15.023
			c-1.41,2.154-2.964,4.555-4.396,6.881l-2.365,3.857c-8.674,14.145-17.641,28.767-27.038,42.753
			c-0.752,0.923-1.493,1.854-2.215,2.793c-2.759,3.564-4.919,7.385-6.732,10.701c-2.479,3.934-4.636,7.632-6.689,11.249
			c-0.037,0.065-0.11,0.21-0.144,0.276c-0.044,0.089-0.088,0.177-0.13,0.268c-2.622,4.545-4.942,9.245-7.062,13.664
			c-3.46,5.777-7.049,11.737-11.789,16.785c-2.896,3.071-6.687,8.039-8.311,14.271c-0.215,0.837-0.45,2.155-0.646,3.608
			c-0.091,0.675-0.038,1.359,0.154,2.012c1.236,4.214,3.188,8.085,5.798,11.508c0.772,1.013,1.913,1.681,3.174,1.859
			c1.397,0.199,2.825,0.301,4.244,0.301h0.001c7.239,0,13.578-2.561,19.709-5.035c3.466-1.4,7.051-2.848,10.697-3.765
			c7.117-1.797,14.578-2.973,21.795-4.108c5.591-0.879,11.373-1.791,17.07-2.993c11.168-2.352,22.396-5.093,33.257-7.743
			c11.571-2.827,23.561-5.648,35.442-8.194c8.514-1.823,16.997-3.748,25.501-5.602l7.694-1.681
			c9.123-1.995,18.569-3.65,27.706-5.252c10.686-1.871,21.736-3.808,32.459-6.317c14.723-3.453,27.798-9.914,36.813-18.191
			c11.664-10.707,16.728-24.442,14.641-39.723C305.672,93.91,297.127,79.768,281.897,63.72z"/>
		<path style="fill:#E2E2E2;" d="M281.257,62.983c-11.263-11.856-24.941-22.041-43.048-32.051
			c-14.376-7.943-33.558-10.289-48.971-12.173l-3.679-0.453c-1.956-0.248-3.947-0.479-5.961-0.715
			c-9.109-1.064-18.529-2.161-26.731-4.951c-7.375-2.493-13.819-3.234-20.844-2.445c-12.864,1.41-23.483,10.959-25.251,22.697
			c-0.916,6.033-3.39,12.536-7.763,20.391c-1.136,0.774-2.189,1.622-3.142,2.535c-4.398,4.22-6.975,9.143-7.852,15.021
			c-1.41,2.155-2.963,4.555-4.396,6.882l-2.365,3.857c-8.673,14.144-17.64,28.767-27.038,42.753
			c-0.752,0.922-1.493,1.854-2.215,2.794c-2.758,3.563-4.92,7.384-6.731,10.7c-2.48,3.933-4.67,7.614-6.691,11.249
			c-0.036,0.066-0.109,0.21-0.143,0.276c-0.045,0.088-0.088,0.177-0.131,0.268c-2.621,4.545-4.94,9.246-7.06,13.665
			c-3.462,5.776-7.05,11.735-11.79,16.784c-2.896,3.072-6.689,8.038-8.312,14.27c-0.215,0.839-0.45,2.156-0.646,3.61
			c-0.09,0.673-0.038,1.359,0.153,2.011c1.238,4.214,3.189,8.085,5.8,11.508c0.771,1.013,1.912,1.681,3.174,1.86
			c1.396,0.198,2.823,0.299,4.243,0.299h0.002c7.237,0,13.577-2.56,19.707-5.034c3.467-1.4,7.052-2.848,10.698-3.765
			c7.117-1.797,14.579-2.973,21.794-4.108c5.592-0.88,11.374-1.79,17.072-2.994c11.166-2.351,22.395-5.092,33.255-7.743
			c11.573-2.825,23.562-5.647,35.444-8.192c8.513-1.825,16.996-3.75,25.5-5.605l7.694-1.68c9.124-1.996,18.569-3.65,27.705-5.251
			c10.688-1.873,21.738-3.81,32.46-6.317c14.724-3.454,27.799-9.914,36.814-18.191c11.665-10.708,16.727-24.443,14.641-39.723
			C305.032,93.175,296.487,79.031,281.257,62.983z"/>
		<path style="fill:#D4D4D4;" d="M280.616,62.248c-11.263-11.856-24.941-22.041-43.048-32.051
			c-14.375-7.944-33.558-10.289-48.97-12.173l-3.68-0.453c-1.956-0.248-3.947-0.479-5.96-0.716
			c-9.11-1.062-18.53-2.161-26.732-4.949c-7.375-2.494-13.819-3.235-20.844-2.447c-12.863,1.412-23.483,10.96-25.251,22.698
			c-0.915,6.032-3.39,12.536-7.763,20.392c-1.136,0.772-2.188,1.621-3.142,2.533c-4.397,4.221-6.975,9.145-7.852,15.023
			c-1.409,2.154-2.963,4.554-4.396,6.882l-2.366,3.857c-8.673,14.144-17.64,28.766-27.037,42.753
			c-0.752,0.922-1.493,1.855-2.215,2.793c-2.759,3.563-4.921,7.384-6.732,10.701c-2.48,3.934-4.669,7.613-6.69,11.249
			c-0.037,0.066-0.109,0.209-0.144,0.276c-0.043,0.087-0.088,0.177-0.131,0.269c-2.621,4.545-4.94,9.244-7.06,13.664
			c-3.461,5.776-7.05,11.735-11.789,16.784c-2.896,3.072-6.689,8.039-8.311,14.271c-0.217,0.839-0.452,2.154-0.647,3.61
			c-0.091,0.674-0.039,1.357,0.152,2.011c1.238,4.214,3.188,8.084,5.8,11.508c0.771,1.012,1.912,1.681,3.174,1.86
			c1.397,0.199,2.824,0.3,4.244,0.3h0.001c7.237,0,13.578-2.56,19.707-5.035c3.468-1.401,7.052-2.848,10.699-3.765
			c7.116-1.798,14.578-2.974,21.793-4.108c5.592-0.88,11.374-1.79,17.072-2.995c11.166-2.349,22.395-5.091,33.256-7.742
			c11.573-2.825,23.562-5.648,35.443-8.192c8.513-1.824,16.997-3.749,25.501-5.605l7.694-1.68c9.124-1.995,18.569-3.65,27.704-5.251
			c10.688-1.873,21.738-3.809,32.46-6.317c14.724-3.456,27.799-9.916,36.814-18.191c11.665-10.71,16.728-24.443,14.642-39.723
			C304.392,92.439,295.848,78.296,280.616,62.248z"/>
		<path style="fill:#C5C5C5;" d="M279.977,61.513c-11.263-11.856-24.941-22.04-43.047-32.05
			c-14.376-7.944-33.558-10.29-48.971-12.174l-3.68-0.452c-1.955-0.249-3.947-0.481-5.96-0.716
			c-9.11-1.062-18.529-2.162-26.732-4.951c-7.375-2.492-13.818-3.234-20.843-2.445c-12.864,1.411-23.484,10.958-25.252,22.698
			c-0.916,6.032-3.389,12.536-7.763,20.391c-1.136,0.772-2.188,1.622-3.141,2.533c-4.397,4.222-6.975,9.145-7.853,15.023
			c-1.409,2.155-2.963,4.556-4.396,6.883l-2.366,3.856c-8.673,14.144-17.64,28.768-27.037,42.754
			c-0.752,0.922-1.493,1.854-2.215,2.793c-2.759,3.563-4.92,7.383-6.732,10.699c-2.479,3.935-4.669,7.615-6.69,11.25
			c-0.037,0.066-0.109,0.209-0.143,0.276c-0.044,0.088-0.089,0.178-0.131,0.268c-2.621,4.544-4.941,9.245-7.061,13.664
			c-3.461,5.776-7.05,11.735-11.789,16.784c-2.898,3.072-6.689,8.039-8.311,14.271c-0.215,0.837-0.451,2.153-0.647,3.608
			c-0.09,0.675-0.038,1.358,0.153,2.013c1.238,4.212,3.189,8.084,5.8,11.506c0.772,1.013,1.913,1.683,3.173,1.861
			c1.397,0.199,2.825,0.3,4.245,0.3h0.001c7.238,0,13.578-2.559,19.708-5.035c3.467-1.399,7.051-2.849,10.698-3.766
			c7.116-1.798,14.578-2.972,21.794-4.107c5.592-0.881,11.373-1.791,17.071-2.996c11.166-2.349,22.396-5.09,33.257-7.741
			c11.571-2.826,23.561-5.647,35.442-8.193c8.514-1.824,16.997-3.75,25.501-5.604l7.694-1.68c9.123-1.995,18.569-3.65,27.705-5.252
			c10.686-1.872,21.737-3.808,32.46-6.316c14.723-3.455,27.797-9.916,36.814-18.191c11.664-10.71,16.727-24.443,14.641-39.723
			C303.752,91.705,295.208,77.561,279.977,61.513z"/>
		<path style="fill:#B7B7B7;" d="M279.338,60.778c-11.264-11.857-24.941-22.041-43.048-32.052
			c-14.376-7.943-33.558-10.289-48.971-12.172l-3.68-0.453c-1.956-0.248-3.947-0.482-5.96-0.716
			c-9.109-1.064-18.529-2.162-26.731-4.951c-7.376-2.493-13.82-3.233-20.844-2.445c-12.864,1.411-23.483,10.96-25.251,22.698
			c-0.916,6.032-3.39,12.536-7.764,20.391c-1.136,0.774-2.188,1.622-3.141,2.533c-4.399,4.221-6.975,9.145-7.852,15.024
			c-1.41,2.154-2.964,4.555-4.396,6.881l-2.365,3.857c-8.674,14.145-17.641,28.767-27.038,42.754
			c-0.752,0.921-1.493,1.854-2.215,2.793c-2.759,3.563-4.92,7.383-6.732,10.7c-2.479,3.933-4.669,7.614-6.69,11.249
			c-0.037,0.066-0.108,0.209-0.143,0.277c-0.044,0.087-0.088,0.176-0.131,0.267c-2.621,4.545-4.941,9.245-7.061,13.665
			c-3.461,5.777-7.049,11.735-11.789,16.784c-2.896,3.073-6.688,8.038-8.311,14.271c-0.216,0.837-0.452,2.154-0.645,3.609
			c-0.092,0.674-0.039,1.358,0.152,2.012c1.237,4.213,3.188,8.084,5.799,11.507c0.772,1.012,1.912,1.681,3.174,1.861
			c1.396,0.198,2.824,0.299,4.244,0.299h0.001c7.238,0,13.578-2.56,19.708-5.035c3.467-1.4,7.052-2.848,10.698-3.765
			c7.117-1.798,14.578-2.973,21.794-4.107c5.592-0.881,11.374-1.79,17.071-2.995c11.167-2.35,22.396-5.091,33.256-7.743
			c11.573-2.825,23.563-5.645,35.444-8.192c8.513-1.824,16.996-3.749,25.5-5.604l7.694-1.681c9.123-1.995,18.569-3.65,27.705-5.252
			c10.687-1.871,21.737-3.808,32.46-6.316c14.724-3.455,27.797-9.916,36.813-18.191c11.664-10.71,16.728-24.443,14.641-39.723
			C303.113,90.97,294.568,76.825,279.338,60.778z"/>
		<path style="fill:#A8A8A8;" d="M278.697,60.041c-11.263-11.855-24.941-22.04-43.048-32.05
			c-14.375-7.943-33.558-10.289-48.971-12.174L183,15.365c-1.956-0.248-3.947-0.48-5.961-0.715
			c-9.109-1.064-18.529-2.162-26.73-4.95c-7.376-2.493-13.82-3.235-20.844-2.446c-12.864,1.41-23.484,10.959-25.252,22.697
			c-0.916,6.033-3.39,12.536-7.763,20.391c-1.136,0.773-2.188,1.622-3.141,2.534c-4.399,4.222-6.976,9.146-7.853,15.021
			c-1.41,2.156-2.963,4.555-4.396,6.884l-2.365,3.856c-8.673,14.143-17.64,28.767-27.038,42.753
			c-0.752,0.922-1.491,1.857-2.214,2.794c-2.751,3.569-4.92,7.383-6.732,10.7c-2.48,3.933-4.647,7.626-6.69,11.249
			c-0.037,0.066-0.11,0.209-0.144,0.275c-0.044,0.089-0.088,0.178-0.131,0.27c-2.62,4.545-4.94,9.245-7.059,13.663
			c-3.462,5.777-7.051,11.736-11.791,16.785c-2.896,3.072-6.688,8.039-8.31,14.271c-0.216,0.839-0.451,2.155-0.646,3.61
			c-0.091,0.674-0.039,1.358,0.152,2.011c1.238,4.213,3.188,8.085,5.8,11.507c0.771,1.014,1.912,1.683,3.174,1.861
			c1.396,0.199,2.824,0.299,4.243,0.299h0.002c7.237,0,13.577-2.56,19.707-5.034c3.467-1.4,7.052-2.848,10.698-3.765
			c7.117-1.798,14.579-2.973,21.795-4.108c5.591-0.88,11.373-1.791,17.071-2.994c11.167-2.351,22.395-5.092,33.255-7.743
			c11.573-2.826,23.563-5.648,35.444-8.193c8.513-1.824,16.997-3.75,25.5-5.605l7.695-1.679c9.123-1.995,18.569-3.65,27.705-5.251
			c10.687-1.873,21.738-3.81,32.459-6.317c14.725-3.455,27.799-9.915,36.814-18.192c11.664-10.708,16.727-24.443,14.641-39.722
			C302.473,90.233,293.929,76.09,278.697,60.041z"/>
		<path style="fill:#9A9A9A;" d="M278.058,59.307c-11.263-11.857-24.942-22.041-43.048-32.05
			c-14.375-7.944-33.558-10.29-48.971-12.175l-3.679-0.453c-1.956-0.248-3.947-0.479-5.96-0.714
			c-9.11-1.063-18.53-2.162-26.732-4.95c-7.375-2.493-13.819-3.236-20.844-2.447c-12.863,1.411-23.483,10.96-25.252,22.698
			c-0.915,6.032-3.389,12.537-7.762,20.391c-1.137,0.773-2.188,1.621-3.142,2.535c-4.397,4.221-6.975,9.144-7.853,15.021
			c-1.408,2.155-2.962,4.555-4.396,6.883l-2.365,3.857c-8.673,14.143-17.64,28.767-27.037,42.753
			c-0.753,0.921-1.493,1.854-2.215,2.793c-2.759,3.563-4.921,7.383-6.732,10.7c-2.48,3.934-4.648,7.626-6.69,11.248
			c-0.038,0.066-0.11,0.21-0.144,0.276c-0.044,0.089-0.088,0.179-0.131,0.27c-2.621,4.545-4.94,9.245-7.06,13.663
			c-3.461,5.776-7.05,11.736-11.79,16.785c-2.897,3.071-6.689,8.039-8.311,14.27c-0.217,0.839-0.451,2.155-0.647,3.61
			c-0.091,0.674-0.038,1.358,0.153,2.011c1.238,4.213,3.188,8.084,5.8,11.507c0.771,1.013,1.912,1.683,3.173,1.86
			c1.397,0.2,2.825,0.301,4.245,0.301h0.001c7.237,0,13.578-2.56,19.707-5.035c3.467-1.4,7.051-2.848,10.698-3.765
			c7.117-1.798,14.579-2.974,21.794-4.109c5.592-0.879,11.374-1.79,17.072-2.994c11.166-2.349,22.395-5.091,33.256-7.742
			c11.572-2.826,23.56-5.647,35.443-8.193c8.513-1.823,16.997-3.749,25.5-5.605l7.695-1.678c9.123-1.996,18.569-3.651,27.704-5.252
			c10.688-1.874,21.738-3.809,32.46-6.318c14.724-3.454,27.798-9.914,36.813-18.191c11.665-10.708,16.729-24.443,14.642-39.723
			C301.833,89.497,293.289,75.354,278.058,59.307z"/>
		<path style="fill:#8B8B8B;" d="M277.417,58.571c-11.262-11.857-24.94-22.041-43.046-32.051
			c-14.376-7.944-33.559-10.289-48.972-12.174l-3.68-0.452c-1.956-0.248-3.946-0.48-5.96-0.716
			c-9.11-1.063-18.529-2.161-26.731-4.95c-7.376-2.493-13.82-3.234-20.844-2.445c-12.864,1.41-23.483,10.959-25.251,22.697
			c-0.917,6.033-3.39,12.536-7.764,20.391c-1.135,0.773-2.188,1.622-3.141,2.534c-4.398,4.221-6.974,9.145-7.851,15.022
			c-1.41,2.155-2.963,4.555-4.396,6.882l-2.365,3.857c-8.674,14.144-17.64,28.767-27.038,42.753
			c-0.752,0.922-1.493,1.854-2.215,2.793c-2.759,3.564-4.92,7.384-6.731,10.701c-2.479,3.933-4.689,7.604-6.691,11.248
			c-0.036,0.066-0.109,0.211-0.142,0.277c-0.045,0.089-0.09,0.177-0.132,0.268c-2.621,4.545-4.941,9.245-7.061,13.664
			c-3.461,5.776-7.049,11.736-11.789,16.785c-2.897,3.071-6.703,8.034-8.312,14.271c-0.216,0.837-0.451,2.155-0.646,3.609
			c-0.089,0.674-0.037,1.358,0.153,2.012c1.239,4.213,3.189,8.085,5.8,11.507c0.773,1.013,1.912,1.682,3.173,1.86
			c1.397,0.199,2.825,0.3,4.246,0.3l0,0c7.238,0,13.578-2.56,19.708-5.035c3.468-1.399,7.052-2.847,10.699-3.764
			c7.116-1.798,14.577-2.973,21.793-4.108c5.593-0.88,11.373-1.791,17.071-2.994c11.166-2.351,22.396-5.092,33.256-7.743
			c11.572-2.826,23.562-5.646,35.443-8.193c8.514-1.823,16.998-3.749,25.501-5.604l7.694-1.68c9.123-1.996,18.569-3.65,27.705-5.252
			c10.686-1.872,21.737-3.809,32.46-6.317c14.723-3.454,27.797-9.915,36.814-18.191c11.664-10.708,16.728-24.442,14.641-39.723
			C301.192,88.763,292.648,74.619,277.417,58.571z"/>
		<path style="fill:#7D7D7D;" d="M276.777,57.836c-11.263-11.856-24.94-22.041-43.047-32.051
			c-14.376-7.944-33.558-10.289-48.972-12.173l-3.679-0.453c-1.956-0.248-3.947-0.48-5.96-0.716
			c-9.109-1.064-18.529-2.161-26.731-4.95c-7.376-2.493-13.82-3.234-20.844-2.445c-12.865,1.41-23.483,10.959-25.251,22.697
			c-0.916,6.033-3.39,12.536-7.764,20.391c-1.136,0.773-2.188,1.622-3.141,2.534c-4.398,4.221-6.975,9.145-7.852,15.022
			c-1.41,2.155-2.964,4.555-4.396,6.881l-2.365,3.858c-8.674,14.144-17.641,28.767-27.039,42.753
			c-0.751,0.922-1.492,1.854-2.214,2.793c-2.758,3.563-4.92,7.384-6.732,10.701c-2.479,3.933-4.669,7.614-6.69,11.249
			c-0.037,0.066-0.109,0.209-0.143,0.276c-0.045,0.088-0.088,0.176-0.132,0.267c-2.62,4.546-4.94,9.246-7.059,13.666
			c-3.462,5.776-7.05,11.735-11.791,16.784c-2.896,3.072-6.688,8.038-8.31,14.271c-0.215,0.839-0.451,2.155-0.646,3.61
			c-0.091,0.673-0.038,1.358,0.153,2.011c1.238,4.214,3.188,8.085,5.799,11.508c0.773,1.013,1.913,1.681,3.174,1.86
			c1.396,0.198,2.824,0.299,4.244,0.299h0.001c7.238,0,13.578-2.56,19.707-5.034c3.468-1.401,7.053-2.848,10.699-3.765
			c7.117-1.798,14.578-2.973,21.794-4.108c5.592-0.88,11.374-1.79,17.071-2.994c11.167-2.35,22.396-5.092,33.256-7.743
			c11.573-2.825,23.562-5.646,35.444-8.192c8.513-1.824,16.996-3.75,25.499-5.604l7.695-1.68c9.122-1.996,18.568-3.651,27.705-5.251
			c10.687-1.873,21.737-3.81,32.46-6.317c14.724-3.455,27.798-9.915,36.813-18.191c11.665-10.709,16.728-24.443,14.64-39.723
			C300.554,88.027,292.009,73.884,276.777,57.836z"/>
		<path style="fill:#6E6E6E;" d="M276.139,57.101c-11.263-11.856-24.941-22.042-43.049-32.051
			c-14.374-7.944-33.557-10.29-48.97-12.174l-3.68-0.453c-1.955-0.248-3.946-0.479-5.961-0.715
			c-9.109-1.063-18.529-2.161-26.731-4.95c-7.375-2.493-13.818-3.234-20.843-2.446c-12.864,1.412-23.483,10.959-25.252,22.698
			c-0.916,6.033-3.39,12.535-7.763,20.392c-1.136,0.771-2.188,1.62-3.141,2.532c-4.398,4.222-6.976,9.146-7.853,15.024
			c-1.409,2.153-2.962,4.554-4.396,6.881l-2.365,3.857c-8.673,14.145-17.64,28.766-27.037,42.753
			c-0.753,0.922-1.493,1.854-2.216,2.793c-2.758,3.563-4.919,7.383-6.73,10.7c-2.48,3.935-4.638,7.632-6.69,11.25
			c-0.037,0.065-0.111,0.208-0.145,0.275c-0.044,0.089-0.087,0.178-0.13,0.268c-2.622,4.545-4.941,9.245-7.06,13.664
			c-3.461,5.777-7.05,11.736-11.789,16.784c-2.897,3.072-6.688,8.04-8.312,14.271c-0.216,0.838-0.45,2.155-0.646,3.609
			c-0.091,0.674-0.039,1.359,0.153,2.011c1.237,4.215,3.188,8.085,5.798,11.509c0.772,1.013,1.914,1.681,3.175,1.859
			c1.397,0.199,2.824,0.3,4.243,0.3h0.001c7.239,0,13.578-2.56,19.709-5.034c3.466-1.401,7.051-2.849,10.697-3.766
			c7.117-1.798,14.579-2.973,21.795-4.108c5.591-0.879,11.373-1.79,17.071-2.993c11.167-2.351,22.395-5.093,33.256-7.743
			c11.572-2.825,23.562-5.648,35.443-8.193c8.513-1.824,16.997-3.748,25.501-5.604l7.694-1.68
			c9.124-1.996,18.568-3.651,27.705-5.252c10.687-1.872,21.737-3.81,32.459-6.317c14.724-3.454,27.799-9.914,36.813-18.191
			c11.665-10.708,16.728-24.442,14.642-39.723C299.913,87.291,291.369,73.148,276.139,57.101z"/>
		<path style="fill:#606060;" d="M275.498,56.365c-11.263-11.857-24.941-22.041-43.047-32.051
			c-14.376-7.944-33.559-10.289-48.972-12.174l-3.679-0.452c-1.956-0.248-3.947-0.481-5.96-0.716
			c-9.11-1.063-18.529-2.161-26.732-4.95c-7.375-2.493-13.819-3.234-20.844-2.445c-12.863,1.41-23.483,10.958-25.251,22.697
			c-0.916,6.033-3.39,12.536-7.763,20.391c-1.136,0.772-2.188,1.622-3.142,2.534c-4.397,4.221-6.975,9.145-7.852,15.023
			c-1.409,2.155-2.963,4.555-4.396,6.882l-2.365,3.857c-8.673,14.144-17.64,28.767-27.037,42.753
			c-0.753,0.922-1.493,1.854-2.215,2.793c-2.759,3.563-4.92,7.384-6.732,10.7c-2.48,3.934-4.669,7.614-6.69,11.249
			c-0.037,0.066-0.11,0.21-0.144,0.276c-0.044,0.089-0.088,0.178-0.131,0.269c-2.621,4.545-4.94,9.245-7.06,13.664
			c-3.461,5.776-7.05,11.736-11.79,16.785c-2.896,3.071-6.688,8.038-8.311,14.271c-0.216,0.838-0.451,2.154-0.646,3.609
			c-0.09,0.674-0.038,1.358,0.153,2.012c1.238,4.213,3.188,8.085,5.8,11.507c0.771,1.013,1.912,1.682,3.173,1.86
			c1.397,0.199,2.825,0.3,4.245,0.3h0.001c7.237,0,13.578-2.56,19.708-5.035c3.467-1.399,7.051-2.848,10.698-3.764
			c7.116-1.799,14.578-2.973,21.793-4.108c5.592-0.881,11.374-1.791,17.072-2.995c11.166-2.35,22.396-5.091,33.256-7.742
			c11.572-2.826,23.54-5.747,35.443-8.193c8.497-1.895,16.997-3.749,25.501-5.604l7.694-1.68c9.123-1.996,18.569-3.651,27.704-5.252
			c10.688-1.873,21.738-3.809,32.46-6.317c14.724-3.454,27.798-9.915,36.814-18.191c11.664-10.709,16.728-24.443,14.641-39.723
			C299.273,86.557,290.729,72.413,275.498,56.365z"/>
	</g>
	<path style="fill:#FFFFFF;" d="M275.498,56.365c-11.263-11.857-24.941-22.041-43.047-32.051
		c-14.376-7.944-33.559-10.289-48.972-12.174l-3.679-0.452c-1.956-0.248-3.947-0.481-5.96-0.716
		c-9.11-1.063-18.529-2.161-26.732-4.95c-7.375-2.493-13.819-3.234-20.844-2.445c-12.863,1.41-23.483,10.958-25.251,22.697
		c-0.916,6.033-3.39,12.536-7.763,20.391c-1.136,0.772-2.188,1.622-3.142,2.534c-4.397,4.221-6.975,9.145-7.852,15.023
		c-1.409,2.155-2.963,4.555-4.396,6.882l-2.365,3.857c-8.673,14.144-17.64,28.767-27.037,42.753
		c-0.753,0.922-1.493,1.854-2.215,2.793c-2.759,3.563-4.92,7.384-6.732,10.7c-2.48,3.934-4.669,7.614-6.69,11.249
		c-0.037,0.066-0.11,0.21-0.144,0.276c-0.044,0.089-0.088,0.178-0.131,0.269c-2.621,4.545-4.94,9.245-7.06,13.664
		c-3.461,5.776-7.05,11.736-11.79,16.785c-2.896,3.071-6.688,8.038-8.311,14.271c-0.216,0.838-0.451,2.154-0.646,3.609
		c-0.09,0.674-0.038,1.358,0.153,2.012c1.238,4.213,3.188,8.085,5.8,11.507c0.771,1.013,1.912,1.682,3.173,1.86
		c1.397,0.199,2.825,0.3,4.245,0.3h0.001c7.237,0,13.578-2.56,19.708-5.035c3.467-1.399,7.051-2.848,10.698-3.764
		c7.116-1.799,14.578-2.973,21.793-4.108c5.592-0.881,11.374-1.791,17.072-2.995c11.166-2.35,22.396-5.091,33.256-7.742
		c11.572-2.826,23.54-5.747,35.443-8.193c8.497-1.895,16.997-3.749,25.501-5.604l7.694-1.68c9.123-1.996,18.569-3.651,27.704-5.252
		c10.688-1.873,21.738-3.809,32.46-6.317c14.724-3.454,27.798-9.915,36.814-18.191c11.664-10.709,16.728-24.443,14.641-39.723
		C299.273,86.557,290.729,72.413,275.498,56.365z"/>
	<g>
		<path style="fill:#BA592C;" d="M271.983,59.705c-12.277-12.924-26.499-22.645-41.877-31.147
			c-14.652-8.096-34.767-10.044-50.914-12.06c-10.971-1.389-23.089-2.296-33.636-5.882c-6.35-2.146-12.155-2.962-18.762-2.22
			c-9.939,1.09-19.458,8.466-20.985,18.605c-2.528,16.645-15.19,32.625-23.813,46.638c-10.558,17.206-20.95,34.334-32.34,50.97
			c-4.5,6.56-8.723,13.239-12.596,20.204c-0.066,0.134-0.136,0.268-0.198,0.414c-2.56,4.418-4.837,9.017-7.098,13.735
			c-3.777,6.306-7.464,12.409-12.537,17.813c-3.154,3.346-5.955,7.588-7.143,12.15c-0.144,0.561-0.351,1.669-0.536,3.048
			c1.057,3.6,2.752,6.983,5.001,9.933c11.802,1.679,21.232-5.497,32.781-8.4c12.866-3.251,26.088-4.406,39.054-7.146
			c22.996-4.841,45.638-11.199,68.644-15.924c11.065-2.469,22.137-4.867,33.215-7.288c19.895-4.352,40.36-6.936,60.092-11.553
			c24.556-5.762,51.905-22.174,47.758-52.534C294.157,84.943,281.318,69.542,271.983,59.705z"/>
		<path style="fill:#F6D275;" d="M281.54,88.031c-6.572-1.983-19.862-1.602-24.078,4.964c-3.979,6.193-13.019,21.999-8.75,29.666
			c3.046,5.468-51.531,21.071-57.361,22.519c-19.474,4.892-39.43,7.304-58.897,12.153c-20.145,5.024-39.554,12.421-59.647,17.619
			c-17.828,4.64-35.63,10.348-52.802,16.974c-2.17,0.859-4.254,1.921-5.661,3.385c-0.613-1.629-1.114-3.637-1.481-6.172
			c1.389-6.548,7.701-12.788,11.878-17.273c1.458-1.592,2.574-3.723,3.617-5.951c2.251-3.442,3.988-7.637,5.689-11.688
			c0.511-0.984,1.11-1.919,1.554-2.933c1.046-2.391,2.092-4.63,3.187-6.849c6.968-11.774,15.482-22.566,23.242-33.8
			c15.98-23.046,33.519-48.387,45.192-74.127c1.756-3.865,1.865-3.303,1.707-7.145c-1.007-23.783,29.429-16.926,39.807-13.396
			c11.621,3.951,25.397,3.354,37.467,5.771c16.011,3.209,31.975,4.898,46.634,13.014c14.935,8.26,28.095,19.096,39.908,31.537
			c6.725,7.088,13.253,15.836,16.829,25.227C287.629,90.208,285.017,89.081,281.54,88.031z"/>
		<path style="fill:#F6D275;" d="M272.743,66.302C260.93,53.86,247.77,43.024,232.835,34.765
			c-14.659-8.115-30.623-9.805-46.634-13.014c-12.069-2.417-25.846-1.82-37.467-5.771c-10.378-3.53-40.814-10.388-39.807,13.396
			c0.158,3.842,0.049,3.279-1.707,7.145c-11.673,25.74-29.212,51.081-45.192,74.127c-7.76,11.233-16.275,22.025-23.242,33.8
			c-1.095,2.219-2.141,4.458-3.187,6.849c-0.443,1.014-1.043,1.948-1.554,2.933c-1.701,4.051-3.438,8.245-5.689,11.688
			c-1.043,2.229-2.159,4.359-3.617,5.951c-4.177,4.484-10.489,10.725-11.878,17.273c0.367,2.535,0.868,4.543,1.481,6.172
			c1.407-1.464,3.491-2.525,5.661-3.385c17.172-6.626,34.974-12.334,52.802-16.974c20.094-5.198,39.503-12.595,59.647-17.619
			c19.468-4.85,39.424-7.262,58.897-12.153c5.83-1.447,60.407-17.051,57.361-22.519c-4.269-7.667,4.771-23.473,8.75-29.666
			c4.216-6.565,17.506-6.947,24.078-4.964c3.477,1.05,6.089,2.177,8.032,3.498C285.996,82.138,279.468,73.39,272.743,66.302z
			 M247.838,73.313c-1.004,4.301-4.397,9.085-9.207,8.712c-5.115-0.414-9.204-6.08-12.483-9.522
			c-13.72-14.457-34.098-17.3-52.257-21.431c-10.878-2.468-21.814-4.898-32.622-7.709c-2.039-0.534-4.067-1.263-6.065-2.099
			c-5.79-1.35-11.813-3.615-15.367-7.774c-4.079-4.359-5.629-10.801-1.102-15.41c0.888-0.878,1.901-1.485,3.002-1.891
			c0.043-0.028,0.091-0.053,0.133-0.09c0.174-0.113,0.34-0.144,0.488-0.113c5.507-1.585,12.947,1.679,17.756,3.112
			c4.73,1.414,9.531,2.894,14.437,3.445c4.73,0.531,9.505,0.57,14.243,1.014c9.497,0.896,19.006,2.362,28.187,5.098
			c12.651,3.765,24.057,9.657,34.395,18.066C238.415,52.457,250.322,62.713,247.838,73.313z"/>
		<path style="fill:#F6D275;" d="M18.577,178.705c-2.619,3.21-4.938,6.77-5.716,10.434c0.367,2.535,0.868,4.543,1.481,6.172
			c1.407-1.464,3.491-2.525,5.661-3.385c0.136-0.038,0.269-0.106,0.405-0.156C17.13,188.358,17.54,183.063,18.577,178.705z"/>
		<path style="fill:#F6D275;" d="M159.82,149.994c-4.693,0.609-9.23,1.909-13.949,2.343c-9.724,0.906-19.536,0.01-29.248,0.925
			c-5.435,0.522-10.888,1.487-15.867,3.793c-4.925,2.254-9.573,5.013-14.246,7.743c-4.343,2.594-8.728,5.188-13.36,7.224
			c-4.428,1.929-9.071,3.221-13.672,4.666c-5.922,1.834-11.4,4.102-16.598,7.092c9.894-3.242,19.906-6.222,29.926-8.827
			c20.094-5.198,39.503-12.595,59.647-17.619c13.324-3.317,26.861-5.508,40.327-8.12
			C168.451,149.308,164.107,149.416,159.82,149.994z"/>
		<path style="fill:#F6D275;" d="M272.743,66.302c-9.917-10.455-20.804-19.733-32.868-27.351c3.791,3.196,7.444,6.548,10.939,10.026
			c5.763,5.735,22.42,19.977,12.776,28.812c-5.551,5.066-14.195,6.177-18.231,12.97c-1.122,1.853-2.59,5.848-4.631,6.935
			c-1.963,1.07-4.162,0.153-6.041-0.806c-8.448-4.266-14.366-12.16-22.263-17.308c-8.107-5.273-16.513-9.989-25.796-12.512
			c4.021,5.386,10.446,9.165,15.939,12.609c6.474,4.055,12.927,8.13,19.366,12.268c6.003,3.842,11.649,8.062,16.711,13.163
			c2.753,2.761,6.55,6.462,6.334,10.705c-0.264,4.979-6.54,4.939-9.97,4.504c-8.852-1.148-14.022,6.058-18.974,12.336
			c-2.146,2.711-4.393,5.216-6.877,7.358c17.706-5.459,41.597-13.676,39.553-17.351c-4.269-7.667,4.771-23.473,8.75-29.666
			c4.216-6.565,17.506-6.947,24.078-4.964c3.477,1.05,6.089,2.177,8.032,3.498C285.996,82.138,279.468,73.39,272.743,66.302z"/>
		<path style="fill:#A75028;" d="M218.452,83.732c-11.168-9.098-24.201-13.854-37.531-18.559
			c-22.6-7.997-52.135-10.782-67.76-31.618c-0.119-0.161-0.309,0.168-0.246,0.292c9.892,22.181,34.218,22.142,54.665,28.209
			c15.232,4.515,32.908,12.183,45.575,22.038c12.057,9.379,21.068,19.77,31.269,31.189c0.159,0.186,0.381-0.197,0.262-0.357
			C236.204,103.981,229.229,92.514,218.452,83.732z"/>
		<path style="fill:#F5D48A;" d="M241.382,111.86c-1.997-3.607-4.722-7.031-8.118-9.374c-5.32-3.664-11.498-5.149-17.617-6.678
			c-7.798-1.955-15.592-4.313-22.954-7.596c-3.077-1.37-2.249-7.089-3.96-9.788c-1.62-2.557-4.95-3.837-7.483-5.069
			c-7.976-3.93-16.712-4.806-25.108-7.267c-7.923-2.306-15.084-5.913-22.003-10.457c-3.227-2.118-6.414-4.563-9.933-6.132
			c-3.339-1.495-7.44-2.281-11.015-2.695c-6.959-0.844-14.611,1-19.723,5.894c-4.085,3.92-6.125,8.421-6.6,13.685
			c-0.85,1.876-1.53,3.815-2.041,5.729c-2.99,11.115-6.674,21.419-14.833,29.637c-6.972,7.024-13.853,13.844-19.915,21.727
			c-2.966,3.83-5.203,8.001-7.514,12.273c-2.69,4.937-3.813,10.021-5.617,15.334c-3.198,9.346-10.642,16.848-15.246,25.441
			c-1.104,2.064-0.007,7.312,0.839,9.297c1.399,3.289,3.606,4.531,7.059,4.126c3.591-0.394,6.924-3.287,9.528-5.571
			c4.238-3.714,8.005-7.6,12.976-10.369c5.028-2.815,11.028-3.704,16.47-5.409c5.018-1.564,9.992-3.511,14.945-5.295
			c9.526-3.424,16.274-11.161,25.144-15.711c5.01-2.583,9.624-1.514,14.885-0.413c5.525,1.174,10.88,1.235,16.482,0.945
			c10.705-0.514,20.567-4.986,31.329-4.534c5.053,0.203,9.977,1.253,15.065,1.233c4.892-0.028,10.149-0.801,14.681-2.622
			c3.501-1.407,5.966-4.571,7.951-7.687c3.16-4.918,6.404-8.901,11.695-11.554c4.845-2.41,9.594-0.262,14.606,0.151
			c2.482,0.21,7.412-0.471,8.723-3.045C245.489,117.289,242.68,114.184,241.382,111.86z"/>
		<g>
			<g>
				<path style="fill:#9D2C25;" d="M76.341,137.997c-10.608,0.084-27.31,4.589-34.999,14.241c-3.404,3.436-5.208,7.516-2.3,11.478
					c7.536,10.272,31.459,1.341,38.701-5.101C84.34,152.733,91.825,137.861,76.341,137.997z"/>
				<path style="fill:#CA3633;" d="M78.134,139.577c-3.023-0.395-6.022-0.307-8.997,0.241c-3.886,0.772-8.145,1.9-11.798,3.578
					c-6.021,2.787-13.441,6.538-17.406,12.431c-4.686,9.018,5.796,11.988,11.656,11.498c9.248-0.792,20.932-4.119,27.568-11.341
					C83.811,152,87.678,140.697,78.134,139.577z"/>
			</g>
			<path style="fill:#9D2C25;" d="M44.443,155.874c-0.536,0.851-0.885,1.9-0.045,2.711c0.265,0.241,0.578,0.262,0.903,0.205
				c1.362,0.028,3.113-1.582,3.273-2.614C48.975,153.561,45.305,154.419,44.443,155.874z"/>
			<path style="fill:#9D2C25;" d="M54.295,151.015c-0.362,0.241-0.58,0.599-0.319,1.148c0.681,1.389,2.079-0.345,2.146-1.156
				C56.242,149.646,54.68,150.09,54.295,151.015z"/>
			<path style="fill:#9D2C25;" d="M52.887,156.841c-0.419,1.07-0.494,2.961,1.089,3.076c0.376,0.04,0.741-0.106,1.1-0.299
				c0.752,0.019,1.558-0.155,2.001-0.375c1.369-0.658,2.391-2.007,2.068-3.636C58.528,152.532,53.575,155.046,52.887,156.841z"/>
			<path style="fill:#9D2C25;" d="M67.892,145.635c-0.097,0.049-0.197,0.075-0.284,0.105c-1.173,0.403-0.791,2.507,0.32,1.61
				c0.093-0.047,0.178-0.097,0.258-0.184C68.625,146.822,68.756,145.347,67.892,145.635z"/>
			<path style="fill:#9D2C25;" d="M73.678,150.736c-1.692-0.309-3.872-0.182-5.25,0.964c-1.182,0.993-1.76,2.922-0.507,3.954
				c1.571,1.977,5.396,0.403,6.703-1.157C75.561,153.387,75.3,151.036,73.678,150.736z"/>
			<path style="fill:#9D2C25;" d="M77.41,144.795c-1.324,0.425-1.73,3.492-0.089,2.961C78.645,147.32,79.057,144.257,77.41,144.795z
				"/>
			<path style="fill:#9D2C25;" d="M63.841,161.509c0.012-0.028,0.025-0.05,0.034-0.076c-0.043,0.008-0.087,0.02-0.126,0.026
				c-0.229,0.06-0.4,0.32-0.439,0.54c-0.018,0.048-0.029,0.107-0.041,0.167c-0.081,0.385,0.245,0.684,0.584,0.411
				c0.022-0.036,0.055-0.074,0.11-0.104C64.55,162.039,64.213,161.469,63.841,161.509z"/>
			<path style="fill:#9D2C25;" d="M61.069,142.925c-0.091-0.059-0.161-0.115-0.252-0.155c-0.766-0.492-1.688,0.29-2.116,0.849
				c-0.073,0.099-0.143,0.191-0.222,0.281c-0.714,0.924-0.759,2.978,0.525,3.201c0.814,0.502,2.601-0.79,2.768-2.074
				C61.893,144.185,61.85,143.396,61.069,142.925z"/>
		</g>
		<g>
			<path style="fill:#628D3E;" d="M92.951,91.476c1.434,1.443,2.971,2.775,4.683,3.89c1.747,1.132,3.596,2.452,5.55,3.304
				c0.026-0.008,0.059,0.004,0.088-0.008c0.213,0.171,0.569,0.296,0.694,0.016c2.465-5.884,9.002-9.103,14.216-11.824
				c2.581-1.354,4.066-1.525,4.22-3.086c-0.131-1.245-0.445-2.334-1.114-3.396c-0.116-0.184-0.171-0.345-0.208-0.519
				c-0.059-0.042-0.091-0.086-0.153-0.146c0.014-0.02,0.011-0.06-0.021-0.068c-0.196-0.106-0.42-0.25-0.638-0.391
				c-0.075-0.068-0.158-0.121-0.233-0.188c-1.724-1.271-3.932-3.549-6.019-3.081c-4.268,0.949-8.864,1.007-12.869,2.916
				c-0.972,0.465-7.445,4.188-9.023,6.978c0.03,0.15,0.047,0.302,0.034,0.489c-0.193,1.572,0.377,3.2,0.688,4.725
				C92.871,91.232,92.909,91.347,92.951,91.476z"/>
			<path style="fill:#A6C739;" d="M103.487,97.076c0.074-0.175-0.751-2.825-1.104-4.022c0.777-2.34,3.482-4.524,3.732-4.749
				c1.017-0.894,2.099-1.746,3.254-2.435c3.329-2.026,8.218-4.527,12.313-4.36c0.028,0.811,0.057,1.697-0.137,2.42
				c-0.229,0.84-4.18,2.209-5.034,2.558c-2.493,1.018-4.614,2.381-6.726,4.05C107.741,92.147,104.477,94.491,103.487,97.076z"/>
			<path style="fill:#57AE47;" d="M93.478,89.574c-0.072-0.252-0.155-0.514-0.221-0.763c2.054,1.6,5.939,4.325,8.087,4.484
				c0.232,1.369,0.534,2.954,1.137,4.193c-0.915-0.424-2.45-1.494-2.564-1.596c-0.979-0.859-2.07-1.562-3.087-2.376
				C95.329,92.322,94.004,91.597,93.478,89.574z"/>
			<path style="fill:#80BA42;" d="M92.74,87.312c-0.246-0.671,0.314-1.606,2.407-3.392c1.451-1.34,3.046-2.459,4.82-3.364
				c4.264-2.036,8.575-2.451,13.087-3.473c1.746-0.396,3.223,0.27,4.688,1.076c0.975,0.732,1.938,1.499,2.787,2.338
				c-0.058-0.038-0.119-0.029-0.244,0.011c-2.112,0.684-4.403,0.84-6.439,1.813c-4.439,2.154-10.005,4.956-12.147,9.741
				c-0.235-0.079-0.433,0-0.476,0.22c-1.342-0.049-5.262-2.594-5.768-2.96c-1.147-0.793-2.313-1.227-2.667-1.896
				C92.769,87.39,92.762,87.366,92.74,87.312z"/>
		</g>
		<g>
			<path style="fill:#628D3E;" d="M145.436,147.061c0.894,0.9,1.853,1.717,2.915,2.412c1.068,0.693,2.217,1.502,3.432,2.046
				c0.02-0.011,0.034,0,0.049-0.011c0.135,0.095,0.352,0.174,0.43,0c1.523-3.627,5.579-5.631,8.804-7.323
				c1.591-0.835,2.507-0.943,2.614-1.898c-0.079-0.753-0.275-1.434-0.694-2.102c-0.063-0.104-0.106-0.232-0.127-0.32
				c-0.038-0.026-0.06-0.057-0.097-0.085c0.006-0.012,0.006-0.04-0.018-0.048c-0.121-0.057-0.258-0.146-0.392-0.244
				c-0.038-0.036-0.097-0.075-0.14-0.125c-1.07-0.778-2.439-2.195-3.733-1.896c-2.631,0.588-5.486,0.614-7.955,1.804
				c-0.604,0.286-4.62,2.592-5.589,4.319c0.016,0.106,0.028,0.184,0.01,0.298c-0.11,0.985,0.244,1.989,0.438,2.935
				C145.388,146.907,145.412,146.985,145.436,147.061z"/>
			<path style="fill:#A6C739;" d="M151.975,150.524c0.034-0.097-0.475-1.747-0.689-2.479c0.483-1.447,2.15-2.808,2.306-2.951
				c0.626-0.552,1.302-1.072,2.02-1.516c2.056-1.253,5.082-2.795,7.619-2.698c0.018,0.51,0.039,1.048-0.078,1.514
				c-0.145,0.52-2.593,1.358-3.125,1.57c-1.538,0.628-2.85,1.485-4.162,2.52C154.608,147.478,152.583,148.933,151.975,150.524z"/>
			<path style="fill:#57AE47;" d="M145.767,145.885c-0.042-0.175-0.093-0.328-0.132-0.481c1.268,0.992,3.668,2.671,5.005,2.787
				c0.136,0.849,0.336,1.832,0.703,2.603c-0.567-0.288-1.515-0.945-1.591-1.002c-0.607-0.53-1.282-0.965-1.909-1.476
				C146.92,147.584,146.091,147.129,145.767,145.885z"/>
			<path style="fill:#80BA42;" d="M145.316,144.479c-0.159-0.417,0.184-0.994,1.489-2.084c0.894-0.837,1.891-1.536,2.982-2.094
				c2.635-1.265,5.308-1.514,8.105-2.141c1.085-0.26,1.992,0.163,2.898,0.646c0.608,0.464,1.209,0.934,1.73,1.445
				c-0.034,0-0.072,0-0.148,0.018c-1.308,0.435-2.735,0.514-3.999,1.12c-2.748,1.341-6.189,3.067-7.519,6.026
				c-0.146-0.049-0.268-0.008-0.286,0.155c-0.836-0.038-3.261-1.61-3.579-1.841c-0.708-0.493-1.436-0.771-1.645-1.189
				C145.331,144.524,145.319,144.505,145.316,144.479z"/>
		</g>
		<g>
			<path style="fill:#628D3E;" d="M103.781,147.157c-0.388-0.782-0.693-1.707-1.324-2.334c-0.073-0.066-0.105-0.134-0.155-0.23
				c-1.659-0.687-5.824-0.076-6.409,0.039c-2.438,0.548-4.493,2.112-6.701,3.184c-1.089,0.509-1.284,2.294-1.609,3.441
				c-0.012,0.059-0.036,0.109-0.038,0.174c-0.045,0.137-0.093,0.27-0.146,0.377c-0.006,0.026,0,0.05,0.015,0.057
				c0,0.048-0.01,0.076-0.021,0.125c0.038,0.078,0.084,0.175,0.097,0.292c0.067,0.713,0.306,1.302,0.671,1.898
				c0.612,0.617,1.326,0.184,2.942-0.097c3.238-0.617,7.255-1.465,10.388,0.298c0.132,0.079,0.265-0.086,0.297-0.25
				c0.014-0.01,0.029-0.018,0.044-0.029c0.563-1.051,0.935-2.268,1.312-3.376c0.371-1.108,0.595-2.216,0.733-3.364
				C103.855,147.311,103.826,147.226,103.781,147.157z"/>
			<path style="fill:#A6C739;" d="M96.092,152.79c-1.51,0-2.933,0.125-4.384,0.55c-0.496,0.125-2.719,0.905-3.109,0.605
				c-0.332-0.248-0.627-0.653-0.892-1.03c1.751-1.485,4.777-2.082,6.952-2.344c0.757-0.087,1.529-0.075,2.281-0.04
				c0.197,0.012,2.146,0.031,3.299,0.813c0.259,0.635,0.813,2.11,0.907,2.159C99.819,152.714,97.546,152.8,96.092,152.79z"/>
			<path style="fill:#57AE47;" d="M102.861,149.626c-0.169,0.705-0.408,1.398-0.54,2.11c-0.019,0.089-0.338,1.092-0.593,1.604
				c-0.159-0.76-0.574-1.569-0.945-2.257c0.897-0.81,1.684-3.364,2.029-4.783c0.058,0.145,0.107,0.27,0.18,0.414
				C103.448,147.794,103.106,148.576,102.861,149.626z"/>
			<path style="fill:#80BA42;" d="M102.552,145.528c0.08,0.424-0.293,1.002-0.528,1.764c-0.097,0.328-0.96,2.808-1.538,3.311
				c-0.087-0.099-0.205-0.049-0.285,0.036c-2.608-1.36-6.033-0.665-8.744-0.068c-1.243,0.27-2.313,0.983-3.484,1.417
				c-0.064,0.03-0.097,0.05-0.115,0.078c0.091-0.653,0.248-1.342,0.428-1.995c0.375-0.869,0.792-1.679,1.707-2.094
				c2.354-1.129,4.409-2.431,6.997-3.018c1.096-0.203,2.188-0.262,3.3-0.175c1.546,0.066,2.116,0.281,2.235,0.656
				C102.539,145.488,102.545,145.498,102.552,145.528z"/>
		</g>
		<g>
			<path style="fill:#628D3E;" d="M140.961,66.312c-0.386-0.778-0.694-1.693-1.326-2.334c-0.072-0.068-0.115-0.146-0.16-0.236
				c-1.664-0.676-5.814-0.073-6.407,0.053c-2.44,0.53-4.49,2.113-6.703,3.17c-1.095,0.516-1.282,2.297-1.602,3.456
				c-0.018,0.037-0.027,0.102-0.052,0.163c-0.045,0.141-0.088,0.272-0.129,0.393c-0.012,0.013,0,0.032,0.008,0.032
				c-0.004,0.058-0.008,0.086-0.02,0.135c0.039,0.082,0.083,0.183,0.083,0.291c0.077,0.701,0.31,1.302,0.679,1.893
				c0.613,0.633,1.326,0.191,2.94-0.093c3.247-0.616,7.27-1.444,10.378,0.291c0.155,0.078,0.28-0.097,0.309-0.23
				c0.023-0.012,0.029-0.04,0.044-0.044c0.569-1.04,0.932-2.262,1.316-3.372c0.372-1.087,0.588-2.223,0.728-3.355
				C141.028,66.457,141,66.389,140.961,66.312z"/>
			<path style="fill:#A6C739;" d="M133.27,71.952c-1.516-0.019-2.94,0.107-4.389,0.531c-0.496,0.134-2.721,0.906-3.105,0.617
				c-0.342-0.252-0.632-0.656-0.906-1.034c1.756-1.483,4.787-2.083,6.964-2.342c0.756-0.086,1.527-0.078,2.289-0.038
				c0.188,0.01,2.137,0.049,3.288,0.805c0.268,0.659,0.816,2.126,0.907,2.175C136.987,71.865,134.722,71.952,133.27,71.952z"/>
			<path style="fill:#57AE47;" d="M140.035,68.78c-0.168,0.703-0.407,1.389-0.545,2.117c-0.01,0.091-0.328,1.079-0.578,1.605
				c-0.175-0.782-0.585-1.575-0.949-2.258c0.897-0.819,1.677-3.375,2.023-4.793c0.059,0.146,0.111,0.28,0.18,0.413
				C140.629,66.943,140.285,67.729,140.035,68.78z"/>
			<path style="fill:#80BA42;" d="M139.723,64.683c0.078,0.413-0.296,1.001-0.526,1.763c-0.097,0.338-0.957,2.816-1.538,3.316
				c-0.092-0.103-0.199-0.054-0.289,0.047c-2.605-1.365-6.032-0.68-8.738-0.083c-1.249,0.259-2.315,0.984-3.482,1.418
				c-0.071,0.02-0.095,0.053-0.114,0.076c0.092-0.644,0.25-1.345,0.425-1.985c0.376-0.868,0.8-1.683,1.709-2.106
				c2.351-1.111,4.404-2.429,7.004-3.017c1.089-0.201,2.185-0.259,3.287-0.162c1.55,0.048,2.113,0.276,2.239,0.665
				C139.703,64.634,139.713,64.661,139.723,64.683z"/>
		</g>
		<g>
			<path style="fill:#B94E64;" d="M166.28,85.262c-0.032-0.129-0.101-0.193-0.178-0.222c-0.603-0.88-0.935-1.919-1.408-2.854
				c-0.603-1.217-1.518-2.306-2.184-3.473c-0.241-0.397-0.594-1.679-1.346-1.524c-0.893,0.163-1.75,0.473-2.603,0.818
				c-1.736,0.349-3.623,1.014-5.349,1.882c-1.099,0.416-2.16,0.888-3.221,1.511c-0.161,0.09-0.227,0.264-0.196,0.456
				c0.045,0.406,0.081,0.532,0.17,0.802c0.037,1.117,0.418,2.974,0.363,2.135c0.135,1.855,0.242,3.748,0.453,5.6
				c0.004,0.011,0.038,0,0.047,0.023c-0.014,0.074-0.017,0.131,0.012,0.197c0.251,0.474,0.534,0.894,0.858,1.292
				c0.284,0.507,0.684,1.038,1.167,1.834c0.137,0.246,0.392,1.205,0.768,1.263c1.377,0.223,3.29-0.949,4.584-1.39
				c2.937-0.99,6.251-1.773,8.835-3.548C168.378,89.157,166.608,86.322,166.28,85.262z"/>
			<path style="fill:#C6657D;" d="M164.488,90.585c-1.993,0.907-4.167,1.543-6.25,2.22c-1.029,0.336-2.045,0.701-3.075,1.049
				c-1.486,0.541-1.521-0.336-2.133-1.271c-0.496-0.754-0.902-1.294-1.199-1.9c-0.036-0.053-0.068-0.145-0.097-0.192
				c1.907-0.34,4.025-1.502,5.795-2.075c2.658-0.878,5.651-1.127,8.124-2.528c0.33,0.924,0.633,1.84,0.941,2.783
				C167.01,89.948,165.24,90.253,164.488,90.585z"/>
			<path style="fill:#D38B8F;" d="M164.926,85.647c-1.286,0.434-2.631,0.782-3.938,1.146c-2.344,0.639-4.668,1.208-6.968,1.959
				c-2.017,0.656-2.339,1.052-2.606-1.282c-0.135-1.158-0.91-3.049-0.813-4.437c0.028-0.073,0.051-0.145,0.028-0.211
				c-0.006-0.025,0-0.03-0.006-0.059c0.096-0.527,0.333-0.965,0.845-1.227c0.936-0.442,1.86-0.965,2.769-1.484
				c0.392-0.093,0.756-0.183,1.026-0.287c0.804-0.263,5.468-2.399,6.099-1.9c0.604,0.494,1.255,2.168,1.741,2.89
				c0.759,1.141,1.457,2.23,1.963,3.519C165.512,85.396,166.089,85.27,164.926,85.647z"/>
			<path style="opacity:0.5;fill:#D38B8F;" d="M151.872,85.184c0.246,0.927,0.898,1.282,1.699,1.289
				c0.766,0.326,1.985,0.187,2.84-0.218c1.896-0.935,3.351-3.303,2.652-4.664C157.414,78.263,151.159,82.389,151.872,85.184z"/>
		</g>
		<g>
			<path style="fill:#B94E64;" d="M124.485,142.703c-0.028-0.117-0.097-0.164-0.151-0.184c-0.481-0.695-0.747-1.542-1.123-2.306
				c-0.487-0.964-1.206-1.814-1.746-2.747c-0.192-0.329-0.477-1.351-1.074-1.237c-0.71,0.155-1.397,0.406-2.08,0.658
				c-1.393,0.287-2.902,0.811-4.277,1.512c-0.887,0.32-1.743,0.704-2.579,1.206c-0.13,0.078-0.179,0.213-0.164,0.366
				c0.038,0.329,0.061,0.426,0.136,0.629c0.044,0.907,0.347,2.4,0.294,1.707c0.104,1.502,0.198,3.018,0.363,4.473
				c0.008,0.02,0.033,0.03,0.038,0.042c-0.005,0.055-0.016,0.105,0.008,0.151c0.203,0.377,0.423,0.724,0.695,1.042
				c0.222,0.405,0.544,0.828,0.921,1.457c0.127,0.193,0.313,0.963,0.617,1.012c1.1,0.174,2.638-0.762,3.67-1.116
				c2.358-0.792,4.995-1.419,7.068-2.838C126.158,145.818,124.735,143.531,124.485,142.703z"/>
			<path style="fill:#C6657D;" d="M123.042,146.957c-1.582,0.724-3.325,1.222-4.99,1.766c-0.824,0.267-1.646,0.557-2.464,0.847
				c-1.188,0.434-1.22-0.272-1.708-1.023c-0.405-0.605-0.719-1.022-0.97-1.514c-0.014-0.038-0.048-0.113-0.065-0.155
				c1.527-0.27,3.22-1.193,4.637-1.657c2.133-0.703,4.523-0.915,6.492-2.025c0.269,0.733,0.512,1.474,0.757,2.229
				C125.063,146.445,123.648,146.688,123.042,146.957z"/>
			<path style="fill:#D38B8F;" d="M123.4,142.991c-1.026,0.366-2.104,0.637-3.16,0.925c-1.861,0.523-3.723,0.976-5.568,1.572
				c-1.607,0.523-1.866,0.851-2.088-1.02c-0.107-0.946-0.729-2.45-0.653-3.561c0.029-0.055,0.046-0.105,0.029-0.161
				c-0.003-0.02,0-0.02-0.003-0.049c0.077-0.415,0.265-0.773,0.685-0.978c0.738-0.373,1.476-0.788,2.208-1.183
				c0.313-0.077,0.603-0.145,0.826-0.222c0.643-0.204,4.372-1.931,4.872-1.534c0.481,0.394,1.015,1.735,1.39,2.315
				c0.604,0.903,1.172,1.773,1.568,2.814C123.858,142.798,124.324,142.692,123.4,142.991z"/>
			<path style="opacity:0.5;fill:#D38B8F;" d="M112.968,142.636c0.189,0.742,0.705,1.032,1.342,1.02
				c0.621,0.271,1.59,0.165,2.281-0.163c1.504-0.762,2.677-2.641,2.116-3.741C117.385,137.1,112.377,140.407,112.968,142.636z"/>
		</g>
		<g>
			<path style="fill:#B94E64;" d="M121.171,54.762c-0.033-0.106-0.092-0.139-0.15-0.168c-0.473-0.699-0.735-1.543-1.127-2.314
				c-0.479-0.964-1.211-1.818-1.747-2.75c-0.181-0.309-0.472-1.338-1.069-1.229c-0.71,0.153-1.397,0.405-2.079,0.665
				c-1.388,0.278-2.897,0.814-4.281,1.511c-0.882,0.317-1.74,0.698-2.579,1.204c-0.129,0.068-0.185,0.212-0.165,0.36
				c0.053,0.329,0.077,0.43,0.155,0.634c0.024,0.902,0.331,2.39,0.278,1.706c0.111,1.486,0.203,3.014,0.366,4.48
				c0.011,0.019,0.024,0.024,0.029,0.034c0,0.047-0.005,0.104,0.01,0.145c0.213,0.386,0.436,0.721,0.691,1.041
				c0.235,0.41,0.542,0.828,0.934,1.457c0.112,0.201,0.319,0.974,0.623,1.021c1.089,0.169,2.628-0.771,3.665-1.107
				c2.35-0.791,4.995-1.431,7.064-2.857C122.845,57.882,121.428,55.625,121.171,54.762z"/>
			<path style="fill:#C6657D;" d="M119.735,59.04c-1.592,0.694-3.338,1.216-4.997,1.755c-0.83,0.268-1.639,0.559-2.469,0.848
				c-1.191,0.424-1.21-0.275-1.701-1.037c-0.396-0.584-0.729-1.011-0.966-1.504c-0.019-0.044-0.048-0.109-0.071-0.149
				c1.528-0.27,3.22-1.195,4.642-1.66c2.124-0.711,4.517-0.909,6.493-2.024c0.263,0.754,0.505,1.472,0.752,2.22
				C121.75,58.515,120.336,58.749,119.735,59.04z"/>
			<path style="fill:#D38B8F;" d="M120.09,55.076c-1.036,0.347-2.11,0.625-3.167,0.916c-1.856,0.502-3.714,0.973-5.561,1.572
				c-1.611,0.52-1.866,0.844-2.087-1.024c-0.111-0.929-0.729-2.443-0.651-3.558c0.022-0.066,0.032-0.115,0.02-0.163
				c-0.004-0.019,0.003-0.04,0-0.049c0.077-0.425,0.269-0.771,0.676-0.979c0.743-0.375,1.495-0.767,2.221-1.19
				c0.301-0.078,0.595-0.145,0.82-0.223c0.647-0.206,4.37-1.928,4.871-1.521c0.486,0.384,1.008,1.735,1.393,2.309
				c0.609,0.921,1.172,1.78,1.573,2.821C120.548,54.863,121.017,54.762,120.09,55.076z"/>
			<path style="opacity:0.5;fill:#D38B8F;" d="M109.651,54.708c0.192,0.726,0.714,1.033,1.345,1.024
				c0.621,0.26,1.597,0.158,2.281-0.174c1.516-0.748,2.677-2.638,2.122-3.743C114.078,49.173,109.067,52.471,109.651,54.708z"/>
		</g>
		<g>
			<path style="fill:#B94E64;" d="M88.999,118.332c-0.035-0.145-0.106-0.186-0.185-0.229c-0.597-0.871-0.93-1.922-1.407-2.867
				c-0.597-1.206-1.504-2.284-2.18-3.448c-0.241-0.408-0.598-1.692-1.346-1.556c-0.887,0.191-1.746,0.501-2.6,0.835
				c-1.741,0.35-3.626,1.017-5.348,1.89c-1.104,0.409-2.17,0.892-3.225,1.504c-0.165,0.092-0.227,0.266-0.197,0.458
				c0.047,0.406,0.077,0.529,0.178,0.801c0.028,1.119,0.413,2.98,0.356,2.14c0.131,1.86,0.247,3.751,0.458,5.585
				c0.005,0.019,0.034,0.009,0.039,0.038c-0.012,0.057-0.014,0.137,0.019,0.203c0.252,0.461,0.53,0.879,0.857,1.282
				c0.281,0.512,0.676,1.047,1.164,1.842c0.138,0.23,0.385,1.197,0.78,1.264c1.365,0.224,3.284-0.961,4.573-1.395
				c2.938-0.997,6.246-1.77,8.836-3.555C91.097,122.233,89.315,119.387,88.999,118.332z"/>
			<path style="fill:#C6657D;" d="M87.189,123.656c-1.972,0.907-4.155,1.519-6.231,2.203c-1.028,0.331-2.062,0.699-3.078,1.064
				c-1.491,0.532-1.519-0.356-2.139-1.291c-0.496-0.729-0.896-1.274-1.204-1.892c-0.034-0.057-0.058-0.135-0.09-0.191
				c1.914-0.333,4.029-1.496,5.799-2.07c2.652-0.888,5.647-1.133,8.116-2.525c0.333,0.926,0.645,1.856,0.943,2.782
				C89.721,123.01,87.957,123.308,87.189,123.656z"/>
			<path style="fill:#D38B8F;" d="M87.644,118.719c-1.292,0.432-2.629,0.769-3.945,1.146c-2.333,0.625-4.653,1.203-6.959,1.958
				c-2.018,0.657-2.348,1.041-2.622-1.293c-0.126-1.163-0.905-3.044-0.801-4.426c0.026-0.089,0.054-0.149,0.029-0.223
				c-0.003-0.024,0-0.029-0.003-0.054c0.091-0.514,0.331-0.969,0.856-1.218c0.917-0.454,1.848-0.971,2.764-1.497
				c0.378-0.097,0.752-0.162,1.022-0.258c0.805-0.282,5.464-2.421,6.094-1.925c0.608,0.497,1.26,2.175,1.737,2.879
				c0.756,1.141,1.461,2.238,1.968,3.537C88.221,118.464,88.801,118.342,87.644,118.719z"/>
			<path style="opacity:0.5;fill:#D38B8F;" d="M74.601,118.244c0.236,0.936,0.89,1.293,1.682,1.297
				c0.771,0.324,1.99,0.184,2.844-0.223c1.891-0.928,3.348-3.311,2.663-4.672C80.121,111.334,73.872,115.452,74.601,118.244z"/>
		</g>
		<path style="fill:#F28F2B;" d="M292.321,107.217c-0.194,3.794-1.017,7.624-2.72,11.399c-8.45,18.762-22.887,24.076-41.161,28.937
			c-14.161,3.779-29.636,4.465-44.078,7.629c-17.847,3.905-35.72,7.725-53.549,11.736c-30.784,6.973-61.261,15.073-92.072,21.922
			c-12.85,2.855-25.5,6.27-37.995,10.388c-2.193,0.993-3.955,0.395-5.313-1.681c7.252-7.483,23.319-10.145,32.237-13.2
			c15.11-5.143,30.575-8.884,45.808-13.628c14.467-4.513,28.624-9.433,43.429-12.847c14.567-3.355,29.567-4.571,44.284-7.222
			c14.679-2.654,29.297-5.837,43.432-10.603c8.878-2.987,20.738-6.587,27.593-13.127c0.633-0.586,1.044-1.348,1.365-2.148
			c-3.63-6.529-0.93-17.716,2.116-23.039c3.609-6.26,9.376-9.201,15.644-9.886c2.04-0.54,4.178-0.907,6.486-1.018
			C288.184,90.276,291.363,98.822,292.321,107.217z"/>
		<path style="opacity:0.6;fill:#A86828;" d="M277.826,90.831c-2.309,0.11-4.446,0.478-6.486,1.018
			c-6.268,0.685-12.034,3.626-15.644,9.886c-3.046,5.323-5.746,16.51-2.116,23.039c-0.321,0.801-0.732,1.563-1.365,2.148
			c-6.855,6.54-18.715,10.14-27.593,13.127c-14.135,4.766-28.753,7.948-43.432,10.603c-14.717,2.65-29.717,3.866-44.284,7.222
			c-14.805,3.414-28.962,8.334-43.429,12.847c-15.232,4.744-30.697,8.485-45.808,13.628c-8.189,2.794-22.357,5.283-30.241,11.444
			c4.254-0.298,8.429-1.889,12.319-3.489c4.935-2.035,9.78-4.079,14.883-5.649c12.46-3.839,25.085-7.283,37.708-10.524
			c26.208-6.691,52.931-11.341,79.043-18.421c10.781-2.923,21.54-5.948,32.396-8.612c10.127-2.489,20.332-4.001,30.62-5.67
			c10.164-1.66,20.919-3.732,30.081-8.669c4.301-2.316,7.743-5.874,7.306-11.266c-0.256-3.076-1.522-5.885-1.94-8.935
			c-0.809-6.052,4.746-10.666,10.372-11.081c7.042-0.527,13.993,3.196,17.352,9.659c1.095,2.087,1.568,4.234,1.601,6.391
			c0.146-0.297,0.288-0.605,0.433-0.909c1.703-3.775,2.525-7.605,2.72-11.399C291.363,98.822,288.184,90.276,277.826,90.831z"/>
		<g>
			<g>
				<path style="fill:#9D2C25;" d="M210.677,89.169c-12.409,0.109-31.959,5.375-40.952,16.653
					c-3.993,4.032-6.106,8.807-2.699,13.434c8.818,12.036,36.819,1.578,45.298-5.945C220.049,106.414,228.81,88.999,210.677,89.169z
					"/>
				<path style="fill:#CA3633;" d="M212.781,91.018c-3.544-0.471-7.061-0.373-10.537,0.291c-4.547,0.888-9.537,2.197-13.796,4.172
					c-7.059,3.263-15.739,7.667-20.378,14.558c-5.48,10.55,6.779,14.042,13.641,13.463c10.829-0.928,24.499-4.828,32.267-13.299
					C219.416,105.567,223.958,92.326,212.781,91.018z"/>
			</g>
			<path style="fill:#9D2C25;" d="M173.342,110.082c-0.618,1.021-1.027,2.241-0.058,3.181c0.326,0.305,0.685,0.31,1.07,0.242
				c1.6,0.042,3.64-1.846,3.835-3.052C178.65,107.38,174.35,108.379,173.342,110.082z"/>
			<path style="fill:#9D2C25;" d="M184.875,104.388c-0.418,0.291-0.665,0.721-0.365,1.357c0.786,1.612,2.419-0.415,2.506-1.349
				C187.162,102.803,185.324,103.335,184.875,104.388z"/>
			<path style="fill:#9D2C25;" d="M183.226,111.224c-0.476,1.263-0.578,3.462,1.274,3.607c0.443,0.038,0.883-0.125,1.292-0.343
				c0.881-0.005,1.81-0.198,2.346-0.454c1.607-0.75,2.787-2.346,2.417-4.257C189.833,106.19,184.032,109.123,183.226,111.224z"/>
			<path style="fill:#9D2C25;" d="M200.787,98.108c-0.104,0.038-0.21,0.075-0.329,0.114c-1.358,0.492-0.923,2.956,0.385,1.91
				c0.1-0.067,0.202-0.143,0.303-0.23C201.648,99.487,201.801,97.75,200.787,98.108z"/>
			<path style="fill:#9D2C25;" d="M207.566,104.077c-1.984-0.35-4.542-0.212-6.146,1.128c-1.385,1.157-2.072,3.416-0.603,4.602
				c1.857,2.352,6.326,0.502,7.858-1.33C209.771,107.183,209.474,104.445,207.566,104.077z"/>
			<path style="fill:#9D2C25;" d="M211.933,97.125c-1.538,0.496-2.021,4.092-0.087,3.467
				C213.384,100.096,213.867,96.488,211.933,97.125z"/>
			<path style="fill:#9D2C25;" d="M196.059,116.693c0.006-0.036,0.018-0.066,0.028-0.083c-0.04,0.015-0.089,0.017-0.14,0.017
				c-0.262,0.066-0.469,0.364-0.536,0.633c-0.004,0.068-0.02,0.127-0.025,0.184c-0.104,0.472,0.271,0.82,0.679,0.483
				c0.028-0.039,0.07-0.068,0.119-0.108C196.883,117.32,196.478,116.644,196.059,116.693z"/>
			<path style="fill:#9D2C25;" d="M192.804,94.925c-0.1-0.066-0.186-0.115-0.29-0.178c-0.887-0.561-1.97,0.336-2.478,0.998
				c-0.087,0.105-0.177,0.221-0.262,0.317c-0.828,1.11-0.883,3.497,0.612,3.747c0.956,0.598,3.042-0.921,3.255-2.406
				C193.771,96.416,193.725,95.495,192.804,94.925z"/>
		</g>
		<g>
			<path style="fill:#A69F8B;" d="M139.509,119.281c2.531-0.7,4.596-2.366,5.43-4.924c0.401-1.239,1.157-3.327,0.995-4.6
				c-0.151-1.281-1.139-3.95-1.969-4.968c-1.679-2.052-4.831-1.273-7.3-1.687c-5.044-0.84-10.154,0.008-14.805,2.021
				c-2.544,1.123-5.006,2.626-7.17,4.397c-3.265,2.676-6.92,5.405-4.813,10.766c1.663,4.226,7.75,1.861,11.152,2.702
				c1.198,1.901-0.354,1.484-0.962,3.104c0.03,0.097,0.686,2.027,0.695,2.133c0.345,3.511,10.487,0.588,12.396-0.039
				c1.004-0.318,1.957-0.693,2.89-1.09c0.278-0.163,0.48-0.338,0.706-0.521C136.9,123.733,136.282,120.17,139.509,119.281z"/>
			<path style="fill:#C4BBA3;" d="M138.912,117.435c2.531-0.693,4.595-2.364,5.424-4.937c0.401-1.231,1.163-3.303,0.999-4.58
				c-0.148-1.275-1.183-2.978-2.005-3.984c-1.685-2.063-4.794-2.258-7.263-2.671c-5.044-0.83-10.156,0.009-14.799,2.034
				c-2.552,1.106-5.011,2.611-7.181,4.386c-3.262,2.683-5.072,6.241-4.783,10.505c0.303,4.532,7.72,2.121,11.128,2.96
				c1.196,1.899,0.242,3.327-0.365,4.946c0.03,0.097,0.086,0.184,0.091,0.289c0.349,3.5,10.492,0.6,12.407-0.029
				c0.999-0.32,1.953-0.697,2.884-1.089c0.278-0.173,0.482-0.342,0.708-0.521C136.298,121.88,135.687,118.332,138.912,117.435z"/>
			<path style="fill:#D8DABF;" d="M140.189,103.943c-3.737-1.439-8.028-1.331-11.93-1.07c-2.556,0.153-5.179,0.762-7.525,1.762
				c-3.116,1.342-5.678,3.541-7.881,6.115c-1.379,1.594-2.661,3.666-2.237,5.901c0.434,2.306,3.13,3.764,5.314,3.75
				c1.364-0.018,2.704-0.199,4.065-0.334c0.387-0.028,0.671,0.078,0.941,0.184c1.475,0.964,1.827,2.315,1.294,4.647
				c-0.636,2.776-2.446,2.441,3.41,1.39c1.789-0.347,3.604-0.675,5.391-0.944c6.305-0.902,3.706-2.567,4.563-6.232
				c0.4-1.743,1.178-1.862,2.686-2.304C143.72,115.197,146.882,106.527,140.189,103.943z"/>
			<path style="fill:#E8E2CE;" d="M116.073,112.356c0.927-3.044,4.278-4.423,6.622-6.411c-3.686,0.514-6.583,2.876-9.137,5.512
				c-2.923,2.992-0.914,8.298,3.606,7.407c0.307-0.045,0.856-0.254,1.367-0.526C116.651,116.909,115.35,114.694,116.073,112.356z"/>
			<path style="fill:#E8E2CE;" d="M121.85,118.61c-0.036,0.012-0.08,0.097-0.026,0.121c1.277,0.8,1.262,1.876,1.706,3.212
				c0.126,0.383,0.507,0.151,0.567-0.132C124.466,120.23,123.784,118.05,121.85,118.61z"/>
		</g>
		<g>
			<path style="fill:#B94E64;" d="M229.074,116.16c-0.033-0.104-0.085-0.145-0.144-0.173c-0.477-0.685-0.75-1.527-1.131-2.289
				c-0.485-0.966-1.211-1.833-1.749-2.765c-0.188-0.333-0.472-1.351-1.066-1.222c-0.709,0.127-1.407,0.391-2.088,0.653
				c-1.383,0.27-2.893,0.811-4.277,1.495c-0.885,0.345-1.735,0.723-2.579,1.216c-0.125,0.065-0.184,0.215-0.157,0.362
				c0.05,0.34,0.066,0.417,0.146,0.639c0.021,0.903,0.325,2.393,0.286,1.714c0.096,1.48,0.194,3.006,0.361,4.47
				c0.01,0.022,0.03,0.019,0.036,0.027c-0.006,0.059-0.019,0.118,0.008,0.156c0.202,0.37,0.43,0.721,0.689,1.04
				c0.226,0.407,0.546,0.842,0.939,1.465c0.103,0.191,0.311,0.957,0.608,1.004c1.093,0.188,2.633-0.752,3.664-1.108
				c2.349-0.799,4.996-1.417,7.07-2.842C230.742,119.281,229.33,117.012,229.074,116.16z"/>
			<path style="fill:#C6657D;" d="M227.625,120.424c-1.583,0.724-3.317,1.235-4.988,1.775c-0.818,0.27-1.639,0.56-2.463,0.848
				c-1.191,0.426-1.216-0.288-1.709-1.022c-0.396-0.603-0.712-1.031-0.962-1.521c-0.021-0.05-0.05-0.119-0.068-0.146
				c1.523-0.281,3.217-1.206,4.64-1.668c2.132-0.703,4.522-0.905,6.489-2.025c0.267,0.733,0.511,1.483,0.748,2.219
				C229.65,119.924,228.23,120.146,227.625,120.424z"/>
			<path style="fill:#D38B8F;" d="M227.985,116.48c-1.03,0.346-2.102,0.616-3.164,0.906c-1.856,0.516-3.717,0.979-5.555,1.575
				c-1.622,0.526-1.881,0.83-2.098-1.024c-0.102-0.926-0.726-2.45-0.648-3.55c0.036-0.059,0.04-0.103,0.021-0.163
				c-0.004-0.021,0.004-0.05,0.004-0.05c0.072-0.433,0.268-0.779,0.681-0.988c0.742-0.354,1.481-0.777,2.218-1.177
				c0.31-0.083,0.599-0.149,0.82-0.223c0.643-0.207,4.369-1.933,4.865-1.538c0.491,0.386,1.014,1.75,1.398,2.305
				c0.605,0.917,1.173,1.789,1.568,2.821C228.449,116.278,228.912,116.167,227.985,116.48z"/>
			<path style="opacity:0.5;fill:#D38B8F;" d="M217.55,116.108c0.193,0.729,0.715,1.032,1.352,1.032
				c0.615,0.256,1.589,0.148,2.273-0.184c1.514-0.737,2.673-2.648,2.123-3.738C221.972,110.578,216.971,113.862,217.55,116.108z"/>
		</g>
		<g>
			<g>
				<path style="fill:#F5D48A;" d="M145.461,115.997c-1.038,0.236-2.008,0.666-2.985,1.082c-2.156,0.942-4.229,1.927-5.919,3.606
					c-1.782,0.781-1.907,5.072,0.73,3.954c2.103-0.898,4.04-2.018,6.187-2.851c1.702-0.66,3.959-0.565,4.75-2.561
					C149.129,117.012,147.177,115.604,145.461,115.997z"/>
				<path style="fill:#F5D48A;" d="M158.321,106.612c-1.042-0.267-2.097-0.337-3.155-0.405c-2.367-0.17-4.652-0.239-6.894,0.465
					c-1.959-0.112-3.961,3.616-1.101,3.828c2.282,0.195,4.519,0.068,6.805,0.318c1.825,0.212,3.794,1.312,5.4-0.075
					C161.161,109.178,160.018,107.066,158.321,106.612z"/>
				<path style="fill:#F5D48A;" d="M150.768,129.114c-0.839-0.068-1.667,0.037-2.505,0.135c-1.856,0.221-3.633,0.501-5.282,1.396
					c-1.534,0.195-2.559,3.398-0.303,3.156c1.788-0.212,3.51-0.627,5.324-0.763c1.437-0.114,3.128,0.474,4.182-0.868
					C153.335,130.703,152.163,129.211,150.768,129.114z"/>
				<path style="fill:#F5D48A;" d="M163.49,115.901c-0.781,0.338-1.471,0.799-2.17,1.253c-1.548,1.028-3.01,2.103-4.101,3.635
					c-1.267,0.864-0.804,4.202,1.094,2.971c1.502-0.983,2.857-2.12,4.398-3.07c1.24-0.748,2.989-0.998,3.352-2.648
					C166.455,116.186,164.763,115.381,163.49,115.901z"/>
			</g>
			<g>
				<path style="fill:#F5D48A;" d="M180.29,121.774c-1.045,0.241-2.016,0.657-2.989,1.096c-2.167,0.918-4.221,1.932-5.918,3.61
					c-1.789,0.782-1.908,5.064,0.724,3.936c2.106-0.887,4.041-2.006,6.188-2.834c1.707-0.682,3.959-0.579,4.761-2.577
					C183.949,122.786,182.007,121.409,180.29,121.774z"/>
				<path style="fill:#F5D48A;" d="M193.145,112.391c-1.046-0.271-2.103-0.339-3.162-0.416c-2.353-0.143-4.648-0.219-6.89,0.482
					c-1.953-0.104-3.95,3.607-1.098,3.835c2.269,0.182,4.512,0.063,6.798,0.322c1.826,0.188,3.803,1.301,5.415-0.091
					C195.982,114.966,194.846,112.846,193.145,112.391z"/>
				<path style="fill:#F5D48A;" d="M185.599,134.891c-0.851-0.059-1.677,0.038-2.518,0.145c-1.847,0.221-3.63,0.503-5.274,1.39
					c-1.532,0.191-2.558,3.404-0.313,3.152c1.8-0.192,3.515-0.627,5.327-0.761c1.442-0.118,3.134,0.472,4.182-0.868
					C188.17,136.491,186.983,134.988,185.599,134.891z"/>
				<path style="fill:#F5D48A;" d="M198.316,121.689c-0.786,0.326-1.477,0.791-2.174,1.246c-1.546,1.039-3.004,2.105-4.092,3.642
					c-1.275,0.862-0.811,4.206,1.088,2.971c1.502-0.985,2.849-2.131,4.404-3.077c1.231-0.752,2.98-0.992,3.336-2.661
					C201.276,121.968,199.594,121.157,198.316,121.689z"/>
			</g>
			<g>
				<path style="fill:#F5D48A;" d="M161.314,86.646c-1.041,0.236-2.005,0.659-2.992,1.093c-2.157,0.928-4.213,1.929-5.907,3.59
					c-1.784,0.799-1.91,5.07,0.731,3.968c2.095-0.893,4.027-2.035,6.175-2.861c1.708-0.665,3.949-0.567,4.764-2.545
					C164.974,87.674,163.036,86.265,161.314,86.646z"/>
				<path style="fill:#F5D48A;" d="M189.833,79.658c-1.04-0.279-2.088-0.338-3.16-0.418c-2.351-0.166-4.638-0.227-6.89,0.482
					c-1.954-0.121-3.948,3.604-1.1,3.822c2.281,0.179,4.524,0.069,6.804,0.309c1.822,0.204,3.806,1.331,5.399-0.086
					C192.679,82.224,191.529,80.091,189.833,79.658z"/>
				<path style="fill:#F5D48A;" d="M181.281,98.459c-0.845-0.058-1.665,0.045-2.505,0.142c-1.852,0.222-3.635,0.51-5.281,1.378
					c-1.529,0.202-2.556,3.404-0.316,3.154c1.807-0.188,3.518-0.629,5.337-0.743c1.441-0.129,3.13,0.454,4.179-0.867
					C183.857,100.06,182.674,98.548,181.281,98.459z"/>
				<path style="fill:#F5D48A;" d="M204.546,81.829c-0.778,0.317-1.475,0.789-2.171,1.254c-1.554,1.021-3.013,2.077-4.094,3.626
					c-1.279,0.856-0.811,4.198,1.089,2.971c1.505-0.979,2.852-2.15,4.394-3.077c1.241-0.743,2.995-0.989,3.342-2.662
					C207.511,82.09,205.816,81.283,204.546,81.829z"/>
			</g>
			<g>
				<path style="fill:#F5D48A;" d="M198.571,99.747c-0.692,0.159-1.321,0.434-1.969,0.724c-1.402,0.606-2.753,1.254-3.869,2.353
					c-1.161,0.512-1.252,3.315,0.485,2.573c1.37-0.576,2.632-1.319,4.041-1.859c1.118-0.426,2.586-0.366,3.12-1.657
					C200.958,100.407,199.683,99.501,198.571,99.747z"/>
				<path style="fill:#F5D48A;" d="M217.154,92.157c-0.684-0.188-1.383-0.232-2.078-0.281c-1.533-0.096-3.031-0.148-4.504,0.32
					c-1.269-0.087-2.58,2.348-0.718,2.498c1.489,0.115,2.954,0.04,4.446,0.218c1.201,0.108,2.491,0.856,3.533-0.065
					C219.007,93.826,218.261,92.432,217.154,92.157z"/>
				<path style="fill:#F5D48A;" d="M212.213,106.864c-0.547-0.034-1.089,0.021-1.644,0.088c-1.209,0.155-2.368,0.325-3.45,0.905
					c-0.997,0.134-1.673,2.209-0.197,2.063c1.163-0.134,2.29-0.404,3.482-0.501c0.939-0.065,2.044,0.31,2.728-0.555
					C213.89,107.896,213.123,106.922,212.213,106.864z"/>
				<path style="fill:#F5D48A;" d="M220.536,98.233c-0.518,0.222-0.967,0.505-1.425,0.82c-1.026,0.666-1.976,1.354-2.675,2.362
					c-0.836,0.561-0.527,2.753,0.714,1.942c0.976-0.636,1.856-1.398,2.868-2.011c0.811-0.483,1.963-0.636,2.19-1.725
					C222.463,98.417,221.36,97.887,220.536,98.233z"/>
			</g>
		</g>
		<g>
			<g>
				<path style="fill:#F5D48A;" d="M73.607,153.089c-1.048,0.231-2.012,0.656-2.985,1.08c-2.172,0.936-4.234,1.929-5.923,3.598
					c-1.783,0.792-1.913,5.072,0.729,3.952c2.097-0.887,4.04-2.004,6.186-2.844c1.702-0.653,3.954-0.559,4.76-2.574
					C77.275,154.092,75.324,152.693,73.607,153.089z"/>
				<path style="fill:#F5D48A;" d="M86.452,143.706c-1.03-0.271-2.083-0.338-3.154-0.415c-2.348-0.175-4.634-0.243-6.894,0.472
					c-1.948-0.115-3.941,3.605-1.092,3.829c2.272,0.182,4.521,0.061,6.8,0.309c1.827,0.224,3.805,1.32,5.402-0.066
					C89.303,146.27,88.159,144.149,86.452,143.706z"/>
				<path style="fill:#F5D48A;" d="M78.915,166.207c-0.853-0.07-1.678,0.026-2.517,0.133c-1.848,0.224-3.641,0.502-5.271,1.391
					c-1.538,0.182-2.564,3.391-0.31,3.143c1.785-0.2,3.503-0.617,5.325-0.752c1.437-0.106,3.123,0.472,4.175-0.867
					C81.476,167.787,80.301,166.292,78.915,166.207z"/>
				<path style="fill:#F5D48A;" d="M91.636,152.993c-0.78,0.327-1.476,0.791-2.178,1.252c-1.555,1.022-3.01,2.104-4.082,3.638
					c-1.276,0.857-0.813,4.205,1.082,2.971c1.504-0.985,2.848-2.142,4.397-3.087c1.239-0.744,2.989-0.974,3.336-2.654
					C94.592,153.262,92.899,152.462,91.636,152.993z"/>
			</g>
			<g>
				<path style="fill:#F5D48A;" d="M108.431,158.867c-1.046,0.231-2.015,0.656-2.989,1.09c-2.161,0.943-4.234,1.917-5.917,3.607
					c-1.784,0.79-1.919,5.062,0.729,3.944c2.098-0.898,4.033-2.027,6.182-2.846c1.702-0.657,3.952-0.568,4.76-2.575
					C112.086,159.868,110.142,158.47,108.431,158.867z"/>
				<path style="fill:#F5D48A;" d="M121.287,149.484c-1.056-0.271-2.097-0.33-3.168-0.417c-2.349-0.155-4.639-0.231-6.89,0.483
					c-1.95-0.116-3.951,3.605-1.091,3.828c2.276,0.173,4.508,0.057,6.809,0.318c1.818,0.191,3.789,1.3,5.395-0.087
					C124.127,152.046,122.982,149.926,121.287,149.484z"/>
			</g>
			<g>
				<path style="fill:#F5D48A;" d="M89.458,123.723c-1.053,0.236-2.019,0.657-2.996,1.09c-2.151,0.94-4.215,1.94-5.913,3.607
					c-1.782,0.792-1.907,5.063,0.729,3.954c2.104-0.887,4.039-2.015,6.18-2.854c1.7-0.654,3.956-0.579,4.767-2.545
					C93.121,124.744,91.168,123.347,89.458,123.723z"/>
				<path style="fill:#F5D48A;" d="M117.974,116.741c-1.046-0.268-2.098-0.338-3.169-0.417c-2.34-0.164-4.633-0.225-6.882,0.484
					c-1.956-0.128-3.948,3.606-1.097,3.818c2.276,0.184,4.524,0.071,6.808,0.317c1.818,0.193,3.796,1.317,5.4-0.077
					C120.819,119.306,119.671,117.194,117.974,116.741z"/>
				<path style="fill:#F5D48A;" d="M109.43,135.558c-0.849-0.06-1.673,0.028-2.513,0.134c-1.847,0.211-3.637,0.512-5.28,1.38
					c-1.533,0.2-2.551,3.404-0.303,3.143c1.788-0.182,3.51-0.617,5.318-0.74c1.445-0.127,3.138,0.462,4.174-0.86
					C111.991,137.126,110.817,135.643,109.43,135.558z"/>
				<path style="fill:#F5D48A;" d="M132.687,118.91c-0.786,0.318-1.471,0.79-2.175,1.263c-1.543,1.022-3.008,2.085-4.09,3.629
					c-1.273,0.851-0.815,4.184,1.085,2.958c1.504-0.973,2.85-2.131,4.405-3.068c1.233-0.749,2.993-0.992,3.34-2.662
					C135.648,119.19,133.959,118.37,132.687,118.91z"/>
			</g>
			<g>
				<path style="fill:#F5D48A;" d="M126.706,136.84c-0.685,0.151-1.32,0.432-1.961,0.714c-1.41,0.616-2.759,1.263-3.869,2.354
					c-1.156,0.51-1.244,3.316,0.479,2.572c1.378-0.568,2.636-1.32,4.044-1.851c1.116-0.436,2.592-0.365,3.116-1.667
					C129.095,137.495,127.825,136.588,126.706,136.84z"/>
				<path style="fill:#F5D48A;" d="M145.286,129.239c-0.68-0.181-1.374-0.222-2.067-0.271c-1.535-0.104-3.034-0.153-4.5,0.31
					c-1.282-0.078-2.584,2.354-0.724,2.508c1.495,0.117,2.961,0.038,4.451,0.211c1.19,0.117,2.482,0.851,3.544-0.064
					C147.143,130.918,146.4,129.538,145.286,129.239z"/>
				<path style="fill:#F5D48A;" d="M140.352,143.948c-0.548-0.042-1.088,0.017-1.637,0.097c-1.216,0.135-2.378,0.335-3.448,0.903
					c-1.005,0.125-1.684,2.23-0.203,2.063c1.168-0.135,2.28-0.413,3.482-0.498c0.935-0.078,2.045,0.297,2.723-0.562
					C142.031,144.988,141.256,144.015,140.352,143.948z"/>
				<path style="fill:#F5D48A;" d="M148.677,135.324c-0.518,0.203-0.97,0.502-1.433,0.809c-1.002,0.687-1.969,1.362-2.675,2.376
					c-0.827,0.568-0.518,2.747,0.712,1.946c0.989-0.646,1.877-1.398,2.89-2.007c0.806-0.5,1.947-0.653,2.179-1.743
					C150.61,135.498,149.506,134.978,148.677,135.324z"/>
			</g>
		</g>
		<g>
			<g>
				<path style="fill:#F5D48A;" d="M89.133,87.808c-1.045,0.242-2.015,0.655-3,1.079c-2.159,0.936-4.214,1.935-5.907,3.606
					c-1.789,0.793-1.914,5.065,0.725,3.947c2.104-0.869,4.036-2.019,6.187-2.847c1.703-0.656,3.96-0.554,4.759-2.56
					C92.793,88.806,90.84,87.422,89.133,87.808z"/>
				<path style="fill:#F5D48A;" d="M101.983,78.413c-1.041-0.26-2.093-0.338-3.161-0.405c-2.356-0.164-4.646-0.229-6.888,0.482
					c-1.947-0.119-3.959,3.588-1.095,3.835c2.271,0.17,4.513,0.044,6.794,0.293c1.826,0.222,3.807,1.312,5.411-0.067
					C104.82,80.979,103.682,78.877,101.983,78.413z"/>
				<path style="fill:#F5D48A;" d="M94.435,100.909c-0.851-0.044-1.666,0.058-2.51,0.16c-1.85,0.226-3.629,0.497-5.285,1.379
					c-1.528,0.193-2.556,3.399-0.298,3.164c1.789-0.22,3.515-0.623,5.317-0.772c1.443-0.103,3.137,0.462,4.183-0.869
					C97.007,102.504,95.823,101.011,94.435,100.909z"/>
				<path style="fill:#F5D48A;" d="M107.158,87.711c-0.79,0.339-1.484,0.792-2.179,1.265c-1.545,1.022-3.01,2.087-4.09,3.619
					c-1.268,0.876-0.8,4.223,1.08,2.977c1.51-0.983,2.861-2.126,4.407-3.078c1.24-0.741,2.993-0.986,3.346-2.65
					C110.123,87.995,108.431,87.19,107.158,87.711z"/>
			</g>
			<g>
				<path style="fill:#F5D48A;" d="M123.949,93.584c-1.043,0.251-2.012,0.655-2.995,1.086c-2.16,0.936-4.208,1.934-5.901,3.602
					c-1.795,0.791-1.914,5.063,0.727,3.96c2.091-0.894,4.026-2.026,6.176-2.841c1.707-0.676,3.96-0.576,4.76-2.57
					C127.614,94.592,125.665,93.211,123.949,93.584z"/>
				<path style="fill:#F5D48A;" d="M136.814,84.204c-1.051-0.274-2.107-0.34-3.172-0.423c-2.351-0.149-4.645-0.208-6.882,0.496
					c-1.954-0.124-3.954,3.604-1.096,3.826c2.263,0.166,4.504,0.051,6.796,0.312c1.821,0.194,3.804,1.323,5.397-0.088
					C139.65,86.786,138.507,84.65,136.814,84.204z"/>
				<path style="fill:#F5D48A;" d="M129.263,106.702c-0.849-0.06-1.673,0.028-2.508,0.142c-1.856,0.214-3.641,0.514-5.279,1.381
					c-1.543,0.203-2.567,3.405-0.319,3.154c1.795-0.198,3.51-0.617,5.324-0.754c1.447-0.115,3.135,0.465,4.185-0.848
					C131.824,108.282,130.646,106.799,129.263,106.702z"/>
				<path style="fill:#F5D48A;" d="M141.973,93.497c-0.775,0.329-1.46,0.803-2.164,1.264c-1.552,1.022-3.015,2.086-4.093,3.622
					c-1.274,0.858-0.811,4.2,1.084,2.975c1.498-0.978,2.854-2.142,4.397-3.077c1.234-0.757,2.994-0.992,3.344-2.671
					C144.939,93.762,143.251,92.959,141.973,93.497z"/>
			</g>
			<g>
				<path style="fill:#F5D48A;" d="M104.982,58.457c-1.057,0.235-2.016,0.654-2.999,1.096c-2.159,0.934-4.217,1.917-5.906,3.584
					c-1.785,0.792-1.915,5.083,0.718,3.964c2.104-0.896,4.042-2.024,6.197-2.844c1.696-0.655,3.949-0.578,4.749-2.571
					C108.644,59.463,106.689,58.065,104.982,58.457z"/>
				<path style="fill:#F5D48A;" d="M133.497,51.459c-1.036-0.271-2.102-0.337-3.158-0.405c-2.354-0.176-4.645-0.24-6.896,0.473
					c-1.954-0.126-3.949,3.606-1.095,3.839c2.275,0.165,4.517,0.048,6.8,0.299c1.838,0.211,3.805,1.317,5.405-0.078
					C136.337,54.028,135.193,51.912,133.497,51.459z"/>
				<path style="fill:#F5D48A;" d="M124.957,70.27c-0.853-0.067-1.68,0.05-2.521,0.14c-1.843,0.223-3.626,0.507-5.28,1.38
					c-1.523,0.209-2.552,3.413-0.31,3.154c1.8-0.202,3.511-0.633,5.339-0.754c1.433-0.109,3.13,0.465,4.172-0.858
					C127.522,71.855,126.335,70.36,124.957,70.27z"/>
				<path style="fill:#F5D48A;" d="M148.205,53.63c-0.779,0.336-1.473,0.794-2.167,1.258c-1.553,1.028-3.014,2.098-4.093,3.621
					c-1.279,0.859-0.814,4.204,1.09,2.983c1.506-0.987,2.845-2.145,4.408-3.075c1.218-0.751,2.979-0.998,3.324-2.663
					C151.168,53.897,149.482,53.099,148.205,53.63z"/>
			</g>
			<g>
				<path style="fill:#F5D48A;" d="M142.23,71.553c-0.686,0.168-1.322,0.428-1.963,0.718c-1.404,0.617-2.76,1.259-3.872,2.353
					c-1.162,0.523-1.245,3.323,0.496,2.59c1.36-0.583,2.624-1.325,4.025-1.856c1.115-0.445,2.6-0.375,3.112-1.677
					C144.627,72.218,143.348,71.315,142.23,71.553z"/>
				<path style="fill:#F5D48A;" d="M160.807,63.965c-0.674-0.182-1.367-0.235-2.063-0.267c-1.542-0.117-3.037-0.156-4.504,0.298
					c-1.282-0.076-2.58,2.369-0.715,2.503c1.482,0.121,2.949,0.053,4.443,0.221c1.192,0.103,2.488,0.859,3.544-0.052
					C162.666,65.626,161.933,64.257,160.807,63.965z"/>
				<path style="fill:#F5D48A;" d="M155.88,78.674c-0.554-0.045-1.088,0.034-1.643,0.088c-1.213,0.146-2.368,0.328-3.459,0.903
					c-0.997,0.138-1.668,2.231-0.188,2.07c1.163-0.136,2.291-0.408,3.469-0.505c0.944-0.072,2.046,0.305,2.743-0.548
					C157.558,79.707,156.783,78.729,155.88,78.674z"/>
				<path style="fill:#F5D48A;" d="M164.194,70.045c-0.513,0.211-0.958,0.519-1.428,0.829c-1.013,0.654-1.96,1.35-2.674,2.353
					c-0.828,0.567-0.528,2.737,0.714,1.948c0.981-0.637,1.866-1.395,2.88-1.997c0.806-0.496,1.953-0.662,2.181-1.755
					C166.127,70.217,165.023,69.687,164.194,70.045z"/>
			</g>
		</g>
		<g>
			<g>
				<path style="fill:#F5D48A;" d="M33.685,166.948c-1.043,0.229-2.022,0.655-2.981,1.099c-2.165,0.936-4.232,1.931-5.926,3.588
					c-1.785,0.8-1.904,5.072,0.727,3.966c2.103-0.887,4.046-2.019,6.192-2.846c1.705-0.667,3.949-0.57,4.75-2.565
					C37.35,167.961,35.396,166.571,33.685,166.948z"/>
				<path style="fill:#F5D48A;" d="M46.535,157.573c-1.046-0.28-2.088-0.337-3.158-0.414c-2.354-0.165-4.637-0.231-6.89,0.482
					c-1.951-0.125-3.95,3.596-1.101,3.817c2.275,0.175,4.522,0.07,6.803,0.31c1.827,0.214,3.81,1.331,5.402-0.076
					C49.384,160.146,48.238,158.017,46.535,157.573z"/>
				<path style="fill:#F5D48A;" d="M38.998,180.075c-0.854-0.068-1.678,0.036-2.518,0.133c-1.85,0.231-3.641,0.502-5.286,1.398
					c-1.526,0.185-2.554,3.376-0.303,3.146c1.794-0.201,3.517-0.627,5.324-0.762c1.438-0.125,3.135,0.464,4.186-0.866
					C41.558,181.655,40.381,180.172,38.998,180.075z"/>
				<path style="fill:#F5D48A;" d="M51.709,166.87c-0.775,0.318-1.479,0.782-2.17,1.254c-1.553,1.024-3.018,2.082-4.084,3.619
					c-1.288,0.858-0.814,4.213,1.074,2.971c1.505-0.967,2.851-2.124,4.398-3.069c1.244-0.752,2.994-0.983,3.348-2.652
					C54.676,167.13,52.981,166.32,51.709,166.87z"/>
			</g>
			<g>
				<path style="fill:#F5D48A;" d="M49.535,137.602c-1.047,0.231-2.012,0.655-2.997,1.07c-2.159,0.934-4.213,1.947-5.905,3.626
					c-1.783,0.781-1.909,5.053,0.724,3.936c2.098-0.868,4.04-2.007,6.183-2.837c1.703-0.665,3.953-0.568,4.767-2.554
					C53.194,138.613,51.246,137.223,49.535,137.602z"/>
				<path style="fill:#F5D48A;" d="M78.056,130.618c-1.046-0.289-2.097-0.337-3.177-0.434c-2.337-0.146-4.629-0.212-6.871,0.49
					c-1.958-0.114-3.948,3.607-1.1,3.821c2.267,0.183,4.513,0.066,6.8,0.328c1.821,0.182,3.8,1.302,5.395-0.097
					C80.901,133.184,79.755,131.052,78.056,130.618z"/>
				<path style="fill:#F5D48A;" d="M69.506,149.404c-0.843-0.047-1.683,0.038-2.515,0.165c-1.848,0.201-3.643,0.483-5.271,1.37
					c-1.542,0.182-2.562,3.404-0.314,3.152c1.8-0.191,3.512-0.616,5.324-0.752c1.442-0.116,3.136,0.444,4.182-0.868
					C72.073,150.996,70.892,149.513,69.506,149.404z"/>
				<path style="fill:#F5D48A;" d="M92.765,132.769c-0.782,0.338-1.472,0.8-2.171,1.274c-1.543,1.02-3.012,2.073-4.094,3.627
					c-1.272,0.856-0.804,4.204,1.085,2.969c1.505-0.983,2.854-2.143,4.397-3.096c1.243-0.733,2.995-0.976,3.347-2.652
					C95.729,133.047,94.033,132.248,92.765,132.769z"/>
			</g>
			<g>
				<path style="fill:#F5D48A;" d="M67.062,117.175c-0.694,0.153-1.32,0.43-1.972,0.704c-1.402,0.626-2.748,1.269-3.855,2.364
					c-1.169,0.498-1.255,3.307,0.476,2.581c1.373-0.578,2.627-1.328,4.036-1.868c1.119-0.435,2.59-0.368,3.121-1.661
					C69.455,117.819,68.172,116.923,67.062,117.175z"/>
				<path style="fill:#F5D48A;" d="M84.995,107.452c-0.674-0.163-1.379-0.227-2.063-0.26c-1.544-0.117-3.033-0.163-4.515,0.3
					c-1.262-0.068-2.569,2.362-0.707,2.514c1.485,0.104,2.955,0.032,4.44,0.196c1.196,0.133,2.482,0.857,3.536-0.06
					C86.853,109.147,86.109,107.751,84.995,107.452z"/>
				<path style="fill:#F5D48A;" d="M98.956,121.386c-0.554-0.026-1.09,0.032-1.648,0.099c-1.206,0.164-2.379,0.327-3.449,0.918
					c-1.004,0.109-1.679,2.202-0.197,2.046c1.163-0.125,2.29-0.398,3.477-0.483c0.955-0.074,2.05,0.295,2.729-0.562
					C100.64,122.432,99.867,121.467,98.956,121.386z"/>
				<path style="fill:#F5D48A;" d="M102.62,108.39c-0.515,0.216-0.964,0.524-1.417,0.838c-1.013,0.661-1.969,1.36-2.672,2.371
					c-0.833,0.556-0.525,2.74,0.703,1.929c0.988-0.624,1.863-1.386,2.884-2.002c0.808-0.495,1.953-0.648,2.187-1.738
					C104.56,108.577,103.456,108.041,102.62,108.39z"/>
			</g>
		</g>
		<g>
			<path style="opacity:0.4;fill:#F5D48A;" d="M207.196,51.826c0.032-0.089,0.088-0.179,0.127-0.279
				c2.579-6.173-7.449-8.401-11.198-9.909c-2.946-1.203-6.153-1.425-4.143,2.857C193.223,47.149,204.699,56.468,207.196,51.826z"/>
			<path style="opacity:0.4;fill:#F5D48A;" d="M181.102,44.678c1.32-0.143,4.946-0.408,5.115-2.391
				c0.234-2.923-2.584-4.167-4.813-4.823c-8.431-2.497-17.315-3.789-25.964-5.14c-7.264-1.114-15.898-1.62-22.04-6.347
				c-2.657-2.042-5.405-4.503-8.58-5.659c-4.694-1.726-6.345,2.632-4.238,6.076c6.944,11.38,23.176,13.472,34.802,15.076
				c7.764,1.077,15.556,1.743,23.209,3.325C179.433,44.779,180.271,44.77,181.102,44.678z"/>
			<path style="fill:#E34C50;" d="M195.248,49.038c0,0,0,0,0.013,0.017C195.186,48.998,195.191,49.01,195.248,49.038z"/>
		</g>
		<path style="opacity:0.3;fill:#BA592C;" d="M161.672,117.313c-1.571,0.878-3.184,1.701-4.784,2.53
			c0.271-2.468,0.468-4.926,0.581-7.222c0-0.172-0.189-0.076-0.203,0.039c-0.209,2.444-0.537,4.957-0.923,7.464
			c-0.646,0.348-1.293,0.693-1.948,1.032c-0.239,0.135-0.51,0.293-0.776,0.464c0.218-2.729,0.363-5.468,0.301-8.208
			c0-0.165-0.183-0.068-0.189,0.048c-0.082,2.884-0.439,5.748-0.852,8.613c-0.894,0.572-1.861,1.233-2.857,1.832
			c-0.096-1.292-0.172-2.586-0.149-3.858c-0.01-0.184-0.193-0.097-0.198,0.038c-0.076,1.351-0.097,2.699-0.1,4.041
			c-1.521,0.893-3.077,1.578-4.451,1.557c-0.141-0.009-0.237,0.281-0.068,0.294c1.659,0.079,3.101-0.762,4.52-1.61
			c0,1.379,0.003,2.761-0.011,4.147c-1.386,1.1-2.783,2.199-4.297,3.107c-0.148,0.086-0.144,0.414,0.068,0.316
			c1.46-0.769,2.85-1.715,4.22-2.699c-0.01,0.608,0.014,1.224-0.021,1.841c-0.028,0.531-0.105,1.054-0.168,1.565
			c-1.684,1.193-3.361,2.381-5.04,3.537c-0.1,0.097-0.105,0.377,0.063,0.292c1.645-0.977,3.266-2.009,4.894-3.049
			c-0.39,2.874-1.02,5.678-0.582,8.611c0.059,0.367,0.474,0.059,0.474-0.191c0.029-2.992,0.489-5.931,0.83-8.896
			c0.543-0.347,1.098-0.722,1.643-1.089c-0.154,1.65-0.236,3.308-0.192,4.967c0.004,0.531,0.543,0.213,0.587-0.151
			c0.19-1.823,0.411-3.704,0.623-5.549c0.626-0.46,1.278-0.904,1.891-1.389c-0.105,0.514-0.189,1.032-0.314,1.516
			c-0.071,0.299,0.296,0.385,0.396,0.105c0.233-0.685,0.41-1.427,0.593-2.132c1.021-0.791,2.016-1.601,2.98-2.427
			c0.266-0.224,0.111-0.768-0.241-0.499c-0.786,0.628-1.612,1.201-2.415,1.8c0.303-1.293,0.574-2.61,0.794-3.956
			c0.43-0.326,0.854-0.673,1.292-0.981c0.267-0.192,0.29-0.918-0.136-0.675c-0.34,0.218-0.658,0.482-1.001,0.691
			c0.145-0.879,0.212-1.763,0.313-2.65c1.672-0.868,3.351-1.707,4.957-2.676C162.025,117.704,162.014,117.131,161.672,117.313z
			 M150.033,124.088c0.306-0.177,0.625-0.381,0.942-0.538c0.601-0.343,1.23-0.628,1.837-0.97c-0.181,1.27-0.352,2.489-0.516,3.742
			c-0.675,0.549-1.369,1.085-2.044,1.625C150.213,126.674,150.118,125.391,150.033,124.088z M151.737,130.965
			c-0.549,0.395-1.098,0.792-1.647,1.197c0.033-0.425,0.088-0.829,0.123-1.257c0.055-0.721,0.055-1.442,0.04-2.178
			c0.645-0.443,1.274-0.907,1.905-1.397C151.996,128.546,151.869,129.75,151.737,130.965z M154.782,128.689
			c-0.665,0.511-1.337,1.013-2.012,1.515c0.139-1.215,0.275-2.431,0.405-3.644c0.814-0.638,1.633-1.245,2.439-1.861
			C155.376,126.047,155.066,127.354,154.782,128.689z M155.799,123.675c-0.854,0.587-1.689,1.201-2.509,1.841
			c0.121-1.098,0.184-2.208,0.281-3.308c0.889-0.463,1.765-0.945,2.667-1.39C156.099,121.774,155.967,122.735,155.799,123.675z"/>
		<path style="opacity:0.3;fill:#BA592C;" d="M70.408,115.091c-1.57,0.873-3.172,1.718-4.782,2.538
			c0.265-2.468,0.462-4.926,0.567-7.239c0.016-0.158-0.177-0.072-0.197,0.054c-0.206,2.444-0.525,4.946-0.916,7.472
			c-0.641,0.349-1.296,0.673-1.941,1.029c-0.252,0.131-0.517,0.294-0.783,0.458c0.214-2.739,0.367-5.469,0.306-8.203
			c-0.017-0.177-0.193-0.079-0.197,0.034c-0.079,2.898-0.445,5.75-0.846,8.61c-0.892,0.58-1.866,1.241-2.869,1.825
			c-0.088-1.285-0.163-2.575-0.145-3.85c0-0.173-0.193-0.081-0.202,0.048c-0.073,1.361-0.082,2.711-0.097,4.06
			c-1.514,0.864-3.071,1.554-4.446,1.529c-0.135,0.005-0.226,0.299-0.071,0.295c1.668,0.086,3.109-0.754,4.518-1.592
			c0,1.369,0.019,2.76,0,4.128c-1.393,1.119-2.797,2.199-4.307,3.104c-0.14,0.107-0.135,0.436,0.063,0.318
			c1.472-0.762,2.863-1.705,4.233-2.679c-0.01,0.595,0.016,1.224-0.019,1.821c-0.029,0.55-0.11,1.059-0.163,1.583
			c-1.684,1.194-3.371,2.361-5.048,3.537c-0.103,0.089-0.112,0.356,0.069,0.271c1.646-0.954,3.262-1.985,4.887-3.027
			c-0.391,2.863-1.018,5.661-0.578,8.612c0.053,0.364,0.471,0.048,0.471-0.202c0.023-2.991,0.488-5.934,0.827-8.885
			c0.551-0.355,1.095-0.713,1.639-1.108c-0.149,1.67-0.228,3.31-0.193,4.969c0.004,0.538,0.554,0.21,0.599-0.137
			c0.179-1.842,0.403-3.713,0.617-5.555c0.632-0.452,1.271-0.905,1.896-1.397c-0.117,0.511-0.197,1.032-0.32,1.512
			c-0.07,0.311,0.3,0.389,0.381,0.117c0.252-0.677,0.42-1.419,0.618-2.132c1.008-0.8,2.008-1.593,2.971-2.43
			c0.261-0.223,0.102-0.771-0.237-0.496c-0.79,0.612-1.614,1.194-2.422,1.809c0.311-1.302,0.582-2.624,0.788-3.973
			c0.433-0.326,0.872-0.658,1.291-0.979c0.276-0.2,0.301-0.921-0.126-0.671c-0.335,0.22-0.653,0.471-0.997,0.705
			c0.131-0.895,0.208-1.785,0.31-2.674c1.683-0.847,3.352-1.701,4.96-2.675C70.766,115.496,70.746,114.907,70.408,115.091z
			 M58.764,121.871c0.31-0.174,0.622-0.387,0.949-0.545c0.598-0.343,1.228-0.641,1.837-0.955c-0.177,1.259-0.352,2.489-0.521,3.737
			c-0.67,0.548-1.358,1.086-2.032,1.63C58.957,124.466,58.851,123.164,58.764,121.871z M60.481,128.748
			c-0.562,0.395-1.102,0.79-1.659,1.185c0.032-0.414,0.09-0.827,0.129-1.231c0.058-0.735,0.048-1.449,0.038-2.182
			c0.643-0.469,1.279-0.91,1.912-1.399C60.727,126.317,60.605,127.542,60.481,128.748z M63.521,126.468
			c-0.672,0.506-1.337,1.017-2.013,1.508c0.134-1.216,0.271-2.42,0.404-3.636c0.811-0.636,1.63-1.252,2.44-1.876
			C64.11,123.83,63.798,125.15,63.521,126.468z M64.54,121.454c-0.853,0.597-1.701,1.192-2.518,1.835
			c0.117-1.104,0.199-2.191,0.271-3.318c0.897-0.445,1.789-0.924,2.687-1.368C64.834,119.547,64.699,120.503,64.54,121.454z"/>
		<path style="opacity:0.3;fill:#BA592C;" d="M190.097,54.256c-1.514-1.042-2.979-2.12-4.464-3.22
			c2.275-0.859,4.513-1.767,6.568-2.691c0.151-0.068-0.006-0.193-0.121-0.161c-2.243,0.903-4.587,1.714-6.949,2.495
			c-0.595-0.431-1.199-0.889-1.813-1.32c-0.231-0.167-0.506-0.32-0.777-0.495c2.489-1.029,4.947-2.106,7.302-3.384
			c0.144-0.071-0.021-0.202-0.135-0.155c-2.546,1.217-5.218,2.16-7.9,3.087c-0.924-0.574-1.947-1.157-2.939-1.804
			c1.079-0.665,2.165-1.312,3.298-1.841c0.141-0.089-0.028-0.219-0.135-0.174c-1.214,0.543-2.405,1.123-3.578,1.725
			c-1.48-0.996-2.806-2.11-3.448-3.354c-0.064-0.127-0.356-0.07-0.284,0.084c0.714,1.516,2.122,2.472,3.52,3.367
			c-1.195,0.609-2.393,1.243-3.598,1.832c-1.631-0.757-3.235-1.543-4.734-2.508c-0.144-0.102-0.449,0.063-0.256,0.199
			c1.364,0.978,2.84,1.828,4.339,2.646c-0.534,0.25-1.056,0.546-1.6,0.773c-0.485,0.22-0.975,0.384-1.455,0.559
			c-1.826-0.993-3.655-1.997-5.462-2.995c-0.12-0.044-0.37,0.072-0.211,0.168c1.616,1.062,3.265,2.094,4.953,3.094
			c-2.685,0.929-5.425,1.594-7.791,3.301c-0.281,0.224,0.192,0.468,0.403,0.347c2.624-1.301,5.396-2.191,8.136-3.201
			c0.57,0.338,1.148,0.679,1.732,1.011c-1.52,0.599-2.995,1.257-4.424,2.018c-0.468,0.251,0.078,0.616,0.421,0.482
			c1.684-0.655,3.414-1.288,5.121-1.913c0.695,0.369,1.391,0.746,2.099,1.103c-0.498,0.127-0.985,0.271-1.47,0.379
			c-0.306,0.075-0.186,0.451,0.083,0.413c0.714-0.085,1.445-0.269,2.162-0.401c1.15,0.564,2.33,1.123,3.501,1.606
			c0.318,0.136,0.728-0.242,0.333-0.425c-0.915-0.448-1.804-0.931-2.715-1.388c1.273-0.31,2.554-0.657,3.823-1.061
			c0.492,0.261,0.989,0.481,1.463,0.743c0.297,0.163,0.949-0.138,0.528-0.425c-0.341-0.211-0.718-0.396-1.07-0.584
			c0.835-0.27,1.641-0.619,2.463-0.911c1.528,1.147,3.05,2.277,4.666,3.318C189.909,54.744,190.409,54.468,190.097,54.256z
			 M178.699,46.704c0.309,0.202,0.625,0.397,0.938,0.616c0.572,0.397,1.122,0.827,1.685,1.246c-1.171,0.386-2.332,0.78-3.484,1.186
			c-0.801-0.366-1.599-0.762-2.393-1.123C176.539,48.024,177.617,47.359,178.699,46.704z M173.532,51.309
			c-0.619-0.321-1.224-0.649-1.83-0.969c0.381-0.145,0.771-0.275,1.152-0.423c0.649-0.28,1.277-0.599,1.908-0.937
			c0.7,0.371,1.399,0.742,2.123,1.104C175.742,50.477,174.643,50.898,173.532,51.309z M176.934,53.069
			c-0.758-0.392-1.514-0.771-2.257-1.167c1.118-0.403,2.235-0.83,3.361-1.243c0.936,0.441,1.857,0.925,2.779,1.388
			C179.514,52.414,178.23,52.723,176.934,53.069z M181.785,51.757c-0.911-0.516-1.832-1.007-2.789-1.454
			c1.018-0.386,2.019-0.82,3.024-1.234c0.824,0.617,1.645,1.223,2.449,1.826C183.577,51.175,182.688,51.487,181.785,51.757z"/>
		<path style="opacity:0.3;fill:#BA592C;" d="M261.406,68.074c-1.504-1.034-2.98-2.13-4.455-3.219
			c2.278-0.838,4.515-1.755,6.568-2.692c0.155-0.063-0.02-0.193-0.129-0.159c-2.236,0.912-4.577,1.723-6.951,2.493
			c-0.593-0.424-1.195-0.877-1.804-1.311c-0.235-0.159-0.506-0.328-0.778-0.502c2.497-1.018,4.952-2.112,7.309-3.365
			c0.135-0.097-0.03-0.214-0.14-0.165c-2.558,1.206-5.224,2.16-7.914,3.067c-0.925-0.555-1.947-1.139-2.933-1.784
			c1.084-0.666,2.165-1.301,3.304-1.852c0.137-0.077-0.022-0.198-0.138-0.158c-1.221,0.535-2.406,1.113-3.585,1.72
			c-1.48-0.998-2.806-2.096-3.433-3.357c-0.068-0.133-0.371-0.075-0.294,0.074c0.717,1.54,2.116,2.483,3.53,3.386
			c-1.207,0.603-2.406,1.229-3.609,1.826c-1.622-0.762-3.24-1.553-4.734-2.516c-0.149-0.087-0.443,0.057-0.256,0.2
			c1.366,0.98,2.842,1.828,4.34,2.636c-0.534,0.268-1.061,0.547-1.605,0.805c-0.481,0.207-0.97,0.366-1.457,0.554
			c-1.826-1.002-3.65-1.994-5.456-2.999c-0.113-0.066-0.369,0.059-0.208,0.178c1.618,1.063,3.271,2.082,4.958,3.073
			c-2.694,0.926-5.441,1.61-7.791,3.317c-0.297,0.202,0.181,0.434,0.393,0.342c2.62-1.325,5.399-2.205,8.143-3.207
			c0.57,0.323,1.135,0.675,1.719,0.989c-1.512,0.608-2.99,1.277-4.418,2.039c-0.463,0.252,0.081,0.587,0.42,0.474
			c1.677-0.648,3.418-1.285,5.125-1.922c0.693,0.377,1.395,0.763,2.1,1.12c-0.495,0.113-0.985,0.271-1.467,0.377
			c-0.303,0.077-0.193,0.445,0.093,0.404c0.703-0.086,1.425-0.239,2.145-0.404c1.163,0.574,2.325,1.118,3.511,1.62
			c0.32,0.134,0.733-0.243,0.32-0.443c-0.907-0.429-1.8-0.926-2.713-1.38c1.288-0.289,2.552-0.657,3.838-1.046
			c0.479,0.235,0.985,0.496,1.457,0.728c0.298,0.163,0.939-0.135,0.524-0.407c-0.352-0.219-0.718-0.393-1.07-0.615
			c0.822-0.27,1.636-0.588,2.465-0.896c1.523,1.158,3.058,2.286,4.659,3.317C261.223,68.568,261.734,68.308,261.406,68.074z
			 M250.013,60.534c0.313,0.2,0.631,0.394,0.931,0.606c0.578,0.398,1.135,0.841,1.697,1.256c-1.167,0.394-2.338,0.778-3.499,1.191
			c-0.792-0.373-1.588-0.759-2.38-1.12C247.852,61.851,248.937,61.188,250.013,60.534z M244.839,65.149
			c-0.608-0.321-1.21-0.646-1.818-0.971c0.377-0.148,0.754-0.299,1.139-0.457c0.655-0.255,1.292-0.575,1.921-0.907
			c0.705,0.372,1.399,0.737,2.11,1.095C247.066,64.297,245.955,64.706,244.839,65.149z M248.247,66.885
			c-0.756-0.379-1.508-0.762-2.252-1.141c1.117-0.423,2.231-0.843,3.354-1.253c0.939,0.449,1.848,0.925,2.781,1.374
			C250.837,66.254,249.541,66.541,248.247,66.885z M253.103,65.587c-0.915-0.511-1.839-1.018-2.792-1.465
			c1.018-0.376,2.022-0.802,3.023-1.229c0.818,0.625,1.645,1.215,2.455,1.816C254.9,64.999,254.011,65.318,253.103,65.587z"/>
		<path style="opacity:0.3;fill:#BA592C;" d="M284.065,121.669c-1.713-0.603-3.418-1.273-5.117-1.921
			c1.969-1.446,3.874-2.928,5.617-4.376c0.121-0.107-0.064-0.184-0.167-0.118c-1.917,1.468-3.959,2.885-6.026,4.277
			c-0.695-0.261-1.391-0.525-2.082-0.784c-0.276-0.097-0.572-0.193-0.879-0.281c2.133-1.647,4.204-3.365,6.143-5.229
			c0.114-0.123-0.077-0.209-0.166-0.101c-2.136,1.846-4.462,3.479-6.802,5.082c-1.038-0.279-2.171-0.576-3.275-0.937
			c0.852-0.926,1.737-1.836,2.675-2.686c0.117-0.103-0.077-0.197-0.169-0.111c-1.024,0.841-2.02,1.727-2.997,2.631
			c-1.68-0.575-3.235-1.281-4.168-2.323c-0.1-0.105-0.369,0.021-0.265,0.152c1.091,1.29,2.675,1.826,4.265,2.313
			c-0.995,0.912-1.985,1.847-2.988,2.759c-1.762-0.309-3.518-0.643-5.208-1.17c-0.157-0.048-0.409,0.183-0.186,0.268
			c1.567,0.575,3.198,0.999,4.852,1.378c-0.444,0.413-0.875,0.82-1.333,1.207c-0.404,0.343-0.834,0.622-1.262,0.925
			c-2.009-0.481-4.017-0.944-6.014-1.435c-0.131-0.03-0.337,0.153-0.157,0.23c1.83,0.588,3.686,1.148,5.559,1.65
			c-2.338,1.634-4.811,3.019-6.621,5.303c-0.226,0.28,0.284,0.386,0.462,0.222c2.181-1.966,4.621-3.572,6.991-5.294
			c0.633,0.174,1.268,0.348,1.917,0.503c-1.306,0.993-2.541,2.033-3.719,3.157c-0.385,0.371,0.225,0.563,0.526,0.361
			c1.445-1.094,2.954-2.17,4.434-3.232c0.762,0.165,1.52,0.349,2.298,0.504c-0.449,0.25-0.879,0.528-1.316,0.766
			c-0.27,0.149-0.074,0.458,0.192,0.349c0.656-0.266,1.312-0.614,1.961-0.962c1.262,0.242,2.522,0.45,3.789,0.63
			c0.34,0.044,0.633-0.436,0.195-0.524c-0.983-0.173-1.968-0.413-2.961-0.606c1.153-0.637,2.281-1.313,3.404-2.056
			c0.54,0.121,1.08,0.223,1.6,0.334c0.325,0.071,0.863-0.4,0.397-0.545c-0.397-0.116-0.794-0.188-1.188-0.304
			c0.726-0.485,1.422-1.007,2.131-1.523c1.768,0.681,3.522,1.375,5.341,1.949C284.023,122.188,284.427,121.782,284.065,121.669z
			 M271.162,117.413c0.345,0.11,0.71,0.218,1.051,0.345c0.657,0.228,1.304,0.506,1.951,0.758c-1.024,0.685-2.034,1.396-3.054,2.086
			c-0.86-0.129-1.718-0.297-2.576-0.438C269.425,119.277,270.294,118.355,271.162,117.413z M267.39,123.27
			c-0.677-0.137-1.34-0.291-2.005-0.434c0.326-0.256,0.662-0.493,0.979-0.741c0.566-0.446,1.079-0.925,1.603-1.409
			c0.778,0.174,1.538,0.344,2.322,0.502C269.311,121.853,268.347,122.568,267.39,123.27z M271.104,124.044
			c-0.82-0.166-1.641-0.321-2.459-0.506c0.965-0.699,1.935-1.397,2.906-2.116c1.014,0.188,2.022,0.401,3.023,0.594
			C273.42,122.724,272.267,123.379,271.104,124.044z M275.43,121.477c-1.004-0.241-2.021-0.479-3.048-0.666
			c0.871-0.633,1.722-1.327,2.578-1.987c0.941,0.361,1.891,0.714,2.833,1.089C277.01,120.434,276.228,120.964,275.43,121.477z"/>
	</g>
</g>
</svg>
