<svg xmlns="http://www.w3.org/2000/svg" xmlns:xlink="http://www.w3.org/1999/xlink" viewBox="0 0 913.22 48"><defs><style>.cls-1{fill:url(#Áåçûìÿííûé_ãðàäèåíò_38);}.cls-2{fill:url(#Áåçûìÿííûé_ãðàäèåíò_296);}.cls-3{fill:url(#Áåçûìÿííûé_ãðàäèåíò_3);}</style><linearGradient id="Áåçûìÿííûé_ãðàäèåíò_38" x1="463.02" y1="33.25" x2="463.02" y2="6.75" gradientUnits="userSpaceOnUse"><stop offset="0" stop-color="#9590bd"/><stop offset="1" stop-color="#aec7ff"/></linearGradient><linearGradient id="Áåçûìÿííûé_ãðàäèåíò_296" x1="456.61" y1="41.63" x2="456.61" gradientUnits="userSpaceOnUse"><stop offset="0" stop-color="#8bb8ff"/><stop offset="0.99" stop-color="#8695ff"/></linearGradient><linearGradient id="Áåçûìÿííûé_ãðàäèåíò_3" x1="463.11" y1="48" x2="463.11" y2="25.75" gradientUnits="userSpaceOnUse"><stop offset="0" stop-color="#e5e7ff"/><stop offset="0.99" stop-color="#d3ddff"/></linearGradient></defs><title>Asset 15</title><g id="Layer_2" data-name="Layer 2"><g id="parc"><polygon class="cls-1" points="912.47 16.58 892.74 21.73 885.74 22.75 839.66 26.25 814.48 26.25 764.03 29.75 751.65 23.17 742.32 23.17 732.99 23.17 729.82 25.75 686.74 25.75 673.49 23.17 659.23 23.17 650.29 25.75 646.82 25.75 638.45 26.25 628.5 28.25 313.51 26.25 300 23.17 286.29 21.22 266.49 19.72 250.24 20.31 226.49 23.17 73.99 21.92 68.32 17.92 44.01 10.7 12.99 6.75 12.99 29.9 913.05 33.25 912.47 16.58"/><polygon class="cls-2" points="913.22 0 852.69 13.43 745 17.12 737.23 20.15 667.59 22.25 575.06 15.67 441.79 23.3 408.56 30.28 381.84 26.37 308.55 22.39 94.91 26.81 42.2 20.37 0 21.38 0 34.01 912.99 41.63 913.22 0"/><polygon class="cls-3" points="913.22 48 913.05 29.9 760.03 29.9 707.41 26.93 660.52 26.25 634.98 29.9 316.06 29.9 232.49 25.75 12.99 29.9 12.99 47.84 913.22 48"/></g></g></svg>