<svg xmlns="http://www.w3.org/2000/svg" xmlns:xlink="http://www.w3.org/1999/xlink" viewBox="0 0 965.81 147.7"><defs><style>.cls-1{fill:url(#Áåçûìÿííûé_ãðàäèåíò_33);}.cls-2{fill:url(#Áåçûìÿííûé_ãðàäèåíò_38);}.cls-3{fill:url(#Áåçûìÿííûé_ãðàäèåíò_296);}</style><linearGradient id="Áåçûìÿííûé_ãðàäèåíò_33" x1="482.91" y1="133.47" x2="482.91" gradientUnits="userSpaceOnUse"><stop offset="0" stop-color="#1460ac"/><stop offset="0.37" stop-color="#0d4497"/><stop offset="0.76" stop-color="#082d85"/><stop offset="1" stop-color="#06257f"/></linearGradient><linearGradient id="Áåçûìÿííûé_ãðàäèåíò_38" x1="468.66" y1="139.32" x2="468.66" y2="112.82" gradientUnits="userSpaceOnUse"><stop offset="0" stop-color="#9590bd"/><stop offset="1" stop-color="#aec7ff"/></linearGradient><linearGradient id="Áåçûìÿííûé_ãðàäèåíò_296" x1="462.25" y1="147.7" x2="462.25" y2="106.07" gradientUnits="userSpaceOnUse"><stop offset="0" stop-color="#8bb8ff"/><stop offset="0.99" stop-color="#8695ff"/></linearGradient></defs><title>Asset 16</title><g id="Layer_2" data-name="Layer 2"><g id="parc"><polygon class="cls-1" points="953.94 61.44 953.94 79.14 933.57 86.19 933.57 90.59 880.14 100.75 880.33 63.03 877.81 60.7 877.38 46.05 875.37 44.1 875.37 4.26 874.25 0 873.51 47.15 871.48 53.75 871.18 70.92 869.1 74.88 868.64 98.64 834.13 101.21 834.54 78.03 829.44 73.79 829.44 54.4 824.59 48.15 824.75 80.19 821.91 87.02 821.91 93.81 811.79 94.24 807.85 100.42 804.11 98.09 804.97 72.95 795.38 70.49 793.78 103.06 763.19 108.41 761.14 113.15 755.35 113.15 733.5 113.15 733.12 92.19 730.05 90.05 730.05 65.59 728.59 64.31 728.59 90.21 726.27 92.12 726.27 98.76 707.06 102.69 707.06 106.51 685.45 108.41 685.45 118.78 683.56 118.78 682.86 78.46 669.7 84.49 669.28 102.48 639.85 99.87 639.85 95.57 634.87 93.99 634.87 96.89 630.63 97.44 630.63 100.5 594.03 100.89 594.38 87.77 587.49 87.77 588.34 66.6 587.49 66.36 586.63 88.41 577.47 92.29 576.18 102.48 574.91 101.85 574.91 73.04 569.22 69.38 568.49 99.47 562.66 100.5 562.18 103.54 520.08 100.55 518.28 49.81 509.82 50.12 508.82 71.33 507.38 71.01 506.61 95.38 504.49 95.38 504.71 111.69 502.24 111.39 500.85 64.14 496.11 63.33 494.68 96.89 492.11 96.89 487.28 101.85 482.91 102.64 482.91 61.05 471.04 61.44 471.04 79.14 450.66 86.19 450.66 90.59 397.24 100.75 397.42 63.03 394.91 60.7 394.47 46.05 392.46 44.1 392.46 4.26 391.35 0 390.61 47.15 388.58 53.75 388.27 70.92 386.19 74.88 385.74 98.64 351.23 101.21 351.63 78.03 346.54 73.79 346.54 54.4 341.69 48.15 341.85 80.19 339 87.02 339 93.81 328.88 94.24 324.94 100.42 321.2 98.09 322.06 72.95 312.48 70.49 310.87 103.06 280.29 108.41 278.23 113.15 272.44 113.15 250.59 113.15 250.21 92.19 247.14 90.05 247.14 65.59 245.68 64.31 245.68 90.21 243.37 92.12 243.37 98.76 224.15 102.69 224.15 106.51 202.54 108.41 202.54 118.78 200.66 118.78 199.95 78.46 187.33 61.47 186.37 102.48 156.94 99.87 156.94 95.57 151.97 93.99 151.97 96.89 147.72 97.44 147.72 100.5 111.13 100.89 111.48 87.77 104.59 87.77 105.44 66.6 104.59 66.36 103.73 88.41 94.56 92.29 93.27 102.48 92 101.85 92 73.04 86.31 69.38 85.58 99.47 79.76 100.5 79.27 103.54 52 102.94 50.33 49.04 26.91 50.12 25.91 71.33 24.47 71.01 23.7 95.38 21.58 95.38 21.81 111.69 19.34 111.39 17.94 64.14 13.21 63.33 11.77 96.89 9.21 96.89 4.38 101.85 0 102.64 0 133.47 482.91 133.47 965.81 133.47 965.81 61.05 953.94 61.44"/><polygon class="cls-2" points="918.11 122.66 898.38 127.8 891.38 128.82 845.29 132.32 820.12 132.32 769.67 135.82 757.29 129.24 747.96 129.24 738.63 129.24 735.46 131.82 692.38 131.82 679.13 129.24 664.86 129.24 655.93 131.82 652.45 131.82 644.09 132.32 634.14 134.32 319.15 132.32 305.64 129.24 291.93 127.29 272.13 125.79 255.88 126.39 232.13 129.24 79.63 127.99 73.95 123.99 49.64 116.78 18.63 112.82 18.63 135.97 918.68 139.32 918.11 122.66"/><polygon class="cls-3" points="918.86 106.07 858.33 119.5 750.64 123.19 742.86 126.22 673.23 128.32 580.7 121.75 447.43 129.37 414.19 136.35 387.48 132.44 314.19 128.46 100.54 132.88 47.84 126.44 5.64 127.45 5.64 140.08 918.63 147.7 918.86 106.07"/></g></g></svg>