<svg xmlns="http://www.w3.org/2000/svg" xmlns:xlink="http://www.w3.org/1999/xlink" viewBox="0 0 901.5 241.16"><defs><style>.cls-1{isolation:isolate;}.cls-2{opacity:0.83;mix-blend-mode:multiply;}.cls-3,.cls-4,.cls-5,.cls-6{opacity:0.2;}.cls-3{fill:url(#Áåçûìÿííûé_ãðàäèåíò_4);}.cls-4{fill:url(#Áåçûìÿííûé_ãðàäèåíò_4-2);}.cls-5{fill:url(#Áåçûìÿííûé_ãðàäèåíò_4-3);}.cls-6{fill:url(#Áåçûìÿííûé_ãðàäèåíò_4-4);}</style><linearGradient id="Áåçûìÿííûé_ãðàäèåíò_4" x1="360.78" y1="241.16" x2="360.78" y2="3.25" gradientUnits="userSpaceOnUse"><stop offset="0" stop-color="#1d007c"/><stop offset="1" stop-color="#94531a"/></linearGradient><linearGradient id="Áåçûìÿííûé_ãðàäèåíò_4-2" x1="444.4" y1="109.6" x2="901.5" y2="109.6" xlink:href="#Áåçûìÿííûé_ãðàäèåíò_4"/><linearGradient id="Áåçûìÿííûé_ãðàäèåíò_4-3" x1="407.4" y1="45.74" x2="407.4" y2="9.14" xlink:href="#Áåçûìÿííûé_ãðàäèåíò_4"/><linearGradient id="Áåçûìÿííûé_ãðàäèåíò_4-4" x1="340.65" y1="44.44" x2="475.15" y2="44.44" xlink:href="#Áåçûìÿííûé_ãðàäèåíò_4"/></defs><title>Asset 18</title><g class="cls-1"><g id="Layer_2" data-name="Layer 2"><g id="parc"><g class="cls-2"><path class="cls-3" d="M22.66,114.91S118,101.57,165,104.57l-14.07,13.67s92-.67,176,31.33-77.92,33-77.92,33l27,9H237s124,12,136,21c0,0-172.5,3.5-205.55,8.5a325.83,325.83,0,0,0-39.95,8.5s552.06,4.09,594.07,11.59H0V13.24S121.65-5.1,174.33,7.9,115,69.24,115,69.24s41.81-2.83,47.81,10.5c0,0,8.86,11.64-75,27.77l12.74-20.27Z"/><path class="cls-4" d="M888.24,101.1s-192.46-11.64-210.46,2.15S808.44,125,808.44,125s-21.26,8-20.29,10,19,8.67,19,8.67-122.5-6.17-185.16,1.16c0,0,132,4.84,177.83,17.84,0,0-84.63,9.51-117.34,5S633,143.77,633,143.77l-14.51-.56s-49.25,4.08-74.75,26.25L444.4,180.71c100-6,364-6.94,383-6.5,0,0,36.75,10.5,49.5,34.5,0,0-20.25-2-48.5-2.75s-97.25,6.33-97.25,6.33l170.25,6.92v-186s6.84-43.34-128.33-14.5c0,0,5-19.36-21-18.69-15.68.4-39.9,10-39.9,10l-79.77.38s130-1.67,204,24.34c0,0-48.5-4-50.5,24s96,34.63,96,34.63l-15,3.87Z"/><path class="cls-5" d="M297.65,36.74s174.5-23,255.5-23H420.58S384.15,6.9,357.15,9.9s-29,19.34-29,19.34-16.5-2-22.5,0-18,7.5-18,7.5l-26,9S281.54,38.94,297.65,36.74Z"/><path class="cls-6" d="M340.65,53.72s33.2-2.58,67.46-6.17c25.54-23.19,53.75-7.27,67-4.78C475.15,42.77,348.46,54.49,340.65,53.72Z"/></g></g></g></g></svg>