<svg xmlns="http://www.w3.org/2000/svg" xmlns:xlink="http://www.w3.org/1999/xlink" viewBox="0 0 965.81 147.7"><defs><style>.cls-1{isolation:isolate;}.cls-2{fill:url(#Áåçûìÿííûé_ãðàäèåíò_33);}.cls-3{fill:url(#Áåçûìÿííûé_ãðàäèåíò_38);}.cls-4{fill:url(#Áåçûìÿííûé_ãðàäèåíò_296);}.cls-10,.cls-11,.cls-12,.cls-13,.cls-14,.cls-15,.cls-16,.cls-17,.cls-18,.cls-19,.cls-20,.cls-21,.cls-22,.cls-23,.cls-24,.cls-25,.cls-26,.cls-27,.cls-28,.cls-29,.cls-30,.cls-31,.cls-32,.cls-33,.cls-34,.cls-35,.cls-36,.cls-37,.cls-38,.cls-39,.cls-40,.cls-41,.cls-42,.cls-43,.cls-44,.cls-45,.cls-46,.cls-47,.cls-48,.cls-49,.cls-5,.cls-50,.cls-51,.cls-52,.cls-53,.cls-54,.cls-55,.cls-56,.cls-6,.cls-7,.cls-8,.cls-9{mix-blend-mode:screen;}.cls-5{fill:url(#Áåçûìÿííûé_ãðàäèåíò_397);}.cls-6{fill:url(#Áåçûìÿííûé_ãðàäèåíò_397-2);}.cls-7{fill:url(#Áåçûìÿííûé_ãðàäèåíò_397-3);}.cls-8{fill:url(#Áåçûìÿííûé_ãðàäèåíò_397-4);}.cls-9{fill:url(#Áåçûìÿííûé_ãðàäèåíò_397-5);}.cls-10,.cls-11,.cls-12,.cls-13,.cls-46,.cls-56{opacity:0.5;}.cls-10{fill:url(#Áåçûìÿííûé_ãðàäèåíò_397-6);}.cls-11{fill:url(#Áåçûìÿííûé_ãðàäèåíò_397-7);}.cls-12{fill:url(#Áåçûìÿííûé_ãðàäèåíò_397-8);}.cls-13{fill:url(#Áåçûìÿííûé_ãðàäèåíò_397-9);}.cls-14{fill:url(#Áåçûìÿííûé_ãðàäèåíò_422);}.cls-15{fill:url(#Áåçûìÿííûé_ãðàäèåíò_422-2);}.cls-16{fill:url(#Áåçûìÿííûé_ãðàäèåíò_422-3);}.cls-17{fill:url(#Áåçûìÿííûé_ãðàäèåíò_422-4);}.cls-18{fill:url(#Áåçûìÿííûé_ãðàäèåíò_422-5);}.cls-19{fill:url(#Áåçûìÿííûé_ãðàäèåíò_422-6);}.cls-20{fill:url(#Áåçûìÿííûé_ãðàäèåíò_422-7);}.cls-21{fill:url(#Áåçûìÿííûé_ãðàäèåíò_422-8);}.cls-22{fill:url(#Áåçûìÿííûé_ãðàäèåíò_422-9);}.cls-23{fill:url(#Áåçûìÿííûé_ãðàäèåíò_422-10);}.cls-24{fill:url(#Áåçûìÿííûé_ãðàäèåíò_422-11);}.cls-25{fill:url(#Áåçûìÿííûé_ãðàäèåíò_397-10);}.cls-26{fill:url(#Áåçûìÿííûé_ãðàäèåíò_400);}.cls-27{fill:url(#Áåçûìÿííûé_ãðàäèåíò_400-2);}.cls-28{fill:url(#Áåçûìÿííûé_ãðàäèåíò_400-3);}.cls-29{fill:url(#Áåçûìÿííûé_ãðàäèåíò_400-4);}.cls-30{fill:url(#Áåçûìÿííûé_ãðàäèåíò_400-5);}.cls-31{fill:url(#Áåçûìÿííûé_ãðàäèåíò_400-6);}.cls-32{fill:url(#Áåçûìÿííûé_ãðàäèåíò_400-7);}.cls-33{fill:url(#Áåçûìÿííûé_ãðàäèåíò_400-8);}.cls-34{fill:url(#Áåçûìÿííûé_ãðàäèåíò_400-9);}.cls-35{fill:url(#Áåçûìÿííûé_ãðàäèåíò_407);}.cls-36{fill:url(#Áåçûìÿííûé_ãðàäèåíò_407-2);}.cls-37{fill:url(#Áåçûìÿííûé_ãðàäèåíò_407-3);}.cls-38{fill:url(#Áåçûìÿííûé_ãðàäèåíò_416);}.cls-39{fill:url(#Áåçûìÿííûé_ãðàäèåíò_416-2);}.cls-40{fill:url(#Áåçûìÿííûé_ãðàäèåíò_416-3);}.cls-41{fill:url(#Áåçûìÿííûé_ãðàäèåíò_416-4);}.cls-42{fill:url(#Áåçûìÿííûé_ãðàäèåíò_419);}.cls-43{fill:url(#Áåçûìÿííûé_ãðàäèåíò_419-2);}.cls-44{fill:url(#Áåçûìÿííûé_ãðàäèåíò_419-3);}.cls-45{fill:url(#Áåçûìÿííûé_ãðàäèåíò_397-11);}.cls-46{fill:url(#Áåçûìÿííûé_ãðàäèåíò_397-12);}.cls-47{fill:url(#Áåçûìÿííûé_ãðàäèåíò_422-12);}.cls-48{fill:url(#Áåçûìÿííûé_ãðàäèåíò_422-13);}.cls-49{fill:url(#Áåçûìÿííûé_ãðàäèåíò_400-10);}.cls-50{fill:url(#Áåçûìÿííûé_ãðàäèåíò_416-5);}.cls-51{fill:url(#Áåçûìÿííûé_ãðàäèåíò_416-6);}.cls-52{fill:url(#Áåçûìÿííûé_ãðàäèåíò_419-4);}.cls-53{fill:url(#Áåçûìÿííûé_ãðàäèåíò_419-5);}.cls-54{fill:url(#Áåçûìÿííûé_ãðàäèåíò_419-6);}.cls-55{fill:url(#Áåçûìÿííûé_ãðàäèåíò_416-7);}.cls-56{fill:url(#Áåçûìÿííûé_ãðàäèåíò_410);}</style><linearGradient id="Áåçûìÿííûé_ãðàäèåíò_33" x1="482.91" y1="133.47" x2="482.91" gradientUnits="userSpaceOnUse"><stop offset="0" stop-color="#1460ac"/><stop offset="0.37" stop-color="#0d4497"/><stop offset="0.76" stop-color="#082d85"/><stop offset="1" stop-color="#06257f"/></linearGradient><linearGradient id="Áåçûìÿííûé_ãðàäèåíò_38" x1="468.66" y1="139.32" x2="468.66" y2="112.82" gradientUnits="userSpaceOnUse"><stop offset="0" stop-color="#9590bd"/><stop offset="1" stop-color="#aec7ff"/></linearGradient><linearGradient id="Áåçûìÿííûé_ãðàäèåíò_296" x1="462.25" y1="147.7" x2="462.25" y2="106.07" gradientUnits="userSpaceOnUse"><stop offset="0" stop-color="#8bb8ff"/><stop offset="0.99" stop-color="#8695ff"/></linearGradient><radialGradient id="Áåçûìÿííûé_ãðàäèåíò_397" cx="282.52" cy="123.48" r="3.77" gradientUnits="userSpaceOnUse"><stop offset="0.92" stop-color="#ff4700"/><stop offset="0.99"/></radialGradient><radialGradient id="Áåçûìÿííûé_ãðàäèåíò_397-2" cx="334.09" cy="124.69" r="2.25" xlink:href="#Áåçûìÿííûé_ãðàäèåíò_397"/><radialGradient id="Áåçûìÿííûé_ãðàäèåíò_397-3" cx="79.16" cy="122.86" r="2.25" gradientTransform="matrix(1, -0.06, 0.06, 1, -7.75, 8.22)" xlink:href="#Áåçûìÿííûé_ãðàäèåíò_397"/><radialGradient id="Áåçûìÿííûé_ãðàäèåíò_397-4" cx="169.54" cy="129.92" r="2.25" gradientTransform="matrix(1, -0.06, 0.06, 1, -7.75, 8.22)" xlink:href="#Áåçûìÿííûé_ãðàäèåíò_397"/><radialGradient id="Áåçûìÿííûé_ãðàäèåíò_397-5" cx="601.18" cy="125.96" r="5.16" xlink:href="#Áåçûìÿííûé_ãðàäèåíò_397"/><radialGradient id="Áåçûìÿííûé_ãðàäèåíò_397-6" cx="608.24" cy="129.33" r="3.31" xlink:href="#Áåçûìÿííûé_ãðàäèåíò_397"/><radialGradient id="Áåçûìÿííûé_ãðàäèåíò_397-7" cx="720.98" cy="124.43" r="3.31" xlink:href="#Áåçûìÿííûé_ãðàäèåíò_397"/><radialGradient id="Áåçûìÿííûé_ãðàäèåíò_397-8" cx="707.42" cy="122.28" r="3.31" xlink:href="#Áåçûìÿííûé_ãðàäèåíò_397"/><radialGradient id="Áåçûìÿííûé_ãðàäèåíò_397-9" cx="159.34" cy="129.02" r="3.31" gradientTransform="matrix(1, -0.06, 0.06, 1, -7.75, 8.22)" xlink:href="#Áåçûìÿííûé_ãðàäèåíò_397"/><radialGradient id="Áåçûìÿííûé_ãðàäèåíò_422" cx="183.34" cy="129.92" r="1.01" gradientTransform="matrix(1, -0.06, 0.06, 1, -7.75, 8.22)" gradientUnits="userSpaceOnUse"><stop offset="0.92" stop-color="#fff400"/><stop offset="0.99"/></radialGradient><radialGradient id="Áåçûìÿííûé_ãðàäèåíò_422-2" cx="121.63" cy="127.27" r="1.01" xlink:href="#Áåçûìÿííûé_ãðàäèåíò_422"/><radialGradient id="Áåçûìÿííûé_ãðàäèåíò_422-3" cx="188.4" cy="108.7" r="1.01" gradientTransform="matrix(1, 0, 0, 1, 0, 0)" xlink:href="#Áåçûìÿííûé_ãðàäèåíò_422"/><radialGradient id="Áåçûìÿííûé_ãðàäèåíò_422-4" cx="115.06" cy="122.56" r="1.01" xlink:href="#Áåçûìÿííûé_ãðàäèåíò_422"/><radialGradient id="Áåçûìÿííûé_ãðàäèåíò_422-5" cx="608.24" cy="127.31" r="1.01" gradientTransform="matrix(1, 0, 0, 1, 0, 0)" xlink:href="#Áåçûìÿííûé_ãðàäèåíò_422"/><radialGradient id="Áåçûìÿííûé_ãðàäèåíò_422-6" cx="661.1" cy="128.32" r="1.01" gradientTransform="matrix(1, 0, 0, 1, 0, 0)" xlink:href="#Áåçûìÿííûé_ãðàäèåíò_422"/><radialGradient id="Áåçûìÿííûé_ãðàäèåíò_422-7" cx="676.52" cy="127.31" r="1.01" gradientTransform="matrix(1, 0, 0, 1, 0, 0)" xlink:href="#Áåçûìÿííûé_ãðàäèåíò_422"/><radialGradient id="Áåçûìÿííûé_ãðàäèåíò_422-8" cx="570.35" cy="126.97" r="1.01" gradientTransform="matrix(1, 0, 0, 1, 0, 0)" xlink:href="#Áåçûìÿííûé_ãðàäèåíò_422"/><radialGradient id="Áåçûìÿííûé_ãðàäèåíò_422-9" cx="657.51" cy="127.26" r="1.01" gradientTransform="matrix(1, 0, 0, 1, 0, 0)" xlink:href="#Áåçûìÿííûé_ãðàäèåíò_422"/><radialGradient id="Áåçûìÿííûé_ãðàäèåíò_422-10" cx="198.9" cy="110.9" r="1.01" gradientTransform="matrix(1, 0, 0, 1, 0, 0)" xlink:href="#Áåçûìÿííûé_ãðàäèåíò_422"/><radialGradient id="Áåçûìÿííûé_ãðàäèåíò_422-11" cx="316.67" cy="124.73" r="1.01" gradientTransform="matrix(1, 0, 0, 1, 0, 0)" xlink:href="#Áåçûìÿííûé_ãðàäèåíò_422"/><radialGradient id="Áåçûìÿííûé_ãðàäèåíò_397-10" cx="147.24" cy="129.91" r="2.25" gradientTransform="matrix(1, -0.06, 0.06, 1, -7.75, 8.22)" xlink:href="#Áåçûìÿííûé_ãðàäèåíò_397"/><radialGradient id="Áåçûìÿííûé_ãðàäèåíò_400" cx="286.29" cy="123.48" r="1.95" gradientUnits="userSpaceOnUse"><stop offset="0.46" stop-color="#8ede00"/><stop offset="0.99"/></radialGradient><radialGradient id="Áåçûìÿííûé_ãðàäèåíò_400-2" cx="56.64" cy="117.99" r="1.95" gradientTransform="matrix(1, -0.06, 0.06, 1, -7.75, 8.22)" xlink:href="#Áåçûìÿííûé_ãðàäèåíò_400"/><radialGradient id="Áåçûìÿííûé_ãðàäèåíò_400-3" cx="156.96" cy="127.54" r="1.95" gradientTransform="matrix(1, -0.06, 0.06, 1, -7.75, 8.22)" xlink:href="#Áåçûìÿííûé_ãðàäèåíò_400"/><radialGradient id="Áåçûìÿííûé_ãðàäèåíò_400-4" cx="198.26" cy="129.92" r="1.95" gradientTransform="matrix(1, -0.06, 0.06, 1, -7.75, 8.22)" xlink:href="#Áåçûìÿííûé_ãðàäèåíò_400"/><radialGradient id="Áåçûìÿííûé_ãðàäèåíò_400-5" cx="552.78" cy="128.8" r="1.95" xlink:href="#Áåçûìÿííûé_ãðàäèåíò_400"/><radialGradient id="Áåçûìÿííûé_ãðàäèåíò_400-6" cx="620.32" cy="127.31" r="1.95" xlink:href="#Áåçûìÿííûé_ãðàäèåíò_400"/><radialGradient id="Áåçûìÿííûé_ãðàäèåíò_400-7" cx="180.27" cy="129.92" r="1.95" gradientTransform="matrix(1, -0.06, 0.06, 1, -7.75, 8.22)" xlink:href="#Áåçûìÿííûé_ãðàäèåíò_400"/><radialGradient id="Áåçûìÿííûé_ãðàäèåíò_400-8" cx="633.37" cy="127.98" r="1.95" xlink:href="#Áåçûìÿííûé_ãðàäèåíò_400"/><radialGradient id="Áåçûìÿííûé_ãðàäèåíò_400-9" cx="239.71" cy="120.8" r="1.38" xlink:href="#Áåçûìÿííûé_ãðàäèåíò_400"/><radialGradient id="Áåçûìÿííûé_ãðàäèåíò_407" cx="303.88" cy="124.04" r="1.95" gradientUnits="userSpaceOnUse"><stop offset="0.46" stop-color="#168b9a"/><stop offset="0.99"/></radialGradient><radialGradient id="Áåçûìÿííûé_ãðàäèåíò_407-2" cx="263.69" cy="112.7" r="1.95" xlink:href="#Áåçûìÿííûé_ãðàäèåíò_407"/><radialGradient id="Áåçûìÿííûé_ãðàäèåíò_407-3" cx="326.69" cy="124.35" r="5.21" xlink:href="#Áåçûìÿííûé_ãðàäèåíò_407"/><radialGradient id="Áåçûìÿííûé_ãðàäèåíò_416" cx="340.42" cy="124.35" r="5.42" gradientUnits="userSpaceOnUse"><stop offset="0.92" stop-color="#45b1ff"/><stop offset="0.99"/></radialGradient><radialGradient id="Áåçûìÿííûé_ãðàäèåíò_416-2" cx="211.64" cy="107.68" r="5.42" xlink:href="#Áåçûìÿííûé_ãðàäèåíò_416"/><radialGradient id="Áåçûìÿííûé_ãðàäèåíò_416-3" cx="573.27" cy="125.96" r="5.42" xlink:href="#Áåçûìÿííûé_ãðàäèåíò_416"/><radialGradient id="Áåçûìÿííûé_ãðàäèåíò_416-4" cx="217.52" cy="110.58" r="5.42" xlink:href="#Áåçûìÿííûé_ãðàäèåíò_416"/><radialGradient id="Áåçûìÿííûé_ãðàäèåíò_419" cx="150.64" cy="128.01" r="4.1" gradientTransform="matrix(1, -0.06, 0.06, 1, -7.75, 8.22)" gradientUnits="userSpaceOnUse"><stop offset="0.92" stop-color="#8e74ff"/><stop offset="0.99"/></radialGradient><radialGradient id="Áåçûìÿííûé_ãðàäèåíò_419-2" cx="548.67" cy="128.8" r="4.1" gradientTransform="matrix(1, 0, 0, 1, 0, 0)" xlink:href="#Áåçûìÿííûé_ãðàäèåíò_419"/><radialGradient id="Áåçûìÿííûé_ãðàäèåíò_419-3" cx="579.59" cy="125.96" r="4.1" gradientTransform="matrix(1, 0, 0, 1, 0, 0)" xlink:href="#Áåçûìÿííûé_ãðàäèåíò_419"/><radialGradient id="Áåçûìÿííûé_ãðàäèåíò_397-11" cx="783.53" cy="136.48" r="5.16" gradientTransform="translate(-8.95 42.78) rotate(-4.46)" xlink:href="#Áåçûìÿííûé_ãðàäèåíò_397"/><radialGradient id="Áåçûìÿííûé_ãðàäèåíò_397-12" cx="790.6" cy="139.85" r="3.31" gradientTransform="translate(-8.95 42.78) rotate(-4.46)" xlink:href="#Áåçûìÿííûé_ãðàäèåíò_397"/><radialGradient id="Áåçûìÿííûé_ãðàäèåíò_422-12" cx="790.6" cy="137.83" r="1.01" gradientTransform="translate(-8.95 42.78) rotate(-4.46)" xlink:href="#Áåçûìÿííûé_ãðàäèåíò_422"/><radialGradient id="Áåçûìÿííûé_ãðàäèåíò_422-13" cx="752.7" cy="137.49" r="1.01" gradientTransform="translate(-8.95 42.78) rotate(-4.46)" xlink:href="#Áåçûìÿííûé_ãðàäèåíò_422"/><radialGradient id="Áåçûìÿííûé_ãðàäèåíò_400-10" cx="792.81" cy="137.98" r="1.95" gradientTransform="translate(-8.95 42.78) rotate(-4.46)" xlink:href="#Áåçûìÿííûé_ãðàäèåíò_400"/><radialGradient id="Áåçûìÿííûé_ãðàäèåíò_416-5" cx="755.63" cy="136.48" r="5.42" gradientTransform="translate(-8.95 42.78) rotate(-4.46)" xlink:href="#Áåçûìÿííûé_ãðàäèåíò_416"/><radialGradient id="Áåçûìÿííûé_ãðàäèåíò_416-6" cx="703.85" cy="137.88" r="2.36" gradientTransform="translate(-8.95 42.78) rotate(-4.46)" xlink:href="#Áåçûìÿííûé_ãðàäèåíò_416"/><radialGradient id="Áåçûìÿííûé_ãðàäèåíò_419-4" cx="761.94" cy="136.48" r="4.1" gradientTransform="translate(-8.95 42.78) rotate(-4.46)" xlink:href="#Áåçûìÿííûé_ãðàäèåíò_419"/><radialGradient id="Áåçûìÿííûé_ãðàäèåíò_419-5" cx="667.72" cy="125.14" r="4.1" gradientTransform="matrix(1, 0, 0, 1, 0, 0)" xlink:href="#Áåçûìÿííûé_ãðàäèåíò_419"/><radialGradient id="Áåçûìÿííûé_ãðàäèåíò_419-6" cx="210.2" cy="130.03" r="4.1" xlink:href="#Áåçûìÿííûé_ãðàäèåíò_419"/><radialGradient id="Áåçûìÿííûé_ãðàäèåíò_416-7" cx="305.84" cy="123.48" r="2.37" xlink:href="#Áåçûìÿííûé_ãðàäèåíò_416"/><radialGradient id="Áåçûìÿííûé_ãðàäèåíò_410" cx="275.15" cy="115.17" r="6.29" gradientUnits="userSpaceOnUse"><stop offset="0.92" stop-color="#ffae68"/><stop offset="0.99"/></radialGradient></defs><title>Asset 17</title><g class="cls-1"><g id="Layer_2" data-name="Layer 2"><g id="parc"><polygon class="cls-2" points="953.94 61.44 953.94 79.14 933.57 86.19 933.57 90.59 880.14 100.75 880.33 63.03 877.81 60.7 877.38 46.05 875.37 44.1 875.37 4.26 874.25 0 873.51 47.15 871.48 53.75 871.18 70.92 869.1 74.88 868.64 98.64 834.13 101.21 834.54 78.03 829.44 73.79 829.44 54.4 824.59 48.15 824.75 80.19 821.91 87.02 821.91 93.81 811.79 94.24 807.85 100.42 804.11 98.09 804.97 72.95 795.38 70.49 793.78 103.06 763.19 108.41 761.14 113.15 755.35 113.15 733.5 113.15 733.12 92.19 730.05 90.05 730.05 65.59 728.59 64.31 728.59 90.21 726.27 92.12 726.27 98.76 707.06 102.69 707.06 106.51 685.45 108.41 685.45 118.78 683.56 118.78 682.86 78.46 669.7 84.49 669.28 102.48 639.85 99.87 639.85 95.57 634.87 93.99 634.87 96.89 630.63 97.44 630.63 100.5 594.03 100.89 594.38 87.77 587.49 87.77 588.34 66.6 587.49 66.36 586.63 88.41 577.47 92.29 576.18 102.48 574.91 101.85 574.91 73.04 569.22 69.38 568.49 99.47 562.66 100.5 562.18 103.54 520.08 100.55 518.28 49.81 509.82 50.12 508.82 71.33 507.38 71.01 506.61 95.38 504.49 95.38 504.71 111.69 502.24 111.39 500.85 64.14 496.11 63.33 494.68 96.89 492.11 96.89 487.28 101.85 482.91 102.64 482.91 61.05 471.04 61.44 471.04 79.14 450.66 86.19 450.66 90.59 397.24 100.75 397.42 63.03 394.91 60.7 394.47 46.05 392.46 44.1 392.46 4.26 391.35 0 390.61 47.15 388.58 53.75 388.27 70.92 386.19 74.88 385.74 98.64 351.23 101.21 351.63 78.03 346.54 73.79 346.54 54.4 341.69 48.15 341.85 80.19 339 87.02 339 93.81 328.88 94.24 324.94 100.42 321.2 98.09 322.06 72.95 312.48 70.49 310.87 103.06 280.29 108.41 278.23 113.15 272.44 113.15 250.59 113.15 250.21 92.19 247.14 90.05 247.14 65.59 245.68 64.31 245.68 90.21 243.37 92.12 243.37 98.76 224.15 102.69 224.15 106.51 202.54 108.41 202.54 118.78 200.66 118.78 199.95 78.46 187.33 61.47 186.37 102.48 156.94 99.87 156.94 95.57 151.97 93.99 151.97 96.89 147.72 97.44 147.72 100.5 111.13 100.89 111.48 87.77 104.59 87.77 105.44 66.6 104.59 66.36 103.73 88.41 94.56 92.29 93.27 102.48 92 101.85 92 73.04 86.31 69.38 85.58 99.47 79.76 100.5 79.27 103.54 52 102.94 50.33 49.04 26.91 50.12 25.91 71.33 24.47 71.01 23.7 95.38 21.58 95.38 21.81 111.69 19.34 111.39 17.94 64.14 13.21 63.33 11.77 96.89 9.21 96.89 4.38 101.85 0 102.64 0 133.47 482.91 133.47 965.81 133.47 965.81 61.05 953.94 61.44"/><polygon class="cls-3" points="918.11 122.66 898.38 127.8 891.38 128.82 845.29 132.32 820.12 132.32 769.67 135.82 757.29 129.24 747.96 129.24 738.63 129.24 735.46 131.82 692.38 131.82 679.13 129.24 664.86 129.24 655.93 131.82 652.45 131.82 644.09 132.32 634.14 134.32 319.15 132.32 305.64 129.24 291.93 127.29 272.13 125.79 255.88 126.39 232.13 129.24 79.63 127.99 73.95 123.99 49.64 116.78 18.63 112.82 18.63 135.97 918.68 139.32 918.11 122.66"/><polygon class="cls-4" points="918.86 106.07 858.33 119.5 750.64 123.19 742.86 126.22 673.23 128.32 580.7 121.75 447.43 129.37 414.19 136.35 387.48 132.44 314.19 128.46 100.54 132.88 47.84 126.44 5.64 127.45 5.64 140.08 918.63 147.7 918.86 106.07"/><path class="cls-5" d="M286.29,123.48a3.77,3.77,0,1,1-3.77-3.77A3.77,3.77,0,0,1,286.29,123.48Z"/><path class="cls-6" d="M336.34,124.69a2.25,2.25,0,1,1-2.25-2.25A2.25,2.25,0,0,1,336.34,124.69Z"/><path class="cls-7" d="M81.37,125.6A2.25,2.25,0,1,1,79,123.5,2.25,2.25,0,0,1,81.37,125.6Z"/><path class="cls-8" d="M172,126.85a2.25,2.25,0,1,1-2.39-2.1A2.25,2.25,0,0,1,172,126.85Z"/><path class="cls-9" d="M606.34,126a5.16,5.16,0,1,1-5.16-5.16A5.16,5.16,0,0,1,606.34,126Z"/><path class="cls-10" d="M611.56,129.33a3.32,3.32,0,1,1-3.32-3.31A3.32,3.32,0,0,1,611.56,129.33Z"/><path class="cls-11" d="M724.3,124.43a3.32,3.32,0,1,1-3.32-3.31A3.32,3.32,0,0,1,724.3,124.43Z"/><path class="cls-12" d="M710.74,122.28a3.32,3.32,0,1,1-3.32-3.31A3.32,3.32,0,0,1,710.74,122.28Z"/><path class="cls-13" d="M162.83,126.54a3.32,3.32,0,1,1-3.52-3.1A3.31,3.31,0,0,1,162.83,126.54Z"/><path class="cls-14" d="M184.54,126a1,1,0,1,1-2,.13,1,1,0,0,1,2-.13Z"/><path class="cls-15" d="M122.79,127.36a1,1,0,1,1-1.07-.94A1,1,0,0,1,122.79,127.36Z"/><circle class="cls-16" cx="188.4" cy="108.7" r="1.01"/><path class="cls-17" d="M115.93,123.07a1,1,0,1,1-1.07-.94A1,1,0,0,1,115.93,123.07Z"/><path class="cls-18" d="M609.25,127.31a1,1,0,1,1-1-1A1,1,0,0,1,609.25,127.31Z"/><path class="cls-19" d="M662.11,128.32a1,1,0,1,1-1-1A1,1,0,0,1,662.11,128.32Z"/><path class="cls-20" d="M677.53,127.31a1,1,0,1,1-1-1A1,1,0,0,1,677.53,127.31Z"/><circle class="cls-21" cx="570.35" cy="126.97" r="1.01"/><path class="cls-22" d="M658.53,127.26a1,1,0,1,1-1-1A1,1,0,0,1,658.53,127.26Z"/><circle class="cls-23" cx="198.9" cy="110.9" r="1.01"/><path class="cls-24" d="M317.68,124.73a1,1,0,1,1-1-1A1,1,0,0,1,317.68,124.73Z"/><path class="cls-25" d="M149.75,128.28a2.25,2.25,0,1,1-2.39-2.1A2.24,2.24,0,0,1,149.75,128.28Z"/><circle class="cls-26" cx="286.29" cy="123.48" r="1.95"/><path class="cls-27" d="M58.28,122.2a1.95,1.95,0,1,1-2.07-1.82A1.94,1.94,0,0,1,58.28,122.2Z"/><path class="cls-28" d="M159,125.3a2,2,0,1,1-2.07-1.82A2,2,0,0,1,159,125.3Z"/><path class="cls-29" d="M200.37,125a2,2,0,1,1-2.07-1.83A2,2,0,0,1,200.37,125Z"/><circle class="cls-30" cx="552.78" cy="128.8" r="1.95"/><circle class="cls-31" cx="620.32" cy="127.31" r="1.95"/><path class="cls-32" d="M182.41,126.18a1.95,1.95,0,1,1-2.07-1.83A1.94,1.94,0,0,1,182.41,126.18Z"/><circle class="cls-33" cx="633.37" cy="127.98" r="1.95"/><path class="cls-34" d="M241.09,120.8a1.38,1.38,0,1,1-1.38-1.38A1.38,1.38,0,0,1,241.09,120.8Z"/><circle class="cls-35" cx="303.88" cy="124.04" r="1.95"/><circle class="cls-36" cx="263.69" cy="112.7" r="1.95"/><path class="cls-37" d="M331.9,124.35a5.22,5.22,0,1,1-5.21-5.21A5.21,5.21,0,0,1,331.9,124.35Z"/><circle class="cls-38" cx="340.42" cy="124.35" r="5.42"/><circle class="cls-39" cx="211.64" cy="107.68" r="5.42"/><path class="cls-40" d="M578.69,126a5.42,5.42,0,1,1-5.42-5.42A5.42,5.42,0,0,1,578.69,126Z"/><path class="cls-41" d="M222.94,110.58a5.42,5.42,0,1,1-5.42-5.42A5.42,5.42,0,0,1,222.94,110.58Z"/><path class="cls-42" d="M154.88,126a4.1,4.1,0,1,1-4.36-3.84A4.1,4.1,0,0,1,154.88,126Z"/><circle class="cls-43" cx="548.67" cy="128.8" r="4.1"/><circle class="cls-44" cx="579.59" cy="125.96" r="4.1"/><path class="cls-45" d="M788,117.49a5.16,5.16,0,1,1-5.55-4.74A5.18,5.18,0,0,1,788,117.49Z"/><path class="cls-46" d="M793.46,120.44a3.32,3.32,0,1,1-3.56-3A3.31,3.31,0,0,1,793.46,120.44Z"/><path class="cls-47" d="M791,118.6a1,1,0,1,1-2,.16,1,1,0,0,1,2-.16Z"/><path class="cls-48" d="M753.2,121.21a1,1,0,1,1-2,.16,1,1,0,0,1,2-.16Z"/><path class="cls-49" d="M794.16,118.51a2,2,0,1,1-2.1-1.79A2,2,0,0,1,794.16,118.51Z"/><path class="cls-50" d="M760.43,119.64a5.42,5.42,0,1,1-5.82-5A5.42,5.42,0,0,1,760.43,119.64Z"/><path class="cls-51" d="M705.87,125.3a2.36,2.36,0,1,1-2.54-2.17A2.36,2.36,0,0,1,705.87,125.3Z"/><path class="cls-52" d="M765.42,119.25a4.11,4.11,0,1,1-4.41-3.77A4.1,4.1,0,0,1,765.42,119.25Z"/><circle class="cls-53" cx="667.72" cy="125.14" r="4.1"/><circle class="cls-54" cx="210.34" cy="124.5" r="4.1"/><path class="cls-55" d="M308.21,123.48a2.38,2.38,0,1,1-2.37-2.37A2.37,2.37,0,0,1,308.21,123.48Z"/><path class="cls-56" d="M281.44,115.17a6.3,6.3,0,1,1-6.29-6.29A6.29,6.29,0,0,1,281.44,115.17Z"/></g></g></g></svg>