<svg xmlns="http://www.w3.org/2000/svg" xmlns:xlink="http://www.w3.org/1999/xlink" viewBox="0 0 902.53 447.51"><defs><style>.cls-1{isolation:isolate;}.cls-2{fill:#001639;}.cls-3{fill:#92acab;}.cls-3,.cls-4{mix-blend-mode:multiply;}.cls-4{fill:#b38486;}.cls-5{fill:#141e49;}.cls-6{fill:#223b8b;}.cls-7{fill:#100029;}.cls-8{fill:url(#Áåçûìÿííûé_ãðàäèåíò_264);}.cls-9{fill:url(#Áåçûìÿííûé_ãðàäèåíò_264-2);}.cls-10{fill:url(#Áåçûìÿííûé_ãðàäèåíò_264-3);}.cls-11{fill:url(#Áåçûìÿííûé_ãðàäèåíò_264-4);}.cls-12{fill:url(#Áåçûìÿííûé_ãðàäèåíò_264-5);}.cls-13{fill:url(#Áåçûìÿííûé_ãðàäèåíò_264-6);}.cls-14{fill:url(#Áåçûìÿííûé_ãðàäèåíò_264-7);}.cls-15{fill:url(#Áåçûìÿííûé_ãðàäèåíò_264-8);}.cls-16{fill:url(#Áåçûìÿííûé_ãðàäèåíò_264-9);}.cls-17{fill:#00c9ff;}.cls-18{fill:url(#Áåçûìÿííûé_ãðàäèåíò_264-10);}.cls-19{fill:#00e700;}.cls-20{fill:url(#Áåçûìÿííûé_ãðàäèåíò_264-11);}.cls-21{fill:url(#Áåçûìÿííûé_ãðàäèåíò_264-12);}.cls-22{fill:#ff2700;}.cls-23{fill:url(#Áåçûìÿííûé_ãðàäèåíò_264-13);}.cls-24{fill:url(#Áåçûìÿííûé_ãðàäèåíò_264-14);}.cls-25{fill:url(#Áåçûìÿííûé_ãðàäèåíò_264-15);}.cls-26{fill:url(#Áåçûìÿííûé_ãðàäèåíò_264-16);}.cls-27{fill:url(#Áåçûìÿííûé_ãðàäèåíò_264-17);}.cls-28{fill:url(#Áåçûìÿííûé_ãðàäèåíò_264-18);}.cls-29{fill:url(#Áåçûìÿííûé_ãðàäèåíò_264-19);}.cls-30{fill:url(#Áåçûìÿííûé_ãðàäèåíò_264-20);}.cls-31{fill:url(#Áåçûìÿííûé_ãðàäèåíò_264-21);}.cls-32{fill:url(#Áåçûìÿííûé_ãðàäèåíò_264-22);}.cls-33{fill:url(#Áåçûìÿííûé_ãðàäèåíò_264-23);}.cls-34{fill:url(#Áåçûìÿííûé_ãðàäèåíò_301);}.cls-35{fill:url(#Áåçûìÿííûé_ãðàäèåíò_301-2);}.cls-36{fill:url(#Áåçûìÿííûé_ãðàäèåíò_264-24);}.cls-37{fill:url(#Áåçûìÿííûé_ãðàäèåíò_264-25);}.cls-38{fill:url(#Áåçûìÿííûé_ãðàäèåíò_264-26);}.cls-39{fill:url(#Áåçûìÿííûé_ãðàäèåíò_301-3);}.cls-40{fill:url(#Áåçûìÿííûé_ãðàäèåíò_301-4);}.cls-41{fill:url(#Áåçûìÿííûé_ãðàäèåíò_264-27);}.cls-42{fill:url(#Áåçûìÿííûé_ãðàäèåíò_264-28);}.cls-43{fill:url(#Áåçûìÿííûé_ãðàäèåíò_264-29);}.cls-44{fill:url(#Áåçûìÿííûé_ãðàäèåíò_97);}.cls-45{fill:url(#Áåçûìÿííûé_ãðàäèåíò_97-2);}.cls-46{fill:url(#Áåçûìÿííûé_ãðàäèåíò_97-3);}.cls-47{fill:url(#Áåçûìÿííûé_ãðàäèåíò_97-4);}.cls-48{fill:url(#Áåçûìÿííûé_ãðàäèåíò_97-5);}.cls-49{fill:url(#Áåçûìÿííûé_ãðàäèåíò_97-6);}.cls-50{fill:#fff;}.cls-51{fill:none;mix-blend-mode:color-dodge;}</style><linearGradient id="Áåçûìÿííûé_ãðàäèåíò_264" x1="50.4" y1="438.27" x2="50.4" y2="403.75" gradientUnits="userSpaceOnUse"><stop offset="0" stop-color="#4a8bff"/><stop offset="0.99" stop-color="#6370f5"/></linearGradient><linearGradient id="Áåçûìÿííûé_ãðàäèåíò_264-2" x1="67.41" y1="376.29" x2="67.41" y2="364.84" xlink:href="#Áåçûìÿííûé_ãðàäèåíò_264"/><linearGradient id="Áåçûìÿííûé_ãðàäèåíò_264-3" x1="96.29" y1="347.16" x2="96.29" y2="326.45" xlink:href="#Áåçûìÿííûé_ãðàäèåíò_264"/><linearGradient id="Áåçûìÿííûé_ãðàäèåíò_264-4" x1="107.1" y1="288.72" x2="107.1" y2="259.43" xlink:href="#Áåçûìÿííûé_ãðàäèåíò_264"/><linearGradient id="Áåçûìÿííûé_ãðàäèåíò_264-5" x1="117.14" y1="221.64" x2="117.14" y2="198.12" xlink:href="#Áåçûìÿííûé_ãðàäèåíò_264"/><linearGradient id="Áåçûìÿííûé_ãðàäèåíò_264-6" x1="127.5" y1="151.56" x2="127.5" y2="132.2" xlink:href="#Áåçûìÿííûé_ãðàäèåíò_264"/><linearGradient id="Áåçûìÿííûé_ãðàäèåíò_264-7" x1="153.64" y1="91.8" x2="153.64" y2="88.48" xlink:href="#Áåçûìÿííûé_ãðàäèåíò_264"/><linearGradient id="Áåçûìÿííûé_ãðàäèåíò_264-8" x1="161.54" y1="66.4" x2="161.54" y2="50.26" xlink:href="#Áåçûìÿííûé_ãðàäèåíò_264"/><linearGradient id="Áåçûìÿííûé_ãðàäèåíò_264-9" x1="103.09" y1="347.11" x2="103.09" y2="342.11" gradientTransform="matrix(0.96, 0.26, -0.26, 0.96, 94.76, -12.93)" xlink:href="#Áåçûìÿííûé_ãðàäèåíò_264"/><linearGradient id="Áåçûìÿííûé_ãðàäèåíò_264-10" x1="79.5" y1="289.38" x2="79.5" y2="284.38" gradientTransform="translate(17.76 -2.05) rotate(0.49)" xlink:href="#Áåçûìÿííûé_ãðàäèåíò_264"/><linearGradient id="Áåçûìÿííûé_ãðàäèåíò_264-11" x1="100.7" y1="217.64" x2="100.7" y2="212.64" gradientTransform="translate(17.76 -2.05) rotate(0.49)" xlink:href="#Áåçûìÿííûé_ãðàäèåíò_264"/><linearGradient id="Áåçûìÿííûé_ãðàäèåíò_264-12" x1="122" y1="156.23" x2="122" y2="151.23" gradientTransform="translate(17.76 -2.05) rotate(0.49)" xlink:href="#Áåçûìÿííûé_ãðàäèåíò_264"/><linearGradient id="Áåçûìÿííûé_ãðàäèåíò_264-13" x1="134.43" y1="96.78" x2="134.43" y2="91.78" gradientTransform="translate(17.76 -2.05) rotate(0.49)" xlink:href="#Áåçûìÿííûé_ãðàäèåíò_264"/><linearGradient id="Áåçûìÿííûé_ãðàäèåíò_264-14" x1="151.66" y1="60.26" x2="151.66" y2="55.26" gradientTransform="translate(17.76 -2.05) rotate(0.49)" xlink:href="#Áåçûìÿííûé_ãðàäèåíò_264"/><linearGradient id="Áåçûìÿííûé_ãðàäèåíò_264-15" x1="107.34" y1="267.46" x2="107.34" y2="262.46" gradientTransform="translate(17.76 -2.05) rotate(0.49)" xlink:href="#Áåçûìÿííûé_ãðàäèåíò_264"/><linearGradient id="Áåçûìÿííûé_ãðàäèåíò_264-16" x1="100.03" y1="137.89" x2="100.03" y2="132.89" gradientTransform="translate(17.76 -2.05) rotate(0.49)" xlink:href="#Áåçûìÿííûé_ãðàäèåíò_264"/><linearGradient id="Áåçûìÿííûé_ãðàäèåíò_264-17" x1="52.65" y1="392.88" x2="52.65" y2="387.88" gradientTransform="matrix(0.96, 0.26, -0.26, 0.96, 94.76, -12.93)" xlink:href="#Áåçûìÿííûé_ãðàäèåíò_264"/><linearGradient id="Áåçûìÿííûé_ãðàäèåíò_264-18" x1="79.44" y1="383.85" x2="79.44" y2="378.85" gradientTransform="matrix(1, 0.02, -0.02, 1, 0.41, -7.26)" xlink:href="#Áåçûìÿííûé_ãðàäèåíò_264"/><linearGradient id="Áåçûìÿííûé_ãðàäèåíò_264-19" x1="66.52" y1="435.54" x2="66.52" y2="430.54" gradientTransform="matrix(1, 0.02, -0.02, 1, 0.41, -7.26)" xlink:href="#Áåçûìÿííûé_ãðàäèåíò_264"/><linearGradient id="Áåçûìÿííûé_ãðàäèåíò_264-20" x1="94.34" y1="415.96" x2="94.34" y2="410.97" gradientTransform="matrix(1, 0.02, -0.02, 1, 0.41, -7.26)" xlink:href="#Áåçûìÿííûé_ãðàäèåíò_264"/><linearGradient id="Áåçûìÿííûé_ãðàäèåíò_264-21" x1="27.77" y1="448.97" x2="27.77" y2="443.97" gradientTransform="matrix(1, 0.02, -0.02, 1, 0.41, -7.26)" xlink:href="#Áåçûìÿííûé_ãðàäèåíò_264"/><linearGradient id="Áåçûìÿííûé_ãðàäèåíò_264-22" x1="106.04" y1="376.49" x2="106.04" y2="371.49" gradientTransform="matrix(1, 0.02, -0.02, 1, 0.41, -7.26)" xlink:href="#Áåçûìÿííûé_ãðàäèåíò_264"/><linearGradient id="Áåçûìÿííûé_ãðàäèåíò_264-23" x1="76.07" y1="338.82" x2="76.07" y2="333.82" gradientTransform="matrix(0.96, 0.26, -0.26, 0.96, 94.76, -12.93)" xlink:href="#Áåçûìÿííûé_ãðàäèåíò_264"/><linearGradient id="Áåçûìÿííûé_ãðàäèåíò_301" x1="43.93" y1="335.01" x2="89.26" y2="335.01" gradientUnits="userSpaceOnUse"><stop offset="0" stop-color="#98caff"/><stop offset="0.99" stop-color="#86b1ff"/></linearGradient><linearGradient id="Áåçûìÿííûé_ãðàäèåíò_301-2" x1="22.98" y1="297.04" x2="43.48" y2="297.04" xlink:href="#Áåçûìÿííûé_ãðàäèåíò_301"/><linearGradient id="Áåçûìÿííûé_ãðàäèåíò_264-24" x1="54.62" y1="357.67" x2="54.62" y2="348.18" xlink:href="#Áåçûìÿííûé_ãðàäèåíò_264"/><linearGradient id="Áåçûìÿííûé_ãðàäèåíò_264-25" x1="77.02" y1="338.89" x2="77.02" y2="309.57" xlink:href="#Áåçûìÿííûé_ãðàäèåíò_264"/><linearGradient id="Áåçûìÿííûé_ãðàäèåíò_264-26" x1="31.5" y1="304.57" x2="31.5" y2="290.01" xlink:href="#Áåçûìÿííûé_ãðàäèåíò_264"/><linearGradient id="Áåçûìÿííûé_ãðàäèåíò_301-3" x1="149.61" y1="89.48" x2="238.42" y2="89.48" xlink:href="#Áåçûìÿííûé_ãðàäèåíò_301"/><linearGradient id="Áåçûìÿííûé_ãðàäèåíò_301-4" x1="226.23" y1="76.47" x2="266.96" y2="76.47" xlink:href="#Áåçûìÿííûé_ãðàäèåíò_301"/><linearGradient id="Áåçûìÿííûé_ãðàäèåíò_264-27" x1="173.06" y1="123.8" x2="173.06" y2="104.44" xlink:href="#Áåçûìÿííûé_ãðàäèåíò_264"/><linearGradient id="Áåçûìÿííûé_ãðàäèåíò_264-28" x1="217.48" y1="104.42" x2="217.48" y2="55.16" xlink:href="#Áåçûìÿííûé_ãðàäèåíò_264"/><linearGradient id="Áåçûìÿííûé_ãðàäèåíò_264-29" x1="246.59" y1="83.31" x2="246.59" y2="69.64" xlink:href="#Áåçûìÿííûé_ãðàäèåíò_264"/><linearGradient id="Áåçûìÿííûé_ãðàäèåíò_97" x1="236.07" y1="34.38" x2="1041" y2="34.38" gradientTransform="matrix(-1, 0, 0, 1, 1137.53, 0)" gradientUnits="userSpaceOnUse"><stop offset="0" stop-color="#7c9aff"/><stop offset="0.99" stop-color="#c2c2ff"/></linearGradient><linearGradient id="Áåçûìÿííûé_ãðàäèåíò_97-2" x1="236.07" y1="53.03" x2="1043.9" y2="53.03" xlink:href="#Áåçûìÿííûé_ãðàäèåíò_97"/><linearGradient id="Áåçûìÿííûé_ãðàäèåíò_97-3" x1="235" y1="94" x2="1137.53" y2="94" xlink:href="#Áåçûìÿííûé_ãðàäèåíò_97"/><linearGradient id="Áåçûìÿííûé_ãðàäèåíò_97-4" x1="629.35" y1="177.45" x2="629.35" y2="67.16" xlink:href="#Áåçûìÿííûé_ãðàäèåíò_97"/><linearGradient id="Áåçûìÿííûé_ãðàäèåíò_97-5" x1="625.21" y1="174.84" x2="625.21" y2="67.4" xlink:href="#Áåçûìÿííûé_ãðàäèåíò_97"/><linearGradient id="Áåçûìÿííûé_ãðàäèåíò_97-6" x1="633.13" y1="174.84" x2="633.13" y2="67.4" xlink:href="#Áåçûìÿííûé_ãðàäèåíò_97"/></defs><title>Asset 13</title><g class="cls-1"><g id="Layer_2" data-name="Layer 2"><g id="parc"><path class="cls-2" d="M172.41,46.46s-6,42.72-8.68,46.72c-1.35,2-7.87,16.31-14.12,30.62-4.49,10.28-8.84,20.58-11,26.35,0,.11-.08.22-.13.33a.78.78,0,0,1-.05.14,36.48,36.48,0,0,0-1.25,3.73c-.7,3.19-7.26,61.39-13.23,112.86h0c-.3,2.58-.6,5.15-.9,7.69a.13.13,0,0,1,0,.06c0,.22,0,.44-.07.67-4.35,37.41-8.19,69.27-8.87,70.52s-5,7.16-9.69,13.49l-.51.7c-5.52,7.49-11.46,15.53-12.8,17.83-.78,1.33-2.45,8.42-4.39,17.6,0,0,0,.05,0,.1-4.06,19.21-9.3,47.47-10,51.21,0,.14-.05.24-.06.31l0,.11H13.33S29.06,382.84,35,374.19c2.58-3.76,10.11-10.12,18.49-17.55,10.89-9.64,23.21-21.09,28-31,0,0,0,0,0,0,8.42-17.5,32.86-185.29,36.21-193.3,2.73-6.53,19.39-33.75,26-45.41h0a45.69,45.69,0,0,0,2.68-5.09c1.06-3.34,10.29-34.31,10.29-34.31Z"/><path class="cls-2" d="M282.28,47.51s-2.31,3.4-4.53,6.72C276.17,56.61,274.63,59,274,60c-1.45,2.49-4.3,15.51-8.69,18s-50.11,8.67-51.94,10.73a0,0,0,0,1,0,0,.27.27,0,0,0-.07.08h0c-.7.83-2.49,3.37-4.73,6.53l-.43.61-.24.33c-4.54,6.41-10.59,14.82-13.43,17.19-.23.19-.58.46-1,.8h0c-1.14.83-2.95,2.08-5.25,3.63l-.08,0c-12.89,8.7-40.69,26.69-49.65,32.48l0,0-2.82,1.82c-.66-10.49,9.78-27.24,9.78-27.24s1.61-.47,4.24-1.28l1.11-.34.18-.06c5.27-1.63,13.53-4.29,21.24-7.18,6.93-2.6,13.41-5.38,16.9-7.76,9.88-6.75,56-61,56-61l8.84.1s-11.17,7.33-14.34,11.13S226.23,78,226.23,79s7,3.49,9,3.51,30.11-4.52,35.2-18.27A111.93,111.93,0,0,0,274.05,53c1.08-4.29.83-5.48.83-5.48Z"/><path class="cls-2" d="M53.49,356.64S52.6,374.37,35,374.19c0,0-3.6-28.35-4.44-34.18-.6-4.18.81-20.52,1.64-29.41.34-3.5.58-5.84.58-5.84L20.23,290.43c-.5-.59-2.75-13.42-3.08-14.34A15.94,15.94,0,0,0,14.48,273s-5.25,1.58-6,1.17a1.62,1.62,0,0,1-.19-.13,18.17,18.17,0,0,1-2.21-2.44c.22.19,2,1.71,2.66,1.66h.07c.67-.17,4.59-1.08,5.75-.92s4.22,2.34,4.34,3.42,3.66,13,4.08,13.75,9.38,9.83,12.94,13.53h0l1.23,1.29c.38.43.55,2.48.59,5.4.12,9.63-1.17,28.76-.59,30.94s9.33,9.91,13.78,13.77C52.47,355.78,53.49,356.64,53.49,356.64Z"/><path class="cls-2" d="M47.06,278.68c-.37-1.9-.56-4.63-.12-2.9a3.13,3.13,0,0,1,.21-1.19,13.69,13.69,0,0,0,0,2c-.07-.33-.13-.59-.18-.8A22.11,22.11,0,0,0,47.06,278.68Z"/><path class="cls-2" d="M44.25,284.16c-.4,1.12.56,9.27.56,10.35s-7.07,15.23-7.07,15.23a8.24,8.24,0,0,1-1.82-6.69h0s7.19-8.15,7.56-9.15-.5-9,0-9.88a50.22,50.22,0,0,1,3.21-4l.46-.53s0-.33-.09-.83a4.72,4.72,0,0,0,.45,1.49l-.38.44A19,19,0,0,0,44.25,284.16Z"/><path class="cls-2" d="M48,279.53c-.14.72-.3.85-.46.64A2.36,2.36,0,0,0,48,279.53Z"/><path class="cls-3" d="M29.78,415.34c1.82-6.12,9.26-25,9.76-26.26-.36,1.21-5.36,17.89-6.81,25.43-1.5,7.83-2.95,33-2.95,33H22.9S27.9,421.68,29.78,415.34Z"/><path class="cls-4" d="M153.8,134c5.4-.26,32.59-15.06,34.29-16l-49.52,32.15-.13.08,0,.27,0,.12L123.91,267.21h0a153.72,153.72,0,0,0-9.38,22c-4.2,12.5-11.8,41.92-11.8,41.92S113,326,115.48,317.26c2.34-8.2,7-38.53,7.52-42.29a.13.13,0,0,0,0-.06s0-.07,0-.1l-.1.83-8.87,70.52-9.69,13.49-.51.7-12.8,17.83s-10,2.83-9.33-2.45,10.82-28.16,11.13-28.87c-.39.68-13,22.62-16.13,31.65s-5,44.5-5,44.5,3.83-2,7.83-8.5c3.75-6.09,6.73-17.26,7.08-18.63,0-.05,0-.08,0-.1l-10,51.31-.06.31,0,.11H59.23s1.67-1.83,1.5-5.83-.83-35.33-.83-35.33l3.92,32.49c.92-12.66,0-37.64,0-37.64-8.25-12.48-28.82-27-28.82-27,14.26-2.48,18.49-17.55,18.49-17.55s11.19,16.59,16.85,9.2,6.56-15.16,7.22-22.66c.56-6.25,2.91-14.27,3.68-16.77-1.27,4.46-1,12.18-1,12.18,4.19-4.91,8.81-26.08,8.81-26.08-.33-2.92-.67-14-.67-14s.67,14,1.67,12.28,8.1-20.9,9.07-23.49c-1.28,3.92-15.21,46.46-14.77,48.15s13.7-9.94,14.15-12.44,6-30.17,6.55-34.09-1.16-44.08-.43-46.91,5-25.09,5.26-26.57c-.16,1.31-2.19,18.19-2.86,25.29-.71,7.4-1.73,25.11-1.73,25.11a131.33,131.33,0,0,0,5.77-17.33c2.18-8.83,8.83-46,11.7-57.16s6.37-37.15,6.37-37.15-5.08,4.81-6.09,6.69-2.17,7.91-2.17,7.91l-9.78,41.4c.57-3.08,9.66-52.41,10.51-54S135.9,134.51,136.22,134s11.59-32.56,11.59-32.56c-.58-1.9-4-14.09-4.08-14.5h0a45.69,45.69,0,0,0,2.68-5.09c1.06-3.34,10.29-34.31,10.29-34.31l15.71-1s-6,42.72-8.68,46.72c-1.35,2-7.87,16.31-14.12,30.62l1.11-.34S148.23,134.26,153.8,134Z"/><path class="cls-3" d="M277.75,54.23C276.17,56.61,274.63,59,274,60c-1.45,2.49-4.3,15.51-8.69,18s-50.11,8.67-51.94,10.73a0,0,0,0,1,0,0,.27.27,0,0,0-.07.08h0c-.45.63-2.77,3.79-4.73,6.53l-.43.61-.24.33c-2.73,3.72-14.11,17.54-14.48,18h0s-6.57-2.06-10.27-1.43c-1.32.22-5.79,1.62-11,3.33,6.93-2.6,13.41-5.38,16.9-7.76,9.88-6.75,56-61,56-61l8.84.1s-11.17,7.33-14.34,11.13S226.23,78,226.23,79s7,3.49,9,3.51,30.11-4.52,35.2-18.27A111.93,111.93,0,0,0,274.05,53Z"/><path class="cls-4" d="M38.29,347.76,40,360.46c-.3-1-5-17.25-5.23-18.87s0-28.2,0-28.2l-2.53-2.79h0c.34-3.5.58-5.84.58-5.84L20.23,290.43c-.5-.59-2.75-13.42-3.08-14.34A15.94,15.94,0,0,0,14.48,273s-5.25,1.58-6,1.17a1.62,1.62,0,0,1-.19-.13l.45-.78h.07c.67-.17,4.59-1.08,5.75-.92s4.22,2.34,4.34,3.42,3.66,13,4.08,13.75,9.38,9.83,12.94,13.53c0,0,7.19-8.15,7.56-9.15s-.5-9,0-9.88a50.22,50.22,0,0,1,3.21-4l.44.57a19,19,0,0,0-2.88,3.55c-.4,1.12.56,9.27.56,10.35s-7.07,15.23-7.07,15.23c.12,9.63-1.17,28.76-.59,30.94s9.33,9.91,13.78,13.77Z"/><path class="cls-5" d="M84.36,335.45s4.28-17.88,6.37-24.66,9.67-27.11,9.67-27.11,4.38,7.33,3.07,14.09-3.31,22.13-5.53,26.35S86.52,335.61,84.36,335.45Z"/><path class="cls-5" d="M105,277.39s-5-18.38-5-25.13l-9.25,34.2,19.35-110.8A22.72,22.72,0,0,1,114.62,187L108.87,224s10.38-19.13,11.74-24.25Z"/><path class="cls-6" d="M112,164.09s11.35-25.93,13.64-32.42L122.49,134l.28-6.6,8.42-19.12L116.58,133.2Z"/><polygon class="cls-6" points="114.53 175.38 112.41 187.03 109.9 212.75 117.29 177.56 120.88 159.13 114.59 180.7 114.53 175.38"/><path class="cls-6" d="M63,348l16.45-15.12,1.78-6.44,4.45-.86s3.45-12.14,3.37-13,0-13.5,0-13.5l.84,1.92,7.42-38.77,10.3-72.28L83.49,319.81,75.56,332Z"/><path class="cls-6" d="M32,312.83v20.22l3,18-1.5-3L35,374.19s-4.78-33.55-5.21-35.68S32,312.83,32,312.83Z"/><path class="cls-6" d="M31.75,380.12,31.22,411,22.9,447.51H13.33S28.88,388.76,31.75,380.12Z"/><path class="cls-5" d="M29.78,447.51s6.73-49.71,11.87-64.67c0,0,14.52,9.15,15.92,10.67l-4.08,43.33L60,409.23l3,38.28Z"/><polygon class="cls-6" points="29.78 447.51 34.11 418.83 38.1 396.92 36.56 420.51 38.1 418.3 33.94 427.85 29.78 447.51"/><polygon class="cls-6" points="68.73 347.97 63.01 356.76 58.87 363.12 65.98 355.01 68.73 347.97"/><polygon class="cls-6" points="103.71 271.61 107.81 259.27 111.38 245.29 105.04 277.38 103.71 271.61"/><polygon class="cls-6" points="131.19 120.51 136.23 107.01 142.39 100.92 131.19 120.51"/><polygon class="cls-2" points="257.92 76.82 284.96 72.92 294.54 78.61 257.92 76.82"/><polygon class="cls-2" points="14.86 278.68 19.09 276.64 25.98 277.38 20.42 277.66 26.98 279.53 15.86 279.9 6.98 279.9 14.86 278.68"/><polygon class="cls-7" points="147.14 58.66 151.38 56.62 158.27 57.37 152.71 57.64 159.27 59.51 148.14 59.88 139.27 59.88 147.14 58.66"/><polygon class="cls-2" points="40.36 284.51 47.51 284.51 43.93 282.76 40.36 284.51"/><polygon class="cls-2" points="44.77 285.67 37.45 286.84 42.57 286.84 44.77 285.67"/><polygon class="cls-7" points="246.8 46.93 239.48 48.09 244.6 48.09 246.8 46.93"/><path class="cls-8" d="M15.88,438.27a1,1,0,0,1-.05-2c.36,0,35.93-2.1,68.41-32.25a1,1,0,0,1,1.36,1.46c-33,30.68-69.31,32.77-69.67,32.79Z"/><path class="cls-9" d="M52.11,376.29a121.33,121.33,0,0,1-17.27-1.11A1,1,0,0,1,34,374a1,1,0,0,1,1.15-.83c.34.06,34.63,5.44,64.24-8.26a1,1,0,0,1,1.32.48,1,1,0,0,1-.48,1.33C83.38,374.55,65.06,376.29,52.11,376.29Z"/><path class="cls-10" d="M114.06,347.16h0c-27.13-.86-36.31-19.09-36.4-19.27a1,1,0,1,1,1.79-.88c.09.17,8.8,17.33,34.67,18.15a1,1,0,0,1,0,2Z"/><path class="cls-11" d="M89.45,288.72a1,1,0,0,1-.5-1.87,203.83,203.83,0,0,0,35.11-27.15,1,1,0,1,1,1.38,1.45A207.37,207.37,0,0,1,90,288.59,1,1,0,0,1,89.45,288.72Z"/><path class="cls-12" d="M101.91,221.64a1,1,0,0,1-.39-1.92c.15-.06,14.38-6,30.15-21.32a1,1,0,0,1,1.42,0,1,1,0,0,1,0,1.41c-16.06,15.56-30.63,21.67-30.77,21.73A1.06,1.06,0,0,1,101.91,221.64Z"/><path class="cls-13" d="M137.16,151.56c-12.62,0-21.11-17.17-21.48-17.92a1,1,0,0,1,1.8-.88c.09.18,8.85,17.9,20.83,16.75a1,1,0,1,1,.2,2C138.05,151.54,137.61,151.56,137.16,151.56Z"/><path class="cls-14" d="M152.76,91.8a35.72,35.72,0,0,1-10.83-1.38,1,1,0,0,1,.66-1.89c.08,0,8.49,2.83,22.22,0a1,1,0,0,1,1.18.77,1,1,0,0,1-.77,1.19A61.65,61.65,0,0,1,152.76,91.8Z"/><path class="cls-15" d="M151.48,66.4h-.2a1,1,0,0,1,.15-2c.12,0,7.42.19,19.53-13.79a1,1,0,1,1,1.51,1.3C160.5,65.74,152.84,66.4,151.48,66.4Z"/><path class="cls-16" d="M102.4,349.07a1,1,0,0,1-.7-1.22l.8-2.9a1,1,0,0,1,1.93.53l-.8,2.89A1,1,0,0,1,102.4,349.07Z"/><path class="cls-17" d="M104.86,349.82a2.57,2.57,0,1,1-1.79-3.16A2.55,2.55,0,0,1,104.86,349.82Z"/><path class="cls-18" d="M94.77,288a1,1,0,0,1-1-1l0-3a1,1,0,0,1,1-1,1,1,0,0,1,1,1l0,3A1,1,0,0,1,94.77,288Z"/><path class="cls-19" d="M97.34,288.11a2.57,2.57,0,1,1-5.14-.05,2.57,2.57,0,0,1,5.14.05Z"/><path class="cls-20" d="M116.58,216.46a1,1,0,0,1-1-1l0-3a1,1,0,0,1,1-1,1,1,0,0,1,1,1l0,3A1,1,0,0,1,116.58,216.46Z"/><path class="cls-17" d="M119.15,216.55A2.57,2.57,0,1,1,116.6,214,2.57,2.57,0,0,1,119.15,216.55Z"/><path class="cls-21" d="M138.41,155.23a1,1,0,0,1-1-1l0-3a1,1,0,0,1,1-1,1,1,0,0,1,1,1l0,3A1,1,0,0,1,138.41,155.23Z"/><circle class="cls-22" cx="138.41" cy="155.3" r="2.57" transform="translate(-65.39 113.59) rotate(-36.72)"/><path class="cls-23" d="M151.36,95.88a1,1,0,0,1-1-1l0-3a1,1,0,0,1,2,0l0,3A1,1,0,0,1,151.36,95.88Z"/><path class="cls-19" d="M153.93,96a2.57,2.57,0,1,1-2.55-2.6A2.58,2.58,0,0,1,153.93,96Z"/><path class="cls-24" d="M168.91,59.51a1,1,0,0,1-1-1l0-3a1,1,0,0,1,2,0l0,3A1,1,0,0,1,168.91,59.51Z"/><path class="cls-22" d="M171.47,59.6A2.57,2.57,0,1,1,168.93,57,2.57,2.57,0,0,1,171.47,59.6Z"/><path class="cls-25" d="M122.8,266.33a1,1,0,0,1-1-1l0-3a1,1,0,0,1,2,0l0,3A1,1,0,0,1,122.8,266.33Z"/><path class="cls-22" d="M125.37,266.43a2.57,2.57,0,1,1-2.55-2.6A2.58,2.58,0,0,1,125.37,266.43Z"/><path class="cls-26" d="M116.61,136.7a1,1,0,0,1-1-1l0-3a1,1,0,0,1,2,0l0,3A1,1,0,0,1,116.61,136.7Z"/><path class="cls-19" d="M119.17,136.79a2.57,2.57,0,1,1-2.54-2.59A2.57,2.57,0,0,1,119.17,136.79Z"/><path class="cls-27" d="M41.67,379.88a1,1,0,0,1-.7-1.23l.79-2.89a1,1,0,1,1,1.93.53l-.8,2.89A1,1,0,0,1,41.67,379.88Z"/><path class="cls-19" d="M44.13,380.63a2.57,2.57,0,1,1-1.8-3.16A2.58,2.58,0,0,1,44.13,380.63Z"/><path class="cls-28" d="M70.26,378.45a1,1,0,0,1-1-1l.07-3a1,1,0,0,1,1-1,1,1,0,0,1,1,1l-.07,3A1,1,0,0,1,70.26,378.45Z"/><circle class="cls-22" cx="70.26" cy="378.52" r="2.57"/><path class="cls-29" d="M56.06,429.81a1,1,0,0,1-1-1l.07-3a1,1,0,0,1,1-1,1,1,0,0,1,1,1l-.07,3A1,1,0,0,1,56.06,429.81Z"/><circle class="cls-22" cx="56.06" cy="429.88" r="2.57"/><path class="cls-30" d="M84.36,410.93a1,1,0,0,1-1-1l.07-3a1,1,0,0,1,1-1,1,1,0,0,1,1,1l-.07,3A1,1,0,0,1,84.36,410.93Z"/><circle class="cls-17" cx="84.36" cy="411" r="2.57"/><path class="cls-31" d="M17,442.27a1,1,0,0,1-1-1l.07-3a1,1,0,0,1,1-1,1,1,0,0,1,1,1l-.07,3A1,1,0,0,1,17,442.27Z"/><path class="cls-17" d="M19.55,442.4A2.57,2.57,0,1,1,17,439.77,2.58,2.58,0,0,1,19.55,442.4Z"/><path class="cls-32" d="M97,371.76a1,1,0,0,1-1-1l.08-3a1,1,0,0,1,1-1,1,1,0,0,1,1,1l-.08,3A1,1,0,0,1,97,371.76Z"/><circle class="cls-17" cx="97.04" cy="371.83" r="2.57"/><path class="cls-33" d="M78.54,333.94a1,1,0,0,1-.7-1.23l.8-2.89a1,1,0,0,1,1.93.52l-.8,2.9A1,1,0,0,1,78.54,333.94Z"/><path class="cls-22" d="M81,334.68a2.57,2.57,0,1,1-1.8-3.15A2.56,2.56,0,0,1,81,334.68Z"/><path class="cls-34" d="M43.93,348.18l8.4-.21s21.9-29.43,30.07-37.19l2.91-1.21v10.31l4-1.81S86.06,332,78.73,341.76s-25.91,18.7-25.91,18.7l-.49-2.79Z"/><path class="cls-35" d="M23,289.51l10.91,7.15h4.47s2.28-3.19,3.75-3.57l1.37.8s-4.06,7.37-7,10.12l-1.48.56s-10.83-11.31-11.27-12.43A19.63,19.63,0,0,1,23,289.51Z"/><path class="cls-36" d="M43.93,348.18s7.15,4.08,9.56,4.25,11.82-2.67,11.82-2.67-6.22,7.57-13,7.91Z"/><path class="cls-37" d="M85.31,309.57s-5.66,10.1-9.66,16.31a101.28,101.28,0,0,0-6.92,13s12.08-16.3,16.58-19Z"/><path class="cls-38" d="M23.1,290s1.13,2.81,5.63,5.88,11.18,3.82,11.18,3.82S38,303.45,36.48,304l-1.48.56s-10.52-10.75-11.27-12.43S23.1,290,23.1,290Z"/><path class="cls-39" d="M238.42,55.15h0l-40.35,48.18s-.54.4-1.52,1.08l0,0c-6,4.21-28.56,19-46.9,19.36l2.85-6.48s27.6-10.14,32.1-13.81,30-36,35.67-39.67S238.42,55.15,238.42,55.15Z"/><path class="cls-40" d="M267,69.63a0,0,0,0,1,0,0c-.31.42-5.32,7.22-8.22,9s-21,5.15-26.38,4.65S226.23,79,226.23,79s7.25.32,10.25-.41,29.64-8.73,30.47-9Z"/><path class="cls-41" d="M182.56,108.26a98,98,0,0,1,13.95-3.82c-6,4.21-28.56,19-46.9,19.36C149.61,123.8,173.4,111.34,182.56,108.26Z"/><path class="cls-42" d="M238.41,55.16l-40.35,48.18s-.54.4-1.52,1.08c.31-.66,8.33-17.53,15.52-25.81S237.83,55.62,238.41,55.16Z"/><path class="cls-43" d="M258.22,75.77c3.78-2.65,8.37-5.89,8.73-6.13-.31.42-5.32,7.22-8.22,9s-21,5.15-26.38,4.65S226.23,79,226.23,79a70.18,70.18,0,0,0,12.83,1.49C245.65,80.59,254.3,78.53,258.22,75.77Z"/><path class="cls-44" d="M626.08,68.76c-6.67,0-13.38,0-20.17-.07-96-.6-184.42-5.47-262.91-14.46C244.86,43,162.09,25.21,97,1.42a.73.73,0,0,1-.44-.94A.74.74,0,0,1,97.51,0C244.69,53.86,455.22,66.28,605.92,67.23c163.28,1,293.45-10.83,294.74-11a.74.74,0,0,1,.8.66.73.73,0,0,1-.66.8C899.56,57.85,779.86,68.76,626.08,68.76Z"/><path class="cls-45" d="M736.06,87.11c-32.83,0-64-1.38-90.82-3.21-76-5.17-133.92-14.85-136.48-15.28C386.21,76.16,280,62.65,212.51,50,139.33,36.25,94.56,20.52,94.11,20.37a.73.73,0,0,1-.44-.94A.72.72,0,0,1,94.6,19c.44.16,45.14,15.85,118.22,29.56C280.25,61.2,386.34,74.7,508.75,67.16h.08l.09,0c.58.1,59.2,10,136.43,15.28,71.26,4.84,173.38,6.6,255.21-12.59a.73.73,0,0,1,.34,1.42C849.7,83.29,790.6,87.11,736.06,87.11Z"/><path class="cls-46" d="M751.92,127.66c-4.53,0-9.11-.08-13.71-.22-36.57-1.16-75.16-6.88-114.68-17-64.59-16.56-110.77-39.7-114.79-41.75-71.71,24.77-205.91,21.6-306,14.57C94.31,75.62,1.55,61.94.62,61.81a.73.73,0,0,1,.22-1.45c.92.14,93.64,13.81,202.07,21.43,100,7,234.25,10.21,305.65-14.59l.29-.11.28.15c.47.24,47.66,24.58,114.8,41.78,61.92,15.87,154,28.75,240.78,0A183.1,183.1,0,0,0,901.4,91.84a.73.73,0,1,1,.79,1.23,184.87,184.87,0,0,1-37,17.31C830.54,121.86,792.51,127.66,751.92,127.66Z"/><path class="cls-47" d="M507.56,177.45h0a.72.72,0,0,1-.72-.74l1.23-108.83a.74.74,0,0,1,1.47,0l-1.24,108.83A.73.73,0,0,1,507.56,177.45Z"/><path class="cls-48" d="M514.29,174.84a.74.74,0,0,1-.73-.71l-3.95-106a.74.74,0,0,1,.71-.76.73.73,0,0,1,.75.71l3.95,106a.73.73,0,0,1-.7.76Z"/><path class="cls-49" d="M502.41,174.84h0a.74.74,0,0,1-.71-.76l4-106a.71.71,0,0,1,.76-.71.73.73,0,0,1,.7.76l-4,106A.73.73,0,0,1,502.41,174.84Z"/><path class="cls-50" d="M510.34,110.58a2,2,0,1,0,2-2A2,2,0,0,0,510.34,110.58Z"/><path class="cls-50" d="M509.06,81.45a2,2,0,1,0,2-2A2,2,0,0,0,509.06,81.45Z"/><path class="cls-50" d="M511,139a2,2,0,1,0,2-2A2,2,0,0,0,511,139Z"/><circle class="cls-50" cx="508.18" cy="176.08" r="1.98"/><circle class="cls-50" cx="507.56" cy="142.9" r="1.98"/><circle class="cls-50" cx="508.18" cy="115.36" r="1.98"/><circle class="cls-50" cx="508.18" cy="86.72" r="1.98"/><path class="cls-50" d="M441.05,83.43a2,2,0,1,0,2-2A2,2,0,0,0,441.05,83.43Z"/><circle class="cls-50" cx="384.56" cy="88.69" r="1.98"/><circle class="cls-50" cx="471.75" cy="78.31" r="1.98"/><circle class="cls-50" cx="508.18" cy="65.91" r="1.98"/><circle class="cls-50" cx="581.35" cy="97.82" r="1.98"/><circle class="cls-50" cx="608.87" cy="80.29" r="1.98"/><circle class="cls-50" cx="660.07" cy="83.43" r="1.98"/><circle class="cls-50" cx="618.63" cy="68.61" r="1.98"/><circle class="cls-50" cx="646.72" cy="68.16" r="1.98"/><circle class="cls-50" cx="721.99" cy="85.99" r="1.98"/><circle class="cls-50" cx="702.86" cy="67.83" r="1.98"/><circle class="cls-50" cx="791.27" cy="84.02" r="1.98"/><circle class="cls-50" cx="767.86" cy="65.91" r="1.98"/><path class="cls-50" d="M852.69,79.21a2,2,0,1,0,2-2A2,2,0,0,0,852.69,79.21Z"/><circle class="cls-50" cx="887.09" cy="73.55" r="1.98"/><path class="cls-50" d="M628.68,111.35a2,2,0,1,0,2-2A2,2,0,0,0,628.68,111.35Z"/><circle class="cls-50" cx="689.79" cy="122.53" r="1.98"/><path class="cls-50" d="M742.13,126.27a2,2,0,1,0,2-2A2,2,0,0,0,742.13,126.27Z"/><path class="cls-50" d="M798.85,123a2,2,0,1,0,2-2A2,2,0,0,0,798.85,123Z"/><circle class="cls-50" cx="863.73" cy="109.73" r="1.98"/><circle class="cls-50" cx="558.31" cy="88.69" r="1.98"/><circle class="cls-50" cx="581.35" cy="77.5" r="1.98"/><path class="cls-50" d="M631.66,81.45a2,2,0,1,0,2-2A2,2,0,0,0,631.66,81.45Z"/><path class="cls-50" d="M586.9,68.66a2,2,0,1,0,2-2A2,2,0,0,0,586.9,68.66Z"/><circle class="cls-50" cx="564.36" cy="67.89" r="1.98"/><circle class="cls-50" cx="534.11" cy="66.68" r="1.98"/><circle class="cls-50" cx="693.74" cy="85.4" r="1.98"/><path class="cls-50" d="M674.84,68a2,2,0,1,0,2-2A2,2,0,0,0,674.84,68Z"/><circle class="cls-50" cx="754.41" cy="85.99" r="1.98"/><circle class="cls-50" cx="735.54" cy="66.63" r="1.98"/><circle class="cls-50" cx="822.47" cy="82.26" r="1.98"/><circle class="cls-50" cx="805.17" cy="63.94" r="1.98"/><path class="cls-50" d="M838.6,61.32a2,2,0,1,0,2-2A2,2,0,0,0,838.6,61.32Z"/><path class="cls-50" d="M870.19,59.34a2,2,0,1,0,2-2A2,2,0,0,0,870.19,59.34Z"/><circle class="cls-50" cx="606.9" cy="105.35" r="1.98"/><circle class="cls-50" cx="660.07" cy="117.33" r="1.98"/><circle class="cls-50" cx="718.04" cy="125.47" r="1.98"/><circle class="cls-50" cx="769.84" cy="126.27" r="1.98"/><circle class="cls-50" cx="833.22" cy="118.27" r="1.98"/><path class="cls-50" d="M888.46,98.67a2,2,0,1,0,2-2A2,2,0,0,0,888.46,98.67Z"/><circle class="cls-50" cx="416.71" cy="86.72" r="1.98"/><path class="cls-50" d="M531.31,80.29a2,2,0,1,0,2-2A2,2,0,0,0,531.31,80.29Z"/><path class="cls-50" d="M550.37,73.87a2,2,0,1,0,2-2A2,2,0,0,0,550.37,73.87Z"/><path class="cls-50" d="M306.67,87.9a2,2,0,1,0,2-2A2,2,0,0,0,306.67,87.9Z"/><path class="cls-50" d="M258,86.43a2,2,0,1,0,2-2A2,2,0,0,0,258,86.43Z"/><circle class="cls-50" cx="215.22" cy="84.74" r="1.98"/><circle class="cls-50" cx="138.97" cy="76.84" r="1.98"/><circle class="cls-50" cx="45.96" cy="67.38" r="1.98"/><circle class="cls-50" cx="84.36" cy="71.15" r="1.98"/><path class="cls-50" d="M176.18,80.79a2,2,0,1,0,2-2A2,2,0,0,0,176.18,80.79Z"/><path class="cls-50" d="M191.44,45.51a2,2,0,1,0,2-2A2,2,0,0,0,191.44,45.51Z"/><circle class="cls-50" cx="160" cy="20.65" r="1.98"/><path class="cls-50" d="M222.13,51.36a2,2,0,1,0,2-2A2,2,0,0,0,222.13,51.36Z"/><circle class="cls-50" cx="191.44" cy="28.5" r="1.98"/><circle class="cls-50" cx="253.38" cy="56.33" r="1.98"/><path class="cls-50" d="M220.16,35.05a2,2,0,1,0,2-2A2,2,0,0,0,220.16,35.05Z"/><path class="cls-50" d="M277.79,45.51a2,2,0,1,0,2-2A2,2,0,0,0,277.79,45.51Z"/><circle class="cls-50" cx="285.95" cy="60.98" r="1.98"/><path class="cls-50" d="M248.16,41a2,2,0,1,0,2-2A2,2,0,0,0,248.16,41Z"/><path class="cls-50" d="M309.88,63.94a2,2,0,1,0,2-2A2,2,0,0,0,309.88,63.94Z"/><circle class="cls-50" cx="340.81" cy="65.92" r="1.98"/><path class="cls-50" d="M311.86,50.41a2,2,0,1,0,2-2A2,2,0,0,0,311.86,50.41Z"/><circle class="cls-50" cx="424.08" cy="69.36" r="1.98"/><circle class="cls-50" cx="382.58" cy="58.31" r="1.98"/><path class="cls-50" d="M437.1,62.26a2,2,0,1,0,2-2A2,2,0,0,0,437.1,62.26Z"/><circle class="cls-50" cx="369.31" cy="67.89" r="1.98"/><circle class="cls-50" cx="347.38" cy="54.36" r="1.98"/><circle class="cls-50" cx="395.73" cy="69.36" r="1.98"/><path class="cls-50" d="M407.12,60.28a2,2,0,1,0,2-2A2,2,0,0,0,407.12,60.28Z"/><circle class="cls-50" cx="452.4" cy="69.92" r="1.98"/><circle class="cls-50" cx="475.5" cy="64.23" r="1.98"/><circle class="cls-50" cx="132.13" cy="31.46" r="1.98" transform="translate(-1.9 9.45) rotate(-4.07)"/><circle class="cls-50" cx="165.25" cy="39.02" r="1.98"/><circle class="cls-50" cx="124.85" cy="10.12" r="1.98"/><path class="cls-50" d="M345.4,87.9a2,2,0,1,0,2-2A2,2,0,0,0,345.4,87.9Z"/><path class="cls-50" d="M512.32,174.11a2,2,0,1,0,2-2A2,2,0,0,0,512.32,174.11Z"/><path class="cls-50" d="M500.44,174.74a2,2,0,1,0,2-2A2,2,0,0,0,500.44,174.74Z"/><path class="cls-50" d="M500.44,139a2,2,0,1,0,2-2A2,2,0,0,0,500.44,139Z"/><path class="cls-50" d="M502.43,111.35a2,2,0,1,0,2-2A2,2,0,0,0,502.43,111.35Z"/><path class="cls-50" d="M503.61,81.45a2,2,0,1,0,2-2A2,2,0,0,0,503.61,81.45Z"/><circle class="cls-50" cx="497.18" cy="71.89" r="1.98"/><ellipse class="cls-51" cx="311.86" cy="62.96" rx="48.92" ry="38.51"/></g></g></g></svg>