<svg xmlns="http://www.w3.org/2000/svg" xmlns:xlink="http://www.w3.org/1999/xlink" viewBox="0 0 1188.06 378.57"><defs><style>.cls-1{fill:none;}.cls-2{isolation:isolate;}.cls-3{clip-path:url(#clip-path);}.cls-4{fill:url(#Áåçûìÿííûé_ãðàäèåíò_3);}.cls-5{fill:#686d00;}.cls-6{fill:url(#Áåçûìÿííûé_ãðàäèåíò_301);}.cls-7{fill:url(#Áåçûìÿííûé_ãðàäèåíò_301-2);}.cls-8{fill:url(#Áåçûìÿííûé_ãðàäèåíò_301-3);}.cls-9{fill:url(#Áåçûìÿííûé_ãðàäèåíò_3-2);}.cls-10{fill:#8b9a30;}.cls-11{fill:url(#Áåçûìÿííûé_ãðàäèåíò_264);}.cls-12{fill:url(#Áåçûìÿííûé_ãðàäèåíò_97);}.cls-13{fill:url(#Áåçûìÿííûé_ãðàäèåíò_97-2);}.cls-14{fill:url(#Áåçûìÿííûé_ãðàäèåíò_97-3);}.cls-15{fill:url(#Áåçûìÿííûé_ãðàäèåíò_97-4);}.cls-16{fill:url(#Áåçûìÿííûé_ãðàäèåíò_97-5);}.cls-17{fill:url(#Áåçûìÿííûé_ãðàäèåíò_97-6);}.cls-18,.cls-34{fill:#fff;}.cls-19{fill:url(#Áåçûìÿííûé_ãðàäèåíò_77);}.cls-20{fill:url(#Áåçûìÿííûé_ãðàäèåíò_189);}.cls-21{fill:url(#Áåçûìÿííûé_ãðàäèåíò_301-4);}.cls-22{fill:url(#Áåçûìÿííûé_ãðàäèåíò_264-2);}.cls-23{fill:url(#Áåçûìÿííûé_ãðàäèåíò_264-3);}.cls-24{fill:url(#Áåçûìÿííûé_ãðàäèåíò_264-4);}.cls-25{fill:url(#Áåçûìÿííûé_ãðàäèåíò_264-5);}.cls-26{fill:url(#Áåçûìÿííûé_ãðàäèåíò_264-6);}.cls-27{fill:#001639;}.cls-28{fill:url(#Áåçûìÿííûé_ãðàäèåíò_46);}.cls-29{fill:#232369;}.cls-30{fill:#212d6e;}.cls-31{fill:#002369;}.cls-32,.cls-33,.cls-35,.cls-78{fill:#2e4d84;}.cls-165,.cls-33,.cls-34{opacity:0.2;}.cls-165,.cls-33,.cls-35,.cls-38,.cls-78{mix-blend-mode:multiply;}.cls-34{mix-blend-mode:soft-light;}.cls-167,.cls-168,.cls-169,.cls-170,.cls-180,.cls-181,.cls-182,.cls-184,.cls-185,.cls-35,.cls-47,.cls-48,.cls-49,.cls-51,.cls-52{opacity:0.5;}.cls-36{fill:url(#Áåçûìÿííûé_ãðàäèåíò_301-5);}.cls-37{fill:#cca500;}.cls-38{fill:#92acab;}.cls-39{fill:url(#Áåçûìÿííûé_ãðàäèåíò_296);}.cls-40{fill:url(#Áåçûìÿííûé_ãðàäèåíò_301-6);}.cls-41{fill:#333b2a;}.cls-42{fill:url(#Áåçûìÿííûé_ãðàäèåíò_301-7);}.cls-43{fill:url(#Áåçûìÿííûé_ãðàäèåíò_301-8);}.cls-44{fill:url(#Áåçûìÿííûé_ãðàäèåíò_92);}.cls-45{fill:#ffd961;}.cls-46{fill:url(#Áåçûìÿííûé_ãðàäèåíò_92-2);}.cls-116,.cls-117,.cls-118,.cls-119,.cls-120,.cls-121,.cls-158,.cls-159,.cls-160,.cls-180,.cls-181,.cls-182,.cls-184,.cls-185,.cls-47,.cls-48,.cls-49,.cls-51,.cls-52{mix-blend-mode:screen;}.cls-47{fill:url(#Áåçûìÿííûé_ãðàäèåíò_427);}.cls-48{fill:url(#Áåçûìÿííûé_ãðàäèåíò_141);}.cls-49{fill:url(#Áåçûìÿííûé_ãðàäèåíò_141-2);}.cls-50{fill:url(#Áåçûìÿííûé_ãðàäèåíò_92-3);}.cls-51{fill:url(#Áåçûìÿííûé_ãðàäèåíò_427-2);}.cls-52{fill:url(#Áåçûìÿííûé_ãðàäèåíò_141-3);}.cls-53{fill:url(#Áåçûìÿííûé_ãðàäèåíò_189-2);}.cls-54{fill:url(#Áåçûìÿííûé_ãðàäèåíò_301-9);}.cls-55{fill:#fffeb3;}.cls-56{fill:url(#Áåçûìÿííûé_ãðàäèåíò_264-7);}.cls-57{fill:url(#Áåçûìÿííûé_ãðàäèåíò_264-8);}.cls-58{fill:url(#Áåçûìÿííûé_ãðàäèåíò_264-9);}.cls-59{fill:url(#Áåçûìÿííûé_ãðàäèåíò_264-10);}.cls-60{fill:url(#Áåçûìÿííûé_ãðàäèåíò_264-11);}.cls-61{fill:url(#Áåçûìÿííûé_ãðàäèåíò_301-10);}.cls-62{fill:url(#Áåçûìÿííûé_ãðàäèåíò_301-11);}.cls-63{fill:url(#Áåçûìÿííûé_ãðàäèåíò_264-12);}.cls-64{fill:url(#Áåçûìÿííûé_ãðàäèåíò_264-13);}.cls-65{fill:url(#Áåçûìÿííûé_ãðàäèåíò_264-14);}.cls-66{fill:url(#Áåçûìÿííûé_ãðàäèåíò_264-15);}.cls-67{fill:url(#Áåçûìÿííûé_ãðàäèåíò_264-16);}.cls-68{fill:url(#Áåçûìÿííûé_ãðàäèåíò_301-12);}.cls-69{fill:url(#Áåçûìÿííûé_ãðàäèåíò_301-13);}.cls-70{fill:url(#Áåçûìÿííûé_ãðàäèåíò_301-14);}.cls-71{fill:url(#Áåçûìÿííûé_ãðàäèåíò_97-7);}.cls-72{fill:url(#Áåçûìÿííûé_ãðàäèåíò_97-8);}.cls-73{fill:url(#Áåçûìÿííûé_ãðàäèåíò_97-9);}.cls-74{fill:url(#Áåçûìÿííûé_ãðàäèåíò_97-10);}.cls-75{fill:url(#Áåçûìÿííûé_ãðàäèåíò_97-11);}.cls-76{fill:url(#Áåçûìÿííûé_ãðàäèåíò_97-12);}.cls-77{fill:url(#Áåçûìÿííûé_ãðàäèåíò_41);}.cls-78{opacity:0.89;}.cls-79{fill:url(#Áåçûìÿííûé_ãðàäèåíò_264-17);}.cls-80{fill:url(#Áåçûìÿííûé_ãðàäèåíò_362);}.cls-81{fill:#0e1102;}.cls-82{fill:url(#Áåçûìÿííûé_ãðàäèåíò_264-18);}.cls-83{fill:url(#Áåçûìÿííûé_ãðàäèåíò_264-19);}.cls-84{fill:url(#Áåçûìÿííûé_ãðàäèåíò_264-20);}.cls-85{fill:url(#Áåçûìÿííûé_ãðàäèåíò_299);}.cls-86{fill:url(#Áåçûìÿííûé_ãðàäèåíò_264-21);}.cls-87{fill:url(#Áåçûìÿííûé_ãðàäèåíò_299-2);}.cls-88{fill:url(#Áåçûìÿííûé_ãðàäèåíò_299-3);}.cls-89{fill:url(#Áåçûìÿííûé_ãðàäèåíò_303);}.cls-90{fill:url(#Áåçûìÿííûé_ãðàäèåíò_308);}.cls-91{fill:url(#Áåçûìÿííûé_ãðàäèåíò_308-2);}.cls-92{fill:url(#Áåçûìÿííûé_ãðàäèåíò_308-3);}.cls-93{fill:url(#Áåçûìÿííûé_ãðàäèåíò_308-4);}.cls-94{fill:url(#Áåçûìÿííûé_ãðàäèåíò_308-5);}.cls-95{fill:url(#Áåçûìÿííûé_ãðàäèåíò_308-6);}.cls-96{fill:url(#Áåçûìÿííûé_ãðàäèåíò_308-7);}.cls-97{fill:url(#Áåçûìÿííûé_ãðàäèåíò_308-8);}.cls-98{fill:url(#Áåçûìÿííûé_ãðàäèåíò_308-9);}.cls-99{fill:url(#Áåçûìÿííûé_ãðàäèåíò_308-10);}.cls-100{fill:url(#Áåçûìÿííûé_ãðàäèåíò_308-11);}.cls-101{fill:url(#Áåçûìÿííûé_ãðàäèåíò_308-12);}.cls-102{fill:url(#Áåçûìÿííûé_ãðàäèåíò_303-2);}.cls-103{fill:url(#Áåçûìÿííûé_ãðàäèåíò_303-3);}.cls-104{fill:url(#Áåçûìÿííûé_ãðàäèåíò_303-4);}.cls-105{fill:url(#Áåçûìÿííûé_ãðàäèåíò_303-5);}.cls-106{fill:url(#Áåçûìÿííûé_ãðàäèåíò_303-6);}.cls-107{fill:url(#Áåçûìÿííûé_ãðàäèåíò_317);}.cls-108{fill:url(#Áåçûìÿííûé_ãðàäèåíò_318);}.cls-109{fill:url(#Áåçûìÿííûé_ãðàäèåíò_318-2);}.cls-110{fill:url(#Áåçûìÿííûé_ãðàäèåíò_318-3);}.cls-111{fill:url(#Áåçûìÿííûé_ãðàäèåíò_318-4);}.cls-112{fill:url(#Áåçûìÿííûé_ãðàäèåíò_317-2);}.cls-113{fill:url(#Áåçûìÿííûé_ãðàäèåíò_317-3);}.cls-114{fill:url(#Áåçûìÿííûé_ãðàäèåíò_317-4);}.cls-115{fill:url(#Áåçûìÿííûé_ãðàäèåíò_317-5);}.cls-116{fill:url(#Áåçûìÿííûé_ãðàäèåíò_114);}.cls-117{fill:url(#Áåçûìÿííûé_ãðàäèåíò_114-2);}.cls-118{fill:url(#Áåçûìÿííûé_ãðàäèåíò_114-3);}.cls-119{fill:url(#Áåçûìÿííûé_ãðàäèåíò_114-4);}.cls-120{fill:url(#Áåçûìÿííûé_ãðàäèåíò_132);}.cls-121{fill:url(#Áåçûìÿííûé_ãðàäèåíò_132-2);}.cls-122,.cls-123,.cls-124,.cls-125,.cls-161,.cls-167,.cls-168,.cls-169,.cls-170{mix-blend-mode:color-dodge;}.cls-122{fill:url(#Áåçûìÿííûé_ãðàäèåíò_142);}.cls-123{fill:url(#Áåçûìÿííûé_ãðàäèåíò_142-2);}.cls-124{fill:url(#Áåçûìÿííûé_ãðàäèåíò_142-3);}.cls-125{fill:url(#Áåçûìÿííûé_ãðàäèåíò_142-4);}.cls-126{fill:#100029;}.cls-127{fill:url(#Áåçûìÿííûé_ãðàäèåíò_264-22);}.cls-128{fill:url(#Áåçûìÿííûé_ãðàäèåíò_264-23);}.cls-129{fill:url(#Áåçûìÿííûé_ãðàäèåíò_264-24);}.cls-130{fill:url(#Áåçûìÿííûé_ãðàäèåíò_299-4);}.cls-131{fill:url(#Áåçûìÿííûé_ãðàäèåíò_264-25);}.cls-132{fill:url(#Áåçûìÿííûé_ãðàäèåíò_299-5);}.cls-133{fill:url(#Áåçûìÿííûé_ãðàäèåíò_299-6);}.cls-134{fill:url(#Áåçûìÿííûé_ãðàäèåíò_303-7);}.cls-135{fill:url(#Áåçûìÿííûé_ãðàäèåíò_308-13);}.cls-136{fill:url(#Áåçûìÿííûé_ãðàäèåíò_308-14);}.cls-137{fill:url(#Áåçûìÿííûé_ãðàäèåíò_308-15);}.cls-138{fill:url(#Áåçûìÿííûé_ãðàäèåíò_308-16);}.cls-139{fill:url(#Áåçûìÿííûé_ãðàäèåíò_308-17);}.cls-140{fill:url(#Áåçûìÿííûé_ãðàäèåíò_308-18);}.cls-141{fill:url(#Áåçûìÿííûé_ãðàäèåíò_308-19);}.cls-142{fill:url(#Áåçûìÿííûé_ãðàäèåíò_308-20);}.cls-143{fill:url(#Áåçûìÿííûé_ãðàäèåíò_308-21);}.cls-144{fill:url(#Áåçûìÿííûé_ãðàäèåíò_308-22);}.cls-145{fill:url(#Áåçûìÿííûé_ãðàäèåíò_308-23);}.cls-146{fill:url(#Áåçûìÿííûé_ãðàäèåíò_308-24);}.cls-147{fill:url(#Áåçûìÿííûé_ãðàäèåíò_303-8);}.cls-148{fill:url(#Áåçûìÿííûé_ãðàäèåíò_303-9);}.cls-149{fill:url(#Áåçûìÿííûé_ãðàäèåíò_303-10);}.cls-150{fill:url(#Áåçûìÿííûé_ãðàäèåíò_303-11);}.cls-151{fill:url(#Áåçûìÿííûé_ãðàäèåíò_303-12);}.cls-152{fill:url(#Áåçûìÿííûé_ãðàäèåíò_317-6);}.cls-153{fill:url(#Áåçûìÿííûé_ãðàäèåíò_317-7);}.cls-154{fill:url(#Áåçûìÿííûé_ãðàäèåíò_317-8);}.cls-155{fill:url(#Áåçûìÿííûé_ãðàäèåíò_317-9);}.cls-156{fill:url(#Áåçûìÿííûé_ãðàäèåíò_317-10);}.cls-157{fill:url(#Áåçûìÿííûé_ãðàäèåíò_317-11);}.cls-158{fill:url(#Áåçûìÿííûé_ãðàäèåíò_114-5);}.cls-159{fill:url(#Áåçûìÿííûé_ãðàäèåíò_114-6);}.cls-160{fill:url(#Áåçûìÿííûé_ãðàäèåíò_114-7);}.cls-161{fill:url(#Áåçûìÿííûé_ãðàäèåíò_135);}.cls-162{fill:url(#Áåçûìÿííûé_ãðàäèåíò_54);}.cls-163{fill:url(#Áåçûìÿííûé_ãðàäèåíò_88);}.cls-164{fill:url(#Áåçûìÿííûé_ãðàäèåíò_88-2);}.cls-165{fill:url(#Áåçûìÿííûé_ãðàäèåíò_16);}.cls-166{fill:url(#Áåçûìÿííûé_ãðàäèåíò_88-3);}.cls-167{fill:url(#Áåçûìÿííûé_ãðàäèåíò_15);}.cls-168{fill:url(#Áåçûìÿííûé_ãðàäèåíò_15-2);}.cls-169{fill:url(#Áåçûìÿííûé_ãðàäèåíò_15-3);}.cls-170{fill:url(#Áåçûìÿííûé_ãðàäèåíò_15-4);}.cls-171{fill:url(#Áåçûìÿííûé_ãðàäèåíò_6);}.cls-172{fill:url(#Áåçûìÿííûé_ãðàäèåíò_97-13);}.cls-173{fill:url(#Áåçûìÿííûé_ãðàäèåíò_97-14);}.cls-174{fill:url(#Áåçûìÿííûé_ãðàäèåíò_97-15);}.cls-175{fill:url(#Áåçûìÿííûé_ãðàäèåíò_97-16);}.cls-176{fill:url(#Áåçûìÿííûé_ãðàäèåíò_97-17);}.cls-177{fill:url(#Áåçûìÿííûé_ãðàäèåíò_97-18);}.cls-178{fill:url(#Áåçûìÿííûé_ãðàäèåíò_92-4);}.cls-179{fill:url(#Áåçûìÿííûé_ãðàäèåíò_92-5);}.cls-180{fill:url(#Áåçûìÿííûé_ãðàäèåíò_427-3);}.cls-181{fill:url(#Áåçûìÿííûé_ãðàäèåíò_141-4);}.cls-182{fill:url(#Áåçûìÿííûé_ãðàäèåíò_141-5);}.cls-183{fill:url(#Áåçûìÿííûé_ãðàäèåíò_92-6);}.cls-184{fill:url(#Áåçûìÿííûé_ãðàäèåíò_427-4);}.cls-185{fill:url(#Áåçûìÿííûé_ãðàäèåíò_141-6);}</style><clipPath id="clip-path" transform="translate(0 -22.12)"><rect class="cls-1" x="103.67" width="900" height="400"/></clipPath><linearGradient id="Áåçûìÿííûé_ãðàäèåíò_3" x1="553.78" y1="275.63" x2="553.78" y2="253.38" gradientUnits="userSpaceOnUse"><stop offset="0" stop-color="#e5e7ff"/><stop offset="0.99" stop-color="#d3ddff"/></linearGradient><linearGradient id="Áåçûìÿííûé_ãðàäèåíò_301" x1="751.2" y1="257.38" x2="1003.73" y2="257.38" gradientUnits="userSpaceOnUse"><stop offset="0" stop-color="#98caff"/><stop offset="0.99" stop-color="#86b1ff"/></linearGradient><linearGradient id="Áåçûìÿííûé_ãðàäèåíò_301-2" x1="645.92" y1="264.88" x2="950.75" y2="264.88" xlink:href="#Áåçûìÿííûé_ãðàäèåíò_301"/><linearGradient id="Áåçûìÿííûé_ãðàäèåíò_301-3" x1="103.67" y1="264.42" x2="406.74" y2="264.42" xlink:href="#Áåçûìÿííûé_ãðàäèåíò_301"/><linearGradient id="Áåçûìÿííûé_ãðàäèåíò_3-2" x1="297.42" y1="266.26" x2="534.17" y2="266.26" xlink:href="#Áåçûìÿííûé_ãðàäèåíò_3"/><linearGradient id="Áåçûìÿííûé_ãðàäèåíò_264" x1="357.92" y1="289.29" x2="823.57" y2="289.29" gradientUnits="userSpaceOnUse"><stop offset="0" stop-color="#4a8bff"/><stop offset="0.99" stop-color="#6370f5"/></linearGradient><linearGradient id="Áåçûìÿííûé_ãðàäèåíò_97" x1="793" y1="137.07" x2="1188.18" y2="137.07" gradientTransform="matrix(-1, 0, 0, 1, 1979.65, 0)" gradientUnits="userSpaceOnUse"><stop offset="0" stop-color="#7c9aff"/><stop offset="0.99" stop-color="#c2c2ff"/></linearGradient><linearGradient id="Áåçûìÿííûé_ãðàäèåíò_97-2" x1="791.59" y1="146.17" x2="1189.67" y2="146.17" xlink:href="#Áåçûìÿííûé_ãðàäèåíò_97"/><linearGradient id="Áåçûìÿííûé_ãðàäèåíò_97-3" x1="793.44" y1="168.86" x2="1189.44" y2="168.86" xlink:href="#Áåçûìÿííûé_ãðàäèåíò_97"/><linearGradient id="Áåçûìÿííûé_ãðàäèåíò_97-4" x1="976.91" y1="210.15" x2="976.91" y2="153.55" xlink:href="#Áåçûìÿííûé_ãðàäèåíò_97"/><linearGradient id="Áåçûìÿííûé_ãðàäèåíò_97-5" x1="974.79" y1="208.81" x2="974.79" y2="153.67" xlink:href="#Áåçûìÿííûé_ãðàäèåíò_97"/><linearGradient id="Áåçûìÿííûé_ãðàäèåíò_97-6" x1="978.85" y1="208.81" x2="978.85" y2="153.67" xlink:href="#Áåçûìÿííûé_ãðàäèåíò_97"/><linearGradient id="Áåçûìÿííûé_ãðàäèåíò_77" x1="649.37" y1="270.64" x2="649.37" y2="262.35" gradientUnits="userSpaceOnUse"><stop offset="0" stop-color="#b7c8fa"/><stop offset="0.97" stop-color="#fcfeff"/></linearGradient><linearGradient id="Áåçûìÿííûé_ãðàäèåíò_189" x1="101.49" y1="290.34" x2="1003.73" y2="290.34" gradientUnits="userSpaceOnUse"><stop offset="0" stop-color="#272566"/><stop offset="0.19" stop-color="#2a2a6d"/><stop offset="0.48" stop-color="#303682"/><stop offset="0.83" stop-color="#3c4ba3"/><stop offset="1" stop-color="#4257b6"/></linearGradient><linearGradient id="Áåçûìÿííûé_ãðàäèåíò_301-4" x1="101.5" y1="309.49" x2="1003.9" y2="309.49" xlink:href="#Áåçûìÿííûé_ãðàäèåíò_301"/><linearGradient id="Áåçûìÿííûé_ãðàäèåíò_264-2" x1="958.04" y1="307.42" x2="958.04" y2="300.18" xlink:href="#Áåçûìÿííûé_ãðàäèåíò_264"/><linearGradient id="Áåçûìÿííûé_ãðàäèåíò_264-3" x1="736.13" y1="324.04" x2="736.13" y2="308.73" xlink:href="#Áåçûìÿííûé_ãðàäèåíò_264"/><linearGradient id="Áåçûìÿííûé_ãðàäèåíò_264-4" x1="450.05" y1="318.49" x2="450.05" y2="304.34" xlink:href="#Áåçûìÿííûé_ãðàäèåíò_264"/><linearGradient id="Áåçûìÿííûé_ãðàäèåíò_264-5" x1="315.89" y1="320.51" x2="315.89" y2="311.47" xlink:href="#Áåçûìÿííûé_ãðàäèåíò_264"/><linearGradient id="Áåçûìÿííûé_ãðàäèåíò_264-6" x1="191.5" y1="328.8" x2="191.5" y2="316.38" xlink:href="#Áåçûìÿííûé_ãðàäèåíò_264"/><linearGradient id="Áåçûìÿííûé_ãðàäèåíò_46" x1="101.49" y1="329.17" x2="1004.94" y2="329.17" gradientUnits="userSpaceOnUse"><stop offset="0" stop-color="#012868"/><stop offset="1" stop-color="#7b608e"/></linearGradient><linearGradient id="Áåçûìÿííûé_ãðàäèåíò_301-5" x1="910.92" y1="341.1" x2="943.67" y2="341.1" xlink:href="#Áåçûìÿííûé_ãðàäèåíò_301"/><linearGradient id="Áåçûìÿííûé_ãðàäèåíò_296" x1="366.49" y1="276.08" x2="366.49" y2="263.27" gradientUnits="userSpaceOnUse"><stop offset="0" stop-color="#8bb8ff"/><stop offset="0.99" stop-color="#8695ff"/></linearGradient><linearGradient id="Áåçûìÿííûé_ãðàäèåíò_301-6" x1="829.1" y1="348.04" x2="847.99" y2="348.04" xlink:href="#Áåçûìÿííûé_ãðàäèåíò_301"/><linearGradient id="Áåçûìÿííûé_ãðàäèåíò_301-7" x1="405.05" y1="335.12" x2="414" y2="335.12" xlink:href="#Áåçûìÿííûé_ãðàäèåíò_301"/><linearGradient id="Áåçûìÿííûé_ãðàäèåíò_301-8" x1="957.89" y1="337.93" x2="967.32" y2="337.93" xlink:href="#Áåçûìÿííûé_ãðàäèåíò_301"/><linearGradient id="Áåçûìÿííûé_ãðàäèåíò_92" x1="396.96" y1="312.52" x2="396.96" y2="147.19" gradientUnits="userSpaceOnUse"><stop offset="0" stop-color="#393c72"/><stop offset="1" stop-color="#9d72a8"/></linearGradient><linearGradient id="Áåçûìÿííûé_ãðàäèåíò_92-2" x1="396.54" y1="147.19" x2="396.54" y2="140.32" xlink:href="#Áåçûìÿííûé_ãðàäèåíò_92"/><linearGradient id="Áåçûìÿííûé_ãðàäèåíò_427" x1="396.23" y1="282.47" x2="396.23" y2="131.92" gradientUnits="userSpaceOnUse"><stop offset="0"/><stop offset="1" stop-color="#fff688"/></linearGradient><linearGradient id="Áåçûìÿííûé_ãðàäèåíò_141" x1="390.24" y1="141.81" x2="400.78" y2="141.81" gradientUnits="userSpaceOnUse"><stop offset="0" stop-color="#fff688"/><stop offset="1"/></linearGradient><linearGradient id="Áåçûìÿííûé_ãðàäèåíò_141-2" x1="391.98" y1="296.19" x2="401.63" y2="296.19" xlink:href="#Áåçûìÿííûé_ãðàäèåíò_141"/><linearGradient id="Áåçûìÿííûé_ãðàäèåíò_92-3" x1="393.69" y1="311.94" x2="393.69" y2="296.32" xlink:href="#Áåçûìÿííûé_ãðàäèåíò_92"/><linearGradient id="Áåçûìÿííûé_ãðàäèåíò_427-2" x1="391.66" y1="139.47" x2="391.66" y2="117.82" xlink:href="#Áåçûìÿííûé_ãðàäèåíò_427"/><linearGradient id="Áåçûìÿííûé_ãðàäèåíò_141-3" x1="403.49" y1="140.26" x2="403.49" y2="129.72" xlink:href="#Áåçûìÿííûé_ãðàäèåíò_141"/><linearGradient id="Áåçûìÿííûé_ãðàäèåíò_189-2" x1="98.54" y1="361.38" x2="1004.94" y2="361.38" xlink:href="#Áåçûìÿííûé_ãðàäèåíò_189"/><linearGradient id="Áåçûìÿííûé_ãðàäèåíò_301-9" x1="98.54" y1="381.12" x2="1004.95" y2="381.12" xlink:href="#Áåçûìÿííûé_ãðàäèåíò_301"/><linearGradient id="Áåçûìÿííûé_ãðàäèåíò_264-7" x1="848.38" y1="394.01" x2="848.38" y2="390.02" xlink:href="#Áåçûìÿííûé_ãðàäèåíò_264"/><linearGradient id="Áåçûìÿííûé_ãðàäèåíò_264-8" x1="873.32" y1="387.33" x2="873.32" y2="379.41" xlink:href="#Áåçûìÿííûé_ãðàäèåíò_264"/><linearGradient id="Áåçûìÿííûé_ãðàäèåíò_264-9" x1="918.9" y1="389.83" x2="918.9" y2="384.44" xlink:href="#Áåçûìÿííûé_ãðàäèåíò_264"/><linearGradient id="Áåçûìÿííûé_ãðàäèåíò_264-10" x1="245.59" y1="391.03" x2="245.59" y2="378" xlink:href="#Áåçûìÿííûé_ãðàäèåíò_264"/><linearGradient id="Áåçûìÿííûé_ãðàäèåíò_264-11" x1="381.71" y1="395" x2="381.71" y2="384.51" xlink:href="#Áåçûìÿííûé_ãðàäèåíò_264"/><linearGradient id="Áåçûìÿííûé_ãðàäèåíò_301-10" x1="865.56" y1="340.44" x2="913" y2="340.44" xlink:href="#Áåçûìÿííûé_ãðàäèåíò_301"/><linearGradient id="Áåçûìÿííûé_ãðàäèåíò_301-11" x1="895.83" y1="356.4" x2="941" y2="356.4" xlink:href="#Áåçûìÿííûé_ãðàäèåíò_301"/><linearGradient id="Áåçûìÿííûé_ãðàäèåíò_264-12" x1="912.36" y1="360.77" x2="912.36" y2="354.92" xlink:href="#Áåçûìÿííûé_ãðàäèåíò_264"/><linearGradient id="Áåçûìÿííûé_ãðàäèåíò_264-13" x1="901.88" y1="340.44" x2="901.88" y2="331.93" xlink:href="#Áåçûìÿííûé_ãðàäèåíò_264"/><linearGradient id="Áåçûìÿííûé_ãðàäèåíò_264-14" x1="875.32" y1="346.78" x2="875.32" y2="342.56" xlink:href="#Áåçûìÿííûé_ãðàäèåíò_264"/><linearGradient id="Áåçûìÿííûé_ãðàäèåíò_264-15" x1="925.96" y1="364.57" x2="925.96" y2="349.32" xlink:href="#Áåçûìÿííûé_ãðàäèåíò_264"/><linearGradient id="Áåçûìÿííûé_ãðàäèåíò_264-16" x1="892.92" y1="353.35" x2="892.92" y2="338.1" xlink:href="#Áåçûìÿííûé_ãðàäèåíò_264"/><linearGradient id="Áåçûìÿííûé_ãðàäèåíò_301-12" x1="454.7" y1="344.18" x2="464.67" y2="344.18" xlink:href="#Áåçûìÿííûé_ãðàäèåíò_301"/><linearGradient id="Áåçûìÿííûé_ãðàäèåíò_301-13" x1="428.65" y1="346.44" x2="447.49" y2="346.44" xlink:href="#Áåçûìÿííûé_ãðàäèåíò_301"/><linearGradient id="Áåçûìÿííûé_ãðàäèåíò_301-14" x1="412.79" y1="347.8" x2="428.95" y2="347.8" xlink:href="#Áåçûìÿííûé_ãðàäèåíò_301"/><linearGradient id="Áåçûìÿííûé_ãðàäèåíò_97-7" x1="1.33" y1="136.65" x2="396.51" y2="136.65" gradientTransform="matrix(-1, 0, 0, 1, 398, 0)" xlink:href="#Áåçûìÿííûé_ãðàäèåíò_97"/><linearGradient id="Áåçûìÿííûé_ãðàäèåíò_97-8" x1="-0.08" y1="145.76" x2="398" y2="145.76" gradientTransform="matrix(-1, 0, 0, 1, 398, 0)" xlink:href="#Áåçûìÿííûé_ãðàäèåíò_97"/><linearGradient id="Áåçûìÿííûé_ãðàäèåíò_97-9" x1="1.77" y1="168.44" x2="397.76" y2="168.44" gradientTransform="matrix(-1, 0, 0, 1, 398, 0)" xlink:href="#Áåçûìÿííûé_ãðàäèåíò_97"/><linearGradient id="Áåçûìÿííûé_ãðàäèåíò_97-10" x1="185.24" y1="209.73" x2="185.24" y2="153.13" gradientTransform="matrix(-1, 0, 0, 1, 398, 0)" xlink:href="#Áåçûìÿííûé_ãðàäèåíò_97"/><linearGradient id="Áåçûìÿííûé_ãðàäèåíò_97-11" x1="183.11" y1="208.39" x2="183.11" y2="153.25" gradientTransform="matrix(-1, 0, 0, 1, 398, 0)" xlink:href="#Áåçûìÿííûé_ãðàäèåíò_97"/><linearGradient id="Áåçûìÿííûé_ãðàäèåíò_97-12" x1="187.18" y1="208.39" x2="187.18" y2="153.25" gradientTransform="matrix(-1, 0, 0, 1, 398, 0)" xlink:href="#Áåçûìÿííûé_ãðàäèåíò_97"/><linearGradient id="Áåçûìÿííûé_ãðàäèåíò_41" x1="276.34" y1="275.86" x2="276.34" y2="268.88" gradientUnits="userSpaceOnUse"><stop offset="0" stop-color="#f4fafc"/><stop offset="1" stop-color="#eff0ff"/></linearGradient><linearGradient id="Áåçûìÿííûé_ãðàäèåíò_264-17" x1="369.89" y1="22.13" x2="369.89" y2="22.12" xlink:href="#Áåçûìÿííûé_ãðàäèåíò_264"/><linearGradient id="Áåçûìÿííûé_ãðàäèåíò_362" x1="315.14" y1="300.95" x2="315.14" y2="135.22" gradientUnits="userSpaceOnUse"><stop offset="0.01" stop-color="#001927"/><stop offset="0.99" stop-color="#694700"/></linearGradient><linearGradient id="Áåçûìÿííûé_ãðàäèåíò_264-18" x1="264.63" y1="298.67" x2="350.55" y2="298.67" xlink:href="#Áåçûìÿííûé_ãðàäèåíò_264"/><linearGradient id="Áåçûìÿííûé_ãðàäèåíò_264-19" x1="293.19" y1="272.57" x2="345.43" y2="272.57" xlink:href="#Áåçûìÿííûé_ãðàäèåíò_264"/><linearGradient id="Áåçûìÿííûé_ãðàäèåíò_264-20" x1="290" y1="238.31" x2="334.3" y2="238.31" xlink:href="#Áåçûìÿííûé_ãðàäèåíò_264"/><linearGradient id="Áåçûìÿííûé_ãðàäèåíò_299" x1="295.53" y1="229.79" x2="331.18" y2="229.79" gradientUnits="userSpaceOnUse"><stop offset="0.01" stop-color="#ba33f6"/><stop offset="1" stop-color="#d37eff"/></linearGradient><linearGradient id="Áåçûìÿííûé_ãðàäèåíò_264-21" x1="303.17" y1="192.45" x2="328.14" y2="192.45" xlink:href="#Áåçûìÿííûé_ãðàäèåíò_264"/><linearGradient id="Áåçûìÿííûé_ãðàäèåíò_299-2" x1="304.89" y1="171.79" x2="313.02" y2="171.79" xlink:href="#Áåçûìÿííûé_ãðàäèåíò_299"/><linearGradient id="Áåçûìÿííûé_ãðàäèåíò_299-3" x1="290.71" y1="311.49" x2="347.9" y2="311.49" xlink:href="#Áåçûìÿííûé_ãðàäèåíò_299"/><radialGradient id="Áåçûìÿííûé_ãðàäèåíò_303" cx="322.7" cy="253.86" r="4.37" gradientUnits="userSpaceOnUse"><stop offset="0.01" stop-color="#4a33f6"/><stop offset="1" stop-color="#6b7eff"/></radialGradient><radialGradient id="Áåçûìÿííûé_ãðàäèåíò_308" cx="306.65" cy="189.76" r="2.7" gradientUnits="userSpaceOnUse"><stop offset="0.01" stop-color="#ffb5f6"/><stop offset="1" stop-color="#ffe3ff"/></radialGradient><radialGradient id="Áåçûìÿííûé_ãðàäèåíò_308-2" cx="318.65" cy="200.38" r="2.7" xlink:href="#Áåçûìÿííûé_ãðàäèåíò_308"/><radialGradient id="Áåçûìÿííûé_ãðàäèåíò_308-3" cx="298.29" cy="223.86" r="2.7" xlink:href="#Áåçûìÿííûé_ãðàäèåíò_308"/><radialGradient id="Áåçûìÿííûé_ãðàäèåíò_308-4" cx="315.14" cy="219.36" r="2.7" xlink:href="#Áåçûìÿííûé_ãðàäèåíò_308"/><radialGradient id="Áåçûìÿííûé_ãðàäèåíò_308-5" cx="329.05" cy="214.95" r="2.7" xlink:href="#Áåçûìÿííûé_ãðàäèåíò_308"/><radialGradient id="Áåçûìÿííûé_ãðàäèåíò_308-6" cx="296.9" cy="248.45" r="2.7" xlink:href="#Áåçûìÿííûé_ãðàäèåíò_308"/><radialGradient id="Áåçûìÿííûé_ãðàäèåíò_308-7" cx="316.85" cy="255.5" r="2.7" xlink:href="#Áåçûìÿííûé_ãðàäèåíò_308"/><radialGradient id="Áåçûìÿííûé_ãðàäèåíò_308-8" cx="321.7" cy="301.36" r="2.7" xlink:href="#Áåçûìÿííûé_ãðàäèåíò_308"/><radialGradient id="Áåçûìÿííûé_ãðàäèåíò_308-9" cx="300.09" cy="285.48" r="2.7" xlink:href="#Áåçûìÿííûé_ãðàäèåíò_308"/><radialGradient id="Áåçûìÿííûé_ãðàäèåíò_308-10" cx="337.24" cy="280.84" r="2.7" xlink:href="#Áåçûìÿííûé_ãðàäèåíò_308"/><radialGradient id="Áåçûìÿííûé_ãðàäèåíò_308-11" cx="344.54" cy="270.16" r="2.7" xlink:href="#Áåçûìÿííûé_ãðàäèåíò_308"/><radialGradient id="Áåçûìÿííûé_ãðàäèåíò_308-12" cx="278.65" cy="290.27" r="2.7" xlink:href="#Áåçûìÿííûé_ãðàäèåíò_308"/><radialGradient id="Áåçûìÿííûé_ãðàäèåíò_303-2" cx="318.47" cy="319.79" r="4.37" xlink:href="#Áåçûìÿííûé_ãðàäèåíò_303"/><radialGradient id="Áåçûìÿííûé_ãðàäèåíò_303-3" cx="305.22" cy="238.46" r="4.37" xlink:href="#Áåçûìÿííûé_ãðàäèåíò_303"/><radialGradient id="Áåçûìÿííûé_ãðàäèåíò_303-4" cx="344.22" cy="308.15" r="4.37" xlink:href="#Áåçûìÿííûé_ãðàäèåíò_303"/><radialGradient id="Áåçûìÿííûé_ãðàäèåíò_303-5" cx="311.32" cy="176.3" r="4.37" xlink:href="#Áåçûìÿííûé_ãðàäèåíò_303"/><radialGradient id="Áåçûìÿííûé_ãðàäèåíò_303-6" cx="295.07" cy="217.78" r="4.37" xlink:href="#Áåçûìÿííûé_ãðàäèåíò_303"/><radialGradient id="Áåçûìÿííûé_ãðàäèåíò_317" cx="309.08" cy="163.59" r="19.09" gradientUnits="userSpaceOnUse"><stop offset="0.01" stop-color="#ff0939"/><stop offset="1" stop-color="#ff0074"/></radialGradient><radialGradient id="Áåçûìÿííûé_ãðàäèåíò_318" cx="316.72" cy="130.89" r="8.82" gradientUnits="userSpaceOnUse"><stop offset="0.01" stop-color="#8d0939"/><stop offset="1" stop-color="#ff0074"/></radialGradient><radialGradient id="Áåçûìÿííûé_ãðàäèåíò_318-2" cx="314.28" cy="135.79" r="5.49" xlink:href="#Áåçûìÿííûé_ãðàäèåíò_318"/><radialGradient id="Áåçûìÿííûé_ãðàäèåíò_318-3" cx="305.09" cy="135.92" r="5.44" xlink:href="#Áåçûìÿííûé_ãðàäèåíò_318"/><radialGradient id="Áåçûìÿííûé_ãðàäèåíò_318-4" cx="303.8" cy="129.3" r="6.81" xlink:href="#Áåçûìÿííûé_ãðàäèåíò_318"/><radialGradient id="Áåçûìÿííûé_ãðàäèåíò_317-2" cx="323.72" cy="212.36" r="8.12" xlink:href="#Áåçûìÿííûé_ãðàäèåíò_317"/><radialGradient id="Áåçûìÿííûé_ãðàäèåíò_317-3" cx="286.53" cy="261.28" r="7.78" gradientTransform="translate(120.33 -90.57) rotate(22.37)" xlink:href="#Áåçûìÿííûé_ãðàäèåíò_317"/><radialGradient id="Áåçûìÿííûé_ãðàäèåíò_317-4" cx="335.69" cy="253.83" r="7.78" gradientTransform="translate(-1.15 19.17) rotate(0.05)" xlink:href="#Áåçûìÿííûé_ãðàäèåíò_317"/><radialGradient id="Áåçûìÿííûé_ãðàäèåíò_317-5" cx="292.97" cy="283.34" r="7.78" gradientTransform="translate(90.91 -53.15) rotate(16.56)" xlink:href="#Áåçûìÿííûé_ãðàäèåíò_317"/><radialGradient id="Áåçûìÿííûé_ãðàäèåíò_114" cx="505.08" cy="276.71" r="17.93" gradientTransform="translate(-220.34 -22.12) scale(1.06 1)" gradientUnits="userSpaceOnUse"><stop offset="0.01" stop-color="#0033b3"/><stop offset="0.11" stop-color="#002b98"/><stop offset="0.33" stop-color="#001c62"/><stop offset="0.54" stop-color="#001038"/><stop offset="0.72" stop-color="#000719"/><stop offset="0.88" stop-color="#000207"/><stop offset="0.99"/></radialGradient><radialGradient id="Áåçûìÿííûé_ãðàäèåíò_114-2" cx="490.03" cy="237" r="17.93" xlink:href="#Áåçûìÿííûé_ãðàäèåíò_114"/><radialGradient id="Áåçûìÿííûé_ãðàäèåíò_114-3" cx="532.01" cy="290.98" r="17.93" xlink:href="#Áåçûìÿííûé_ãðàäèåíò_114"/><radialGradient id="Áåçûìÿííûé_ãðàäèåíò_114-4" cx="470.04" cy="311.94" r="17.93" xlink:href="#Áåçûìÿííûé_ãðàäèåíò_114"/><radialGradient id="Áåçûìÿííûé_ãðàäèåíò_132" cx="479.95" cy="259.02" r="16.88" gradientTransform="translate(-220.34 -22.12) scale(1.06 1)" gradientUnits="userSpaceOnUse"><stop offset="0" stop-color="#ff002c"/><stop offset="0.1" stop-color="#db0026"/><stop offset="0.29" stop-color="#99001a"/><stop offset="0.46" stop-color="#630011"/><stop offset="0.63" stop-color="#38000a"/><stop offset="0.78" stop-color="#190004"/><stop offset="0.9" stop-color="#070001"/><stop offset="0.99"/></radialGradient><radialGradient id="Áåçûìÿííûé_ãðàäèåíò_132-2" cx="485.43" cy="301.75" r="16.88" xlink:href="#Áåçûìÿííûé_ãðàäèåíò_132"/><radialGradient id="Áåçûìÿííûé_ãðàäèåíò_142" cx="510.54" cy="300.67" r="12.19" gradientTransform="translate(-220.34 -22.12) scale(1.06 1)" gradientUnits="userSpaceOnUse"><stop offset="0.01" stop-color="#fff9b3"/><stop offset="0.1" stop-color="#dbd69a"/><stop offset="0.29" stop-color="#99966c"/><stop offset="0.47" stop-color="#636045"/><stop offset="0.63" stop-color="#383727"/><stop offset="0.78" stop-color="#191912"/><stop offset="0.9" stop-color="#070705"/><stop offset="0.99"/></radialGradient><radialGradient id="Áåçûìÿííûé_ãðàäèåíò_142-2" cx="487.97" cy="268.88" r="12.19" xlink:href="#Áåçûìÿííûé_ãðàäèåíò_142"/><radialGradient id="Áåçûìÿííûé_ãðàäèåíò_142-3" cx="495.48" cy="189.98" r="9.11" xlink:href="#Áåçûìÿííûé_ãðàäèåíò_142"/><radialGradient id="Áåçûìÿííûé_ãðàäèåíò_142-4" cx="505.27" cy="276.71" r="8.55" xlink:href="#Áåçûìÿííûé_ãðàäèåíò_142"/><linearGradient id="Áåçûìÿííûé_ãðàäèåíò_264-22" x1="889.93" y1="289.71" x2="952.07" y2="289.71" gradientTransform="matrix(-1, 0, 0, 1, 1844.57, 0)" xlink:href="#Áåçûìÿííûé_ãðàäèåíò_264"/><linearGradient id="Áåçûìÿííûé_ãðàäèåíò_264-23" x1="910.59" y1="270.83" x2="948.37" y2="270.83" gradientTransform="matrix(-1, 0, 0, 1, 1844.57, 0)" xlink:href="#Áåçûìÿííûé_ãðàäèåíò_264"/><linearGradient id="Áåçûìÿííûé_ãðàäèåíò_264-24" x1="908.28" y1="246.05" x2="940.32" y2="246.05" gradientTransform="matrix(-1, 0, 0, 1, 1844.57, 0)" xlink:href="#Áåçûìÿííûé_ãðàäèåíò_264"/><linearGradient id="Áåçûìÿííûé_ãðàäèåíò_299-4" x1="912.28" y1="239.89" x2="938.06" y2="239.89" gradientTransform="matrix(-1, 0, 0, 1, 1844.57, 0)" xlink:href="#Áåçûìÿííûé_ãðàäèåíò_299"/><linearGradient id="Áåçûìÿííûé_ãðàäèåíò_264-25" x1="917.8" y1="212.88" x2="935.87" y2="212.88" gradientTransform="matrix(-1, 0, 0, 1, 1844.57, 0)" xlink:href="#Áåçûìÿííûé_ãðàäèåíò_264"/><linearGradient id="Áåçûìÿííûé_ãðàäèåíò_299-5" x1="919.05" y1="197.94" x2="924.93" y2="197.94" gradientTransform="matrix(-1, 0, 0, 1, 1844.57, 0)" xlink:href="#Áåçûìÿííûé_ãðàäèåíò_299"/><linearGradient id="Áåçûìÿííûé_ãðàäèåíò_299-6" x1="908.8" y1="298.98" x2="950.16" y2="298.98" gradientTransform="matrix(-1, 0, 0, 1, 1844.57, 0)" xlink:href="#Áåçûìÿííûé_ãðàäèåíò_299"/><radialGradient id="Áåçûìÿííûé_ãðàäèåíò_303-7" cx="931.93" cy="257.3" r="3.16" gradientTransform="matrix(-1, 0, 0, 1, 1844.57, -22.12)" xlink:href="#Áåçûìÿííûé_ãðàäèåíò_303"/><radialGradient id="Áåçûìÿííûé_ãðàäèåíò_308-13" cx="920.32" cy="210.94" r="1.95" gradientTransform="matrix(-1, 0, 0, 1, 1844.57, 0)" xlink:href="#Áåçûìÿííûé_ãðàäèåíò_308"/><radialGradient id="Áåçûìÿííûé_ãðàäèåíò_308-14" cx="929" cy="218.62" r="1.95" gradientTransform="matrix(-1, 0, 0, 1, 1844.57, 0)" xlink:href="#Áåçûìÿííûé_ãðàäèåíò_308"/><radialGradient id="Áåçûìÿííûé_ãðàäèåíò_308-15" cx="914.28" cy="251.6" r="1.95" gradientTransform="matrix(-1, 0, 0, 1, 1844.57, 0)" xlink:href="#Áåçûìÿííûé_ãðàäèåíò_308"/><radialGradient id="Áåçûìÿííûé_ãðàäèåíò_308-16" cx="926.46" cy="248.34" r="1.95" gradientTransform="matrix(-1, 0, 0, 1, 1844.57, 0)" xlink:href="#Áåçûìÿííûé_ãðàäèåíò_308"/><radialGradient id="Áåçûìÿííûé_ãðàäèåíò_308-17" cx="936.52" cy="245.15" r="1.95" gradientTransform="matrix(-1, 0, 0, 1, 1844.57, 0)" xlink:href="#Áåçûìÿííûé_ãðàäèåíò_308"/><radialGradient id="Áåçûìÿííûé_ãðàäèåíò_308-18" cx="913.27" cy="269.39" r="1.95" gradientTransform="matrix(-1, 0, 0, 1, 1844.57, 0)" xlink:href="#Áåçûìÿííûé_ãðàäèåíò_308"/><radialGradient id="Áåçûìÿííûé_ãðàäèåíò_308-19" cx="927.7" cy="274.48" r="1.95" gradientTransform="matrix(-1, 0, 0, 1, 1844.57, -22.12)" xlink:href="#Áåçûìÿííûé_ãðàäèåíò_308"/><radialGradient id="Áåçûìÿííûé_ãðàäèåíò_308-20" cx="931.21" cy="291.65" r="1.95" gradientTransform="matrix(-1, 0, 0, 1, 1844.57, 0)" xlink:href="#Áåçûìÿííûé_ãðàäèåíò_308"/><radialGradient id="Áåçûìÿííûé_ãðàäèåíò_308-21" cx="915.58" cy="296.17" r="1.95" gradientTransform="matrix(-1, 0, 0, 1, 1844.57, -22.12)" xlink:href="#Áåçûìÿííûé_ãðàäèåíò_308"/><radialGradient id="Áåçûìÿííûé_ãðàäèåíò_308-22" cx="942.45" cy="276.81" r="1.95" gradientTransform="matrix(-1, 0, 0, 1, 1844.57, 0)" xlink:href="#Áåçûìÿííûé_ãðàäèåíò_308"/><radialGradient id="Áåçûìÿííûé_ãðàäèåíò_308-23" cx="947.73" cy="285.09" r="1.95" gradientTransform="matrix(-1, 0, 0, 1, 1844.57, 0)" xlink:href="#Áåçûìÿííûé_ãðàäèåíò_308"/><radialGradient id="Áåçûìÿííûé_ãðàäèåíò_308-24" cx="900.07" cy="299.63" r="1.95" gradientTransform="matrix(-1, 0, 0, 1, 1844.57, 0)" xlink:href="#Áåçûìÿííûé_ãðàäèåíò_308"/><radialGradient id="Áåçûìÿííûé_ãðàäèåíò_303-8" cx="928.88" cy="304.99" r="3.16" gradientTransform="matrix(-1, 0, 0, 1, 1844.57, 0)" xlink:href="#Áåçûìÿííûé_ãðàäèåíò_303"/><radialGradient id="Áåçûìÿííûé_ãðàäèåíò_303-9" cx="919.29" cy="246.16" r="3.16" gradientTransform="matrix(-1, 0, 0, 1, 1844.57, -22.12)" xlink:href="#Áåçûìÿííûé_ãðàäèåíò_303"/><radialGradient id="Áåçûìÿííûé_ãðàäèåíò_303-10" cx="947.5" cy="296.57" r="3.16" gradientTransform="matrix(-1, 0, 0, 1, 1844.57, -22.12)" xlink:href="#Áåçûìÿííûé_ãðàäèåíò_303"/><radialGradient id="Áåçûìÿííûé_ãðàäèåíò_303-11" cx="923.7" cy="201.21" r="3.16" gradientTransform="matrix(-1, 0, 0, 1, 1844.57, 0)" xlink:href="#Áåçûìÿííûé_ãðàäèåíò_303"/><radialGradient id="Áåçûìÿííûé_ãðàäèåíò_303-12" cx="911.95" cy="231.2" r="3.16" gradientTransform="matrix(-1, 0, 0, 1, 1844.57, 0)" xlink:href="#Áåçûìÿííûé_ãðàäèåíò_303"/><radialGradient id="Áåçûìÿííûé_ãðàäèåíò_317-6" cx="922.65" cy="196.06" r="4.73" gradientTransform="matrix(-1, 0, 0, 1, 1844.57, -22.12)" xlink:href="#Áåçûìÿííûé_ãðàäèåíò_317"/><radialGradient id="Áåçûìÿííûé_ãðàäèåíò_317-7" cx="921.87" cy="187.48" r="9.81" gradientTransform="matrix(-1, 0, 0, 1, 1844.57, 0)" xlink:href="#Áåçûìÿííûé_ãðàäèåíò_317"/><radialGradient id="Áåçûìÿííûé_ãðàäèåíò_317-8" cx="931.67" cy="237.15" r="6.32" gradientTransform="matrix(-1, 0, 0, 1, 1844.57, 0)" xlink:href="#Áåçûìÿííûé_ãðàäèåíò_317"/><radialGradient id="Áåçûìÿííûé_ãðàäèåíò_317-9" cx="905.64" cy="282.6" r="6.32" gradientTransform="matrix(-1, 0, 0, 1, 1844.57, 0)" xlink:href="#Áåçûìÿííûé_ãðàäèåíò_317"/><radialGradient id="Áåçûìÿííûé_ãðàäèåíò_317-10" cx="954.8" cy="300.63" r="6.32" gradientTransform="matrix(-1, 0, 0, 1, 1844.57, -22.12)" xlink:href="#Áåçûìÿííûé_ãðàäèåíò_317"/><radialGradient id="Áåçûìÿííûé_ãðàäèåíò_317-11" cx="913.74" cy="218.19" r="6.32" gradientTransform="matrix(-1, 0, 0, 1, 1844.57, -22.12)" xlink:href="#Áåçûìÿííûé_ãðàäèåíò_317"/><radialGradient id="Áåçûìÿííûé_ãðàäèåíò_114-5" cx="1055.89" cy="275.13" r="12.04" xlink:href="#Áåçûìÿííûé_ãðàäèåíò_114"/><radialGradient id="Áåçûìÿííûé_ãðàäèåíò_114-6" cx="1083.34" cy="251.93" r="12.04" xlink:href="#Áåçûìÿííûé_ãðàäèåíò_114"/><radialGradient id="Áåçûìÿííûé_ãðàäèåíò_114-7" cx="1080.98" cy="295.51" r="12.04" xlink:href="#Áåçûìÿííûé_ãðàäèåíò_114"/><radialGradient id="Áåçûìÿííûé_ãðàäèåíò_135" cx="1077.37" cy="245.1" r="12.04" gradientTransform="translate(-220.34 -22.12) scale(1.06 1)" gradientUnits="userSpaceOnUse"><stop offset="0.01" stop-color="#00e2f9"/><stop offset="0.09" stop-color="#00c7db"/><stop offset="0.28" stop-color="#008b99"/><stop offset="0.46" stop-color="#005963"/><stop offset="0.63" stop-color="#003338"/><stop offset="0.78" stop-color="#001719"/><stop offset="0.9" stop-color="#000607"/><stop offset="0.99"/></radialGradient><linearGradient id="Áåçûìÿííûé_ãðàäèåíò_54" x1="372" y1="288.47" x2="371.93" y2="286.82" gradientUnits="userSpaceOnUse"><stop offset="0" stop-color="#2f0c39"/><stop offset="1" stop-color="#2a3270"/></linearGradient><linearGradient id="Áåçûìÿííûé_ãðàäèåíò_88" x1="372.33" y1="332.86" x2="372.33" y2="287.5" gradientUnits="userSpaceOnUse"><stop offset="0" stop-color="#5c72a8"/><stop offset="1" stop-color="#393c72"/></linearGradient><linearGradient id="Áåçûìÿííûé_ãðàäèåíò_88-2" x1="358.53" y1="285.46" x2="385.37" y2="285.46" xlink:href="#Áåçûìÿííûé_ãðàäèåíò_88"/><linearGradient id="Áåçûìÿííûé_ãðàäèåíò_16" x1="372.33" y1="332.75" x2="372.33" y2="283.3" gradientUnits="userSpaceOnUse"><stop offset="0" stop-color="#8397a5"/><stop offset="0.99" stop-color="#387497"/></linearGradient><linearGradient id="Áåçûìÿííûé_ãðàäèåíò_88-3" x1="372.46" y1="335.3" x2="372.26" y2="330.66" xlink:href="#Áåçûìÿííûé_ãðàäèåíò_88"/><linearGradient id="Áåçûìÿííûé_ãðàäèåíò_15" x1="360.78" y1="287.33" x2="360.78" y2="284.07" gradientUnits="userSpaceOnUse"><stop offset="0"/><stop offset="1" stop-color="#986646"/></linearGradient><linearGradient id="Áåçûìÿííûé_ãðàäèåíò_15-2" x1="383.27" y1="287.01" x2="383.27" y2="284.07" xlink:href="#Áåçûìÿííûé_ãðàäèåíò_15"/><linearGradient id="Áåçûìÿííûé_ãðàäèåíò_15-3" x1="361.2" y1="307.13" x2="361.2" y2="266.26" xlink:href="#Áåçûìÿííûé_ãðàäèåíò_15"/><linearGradient id="Áåçûìÿííûé_ãðàäèåíò_15-4" x1="383.89" y1="309.18" x2="383.89" y2="265.59" xlink:href="#Áåçûìÿííûé_ãðàäèåíò_15"/><linearGradient id="Áåçûìÿííûé_ãðàäèåíò_6" x1="358.8" y1="284.05" x2="385.14" y2="284.05" gradientUnits="userSpaceOnUse"><stop offset="0" stop-color="#e59938"/><stop offset="1" stop-color="#f8c237"/></linearGradient><linearGradient id="Áåçûìÿííûé_ãðàäèåíò_97-13" x1="395.05" y1="136.79" x2="790.23" y2="136.79" gradientTransform="matrix(1, 0, 0, 1, 0, 0)" xlink:href="#Áåçûìÿííûé_ãðàäèåíò_97"/><linearGradient id="Áåçûìÿííûé_ãðàäèåíò_97-14" x1="393.64" y1="145.9" x2="791.72" y2="145.9" gradientTransform="matrix(1, 0, 0, 1, 0, 0)" xlink:href="#Áåçûìÿííûé_ãðàäèåíò_97"/><linearGradient id="Áåçûìÿííûé_ãðàäèåíò_97-15" x1="395.49" y1="168.59" x2="791.48" y2="168.59" gradientTransform="matrix(1, 0, 0, 1, 0, 0)" xlink:href="#Áåçûìÿííûé_ãðàäèåíò_97"/><linearGradient id="Áåçûìÿííûé_ãðàäèåíò_97-16" x1="578.96" y1="209.88" x2="578.96" y2="153.27" gradientTransform="matrix(1, 0, 0, 1, 0, 0)" xlink:href="#Áåçûìÿííûé_ãðàäèåíò_97"/><linearGradient id="Áåçûìÿííûé_ãðàäèåíò_97-17" x1="576.83" y1="208.54" x2="576.83" y2="153.4" gradientTransform="matrix(1, 0, 0, 1, 0, 0)" xlink:href="#Áåçûìÿííûé_ãðàäèåíò_97"/><linearGradient id="Áåçûìÿííûé_ãðàäèåíò_97-18" x1="580.9" y1="208.54" x2="580.9" y2="153.4" gradientTransform="matrix(1, 0, 0, 1, 0, 0)" xlink:href="#Áåçûìÿííûé_ãðàäèåíò_97"/><linearGradient id="Áåçûìÿííûé_ãðàäèåíò_92-4" x1="792.33" y1="331.93" x2="792.33" y2="119.18" xlink:href="#Áåçûìÿííûé_ãðàäèåíò_92"/><linearGradient id="Áåçûìÿííûé_ãðàäèåíò_92-5" x1="791.79" y1="119.18" x2="791.79" y2="110.34" xlink:href="#Áåçûìÿííûé_ãðàäèåíò_92"/><linearGradient id="Áåçûìÿííûé_ãðàäèåíò_427-3" x1="791.39" y1="299.62" x2="791.39" y2="105.88" xlink:href="#Áåçûìÿííûé_ãðàäèåíò_427"/><linearGradient id="Áåçûìÿííûé_ãðàäèåíò_141-4" x1="783.68" y1="112.27" x2="797.24" y2="112.27" xlink:href="#Áåçûìÿííûé_ãðàäèåíò_141"/><linearGradient id="Áåçûìÿííûé_ãðàäèåíò_141-5" x1="785.92" y1="310.92" x2="798.33" y2="310.92" xlink:href="#Áåçûìÿííûé_ãðàäèåíò_141"/><linearGradient id="Áåçûìÿííûé_ãðàäèåíò_92-6" x1="788.12" y1="331.19" x2="788.12" y2="311.08" xlink:href="#Áåçûìÿííûé_ãðàäèåíò_92"/><linearGradient id="Áåçûìÿííûé_ãðàäèåíò_427-4" x1="785.5" y1="109.25" x2="785.5" y2="81.39" xlink:href="#Áåçûìÿííûé_ãðàäèåíò_427"/><linearGradient id="Áåçûìÿííûé_ãðàäèåíò_141-6" x1="800.72" y1="110.27" x2="800.72" y2="96.71" xlink:href="#Áåçûìÿííûé_ãðàäèåíò_141"/></defs><title>main_1</title><g class="cls-2"><g id="Layer_2" data-name="Layer 2"><g id="parc"><g class="cls-3"><polygon class="cls-4" points="1003.9 275.63 1003.73 257.53 850.71 257.53 798.09 254.56 751.2 253.88 725.66 257.53 406.74 257.53 323.17 253.38 103.67 257.53 103.67 275.47 1003.9 275.63"/><polygon class="cls-5" points="1003.73 275.47 845.99 275.47 248.03 288.96 1003.73 282.21 1003.73 275.47"/><polygon class="cls-6" points="751.2 253.88 795.01 257.53 887.29 260.88 916.87 260.88 1003.73 260.88 1003.73 257.53 848.88 257.53 798.09 254.56 751.2 253.88"/><polygon class="cls-7" points="845.92 259.38 772.17 265.88 645.92 270.38 900.15 270.38 950.75 270.38 881.17 265.63 916.87 260.88 845.92 259.38"/><polygon class="cls-8" points="323.17 253.38 260.22 254.57 103.67 265.63 103.67 275.47 398.15 271.88 297.42 267.8 339.17 260.63 406.74 257.53 323.17 253.38"/><polygon class="cls-9" points="297.42 267.8 339.17 260.63 410.69 264.21 534.17 270.38 398.15 271.88 297.42 267.8"/><polygon class="cls-10" points="398.15 271.88 495.83 280.55 457.69 284.23 800.67 276.49 398.15 271.88"/><path class="cls-11" d="M457.13,287.94s53.83-3.42,81.49-2.68c37.7,1,285-1.07,285-1.07a565.22,565.22,0,0,1-62.33,5c-29,.7-40.82.83-40.82.83l84.05,3.4s-308.54,1.69-446.55.57Z" transform="translate(0 -22.12)"/><path class="cls-12" d="M1059.84,155.05q-7.83,0-15.91-.08c-73.31-.78-176.57-7.51-252.21-35.16a.38.38,0,0,1-.23-.48.39.39,0,0,1,.49-.23c75.53,27.62,178.71,34.34,252,35.12,79.38.84,141.68-4.93,142.3-5a.38.38,0,0,1,.07.75C1185.74,150,1131.52,155.05,1059.84,155.05Z" transform="translate(0 -22.12)"/><path class="cls-13" d="M1118.87,163.54c-58,0-115.06-9.12-115.87-9.25-120.31,7.42-211.86-24.43-212.77-24.76a.37.37,0,1,1,.25-.7c.91.32,92.33,32.13,212.56,24.72,1.22.19,115.09,18.38,184.57,3.21a.37.37,0,0,1,.44.29.38.38,0,0,1-.28.45C1167.31,162,1143,163.54,1118.87,163.54Z" transform="translate(0 -22.12)"/><path class="cls-14" d="M1127.8,184.21a272.25,272.25,0,0,1-66.52-8.77A303.92,303.92,0,0,1,1003,154.33c-70.38,24.34-211.08,1.38-212.5,1.15a.39.39,0,0,1-.31-.43.37.37,0,0,1,.43-.31c1.42.23,142.13,23.19,212.29-1.17l.15,0,.14.07c.24.12,24,12.4,58.26,21.13,31.58,8.05,78.77,14.64,124.24.3a.37.37,0,1,1,.22.71A193.21,193.21,0,0,1,1127.8,184.21Z" transform="translate(0 -22.12)"/><path class="cls-15" d="M1002.42,210.15h0a.37.37,0,0,1-.37-.38l.63-55.85a.38.38,0,0,1,.38-.37h0a.37.37,0,0,1,.37.38l-.63,55.85A.37.37,0,0,1,1002.42,210.15Z" transform="translate(0 -22.12)"/><path class="cls-16" d="M1005.88,208.81a.37.37,0,0,1-.37-.36l-2-54.39a.38.38,0,1,1,.75,0l2,54.39a.39.39,0,0,1-.36.39Z" transform="translate(0 -22.12)"/><path class="cls-17" d="M999.78,208.81h0a.37.37,0,0,1-.36-.39l2-54.39a.37.37,0,0,1,.39-.36.38.38,0,0,1,.36.39l-2,54.39A.38.38,0,0,1,999.78,208.81Z" transform="translate(0 -22.12)"/><path class="cls-18" d="M1003.85,175.84a1,1,0,1,0,1-1A1,1,0,0,0,1003.85,175.84Z" transform="translate(0 -22.12)"/><path class="cls-18" d="M1003.19,160.88a1,1,0,1,0,2,0,1,1,0,0,0-2,0Z" transform="translate(0 -22.12)"/><path class="cls-18" d="M1004.21,190.39a1,1,0,1,0,1-1A1,1,0,0,0,1004.21,190.39Z" transform="translate(0 -22.12)"/><path class="cls-18" d="M1001.73,209.45a1,1,0,1,0,1-1A1,1,0,0,0,1001.73,209.45Z" transform="translate(0 -22.12)"/><path class="cls-18" d="M1001.41,192.42a1,1,0,1,0,1-1A1,1,0,0,0,1001.41,192.42Z" transform="translate(0 -22.12)"/><path class="cls-18" d="M1001.73,178.29a1,1,0,0,0,2,0,1,1,0,1,0-2,0Z" transform="translate(0 -22.12)"/><path class="cls-18" d="M1001.73,163.59a1,1,0,0,0,2,0,1,1,0,1,0-2,0Z" transform="translate(0 -22.12)"/><path class="cls-18" d="M968.29,161.9a1,1,0,0,0,2,0,1,1,0,1,0-2,0Z" transform="translate(0 -22.12)"/><path class="cls-18" d="M938.28,164.6a1,1,0,1,0,1-1A1,1,0,0,0,938.28,164.6Z" transform="translate(0 -22.12)"/><path class="cls-18" d="M983,159.27a1,1,0,1,0,2,0,1,1,0,0,0-2,0Z" transform="translate(0 -22.12)"/><path class="cls-18" d="M1039.28,169.29a1,1,0,1,0,1-1A1,1,0,0,0,1039.28,169.29Z" transform="translate(0 -22.12)"/><path class="cls-18" d="M1053.41,160.29a1,1,0,0,0,2,0,1,1,0,1,0-2,0Z" transform="translate(0 -22.12)"/><path class="cls-18" d="M1079.69,161.9a1,1,0,1,0,1-1A1,1,0,0,0,1079.69,161.9Z" transform="translate(0 -22.12)"/><path class="cls-18" d="M1058.41,154.29a1,1,0,1,0,2,0,1,1,0,0,0-2,0Z" transform="translate(0 -22.12)"/><path class="cls-18" d="M1072.83,154.68a1,1,0,1,0,1-1A1,1,0,0,0,1072.83,154.68Z" transform="translate(0 -22.12)"/><path class="cls-18" d="M1111.46,163.21a1,1,0,1,0,2,0,1,1,0,0,0-2,0Z" transform="translate(0 -22.12)"/><path class="cls-18" d="M1101.64,153.92a1,1,0,1,0,2,0,1,1,0,0,0-2,0Z" transform="translate(0 -22.12)"/><path class="cls-18" d="M1147,162.2a1,1,0,1,0,1-1A1,1,0,0,0,1147,162.2Z" transform="translate(0 -22.12)"/><path class="cls-18" d="M1135,152.91a1,1,0,1,0,1-1A1,1,0,0,0,1135,152.91Z" transform="translate(0 -22.12)"/><path class="cls-18" d="M1179.53,158.86a1,1,0,1,0,1-1A1,1,0,0,0,1179.53,158.86Z" transform="translate(0 -22.12)"/><path class="cls-18" d="M1064.59,176.23a1,1,0,1,0,1-1A1,1,0,0,0,1064.59,176.23Z" transform="translate(0 -22.12)"/><path class="cls-18" d="M1094.94,182a1,1,0,1,0,1-1A1,1,0,0,0,1094.94,182Z" transform="translate(0 -22.12)"/><path class="cls-18" d="M1122.81,183.89a1,1,0,0,0,2,0,1,1,0,1,0-2,0Z" transform="translate(0 -22.12)"/><path class="cls-18" d="M1151.92,182.21a1,1,0,1,0,2,0,1,1,0,0,0-2,0Z" transform="translate(0 -22.12)"/><path class="cls-18" d="M1027.46,164.6a1,1,0,1,0,1-1A1,1,0,0,0,1027.46,164.6Z" transform="translate(0 -22.12)"/><circle class="cls-18" cx="1040.3" cy="136.74" r="1.01"/><path class="cls-18" d="M1066.12,160.88a1,1,0,1,0,1-1A1,1,0,0,0,1066.12,160.88Z" transform="translate(0 -22.12)"/><path class="cls-18" d="M1043.14,154.32a1,1,0,1,0,1-1A1,1,0,0,0,1043.14,154.32Z" transform="translate(0 -22.12)"/><path class="cls-18" d="M1027,154.32a1,1,0,0,0,2,0,1,1,0,1,0-2,0Z" transform="translate(0 -22.12)"/><path class="cls-18" d="M1012.59,153.92a1,1,0,1,0,1-1A1,1,0,0,0,1012.59,153.92Z" transform="translate(0 -22.12)"/><path class="cls-18" d="M1097,162.91a1,1,0,1,0,2,0,1,1,0,0,0-2,0Z" transform="translate(0 -22.12)"/><path class="cls-18" d="M1088.28,154.32a1,1,0,1,0,1-1A1,1,0,0,0,1088.28,154.32Z" transform="translate(0 -22.12)"/><path class="cls-18" d="M1128.1,163.21a1,1,0,1,0,2,0,1,1,0,0,0-2,0Z" transform="translate(0 -22.12)"/><path class="cls-18" d="M1118.42,153.28a1,1,0,1,0,1-1A1,1,0,0,0,1118.42,153.28Z" transform="translate(0 -22.12)"/><circle class="cls-18" cx="1164.05" cy="139.18" r="1.01"/><path class="cls-18" d="M1154,152.26a1,1,0,1,0,1-1A1,1,0,0,0,1154,152.26Z" transform="translate(0 -22.12)"/><path class="cls-18" d="M1172.33,150.55a1,1,0,1,0,1-1A1,1,0,0,0,1172.33,150.55Z" transform="translate(0 -22.12)"/><path class="cls-18" d="M1052.39,173.15a1,1,0,1,0,1-1A1,1,0,0,0,1052.39,173.15Z" transform="translate(0 -22.12)"/><path class="cls-18" d="M1079.69,179.3a1,1,0,1,0,1-1A1,1,0,0,0,1079.69,179.3Z" transform="translate(0 -22.12)"/><path class="cls-18" d="M1109.44,183.47a1,1,0,1,0,1-1A1,1,0,0,0,1109.44,183.47Z" transform="translate(0 -22.12)"/><path class="cls-18" d="M1136,183.89a1,1,0,0,0,2,0,1,1,0,1,0-2,0Z" transform="translate(0 -22.12)"/><path class="cls-18" d="M1168.1,179.3a1,1,0,1,0,1-1A1,1,0,0,0,1168.1,179.3Z" transform="translate(0 -22.12)"/><path class="cls-18" d="M954.78,163.59a1,1,0,1,0,1-1A1,1,0,0,0,954.78,163.59Z" transform="translate(0 -22.12)"/><path class="cls-18" d="M1014.61,160.29a1,1,0,1,0,1-1A1,1,0,0,0,1014.61,160.29Z" transform="translate(0 -22.12)"/><path class="cls-18" d="M1024.4,157a1,1,0,1,0,1-1A1,1,0,0,0,1024.4,157Z" transform="translate(0 -22.12)"/><path class="cls-18" d="M898.94,165.61a1,1,0,1,0,2,0,1,1,0,0,0-2,0Z" transform="translate(0 -22.12)"/><path class="cls-18" d="M874.36,164.6a1,1,0,1,0,1-1A1,1,0,0,0,874.36,164.6Z" transform="translate(0 -22.12)"/><path class="cls-18" d="M851.38,162.57a1,1,0,1,0,1-1A1,1,0,0,0,851.38,162.57Z" transform="translate(0 -22.12)"/><path class="cls-18" d="M812.24,158.52a1,1,0,1,0,1-1A1,1,0,0,0,812.24,158.52Z" transform="translate(0 -22.12)"/><circle class="cls-18" cx="833.37" cy="138.42" r="1.01"/><path class="cls-18" d="M840.19,142.44a1,1,0,1,0,1-1A1,1,0,0,0,840.19,142.44Z" transform="translate(0 -22.12)"/><path class="cls-18" d="M823,129.68a1,1,0,1,0,1-1A1,1,0,0,0,823,129.68Z" transform="translate(0 -22.12)"/><path class="cls-18" d="M855.94,145.44a1,1,0,1,0,1-1A1,1,0,0,0,855.94,145.44Z" transform="translate(0 -22.12)"/><circle class="cls-18" cx="840.19" cy="111.59" r="1.01"/><path class="cls-18" d="M871,148a1,1,0,1,0,1-1A1,1,0,0,0,871,148Z" transform="translate(0 -22.12)"/><path class="cls-18" d="M854.92,137.07a1,1,0,1,0,1-1A1,1,0,0,0,854.92,137.07Z" transform="translate(0 -22.12)"/><path class="cls-18" d="M884.5,142.44a1,1,0,1,0,1-1A1,1,0,0,0,884.5,142.44Z" transform="translate(0 -22.12)"/><path class="cls-18" d="M887.68,150.38a1,1,0,1,0,1-1A1,1,0,0,0,887.68,150.38Z" transform="translate(0 -22.12)"/><circle class="cls-18" cx="870.31" cy="118" r="1.01"/><path class="cls-18" d="M901,151.9a1,1,0,1,0,1-1A1,1,0,0,0,901,151.9Z" transform="translate(0 -22.12)"/><path class="cls-18" d="M915.83,152.91a1,1,0,1,0,2,0,1,1,0,0,0-2,0Z" transform="translate(0 -22.12)"/><path class="cls-18" d="M902,145a1,1,0,1,0,1-1A1,1,0,0,0,902,145Z" transform="translate(0 -22.12)"/><path class="cls-18" d="M958.57,154.68a1,1,0,0,0,2,0,1,1,0,1,0-2,0Z" transform="translate(0 -22.12)"/><path class="cls-18" d="M937.27,149.36a1,1,0,1,0,1-1A1,1,0,0,0,937.27,149.36Z" transform="translate(0 -22.12)"/><path class="cls-18" d="M966.26,151.39a1,1,0,1,0,1-1A1,1,0,0,0,966.26,151.39Z" transform="translate(0 -22.12)"/><path class="cls-18" d="M930.46,153.93a1,1,0,1,0,1-1A1,1,0,0,0,930.46,153.93Z" transform="translate(0 -22.12)"/><path class="cls-18" d="M919.2,147a1,1,0,1,0,1-1A1,1,0,0,0,919.2,147Z" transform="translate(0 -22.12)"/><path class="cls-18" d="M944,154.68a1,1,0,0,0,2,0,1,1,0,1,0-2,0Z" transform="translate(0 -22.12)"/><path class="cls-18" d="M950.87,150.55a1,1,0,1,0,1-1A1,1,0,0,0,950.87,150.55Z" transform="translate(0 -22.12)"/><path class="cls-18" d="M973.1,155a1,1,0,1,0,2,0,1,1,0,0,0-2,0Z" transform="translate(0 -22.12)"/><circle class="cls-18" cx="809.74" cy="113.11" r="1.01"/><path class="cls-18" d="M825.73,139.11a1,1,0,0,0,2,0,1,1,0,1,0-2,0Z" transform="translate(0 -22.12)"/><path class="cls-18" d="M805,124.27a1,1,0,1,0,1-1A1,1,0,0,0,805,124.27Z" transform="translate(0 -22.12)"/><path class="cls-18" d="M918.19,165.61a1,1,0,1,0,1-1A1,1,0,0,0,918.19,165.61Z" transform="translate(0 -22.12)"/><path class="cls-18" d="M1004.87,208.44a1,1,0,0,0,2,0,1,1,0,1,0-2,0Z" transform="translate(0 -22.12)"/><path class="cls-18" d="M998.77,208.76a1,1,0,1,0,1-1A1,1,0,0,0,998.77,208.76Z" transform="translate(0 -22.12)"/><path class="cls-18" d="M998.77,190.39a1,1,0,1,0,1-1A1,1,0,0,0,998.77,190.39Z" transform="translate(0 -22.12)"/><path class="cls-18" d="M999.79,176.23a1,1,0,1,0,1-1A1,1,0,0,0,999.79,176.23Z" transform="translate(0 -22.12)"/><path class="cls-18" d="M1000.4,160.88a1,1,0,1,0,1-1A1,1,0,0,0,1000.4,160.88Z" transform="translate(0 -22.12)"/><path class="cls-18" d="M996.08,156a1,1,0,1,0,1-1A1,1,0,0,0,996.08,156Z" transform="translate(0 -22.12)"/><polygon class="cls-19" points="515 263.23 615.02 267.26 510.69 270.64 723.72 268.04 706.49 266.8 788.04 262.35 515 263.23"/><polygon class="cls-20" points="1003.73 282.21 353.22 272.13 264.67 273.51 272.42 275.47 103.67 275.47 101.49 308.55 590.74 301.19 1003.66 299.01 1003.73 282.21"/><path class="cls-21" d="M1003.9,297.75l-.17,6.59c-11.94-1-70.11,3.08-70.11,3.08,22.29.75,49.73,7.42,47.57,9.42s-34.1,3.93-34.1,3.93l-456,3.27h0l-75.28.54c22-5.25,84.06-6.09,84.06-6.09C486.7,316,377.92,309,377.92,309l5.82,8.67s3.93,2.85-33.85,2.68-88.38,0-88.38,0l20,4.25c-33.16,2.26-180,3.42-180,3.42l2.17-36.63s158.5-.87,242.27,0S1003.9,297.75,1003.9,297.75Z" transform="translate(0 -22.12)"/><path class="cls-22" d="M1003.67,300.18s-57.46,1.62-91.31,5l21.26,2.27s59-2.92,70.11-3.08Z" transform="translate(0 -22.12)"/><path class="cls-23" d="M981.19,316.84c-2.16,2-34.1,3.93-34.1,3.93l-456,3.27,309.78-6.53c-12.47-3.15-96.94-8-96.94-8,21.59-1.72,173.54,0,173.54,0l-60.72,7.35C866.13,318.35,981.19,316.84,981.19,316.84Z" transform="translate(0 -22.12)"/><path class="cls-24" d="M377.92,309,372,304.34s140.48,8.43,156.17,12l-28.29,2.11S401.5,310.37,377.92,309Z" transform="translate(0 -22.12)"/><path class="cls-25" d="M383.74,317.65l-4.15-6.17S287.4,311,248,316.38l13.48,3.95S369.56,321.55,383.74,317.65Z" transform="translate(0 -22.12)"/><path class="cls-26" d="M101.5,316.38s142.92,6.11,180,8.2c0,0-129.17,6.42-180,3.42Z" transform="translate(0 -22.12)"/><polygon class="cls-27" points="1003.67 296.21 958.55 298.21 433.32 302.46 421.67 302.46 386.42 304.13 101.49 305.88 101.49 308.55 1006.29 315.98 1003.67 296.21"/><polygon class="cls-28" points="1003.73 302.46 420.08 304.78 386.33 308.55 194 308.55 101.49 308.55 101.49 355.88 1004.94 355.88 1003.73 302.46"/><polygon class="cls-29" points="594.5 355.88 609.33 304.03 609.59 304.03 595.67 355.88 594.5 355.88"/><polygon class="cls-29" points="603.65 326.14 795.18 323.88 602.71 327.19 603.65 326.14"/><polygon class="cls-30" points="811.33 355.88 794.95 303.29 812.17 355.88 811.33 355.88"/><polygon class="cls-30" points="900.83 355.88 865.67 303.01 865.96 303.01 901.79 355.88 900.83 355.88"/><polygon class="cls-30" points="892.11 341.59 1004.65 343.13 1004.64 342.36 891.9 341.29 892.11 341.59"/><polygon class="cls-31" points="474.65 306.1 441.17 355.1 440 355.1 475.04 304.56 474.65 306.1"/><polygon class="cls-31" points="337.76 310.49 247.04 355.88 244.42 355.88 337.76 310.49"/><polygon class="cls-31" points="166.75 319.05 327.83 315.83 325.95 316.23 191.04 319.38 166.75 319.05"/><polygon class="cls-32" points="210.17 308.55 101.49 333.23 100.36 335.12 210.17 308.55"/><polygon class="cls-33" points="865.96 303.01 892.11 341.59 1004.64 342.36 1003.73 302.46 865.96 303.01"/><polygon class="cls-34" points="440 355.1 475.04 304.56 420.08 304.78 386.33 308.55 337.76 310.49 247.04 355.88 440 355.1"/><polygon class="cls-35" points="1003.67 306.1 416.78 308.55 383.71 313.21 101.49 313.21 101.49 308.55 386.33 308.55 420.08 304.78 1003.73 302.46 1003.67 306.1"/><polygon class="cls-32" points="598.71 342.55 598.13 340.17 600.08 334.55 602.27 328.74 598.71 342.55"/><polygon class="cls-32" points="443.67 355.12 446.29 350.71 446.29 348.38 451.16 340.48 441.17 355.1 443.67 355.12"/><polygon class="cls-29" points="704.84 325.44 710.5 323.88 722.5 323.88 738.48 323.88 741.42 324.52 753.67 324.37 704.84 325.44"/><polygon class="cls-32" points="260.39 349.2 262.54 344.88 269.29 342.5 285.54 335.12 296.69 331.04 260.39 349.2"/><polygon class="cls-36" points="910.92 341.72 914.29 340.25 916.29 340.25 929.92 340.99 935.73 340.99 943.67 341.94 910.92 341.72"/><polygon class="cls-33" points="805.54 335.64 784.09 335.64 795.18 337.63 800.67 337.63 803.56 343.13 808.38 346.41 671.92 346.41 681.17 349.63 713.66 349.63 749.9 349.63 691.67 352.13 595.67 355.88 812.17 355.88 805.54 335.64"/><polygon class="cls-33" points="466.79 317.6 551.13 317.6 538.17 319.38 511.04 318.49 508.04 319.38 499.92 321.5 481.86 322.63 605.12 318.76 602.71 327.19 513.67 330.22 487.33 334.21 477.17 334.21 451.16 340.48 466.79 317.6"/><polygon class="cls-33" points="323.54 317.6 205.29 323 210.17 323.75 268.25 327.19 268.25 329.83 278.54 335.12 193.33 335.64 122 340.12 278.92 338.13 296.69 331.04 323.54 317.6"/><polygon class="cls-37" points="704.34 368.91 711.43 368.91 725.47 371.37 707.1 371.37 701.85 370.14 704.34 368.91"/><path class="cls-38" d="M184.35,278.37l-.14.44A3.22,3.22,0,0,1,184.35,278.37Z" transform="translate(0 -22.12)"/><path class="cls-39" d="M302,275.5s7.75-8.87,23.29-12.23c0,0,58.8,2.64,79.72,6.48s25.9,4.11,25.9,4.11S347.54,277.44,302,275.5Z" transform="translate(0 -22.12)"/><polygon class="cls-37" points="764.44 372.6 770.67 370.14 788.04 371.37 777.03 372.6 764.44 372.6"/><polygon class="cls-40" points="829.1 349.03 834.09 347.06 847.99 348.05 839.18 349.03 829.1 349.03"/><polygon class="cls-41" points="764.44 374.69 757.17 374.69 751.67 376.11 764.44 376.11 764.44 374.69"/><polygon class="cls-41" points="860.92 350.17 856.53 350.17 851.03 351.59 861.98 351.59 860.92 350.17"/><polygon class="cls-42" points="414 334.41 410.55 334.41 405.05 335.83 412.67 335.83 414 334.41"/><polygon class="cls-41" points="855.26 371.89 847.99 371.89 851.83 373.31 857.42 373.31 855.26 371.89"/><polygon class="cls-43" points="965.17 337.22 957.89 337.22 961.74 338.64 967.32 338.64 965.17 337.22"/><path class="cls-44" d="M390.56,311.56,392,295.77h1.65L395,147.19h2.57l2.53,148.58h1.49l1.74,15.87A22.47,22.47,0,0,1,390.56,311.56Z" transform="translate(0 -22.12)"/><circle class="cls-45" cx="396.77" cy="107.6" r="12.81"/><path class="cls-46" d="M395.16,147.19l-4.54-3.82-.38-2.62a36.56,36.56,0,0,1,12.6.26l-.27,1.83-4.84,4.35Z" transform="translate(0 -22.12)"/><polygon class="cls-47" points="395.61 131.92 395.04 282.47 397.43 282.47 396.2 132.63 395.61 131.92"/><path class="cls-48" d="M390.24,140.75l.38,2.62a41.71,41.71,0,0,1,10.16-.31l-.15-2.31A28.09,28.09,0,0,0,390.24,140.75Z" transform="translate(0 -22.12)"/><path class="cls-49" d="M392,295.77s3.64,1.89,9.65,0Z" transform="translate(0 -22.12)"/><path class="cls-50" d="M392.29,296.32,391.16,311a10.66,10.66,0,0,0,5.07.95V297A13.81,13.81,0,0,1,392.29,296.32Z" transform="translate(0 -22.12)"/><path class="cls-51" d="M397.66,117.82s-9.8,0-11.76,9.39c-1.51,7.25,4.37,12.26,4.37,12.26h4s-3.87-7.38-2.73-13.68A10.2,10.2,0,0,1,397.66,117.82Z" transform="translate(0 -22.12)"/><path class="cls-52" d="M398,139.47s8-3,11-9.75c0,0-.48,6.64-5.63,10.54A22.3,22.3,0,0,0,398,139.47Z" transform="translate(0 -22.12)"/><polygon class="cls-53" points="101.49 355.88 286.75 355.88 317 349.21 312.33 352.55 324.33 352.55 321.33 355.88 350 352.55 357.92 344.88 353.84 350.73 351.29 354.38 355.42 351.38 353.79 354 357.92 352.5 355.54 354.63 581.67 355.88 1004.94 355.88 1003.73 377.88 1003.73 377.88 98.54 377.88 101.49 355.88"/><path class="cls-54" d="M829.11,371.15l-25.55,3.6-391.27-.87s-31.74,4.49-55.61,17.15c-6.54,1.34-75,3-105.3,0,0,0,30.46-6,35.38-13,0,0-36.24-4.2-84.66-6.85l-30.43-8.55-70.17-.36-3,37.76h905.13l1.28-22S927.54,373.77,829.11,371.15Zm49.73,26.37C860,397,853.09,394,853.09,394l8.89-4-2.08-2.69s14.12-4.66,23.61-4.83v2.42s25.49,1.58,37.24,4.91C920.75,389.83,897.67,398,878.84,397.52Z" transform="translate(0 -22.12)"/><path class="cls-55" d="M1005,378s-132.4-7.95-175.84-6.85c0,0,134.36,4.09,175.83,10Z" transform="translate(0 -22.12)"/><path class="cls-56" d="M853.09,394l-18.32-1.75S852.54,390,862,390Z" transform="translate(0 -22.12)"/><path class="cls-57" d="M859.9,387.33l-6.81-2.83s31.08-5.87,40.45-5c0,0-6.57,1-10,3C883.51,382.5,863.5,385.66,859.9,387.33Z" transform="translate(0 -22.12)"/><path class="cls-58" d="M883.51,384.92s29.65-1.08,41.49,0,29.29,3.58,29.29,3.58l-33.54,1.33Z" transform="translate(0 -22.12)"/><path class="cls-59" d="M286.76,378s-49.84,3.5-82.34,12.75c0,0,35.42-2.69,47,.28C251.38,391,281.85,385.75,286.76,378Z" transform="translate(0 -22.12)"/><path class="cls-60" d="M356.68,391l50.06,4s-38.66-6.64-35.45-10.49C371.29,384.51,361.85,387.56,356.68,391Z" transform="translate(0 -22.12)"/><path class="cls-27" d="M877.6,394.72,862.26,344l.3-2.15-10.79-31.48v-4l15.9,45.72,3,10.17,6.79-4.48,4.21-21.51,4-2.43-1.92,4.28-4.06,22.66-7.5,4.49L880,391h5.65l7.87-24,20.1-29.66,1.63-.67L895.42,367l-6.5,25.26S885,394.69,877.6,394.72Z" transform="translate(0 -22.12)"/><polygon class="cls-27" points="902.11 368.91 907.54 355.88 907.54 343.13 907.54 333.38 908.67 333.38 908.67 342.36 908.67 349.03 914.04 345.76 919.92 334.5 926.04 329.59 928.42 329.44 921.29 335.64 916.15 347.06 909.92 350.88 909.04 357.63 904.67 368.91 902.11 368.91"/><path class="cls-61" d="M865.56,346s9.45-8.84,18-12.25S913,331.93,913,331.93l-11.21,5.31,7.54.86s-18.66,10.36-32.83,11.22l-1-2.54Z" transform="translate(0 -22.12)"/><path class="cls-62" d="M895.83,357.76s9.34-6.63,19.42-8.44L913,351.71a81.75,81.75,0,0,1,28-2.39s-17.5,11.19-30.08,14.52l1.08-3.08S906.45,361,895.83,357.76Z" transform="translate(0 -22.12)"/><path class="cls-63" d="M901.79,359.37s13.46-3.87,21.13-4.45c0,0-8.59,3.61-10.92,5.84C912,360.76,904.92,360.9,901.79,359.37Z" transform="translate(0 -22.12)"/><path class="cls-64" d="M901.79,337.24s-7.87,2-11,3.2c0,0,10.58-8.49,22.25-8.51Z" transform="translate(0 -22.12)"/><path class="cls-65" d="M865.56,346a139.17,139.17,0,0,1,19.52-3.44s-8.41,3-9.58,4.22Z" transform="translate(0 -22.12)"/><path class="cls-66" d="M910.92,363.84s4.7,1,7.35.64,18.48-8.35,22.73-15.16C941,349.32,921.25,360.93,910.92,363.84Z" transform="translate(0 -22.12)"/><path class="cls-67" d="M876.5,349.32s2.08,4,4.5,4c0,0,18.58-1.06,28.33-15.25C909.33,338.1,890.75,348.13,876.5,349.32Z" transform="translate(0 -22.12)"/><polygon class="cls-55" points="851.77 284.23 851.77 288.26 870.23 338.65 861 306.69 851.77 284.23"/><path class="cls-55" d="M866.67,345.72s12-9.35,20.16-12.16S913,331.93,913,331.93s-16.53-1.39-28.61.9S865.56,346,865.56,346Z" transform="translate(0 -22.12)"/><polygon class="cls-55" points="915.25 314.55 914.29 315.98 902.4 331.77 913.62 315.22 915.25 314.55"/><path class="cls-55" d="M895.83,357.76s9.59-7.3,19.42-8.44l-1.15,1.22S907.33,351,895.83,357.76Z" transform="translate(0 -22.12)"/><path class="cls-55" d="M913,351.71s14.33-4,28-2.39l-1.13.65S932.17,348.91,913,351.71Z" transform="translate(0 -22.12)"/><polygon class="cls-55" points="806.02 352.28 616.23 353.91 409.52 351.59 806.02 352.28"/><polygon class="cls-55" points="291.09 354.93 317 349.21 315.17 350.52 291.09 354.93"/><polygon class="cls-55" points="312.33 352.55 325.08 352.55 323.54 353.44 312.33 352.55"/><polygon class="cls-55" points="327.83 355.12 350 352.55 356.49 346.92 357.92 344.88 349.35 352.07 327.83 355.12"/><polygon class="cls-55" points="355.54 354.63 396.48 354.86 367.17 355.57 355.54 354.63"/><polygon class="cls-55" points="171.67 340.48 200.04 350 275.35 354.93 197.58 347.13 171.67 340.48"/><polygon class="cls-41" points="790.68 373.98 783.41 373.98 787.25 375.4 792.84 375.4 790.68 373.98"/><polygon class="cls-68" points="461.98 343.47 454.7 344.18 458.55 344.89 464.67 344.18 461.98 343.47"/><polygon class="cls-69" points="428.65 345.57 433.64 345.57 447.5 347.32 435.12 347.32 428.65 345.57"/><polygon class="cls-70" points="426.46 346.92 419.54 346.92 412.79 347.8 419.63 348.67 428.95 347.8 426.46 346.92"/><path class="cls-71" d="M269.87,154.63q-7.83,0-15.92-.08C180.64,153.77,77.37,147,1.74,119.39a.38.38,0,0,1,.25-.71C77.53,146.3,180.7,153,254,153.8c79.38.84,141.69-4.93,142.31-5a.38.38,0,0,1,.41.34.37.37,0,0,1-.34.41C395.75,149.61,341.54,154.63,269.87,154.63Z" transform="translate(0 -22.12)"/><path class="cls-72" d="M328.89,163.12c-58,0-115.07-9.12-115.87-9.25C92.7,161.3,1.16,129.44.25,129.11a.36.36,0,0,1-.23-.47.38.38,0,0,1,.48-.23c.91.32,92.32,32.13,212.55,24.72,1.23.19,115.1,18.38,184.57,3.22a.37.37,0,1,1,.16.73C377.33,161.54,353,163.12,328.89,163.12Z" transform="translate(0 -22.12)"/><path class="cls-73" d="M337.82,183.79A272.25,272.25,0,0,1,271.3,175c-32.92-8.39-56.21-20.07-58.25-21.11C142.67,178.25,2,155.29.55,155.06a.39.39,0,0,1-.31-.43.37.37,0,0,1,.43-.31c1.42.23,142.13,23.19,212.28-1.17l.16-.05.14.07c.24.12,24,12.4,58.26,21.13,31.58,8,78.77,14.64,124.24.3a.37.37,0,1,1,.22.71A193.21,193.21,0,0,1,337.82,183.79Z" transform="translate(0 -22.12)"/><path class="cls-74" d="M212.44,209.73h0a.36.36,0,0,1-.37-.37l.63-55.86a.38.38,0,0,1,.75,0l-.63,55.85A.38.38,0,0,1,212.44,209.73Z" transform="translate(0 -22.12)"/><path class="cls-75" d="M215.9,208.39a.38.38,0,0,1-.38-.36l-2-54.39a.38.38,0,0,1,.36-.39.37.37,0,0,1,.39.36l2,54.39a.37.37,0,0,1-.36.39Z" transform="translate(0 -22.12)"/><path class="cls-76" d="M209.8,208.39h0a.37.37,0,0,1-.36-.39l2-54.39a.37.37,0,0,1,.39-.36.38.38,0,0,1,.36.39l-2,54.39A.38.38,0,0,1,209.8,208.39Z" transform="translate(0 -22.12)"/><path class="cls-18" d="M213.87,175.42a1,1,0,1,0,1-1A1,1,0,0,0,213.87,175.42Z" transform="translate(0 -22.12)"/><path class="cls-18" d="M213.21,160.46a1,1,0,1,0,1-1A1,1,0,0,0,213.21,160.46Z" transform="translate(0 -22.12)"/><path class="cls-18" d="M214.22,190a1,1,0,1,0,1-1A1,1,0,0,0,214.22,190Z" transform="translate(0 -22.12)"/><path class="cls-18" d="M211.75,209a1,1,0,1,0,1-1A1,1,0,0,0,211.75,209Z" transform="translate(0 -22.12)"/><path class="cls-18" d="M211.43,192a1,1,0,1,0,1-1A1,1,0,0,0,211.43,192Z" transform="translate(0 -22.12)"/><path class="cls-18" d="M211.75,177.87a1,1,0,1,0,1-1A1,1,0,0,0,211.75,177.87Z" transform="translate(0 -22.12)"/><path class="cls-18" d="M211.75,163.17a1,1,0,1,0,1-1A1,1,0,0,0,211.75,163.17Z" transform="translate(0 -22.12)"/><path class="cls-18" d="M178.31,161.48a1,1,0,0,0,2,0,1,1,0,1,0-2,0Z" transform="translate(0 -22.12)"/><path class="cls-18" d="M148.3,164.18a1,1,0,1,0,1-1A1,1,0,0,0,148.3,164.18Z" transform="translate(0 -22.12)"/><path class="cls-18" d="M193.05,158.85a1,1,0,1,0,2,0,1,1,0,0,0-2,0Z" transform="translate(0 -22.12)"/><circle class="cls-18" cx="250.32" cy="146.75" r="1.01"/><path class="cls-18" d="M263.43,159.87a1,1,0,1,0,1-1A1,1,0,0,0,263.43,159.87Z" transform="translate(0 -22.12)"/><path class="cls-18" d="M289.7,161.48a1,1,0,1,0,1-1A1,1,0,0,0,289.7,161.48Z" transform="translate(0 -22.12)"/><path class="cls-18" d="M268.43,153.87a1,1,0,1,0,2,0,1,1,0,0,0-2,0Z" transform="translate(0 -22.12)"/><path class="cls-18" d="M282.85,154.26a1,1,0,0,0,2,0,1,1,0,1,0-2,0Z" transform="translate(0 -22.12)"/><circle class="cls-18" cx="322.5" cy="140.67" r="1.01"/><path class="cls-18" d="M311.66,153.5a1,1,0,1,0,2,0,1,1,0,0,0-2,0Z" transform="translate(0 -22.12)"/><path class="cls-18" d="M357,161.78a1,1,0,1,0,1-1A1,1,0,0,0,357,161.78Z" transform="translate(0 -22.12)"/><path class="cls-18" d="M345,152.49a1,1,0,1,0,1-1A1,1,0,0,0,345,152.49Z" transform="translate(0 -22.12)"/><path class="cls-18" d="M389.55,158.44a1,1,0,1,0,1-1A1,1,0,0,0,389.55,158.44Z" transform="translate(0 -22.12)"/><path class="cls-18" d="M274.61,175.81a1,1,0,1,0,1-1A1,1,0,0,0,274.61,175.81Z" transform="translate(0 -22.12)"/><path class="cls-18" d="M305,181.55a1,1,0,1,0,1-1A1,1,0,0,0,305,181.55Z" transform="translate(0 -22.12)"/><path class="cls-18" d="M332.83,183.47a1,1,0,0,0,2,0,1,1,0,1,0-2,0Z" transform="translate(0 -22.12)"/><path class="cls-18" d="M361.94,181.79a1,1,0,1,0,1-1A1,1,0,0,0,361.94,181.79Z" transform="translate(0 -22.12)"/><path class="cls-18" d="M237.47,164.18a1,1,0,1,0,1-1A1,1,0,0,0,237.47,164.18Z" transform="translate(0 -22.12)"/><path class="cls-18" d="M249.3,158.44a1,1,0,1,0,1-1A1,1,0,0,0,249.3,158.44Z" transform="translate(0 -22.12)"/><path class="cls-18" d="M276.13,160.46a1,1,0,1,0,2,0,1,1,0,0,0-2,0Z" transform="translate(0 -22.12)"/><circle class="cls-18" cx="254.18" cy="131.78" r="1.01"/><path class="cls-18" d="M237,153.9a1,1,0,1,0,1-1A1,1,0,0,0,237,153.9Z" transform="translate(0 -22.12)"/><path class="cls-18" d="M222.6,153.5a1,1,0,1,0,2,0,1,1,0,0,0-2,0Z" transform="translate(0 -22.12)"/><path class="cls-18" d="M307,162.49a1,1,0,1,0,2,0,1,1,0,0,0-2,0Z" transform="translate(0 -22.12)"/><circle class="cls-18" cx="299.31" cy="131.78" r="1.01"/><circle class="cls-18" cx="339.13" cy="140.67" r="1.01"/><path class="cls-18" d="M328.43,152.86a1,1,0,1,0,1-1A1,1,0,0,0,328.43,152.86Z" transform="translate(0 -22.12)"/><path class="cls-18" d="M373.05,160.88a1,1,0,1,0,2,0,1,1,0,0,0-2,0Z" transform="translate(0 -22.12)"/><path class="cls-18" d="M364,151.85a1,1,0,0,0,2,0,1,1,0,1,0-2,0Z" transform="translate(0 -22.12)"/><path class="cls-18" d="M382.34,150.13a1,1,0,1,0,1-1A1,1,0,0,0,382.34,150.13Z" transform="translate(0 -22.12)"/><path class="cls-18" d="M262.41,172.73a1,1,0,1,0,1-1A1,1,0,0,0,262.41,172.73Z" transform="translate(0 -22.12)"/><path class="cls-18" d="M289.7,178.88a1,1,0,1,0,1-1A1,1,0,0,0,289.7,178.88Z" transform="translate(0 -22.12)"/><path class="cls-18" d="M319.45,183.05a1,1,0,1,0,2,0,1,1,0,0,0-2,0Z" transform="translate(0 -22.12)"/><path class="cls-18" d="M346,183.47a1,1,0,0,0,2,0,1,1,0,1,0-2,0Z" transform="translate(0 -22.12)"/><path class="cls-18" d="M378.12,178.88a1,1,0,1,0,1-1A1,1,0,0,0,378.12,178.88Z" transform="translate(0 -22.12)"/><path class="cls-18" d="M164.8,163.17a1,1,0,1,0,1-1A1,1,0,0,0,164.8,163.17Z" transform="translate(0 -22.12)"/><path class="cls-18" d="M224.63,159.87a1,1,0,1,0,1-1A1,1,0,0,0,224.63,159.87Z" transform="translate(0 -22.12)"/><path class="cls-18" d="M234.41,156.57a1,1,0,1,0,2,0,1,1,0,0,0-2,0Z" transform="translate(0 -22.12)"/><path class="cls-18" d="M109,165.19a1,1,0,1,0,2,0,1,1,0,0,0-2,0Z" transform="translate(0 -22.12)"/><path class="cls-18" d="M84.38,164.18a1,1,0,1,0,1-1A1,1,0,0,0,84.38,164.18Z" transform="translate(0 -22.12)"/><circle class="cls-18" cx="62.41" cy="140.03" r="1.01"/><path class="cls-18" d="M22.26,158.1a1,1,0,0,0,2,0,1,1,0,1,0-2,0Z" transform="translate(0 -22.12)"/><path class="cls-18" d="M42.37,160.12a1,1,0,1,0,1-1A1,1,0,0,0,42.37,160.12Z" transform="translate(0 -22.12)"/><path class="cls-18" d="M50.2,142a1,1,0,1,0,1-1A1,1,0,0,0,50.2,142Z" transform="translate(0 -22.12)"/><path class="cls-18" d="M33.05,129.26a1,1,0,1,0,1-1A1,1,0,0,0,33.05,129.26Z" transform="translate(0 -22.12)"/><path class="cls-18" d="M66,145a1,1,0,1,0,1-1A1,1,0,0,0,66,145Z" transform="translate(0 -22.12)"/><path class="cls-18" d="M49.19,133.29a1,1,0,0,0,2,0,1,1,0,1,0-2,0Z" transform="translate(0 -22.12)"/><path class="cls-18" d="M81,147.57a1,1,0,1,0,2,0,1,1,0,0,0-2,0Z" transform="translate(0 -22.12)"/><path class="cls-18" d="M64.94,136.65a1,1,0,0,0,2,0,1,1,0,1,0-2,0Z" transform="translate(0 -22.12)"/><path class="cls-18" d="M94.52,142a1,1,0,1,0,1-1A1,1,0,0,0,94.52,142Z" transform="translate(0 -22.12)"/><path class="cls-18" d="M97.69,150a1,1,0,1,0,1-1A1,1,0,0,0,97.69,150Z" transform="translate(0 -22.12)"/><path class="cls-18" d="M79.31,139.7a1,1,0,1,0,1-1A1,1,0,0,0,79.31,139.7Z" transform="translate(0 -22.12)"/><path class="cls-18" d="M111,151.48a1,1,0,0,0,2,0,1,1,0,1,0-2,0Z" transform="translate(0 -22.12)"/><path class="cls-18" d="M125.85,152.49a1,1,0,1,0,1-1A1,1,0,0,0,125.85,152.49Z" transform="translate(0 -22.12)"/><path class="cls-18" d="M112,144.53a1,1,0,1,0,1-1A1,1,0,0,0,112,144.53Z" transform="translate(0 -22.12)"/><path class="cls-18" d="M168.59,154.26a1,1,0,1,0,1-1A1,1,0,0,0,168.59,154.26Z" transform="translate(0 -22.12)"/><path class="cls-18" d="M147.29,148.94a1,1,0,1,0,1-1A1,1,0,0,0,147.29,148.94Z" transform="translate(0 -22.12)"/><path class="cls-18" d="M176.28,151a1,1,0,1,0,1-1A1,1,0,0,0,176.28,151Z" transform="translate(0 -22.12)"/><path class="cls-18" d="M140.47,153.51a1,1,0,1,0,1-1A1,1,0,0,0,140.47,153.51Z" transform="translate(0 -22.12)"/><path class="cls-18" d="M129.22,146.56a1,1,0,0,0,2,0,1,1,0,1,0-2,0Z" transform="translate(0 -22.12)"/><path class="cls-18" d="M154,154.26a1,1,0,0,0,2,0,1,1,0,1,0-2,0Z" transform="translate(0 -22.12)"/><path class="cls-18" d="M160.89,150.13a1,1,0,1,0,1-1A1,1,0,0,0,160.89,150.13Z" transform="translate(0 -22.12)"/><circle class="cls-18" cx="184.13" cy="132.42" r="1.01"/><path class="cls-18" d="M18.75,134.81a1,1,0,1,0,1-1A1,1,0,0,0,18.75,134.81Z" transform="translate(0 -22.12)"/><path class="cls-18" d="M35.75,138.69a1,1,0,1,0,1-1A1,1,0,0,0,35.75,138.69Z" transform="translate(0 -22.12)"/><path class="cls-18" d="M15,123.85a1,1,0,1,0,2,0,1,1,0,0,0-2,0Z" transform="translate(0 -22.12)"/><path class="cls-18" d="M128.21,165.19a1,1,0,1,0,1-1A1,1,0,0,0,128.21,165.19Z" transform="translate(0 -22.12)"/><path class="cls-18" d="M214.89,208a1,1,0,1,0,1-1A1,1,0,0,0,214.89,208Z" transform="translate(0 -22.12)"/><path class="cls-18" d="M208.79,208.35a1,1,0,0,0,2,0,1,1,0,1,0-2,0Z" transform="translate(0 -22.12)"/><path class="cls-18" d="M208.79,190a1,1,0,0,0,2,0,1,1,0,1,0-2,0Z" transform="translate(0 -22.12)"/><path class="cls-18" d="M209.81,175.81a1,1,0,1,0,1-1A1,1,0,0,0,209.81,175.81Z" transform="translate(0 -22.12)"/><path class="cls-18" d="M210.41,160.46a1,1,0,1,0,2,0,1,1,0,0,0-2,0Z" transform="translate(0 -22.12)"/><path class="cls-18" d="M206.1,155.56a1,1,0,0,0,2,0,1,1,0,1,0-2,0Z" transform="translate(0 -22.12)"/><path class="cls-77" d="M301.31,274.7a120.29,120.29,0,0,0-11.85-5.82s-19.53.55-31.34,3.49l-6.74,3.13S287.24,276.72,301.31,274.7Z" transform="translate(0 -22.12)"/><path class="cls-78" d="M357.56,333.39l-34.68,23.85s21.72,2.71,36.38,1.86l27.84-25.71Z" transform="translate(0 -22.12)"/><path class="cls-79" d="M369.9,22.12h0Z" transform="translate(0 -22.12)"/><polygon class="cls-80" points="309.7 300.95 306.85 299.19 260.39 298.15 266.93 285.6 273.39 273.18 290.64 262.28 282.74 265.53 286.14 258.7 281.49 265.53 270.35 269.59 271.58 265.53 268.95 269.59 260.39 269.59 283.05 254.26 293.56 243.42 281.49 253.2 268.64 259.69 272.98 251.59 279.79 240.13 275.76 243.76 290.38 222.47 285.16 225.95 273.91 231.61 276.39 227.45 271.89 232.23 267.56 230.84 286.76 213.02 282.89 213.02 289.86 207.14 280.26 212.25 277.54 214.42 285.05 197.31 295.9 183.44 291.77 186.07 288.88 188.27 297.04 177.76 301.27 171.36 293.42 177.56 294.87 172.81 290.53 178.18 287.16 179.59 303.54 159.38 309.7 141.62 312.63 135.22 312.63 144.93 321.92 162.69 327.77 169.5 322.75 168.06 319.65 166.19 320.06 169.3 330.18 181.48 327.77 181.27 332.87 190.15 340.96 203.44 329.36 202.13 326.26 197.31 327.77 201.92 322.54 200.89 340.96 214.73 335.14 213.49 352.69 228.11 353.63 236.49 341.13 234.4 333.28 221.79 337.25 234.4 332.45 231.91 331.01 227.45 330.8 231.91 342.57 244.11 356.62 254.95 348.36 255.24 345.46 254.95 348.36 257.78 345.05 257.48 354.87 269.59 369.01 279.67 354.87 281.99 348.56 275.44 350.63 280.48 347.53 279.9 361.16 286.7 369.9 298.15 339.89 300.95 327.77 295.87 327.77 298.38 323.16 298.38 315.14 300.95 309.7 300.95"/><polygon class="cls-81" points="290.64 262.28 295.62 257.82 294.83 261.18 298.81 258.25 319.16 266.37 318.08 264.3 328.5 267.17 333.92 263.58 348.56 275.44 334.58 271.88 292 274.9 273.39 273.18 290.64 262.28"/><path class="cls-82" d="M265,311.79a.37.37,0,0,1-.37-.34A.38.38,0,0,1,265,311c61.43-6.83,84.75-25.23,85-25.41a.37.37,0,1,1,.47.58c-.23.19-23.72,18.72-85.36,25.58Z" transform="translate(0 -22.12)"/><polygon class="cls-81" points="322.54 200.89 318.33 196.77 318.33 200.43 307.92 190.79 305.37 194.2 306.05 174.16 301.31 191.3 289.86 207.14 303.15 199.34 322.54 200.89"/><polygon class="cls-81" points="282.2 234.38 295.62 228.73 293.56 231.91 308.96 226.41 322.21 237 320.06 233.19 331.36 237.63 341.67 244.38 328.98 230.79 313.86 218.45 289.57 223.65 282.2 234.38"/><path class="cls-83" d="M345.05,280h0c-30.63-.05-51.49-14-51.7-14.12a.38.38,0,0,1-.1-.52.39.39,0,0,1,.53-.1c.2.14,20.88,13.94,51.27,14a.38.38,0,0,1,.38.38A.38.38,0,0,1,345.05,280Z" transform="translate(0 -22.12)"/><path class="cls-84" d="M290.38,245a.38.38,0,0,1-.37-.34.37.37,0,0,1,.33-.41c31.48-3,43.23-12.4,43.34-12.49a.38.38,0,0,1,.48.58c-.12.1-12,9.59-43.74,12.65Z" transform="translate(0 -22.12)"/><path class="cls-85" d="M330.8,254.4a.29.29,0,0,1-.18-.05c-.33-.18-32.62-18.85-35.09-48.76a.37.37,0,0,1,.34-.4.39.39,0,0,1,.41.34c2.44,29.52,34.38,48,34.71,48.17a.37.37,0,0,1,.14.51A.39.39,0,0,1,330.8,254.4Z" transform="translate(0 -22.12)"/><path class="cls-86" d="M327.77,203.77a.47.47,0,0,1-.17,0c-.17-.09-17-8.84-24.38-22a.37.37,0,0,1,.65-.37c7.23,13,23.9,21.65,24.07,21.74a.37.37,0,0,1,.16.5A.39.39,0,0,1,327.77,203.77Z" transform="translate(0 -22.12)"/><path class="cls-87" d="M305.27,176.91a.38.38,0,0,1-.35-.24.37.37,0,0,1,.21-.48c7.71-3.07,7.15-8.85,7.13-9.1A.37.37,0,0,1,313,167c0,.07.68,6.6-7.6,9.88A.31.31,0,0,1,305.27,176.91Z" transform="translate(0 -22.12)"/><path class="cls-88" d="M291.09,321.33a.37.37,0,0,1-.37-.32.36.36,0,0,1,.31-.42c48.05-7.46,56.11-18.66,56.19-18.78a.38.38,0,0,1,.52-.1.37.37,0,0,1,.1.52c-.31.47-8.18,11.56-56.7,19.1Z" transform="translate(0 -22.12)"/><path class="cls-89" d="M326.44,252.4a2.91,2.91,0,1,1-2.91-2.9A2.91,2.91,0,0,1,326.44,252.4Z" transform="translate(0 -22.12)"/><path class="cls-90" d="M309,188.86a1.8,1.8,0,1,1-1.8-1.8A1.8,1.8,0,0,1,309,188.86Z" transform="translate(0 -22.12)"/><path class="cls-91" d="M321,199.48a1.8,1.8,0,1,1-1.8-1.8A1.8,1.8,0,0,1,321,199.48Z" transform="translate(0 -22.12)"/><circle class="cls-92" cx="298.81" cy="222.96" r="1.8"/><circle class="cls-93" cx="315.65" cy="218.45" r="1.8"/><circle class="cls-94" cx="329.56" cy="214.05" r="1.8"/><circle class="cls-95" cx="297.42" cy="247.55" r="1.8"/><circle class="cls-96" cx="317.37" cy="254.59" r="1.8"/><path class="cls-97" d="M324,300.45a1.8,1.8,0,1,1-1.8-1.79A1.8,1.8,0,0,1,324,300.45Z" transform="translate(0 -22.12)"/><circle class="cls-98" cx="300.6" cy="284.57" r="1.8"/><path class="cls-99" d="M339.55,279.94a1.8,1.8,0,1,1-1.79-1.8A1.79,1.79,0,0,1,339.55,279.94Z" transform="translate(0 -22.12)"/><circle class="cls-100" cx="345.05" cy="269.26" r="1.8"/><circle class="cls-101" cx="279.17" cy="289.37" r="1.8"/><path class="cls-102" d="M322.21,318.33a2.91,2.91,0,1,1-2.9-2.9A2.9,2.9,0,0,1,322.21,318.33Z" transform="translate(0 -22.12)"/><path class="cls-103" d="M309,237a2.91,2.91,0,1,1-2.91-2.9A2.9,2.9,0,0,1,309,237Z" transform="translate(0 -22.12)"/><path class="cls-104" d="M348,306.69a2.9,2.9,0,1,1-2.9-2.9A2.9,2.9,0,0,1,348,306.69Z" transform="translate(0 -22.12)"/><path class="cls-105" d="M315.05,174.85a2.9,2.9,0,1,1-2.9-2.91A2.9,2.9,0,0,1,315.05,174.85Z" transform="translate(0 -22.12)"/><path class="cls-106" d="M298.81,216.32a2.91,2.91,0,1,1-2.91-2.9A2.91,2.91,0,0,1,298.81,216.32Z" transform="translate(0 -22.12)"/><path class="cls-107" d="M307.16,168.7s7.41,3.2,8.49,2.72L313,158.67l6.17.45-1.33-4.87,6.88-5-9.06-1.64-3.32-7.78-4.66,7.46-7.25.32,5.19,5.08-3.19,6.61,6.54-.92Z" transform="translate(0 -22.12)"/><polygon class="cls-108" points="324.71 127.13 312.29 129 317.83 132.13 324.71 127.13"/><polygon class="cls-109" points="312.99 136.55 311.57 132.13 319.16 137 312.99 136.55"/><polygon class="cls-110" points="302.42 137.18 309.92 132.13 308.96 136.25 302.42 137.18"/><polygon class="cls-111" points="300.42 125.49 309.92 128.96 305.61 130.57 300.42 125.49"/><polygon class="cls-81" points="319.65 166.19 309.25 160.88 320.06 169.3 319.65 166.19"/><path class="cls-112" d="M325.06,210.08l-5.23-2.7s-.54,4.79,1.12,7l4.16-3.55,5.79,2a15.88,15.88,0,0,0-3.14-6.35Z" transform="translate(0 -22.12)"/><path class="cls-113" d="M287.65,258.37,284.76,255s-3.24,3.14-2.53,5.78l5.2-1.7,4.6,4a16,16,0,0,0-.49-7.07Z" transform="translate(0 -22.12)"/><path class="cls-114" d="M335.35,271l-4-2.06s-1.8,4.14-.14,6.31l4.16-3.55,5.79,2a15.86,15.86,0,0,0-3.13-6.35Z" transform="translate(0 -22.12)"/><path class="cls-115" d="M292.59,300l-3.22-3.11s-2.91,3.46-1.93,6l5-2.21,5,3.55a16,16,0,0,0-1.19-7Z" transform="translate(0 -22.12)"/><ellipse class="cls-116" cx="316.4" cy="254.59" rx="19.05" ry="17.93"/><ellipse class="cls-117" cx="300.42" cy="214.88" rx="19.05" ry="17.93"/><ellipse class="cls-118" cx="345.02" cy="268.86" rx="19.05" ry="17.93"/><ellipse class="cls-119" cx="279.17" cy="289.82" rx="19.05" ry="17.93"/><ellipse class="cls-120" cx="289.7" cy="236.9" rx="17.94" ry="16.88"/><ellipse class="cls-121" cx="295.53" cy="279.63" rx="17.94" ry="16.88"/><ellipse class="cls-122" cx="322.21" cy="278.55" rx="12.96" ry="12.19"/><ellipse class="cls-123" cx="298.22" cy="246.76" rx="12.96" ry="12.19"/><ellipse class="cls-124" cx="306.2" cy="167.86" rx="9.68" ry="9.11"/><ellipse class="cls-125" cx="316.61" cy="254.59" rx="9.08" ry="8.55"/><polygon class="cls-126" points="922.04 285.24 924.11 283.96 957.71 283.21 952.98 274.14 948.3 265.15 935.83 257.26 941.55 259.62 939.08 254.68 942.45 259.62 950.51 262.56 949.61 259.62 951.52 262.56 957.71 262.56 941.32 251.47 933.72 243.63 942.45 250.7 951.74 255.4 948.6 249.54 943.67 241.25 946.59 243.87 936.02 228.48 939.79 230.99 947.93 235.09 946.14 232.07 949.39 235.53 952.52 234.53 938.63 221.64 941.43 221.64 936.39 217.38 943.34 221.08 945.31 222.65 939.88 210.28 932.02 200.25 935.01 202.15 937.1 203.74 931.2 196.14 928.14 191.51 933.82 195.99 932.77 192.55 935.91 196.44 938.35 197.46 926.5 182.84 922.04 170 919.93 165.37 919.93 172.39 913.21 185.24 908.98 190.16 912.61 189.12 914.85 187.77 914.55 190.01 907.23 198.83 908.98 198.68 905.29 205.1 899.44 214.71 907.83 213.76 910.07 210.28 908.98 213.61 912.76 212.87 899.44 222.88 903.65 221.98 890.95 232.55 890.27 238.61 899.31 237.11 904.99 227.98 902.12 237.11 905.59 235.3 906.63 232.07 906.78 235.3 898.27 244.13 888.11 251.97 894.09 252.18 896.18 251.97 894.09 254.01 896.48 253.79 889.38 262.56 879.15 269.85 889.38 271.52 893.94 266.79 892.44 270.43 894.68 270.01 884.83 274.93 878.5 283.21 900.21 285.24 908.98 281.56 908.98 283.38 912.31 283.38 918.11 285.24 922.04 285.24"/><polygon class="cls-78" points="935.83 257.26 932.23 254.04 932.8 256.47 929.92 254.36 915.2 260.22 915.98 258.73 908.45 260.8 904.53 258.21 893.94 266.79 904.05 264.21 934.85 266.4 948.3 265.15 935.83 257.26"/><path class="cls-127" d="M954.37,299.2h0c-44.59-5-61.57-18.37-61.74-18.5a.27.27,0,1,1,.34-.42c.17.13,17.06,13.44,61.46,18.38a.26.26,0,0,1,.24.3A.27.27,0,0,1,954.37,299.2Z" transform="translate(0 -22.12)"/><polygon class="cls-78" points="912.76 212.87 915.8 209.89 915.8 212.53 923.33 205.56 925.18 208.03 924.68 193.53 928.12 205.93 936.39 217.38 926.78 211.75 912.76 212.87"/><polygon class="cls-78" points="941.93 237.09 932.23 233 933.72 235.3 922.58 231.32 913 238.99 914.55 236.23 906.38 239.44 898.92 244.32 908.1 234.49 919.04 225.57 936.6 229.32 941.93 237.09"/><path class="cls-128" d="M896.48,276.19a.28.28,0,1,1,0-.55c22,0,36.93-10,37.08-10.12a.27.27,0,0,1,.38.08.27.27,0,0,1-.07.37,72.52,72.52,0,0,1-37.39,10.22Z" transform="translate(0 -22.12)"/><path class="cls-129" d="M936,250.87h0c-22.93-2.22-31.55-9.09-31.64-9.16a.27.27,0,0,1,.35-.42c.08.07,8.61,6.84,31.35,9a.27.27,0,0,1,.24.29A.27.27,0,0,1,936,250.87Z" transform="translate(0 -22.12)"/><path class="cls-130" d="M906.78,257.69a.27.27,0,0,1-.13-.51c.23-.13,23.34-13.49,25.1-34.84a.28.28,0,0,1,.3-.24.27.27,0,0,1,.25.29c-1.79,21.63-25.15,35.13-25.38,35.27A.35.35,0,0,1,906.78,257.69Z" transform="translate(0 -22.12)"/><path class="cls-131" d="M909,221.07a.25.25,0,0,1-.24-.15.27.27,0,0,1,.11-.36c.12-.07,12.18-6.33,17.41-15.73a.27.27,0,0,1,.37-.1.28.28,0,0,1,.11.37C921.42,214.64,909.22,221,909.1,221Z" transform="translate(0 -22.12)"/><path class="cls-132" d="M925.25,201.64a.18.18,0,0,1-.1,0c-6-2.37-5.5-7.09-5.49-7.14a.26.26,0,0,1,.3-.24.28.28,0,0,1,.24.3c0,.18-.43,4.36,5.15,6.58a.26.26,0,0,1,.15.35A.26.26,0,0,1,925.25,201.64Z" transform="translate(0 -22.12)"/><path class="cls-133" d="M935.51,306.1h0c-35.1-5.45-40.79-13.48-41-13.81a.27.27,0,0,1,.45-.31c.05.09,5.89,8.19,40.64,13.58a.27.27,0,0,1,.23.31A.28.28,0,0,1,935.51,306.1Z" transform="translate(0 -22.12)"/><circle class="cls-134" cx="912.04" cy="234.13" r="2.1"/><path class="cls-135" d="M922.58,210.28a1.3,1.3,0,1,0,1.3-1.29A1.3,1.3,0,0,0,922.58,210.28Z" transform="translate(0 -22.12)"/><path class="cls-136" d="M913.9,218a1.3,1.3,0,1,0,1.3-1.29A1.3,1.3,0,0,0,913.9,218Z" transform="translate(0 -22.12)"/><path class="cls-137" d="M928.63,251a1.3,1.3,0,1,0,1.29-1.3A1.3,1.3,0,0,0,928.63,251Z" transform="translate(0 -22.12)"/><path class="cls-138" d="M916.44,247.69a1.3,1.3,0,1,0,1.3-1.3A1.3,1.3,0,0,0,916.44,247.69Z" transform="translate(0 -22.12)"/><path class="cls-139" d="M906.38,244.5a1.3,1.3,0,1,0,1.3-1.3A1.3,1.3,0,0,0,906.38,244.5Z" transform="translate(0 -22.12)"/><path class="cls-140" d="M929.63,268.74a1.3,1.3,0,1,0,1.3-1.3A1.3,1.3,0,0,0,929.63,268.74Z" transform="translate(0 -22.12)"/><circle class="cls-141" cx="916.5" cy="251.71" r="1.3"/><path class="cls-142" d="M911.7,291a1.3,1.3,0,1,0,1.3-1.3A1.3,1.3,0,0,0,911.7,291Z" transform="translate(0 -22.12)"/><circle class="cls-143" cx="928.63" cy="273.39" r="1.3"/><path class="cls-144" d="M900.45,276.16a1.3,1.3,0,1,0,1.3-1.3A1.3,1.3,0,0,0,900.45,276.16Z" transform="translate(0 -22.12)"/><path class="cls-145" d="M895.18,284.43a1.3,1.3,0,1,0,1.3-1.3A1.3,1.3,0,0,0,895.18,284.43Z" transform="translate(0 -22.12)"/><path class="cls-146" d="M942.83,299a1.3,1.3,0,1,0,1.3-1.3A1.3,1.3,0,0,0,942.83,299Z" transform="translate(0 -22.12)"/><path class="cls-147" d="M913,303.93a2.1,2.1,0,1,0,2.1-2.1A2.1,2.1,0,0,0,913,303.93Z" transform="translate(0 -22.12)"/><circle class="cls-148" cx="924.68" cy="222.98" r="2.1"/><circle class="cls-149" cx="896.48" cy="273.39" r="2.1"/><path class="cls-150" d="M918.17,200.15a2.1,2.1,0,1,0,2.1-2.1A2.1,2.1,0,0,0,918.17,200.15Z" transform="translate(0 -22.12)"/><path class="cls-151" d="M929.92,230.15a2.11,2.11,0,1,0,2.1-2.1A2.1,2.1,0,0,0,929.92,230.15Z" transform="translate(0 -22.12)"/><polygon class="cls-81" points="914.85 187.77 922.37 183.93 914.55 190.01 914.85 187.77"/><polygon class="cls-152" points="922.37 167.95 924.06 175.82 918.07 175.93 919.83 168.53 922.37 167.95"/><path class="cls-153" d="M914.32,184.21a6.52,6.52,0,1,0,6.52-6.52A6.51,6.51,0,0,0,914.32,184.21Z" transform="translate(0 -22.12)"/><path class="cls-154" d="M907.5,235a4.2,4.2,0,1,0,4.2-4.2A4.2,4.2,0,0,0,907.5,235Z" transform="translate(0 -22.12)"/><path class="cls-155" d="M933.53,280.49a4.2,4.2,0,1,0,4.2-4.2A4.2,4.2,0,0,0,933.53,280.49Z" transform="translate(0 -22.12)"/><circle class="cls-156" cx="888.57" cy="276.4" r="4.2"/><circle class="cls-157" cx="929.63" cy="193.96" r="4.2"/><ellipse class="cls-158" cx="901.75" cy="253.01" rx="12.8" ry="12.04"/><ellipse class="cls-159" cx="930.93" cy="229.81" rx="12.8" ry="12.04"/><ellipse class="cls-160" cx="928.42" cy="273.39" rx="12.8" ry="12.04"/><ellipse class="cls-161" cx="924.58" cy="222.98" rx="12.8" ry="12.04"/><path class="cls-162" d="M359.26,287.38v.74a147.31,147.31,0,0,0,25.4-.44V287Z" transform="translate(0 -22.12)"/><path class="cls-163" d="M357.56,331.3l.89-43.22a152.88,152.88,0,0,0,26.92-.58l1.73,43.76C375.64,333.47,369.11,333.29,357.56,331.3Z" transform="translate(0 -22.12)"/><path class="cls-164" d="M358.53,287.5l.27-3s15.23-2.68,26.34-.22l.23,2.89A235.85,235.85,0,0,1,358.53,287.5Z" transform="translate(0 -22.12)"/><path class="cls-165" d="M357.72,323.51l.41,6.82c6.23,2,13.1,1.81,17.39.46l2.28-47.49,4.62,1v46.58l4.68.37c-10.05,2.1-18.24,1.86-29.54,0Z" transform="translate(0 -22.12)"/><path class="cls-166" d="M357.56,331.3v2.09c5.71,2.53,20.92,2.53,29.54,0v-2.13A73.29,73.29,0,0,1,357.56,331.3Z" transform="translate(0 -22.12)"/><path class="cls-167" d="M359.26,284.57l-.41,2.76h3.33l.53-3.26A24,24,0,0,0,359.26,284.57Z" transform="translate(0 -22.12)"/><path class="cls-168" d="M381.87,284.07l.24,2.94h2.55v-2.4A23.52,23.52,0,0,0,381.87,284.07Z" transform="translate(0 -22.12)"/><polygon class="cls-169" points="358.85 266.26 358.13 307.07 364.26 307.13 362.71 266.26 358.85 266.26"/><polygon class="cls-170" points="382.64 265.58 382.64 309.18 385.14 309.05 384.04 266.26 382.64 265.58"/><path class="cls-171" d="M358.8,284.46a156.27,156.27,0,0,0,26.34-.22A75,75,0,0,0,358.8,284.46Z" transform="translate(0 -22.12)"/><path class="cls-172" d="M521.85,154.78c-71.68,0-125.88-5-126.46-5.07a.38.38,0,0,1,.07-.75c.62.06,62.94,5.83,142.31,5,73.25-.78,176.42-7.5,252-35.12a.38.38,0,0,1,.48.22.37.37,0,0,1-.23.48c-75.64,27.66-178.9,34.39-252.21,35.17Q529.68,154.78,521.85,154.78Z" transform="translate(0 -22.12)"/><path class="cls-173" d="M462.83,163.27c-24.14,0-48.43-1.58-68.9-6.05a.36.36,0,0,1-.28-.44.38.38,0,0,1,.44-.29c69.48,15.17,183.35-3,184.49-3.21,120.33,7.41,211.73-24.4,212.64-24.73a.39.39,0,0,1,.48.23.38.38,0,0,1-.23.48c-.91.32-92.45,32.18-212.85,24.76C577.87,154.15,520.81,163.27,462.83,163.27Z" transform="translate(0 -22.12)"/><path class="cls-174" d="M453.9,183.93a193.19,193.19,0,0,1-58.15-8.47.38.38,0,0,1-.25-.47.37.37,0,0,1,.47-.24c45.48,14.34,92.68,7.75,124.26-.31,34.23-8.73,58-21,58.24-21.12l.14-.08.15.06c70.16,24.36,210.87,1.4,212.29,1.17a.37.37,0,0,1,.43.3.39.39,0,0,1-.31.44c-1.41.23-142.12,23.19-212.5-1.15a303.92,303.92,0,0,1-58.25,21.11A272.78,272.78,0,0,1,453.9,183.93Z" transform="translate(0 -22.12)"/><path class="cls-175" d="M579.28,209.88a.37.37,0,0,1-.38-.37l-.63-55.86a.38.38,0,0,1,.37-.38h0a.39.39,0,0,1,.38.38l.63,55.85a.37.37,0,0,1-.37.38Z" transform="translate(0 -22.12)"/><path class="cls-176" d="M575.82,208.54h0a.39.39,0,0,1-.37-.39l2-54.39a.36.36,0,0,1,.39-.36.37.37,0,0,1,.36.39l-2,54.39A.37.37,0,0,1,575.82,208.54Z" transform="translate(0 -22.12)"/><path class="cls-177" d="M581.92,208.54a.38.38,0,0,1-.38-.36l-2-54.39a.37.37,0,0,1,.36-.39.38.38,0,0,1,.39.36l2,54.39a.37.37,0,0,1-.36.39Z" transform="translate(0 -22.12)"/><path class="cls-18" d="M577.85,175.56a1,1,0,1,1-2,0,1,1,0,0,1,2,0Z" transform="translate(0 -22.12)"/><path class="cls-18" d="M578.51,160.61a1,1,0,1,1-2,0,1,1,0,0,1,2,0Z" transform="translate(0 -22.12)"/><path class="cls-18" d="M577.49,190.12a1,1,0,1,1-1-1A1,1,0,0,1,577.49,190.12Z" transform="translate(0 -22.12)"/><path class="cls-18" d="M580,209.18a1,1,0,1,1-1-1A1,1,0,0,1,580,209.18Z" transform="translate(0 -22.12)"/><path class="cls-18" d="M580.29,192.15a1,1,0,1,1-1-1A1,1,0,0,1,580.29,192.15Z" transform="translate(0 -22.12)"/><path class="cls-18" d="M580,178a1,1,0,1,1-1-1A1,1,0,0,1,580,178Z" transform="translate(0 -22.12)"/><path class="cls-18" d="M580,163.31a1,1,0,1,1-1-1A1,1,0,0,1,580,163.31Z" transform="translate(0 -22.12)"/><path class="cls-18" d="M613.41,161.63a1,1,0,0,1-2,0,1,1,0,1,1,2,0Z" transform="translate(0 -22.12)"/><path class="cls-18" d="M643.42,164.33a1,1,0,1,1-1-1A1,1,0,0,1,643.42,164.33Z" transform="translate(0 -22.12)"/><path class="cls-18" d="M598.67,159a1,1,0,1,1-1-1A1,1,0,0,1,598.67,159Z" transform="translate(0 -22.12)"/><path class="cls-18" d="M542.42,169a1,1,0,1,1-2,0,1,1,0,0,1,2,0Z" transform="translate(0 -22.12)"/><path class="cls-18" d="M528.29,160a1,1,0,1,1-1-1A1,1,0,0,1,528.29,160Z" transform="translate(0 -22.12)"/><path class="cls-18" d="M502,161.63a1,1,0,1,1-1-1A1,1,0,0,1,502,161.63Z" transform="translate(0 -22.12)"/><path class="cls-18" d="M523.29,154a1,1,0,1,1-1-1A1,1,0,0,1,523.29,154Z" transform="translate(0 -22.12)"/><path class="cls-18" d="M508.87,154.41a1,1,0,0,1-2,0,1,1,0,1,1,2,0Z" transform="translate(0 -22.12)"/><path class="cls-18" d="M470.24,162.94a1,1,0,1,1-1-1A1,1,0,0,1,470.24,162.94Z" transform="translate(0 -22.12)"/><path class="cls-18" d="M480.06,153.65a1,1,0,1,1-1-1A1,1,0,0,1,480.06,153.65Z" transform="translate(0 -22.12)"/><circle class="cls-18" cx="433.67" cy="139.81" r="1.01"/><path class="cls-18" d="M446.7,152.64a1,1,0,1,1-1-1A1,1,0,0,1,446.7,152.64Z" transform="translate(0 -22.12)"/><path class="cls-18" d="M402.17,158.58a1,1,0,1,1-2,0,1,1,0,0,1,2,0Z" transform="translate(0 -22.12)"/><path class="cls-18" d="M517.11,176a1,1,0,0,1-2,0,1,1,0,1,1,2,0Z" transform="translate(0 -22.12)"/><path class="cls-18" d="M486.76,181.7a1,1,0,1,1-1-1A1,1,0,0,1,486.76,181.7Z" transform="translate(0 -22.12)"/><path class="cls-18" d="M458.89,183.61a1,1,0,1,1-1-1A1,1,0,0,1,458.89,183.61Z" transform="translate(0 -22.12)"/><path class="cls-18" d="M429.78,181.94a1,1,0,1,1-1-1A1,1,0,0,1,429.78,181.94Z" transform="translate(0 -22.12)"/><path class="cls-18" d="M554.24,164.33a1,1,0,1,1-1-1A1,1,0,0,1,554.24,164.33Z" transform="translate(0 -22.12)"/><path class="cls-18" d="M542.42,158.58a1,1,0,1,1-2,0,1,1,0,0,1,2,0Z" transform="translate(0 -22.12)"/><path class="cls-18" d="M515.58,160.61a1,1,0,1,1-1-1A1,1,0,0,1,515.58,160.61Z" transform="translate(0 -22.12)"/><path class="cls-18" d="M538.56,154.05a1,1,0,1,1-1-1A1,1,0,0,1,538.56,154.05Z" transform="translate(0 -22.12)"/><path class="cls-18" d="M554.68,154.05a1,1,0,0,1-2,0,1,1,0,1,1,2,0Z" transform="translate(0 -22.12)"/><path class="cls-18" d="M569.11,153.65a1,1,0,1,1-1-1A1,1,0,0,1,569.11,153.65Z" transform="translate(0 -22.12)"/><path class="cls-18" d="M484.74,162.64a1,1,0,1,1-1-1A1,1,0,0,1,484.74,162.64Z" transform="translate(0 -22.12)"/><path class="cls-18" d="M493.42,154.05a1,1,0,1,1-1-1A1,1,0,0,1,493.42,154.05Z" transform="translate(0 -22.12)"/><path class="cls-18" d="M453.6,162.94a1,1,0,1,1-1-1A1,1,0,0,1,453.6,162.94Z" transform="translate(0 -22.12)"/><path class="cls-18" d="M463.29,153a1,1,0,1,1-1-1A1,1,0,0,1,463.29,153Z" transform="translate(0 -22.12)"/><path class="cls-18" d="M418.67,161a1,1,0,1,1-1-1A1,1,0,0,1,418.67,161Z" transform="translate(0 -22.12)"/><path class="cls-18" d="M427.75,152a1,1,0,1,1-1-1A1,1,0,0,1,427.75,152Z" transform="translate(0 -22.12)"/><path class="cls-18" d="M409.38,150.28a1,1,0,1,1-1-1A1,1,0,0,1,409.38,150.28Z" transform="translate(0 -22.12)"/><circle class="cls-18" cx="528.29" cy="150.76" r="1.01"/><path class="cls-18" d="M502,179a1,1,0,1,1-1-1A1,1,0,0,1,502,179Z" transform="translate(0 -22.12)"/><path class="cls-18" d="M472.26,183.2a1,1,0,1,1-1-1A1,1,0,0,1,472.26,183.2Z" transform="translate(0 -22.12)"/><path class="cls-18" d="M445.68,183.61a1,1,0,1,1-1-1A1,1,0,0,1,445.68,183.61Z" transform="translate(0 -22.12)"/><path class="cls-18" d="M413.6,179a1,1,0,1,1-1-1A1,1,0,0,1,413.6,179Z" transform="translate(0 -22.12)"/><path class="cls-18" d="M626.92,163.31a1,1,0,1,1-2,0,1,1,0,0,1,2,0Z" transform="translate(0 -22.12)"/><path class="cls-18" d="M567.09,160a1,1,0,1,1-2,0,1,1,0,0,1,2,0Z" transform="translate(0 -22.12)"/><path class="cls-18" d="M557.3,156.72a1,1,0,1,1-1-1A1,1,0,0,1,557.3,156.72Z" transform="translate(0 -22.12)"/><path class="cls-18" d="M682.76,165.34a1,1,0,1,1-1-1A1,1,0,0,1,682.76,165.34Z" transform="translate(0 -22.12)"/><path class="cls-18" d="M707.34,164.33a1,1,0,1,1-1-1A1,1,0,0,1,707.34,164.33Z" transform="translate(0 -22.12)"/><path class="cls-18" d="M730.32,162.3a1,1,0,1,1-1-1A1,1,0,0,1,730.32,162.3Z" transform="translate(0 -22.12)"/><circle class="cls-18" cx="768.44" cy="136.12" r="1.01"/><path class="cls-18" d="M749.35,160.27a1,1,0,1,1-1-1A1,1,0,0,1,749.35,160.27Z" transform="translate(0 -22.12)"/><path class="cls-18" d="M741.51,142.17a1,1,0,1,1-1-1A1,1,0,0,1,741.51,142.17Z" transform="translate(0 -22.12)"/><path class="cls-18" d="M758.67,129.41a1,1,0,1,1-1-1A1,1,0,0,1,758.67,129.41Z" transform="translate(0 -22.12)"/><path class="cls-18" d="M725.76,145.16a1,1,0,1,1-1-1A1,1,0,0,1,725.76,145.16Z" transform="translate(0 -22.12)"/><path class="cls-18" d="M742.53,133.43a1,1,0,1,1-2,0,1,1,0,0,1,2,0Z" transform="translate(0 -22.12)"/><path class="cls-18" d="M710.74,147.72a1,1,0,1,1-1-1A1,1,0,0,1,710.74,147.72Z" transform="translate(0 -22.12)"/><path class="cls-18" d="M726.78,136.79a1,1,0,1,1-2,0,1,1,0,0,1,2,0Z" transform="translate(0 -22.12)"/><path class="cls-18" d="M697.2,142.17a1,1,0,0,1-2,0,1,1,0,1,1,2,0Z" transform="translate(0 -22.12)"/><path class="cls-18" d="M694,150.1a1,1,0,1,1-2,0,1,1,0,0,1,2,0Z" transform="translate(0 -22.12)"/><path class="cls-18" d="M712.41,139.85a1,1,0,1,1-1-1A1,1,0,0,1,712.41,139.85Z" transform="translate(0 -22.12)"/><path class="cls-18" d="M680.73,151.63a1,1,0,1,1-1-1A1,1,0,0,1,680.73,151.63Z" transform="translate(0 -22.12)"/><path class="cls-18" d="M665.87,152.64a1,1,0,1,1-1-1A1,1,0,0,1,665.87,152.64Z" transform="translate(0 -22.12)"/><path class="cls-18" d="M679.71,144.68a1,1,0,1,1-1-1A1,1,0,0,1,679.71,144.68Z" transform="translate(0 -22.12)"/><path class="cls-18" d="M623.13,154.41a1,1,0,0,1-2,0,1,1,0,1,1,2,0Z" transform="translate(0 -22.12)"/><path class="cls-18" d="M644.43,149.09a1,1,0,1,1-1-1A1,1,0,0,1,644.43,149.09Z" transform="translate(0 -22.12)"/><path class="cls-18" d="M615.44,151.12a1,1,0,1,1-1-1A1,1,0,0,1,615.44,151.12Z" transform="translate(0 -22.12)"/><path class="cls-18" d="M651.24,153.65a1,1,0,1,1-1-1A1,1,0,0,1,651.24,153.65Z" transform="translate(0 -22.12)"/><path class="cls-18" d="M662.5,146.7a1,1,0,1,1-1-1A1,1,0,0,1,662.5,146.7Z" transform="translate(0 -22.12)"/><path class="cls-18" d="M637.68,154.41a1,1,0,0,1-2,0,1,1,0,1,1,2,0Z" transform="translate(0 -22.12)"/><path class="cls-18" d="M630.83,150.28a1,1,0,1,1-1-1A1,1,0,0,1,630.83,150.28Z" transform="translate(0 -22.12)"/><path class="cls-18" d="M608.6,154.69a1,1,0,1,1-1-1A1,1,0,0,1,608.6,154.69Z" transform="translate(0 -22.12)"/><path class="cls-18" d="M773,135a1,1,0,1,1-1-1A1,1,0,0,1,773,135Z" transform="translate(0 -22.12)"/><path class="cls-18" d="M756,138.83a1,1,0,1,1-1-1A1,1,0,0,1,756,138.83Z" transform="translate(0 -22.12)"/><circle class="cls-18" cx="775.69" cy="101.88" r="1.01"/><path class="cls-18" d="M663.51,165.34a1,1,0,1,1-1-1A1,1,0,0,1,663.51,165.34Z" transform="translate(0 -22.12)"/><path class="cls-18" d="M576.83,208.16a1,1,0,1,1-1-1A1,1,0,0,1,576.83,208.16Z" transform="translate(0 -22.12)"/><path class="cls-18" d="M582.93,208.49a1,1,0,1,1-1-1A1,1,0,0,1,582.93,208.49Z" transform="translate(0 -22.12)"/><path class="cls-18" d="M582.93,190.12a1,1,0,1,1-1-1A1,1,0,0,1,582.93,190.12Z" transform="translate(0 -22.12)"/><path class="cls-18" d="M581.91,176a1,1,0,0,1-2,0,1,1,0,1,1,2,0Z" transform="translate(0 -22.12)"/><path class="cls-18" d="M581.3,160.61a1,1,0,1,1-1-1A1,1,0,0,1,581.3,160.61Z" transform="translate(0 -22.12)"/><circle class="cls-18" cx="584.61" cy="133.58" r="1.01"/><path class="cls-178" d="M784.09,330.71l1.83-20.33H788l1.81-191.2h3.31l3.26,191.2h1.91l2.24,20.42A29,29,0,0,1,784.09,330.71Z" transform="translate(0 -22.12)"/><circle class="cls-45" cx="792.09" cy="96.71" r="16.49" transform="translate(569.11 840.77) rotate(-80.73)"/><path class="cls-179" d="M790,119.18l-5.85-4.91-.48-3.37a47,47,0,0,1,16.21.33l-.35,2.35-6.22,5.6Z" transform="translate(0 -22.12)"/><polygon class="cls-180" points="790.59 105.88 789.85 299.62 792.92 299.62 791.34 106.79 790.59 105.88"/><path class="cls-181" d="M783.68,110.9l.48,3.37a53.74,53.74,0,0,1,13.08-.39l-.19-3A36.05,36.05,0,0,0,783.68,110.9Z" transform="translate(0 -22.12)"/><path class="cls-182" d="M785.92,310.38s4.69,2.43,12.41,0Z" transform="translate(0 -22.12)"/><path class="cls-183" d="M786.31,311.08,784.86,330a13.87,13.87,0,0,0,6.53,1.22V312A17.58,17.58,0,0,1,786.31,311.08Z" transform="translate(0 -22.12)"/><path class="cls-184" d="M793.23,81.39s-12.61,0-15.14,12.09c-1.94,9.33,5.62,15.77,5.62,15.77h5.21s-5-9.49-3.52-17.6S793.23,81.39,793.23,81.39Z" transform="translate(0 -22.12)"/><path class="cls-185" d="M793.65,109.25s10.29-3.87,14.14-12.54c0,0-.62,8.54-7.24,13.56A28.69,28.69,0,0,0,793.65,109.25Z" transform="translate(0 -22.12)"/><polygon class="cls-78" points="784.86 307.84 882.85 378.57 904.25 377.88 800.57 308.68 784.86 307.84"/></g></g></g></g></svg>