<svg xmlns="http://www.w3.org/2000/svg" viewBox="0 0 87.97 87.97"><defs><style>.cls-1{fill:#fff;}.cls-1,.cls-3{fill-rule:evenodd;}.cls-2{opacity:0.31;}.cls-3{fill:#635eb0;}.cls-4{opacity:0.18;}</style></defs><title>moon_1</title><g id="Layer_2" data-name="Layer 2"><g id="layer1"><path class="cls-1" d="M0,44A44,44,0,0,1,86.69,33.4,44,44,0,1,1,0,44Z"/><g class="cls-2"><path class="cls-3" d="M14.6,60.6c2,0,3.75,1.43,5.34,2.53a10.12,10.12,0,0,1,3.32,3.73c.19.42.25.77.4,1.2,0,.09.51,1.36.51,1.4A3.87,3.87,0,0,1,23,71.65c-1.59,1.64-4,.46-5.61-.53a26.49,26.49,0,0,1-4.23-3.19,10.41,10.41,0,0,1-1.89-1.86,6.38,6.38,0,0,1-.39-3.34c0-1.8-2.33-3.87.52-4.27,1.12-.16,4.56.79,4.81,2.14Z"/><path class="cls-3" d="M49.77,3.59c.48-.53,1-.16,1.6,0A4.86,4.86,0,0,0,53,3.86a12.68,12.68,0,0,1,3.33.27c1.06.26,2.06.41,3.07.66.4.1.78.33,1.18.41s.54,0,.79,0,.13.16.22.18.4,0,.6,0A25.36,25.36,0,0,1,65,6.2a4.85,4.85,0,0,1,1.21.38c.41.25,1,.53,1.33.8a35.37,35.37,0,0,1,4.33,3.27c1.23,1.24,2.5,2.38,3.8,3.53.3.27.54.62.85.87a8.59,8.59,0,0,1,1,.73A16.66,16.66,0,0,1,79.27,18c1,1.51,2.4,2.76,3.23,4.42.4.8.76,1.58,1.23,2.35a12.12,12.12,0,0,1,.81,1.61c.16.4.48.88.59,1.26.17.57.17,1.12.32,1.68.07.24.23.4.29.64s-.09.66,0,1,.23.39.29.64-.09.65,0,1,.23.38.29.64-.11.75,0,1.09.23.38.29.64a5,5,0,0,1,0,.95c0,.68.23,1.21.27,1.86a8.45,8.45,0,0,1,0,2c0,.27-.23.39-.29.64s.09.7,0,1.06c-.72.19-.49-1.34-.49-1.71,0-.69-.28-1.06-.26-1.73,0-.83-.33-.94-.81-1.54a4.61,4.61,0,0,1-.8-1.11c-.07-.23-.07-.59-.12-.82a2.72,2.72,0,0,1-.14-.8c0-.65,0-1-.46-1.39A4,4,0,0,0,82,31.55c-.6-.14-1.13-.13-1.75-.24-.28,0-.38-.23-.65-.29s-.69.13-1,0a2.3,2.3,0,0,1-.79-1.07,1.92,1.92,0,0,1,.2-1.54c.1-.18.17-.36.27-.53s.37-.39.48-.59c.5-.92-.22-2.42-.42-3.2-.08-.31-.54-1.23-.29-1.5s1.77,0,2,.13c.17-.34-.15-1-.25-1.35a6.25,6.25,0,0,0-.56-1.42,6,6,0,0,0-2.18-2c-.54-.29-.87-.44-1,.29,0,.33.05.51-.12.81s-.33.25-.42.51.1.66,0,1-.21.36-.26.54c-.15.63.1,1.34,0,2a2.65,2.65,0,0,1-2.28,2.13,19.36,19.36,0,0,0-3.31,1.07,5.28,5.28,0,0,1-3.74.33,16.49,16.49,0,0,1-2.77-1.43A9.65,9.65,0,0,0,62,24.65c-.49-.19-1-.38-1.48-.52a11.45,11.45,0,0,1-2.71-.88,8.18,8.18,0,0,1-2.33-1.8,3.7,3.7,0,0,1-.64-3.05c.28-.67,1.29-1.26,1.78-1.82.82-1,.6-1.6,0-2.59a5.67,5.67,0,0,1-.71-1.23,6.66,6.66,0,0,1,0-1.84,2.39,2.39,0,0,1,.46-1.27c.26-.4.87-.65,1.09-1.05s0-.54-.14-.82c0-.07-.18-.1-.22-.18s0-.37-.11-.55c-.27-.61-.8-.52-1.34-.66A2.42,2.42,0,0,0,54,6.52a3.45,3.45,0,0,1-.78.28c-.4.06-.58-.16-.87-.22-.65-.13-1,.32-1.68.35a1.55,1.55,0,0,1-1.26-.61c-.33-.33-.81-.9-.75-1.4S49.4,4.07,49.77,3.59Z"/><path class="cls-3" d="M54.83,23.57a2.9,2.9,0,0,1-.47.23A6.55,6.55,0,0,0,53,22.51c-.78-.49-1.16-.18-1.34.65-.09.43.14.7.22,1s0,.74.38,1,2,.14,1.81-.75Z"/><path class="cls-3" d="M80.4,57.94a.43.43,0,0,1,.49-.25,4.57,4.57,0,0,1,0,1.69c0,.25-.21.37-.25.68s0,.49,0,.75-.35.85-.42,1.18a5.27,5.27,0,0,1-.33,1.27c-.19.43-.3,1-.49,1.48a8.32,8.32,0,0,1-.63,1.18c-.5.81-.9,1.59-1.4,2.41a16.14,16.14,0,0,1-3.22,4,17.17,17.17,0,0,1-1.45,1c-.17.12-.3.3-.45.41s-.41.15-.55.25c-.42.3-1.61,1.51-2.16,1.22.38-1,1-2,1.5-3s1.58-1.07,2.4-1.86c1.28-1.25-.86-1.77-1.6-2.25s-.74-1.16-.73-2a6.3,6.3,0,0,0-.27-2,7.29,7.29,0,0,1-.28-.94l0-.54a.37.37,0,0,0-.22-.31,2.89,2.89,0,0,1,.4-1.87,4.28,4.28,0,0,1,.94-1.74c.52-.48,1.09-.32,1.79-.33a3.45,3.45,0,0,1,1.07.21c.27.06.65.22.86.26s.63.05.95.12.35.26.79.15.9-.65,1.38-.75c.67-.16,1.44.16,2.1,0C80.64,58.35,80.65,58.28,80.4,57.94Z"/><path class="cls-3" d="M30.57,23.92a3.47,3.47,0,0,0,2.24-1.53c.63-.91-.54-1.84-1.19-2.3a3.81,3.81,0,0,0-.76-.45,4.6,4.6,0,0,0-.68-.32c-.47,0-.65,1.13-.83,1.5-.56,1.17.33,2,1.22,2.71Z"/><path class="cls-3" d="M26.79,22.13,27,22c.26.57-.15,1.17-.19,1.71a1.65,1.65,0,0,1-1.18-1.08c0-.65,1-.69,1.41-.7Z"/><path class="cls-3" d="M19.83,48c.22,1,1.58-.11,1.94-.45a3.23,3.23,0,0,0,.65-.74,2.92,2.92,0,0,0,.19-1.3c0-.49.2-.88.2-1.39a5.32,5.32,0,0,0-.19-1.5,3.86,3.86,0,0,0-1.6-2c-.36-.25-.8-.43-1.2-.65s-.52-.4-1.06-.12A6.64,6.64,0,0,0,17,41a9.35,9.35,0,0,0-1.54,1.84c-.52.9,0,1.59.5,2.39a15.36,15.36,0,0,0,2.14,2.53,4.29,4.29,0,0,0,.78.81C19.38,48.81,19.93,48.38,19.83,48Z"/><path class="cls-3" d="M20,51.57l.16,0c0,.26.57,1.08.2,1.33s-.7-.37-.86-.57-.51-.9-.16-1.26a.5.5,0,0,1,.85.46Z"/><path class="cls-3" d="M28.78,8a1.88,1.88,0,0,0,1.49.38c.51-.11.9-.29,1.39-.37a9.55,9.55,0,0,0,3.09-1.2c1.24-.76,3.42-2.92,1.31-4a6.68,6.68,0,0,0-2.91-.38c-.5,0-.77.21-1.29.2a5.55,5.55,0,0,0-1.49.3,16.29,16.29,0,0,0-2.59.84,6.36,6.36,0,0,0-1.94,1.45,1.61,1.61,0,0,0-.1,2.43c.45.45.83.35,1.45.35Z"/><path class="cls-3" d="M23.41,8.41a.31.31,0,0,1,.37-.18c.22.45-.9,1.17-1.22,1.32-.53.27-1.55.83-1.75,0-.12-.57.51-1.33,1-1.6a1.32,1.32,0,0,1,1.8.7Z"/><path class="cls-3" d="M6.9,46l.16,0a6.44,6.44,0,0,0-.17-2.36c0-.78,0-1.59,0-2.38V38.84a4.3,4.3,0,0,0-.05-1c0-.13-.13-.25-.15-.44a5.34,5.34,0,0,1,0-.8,6.29,6.29,0,0,0,0-1.15l-.16-.44c-.07-.23,0-.25-.14-.45A1.35,1.35,0,0,0,4.7,34c-.49.25-.86.64-1.37.85a2.53,2.53,0,0,0-1.4,1.4,10.54,10.54,0,0,0-.59,1.8c-.06.17-.18.2-.22.37s0,.38,0,.57-.14.24-.16.43,0,.28,0,.42a.3.3,0,0,1-.16.23,6,6,0,0,0,0,1c0,.42-.18.76-.2,1.19s-.21.75-.2,1.2v1.19c0,.79,0,1.59,0,2.38a4,4,0,0,0,.19,1c.09.39.11.81.19,1.2s.31.58.37.83a2.35,2.35,0,0,0,.39,1,2.75,2.75,0,0,0,1.39,1.24,2.27,2.27,0,0,0,2.2-.3,2.09,2.09,0,0,0,.65-.74c0-.16,0-.39,0-.56A2.15,2.15,0,0,0,5.9,50a12.56,12.56,0,0,1,0-2.6c.09-.36.34-.79.46-1.18S6.5,45.32,6.9,46Z"/><path class="cls-3" d="M7.89,56.14c.53.17.8-1,.8-1.39s.1-.69-.19-.9a1.65,1.65,0,0,0-1-.1c-.64.19-.58,1.09-.59,1.6s.48,1.33,1.19,1.19Z"/><path class="cls-3" d="M76.11,56.94l0,.16c.21,0,.31.18.48.22a3.06,3.06,0,0,0,.68,0,7.2,7.2,0,0,1,1.19.2,4.09,4.09,0,0,0,.7,0,2,2,0,0,0,.54-.16A2.44,2.44,0,0,0,80.89,57a5.44,5.44,0,0,0,1.39-1.77,5.06,5.06,0,0,0,.8-2.51,1.78,1.78,0,0,0-.23-1.07,4.71,4.71,0,0,1-.52-1,1.5,1.5,0,0,0-1.64-1.15,5.16,5.16,0,0,0-2.39.89,10.41,10.41,0,0,0-.92.68,3,3,0,0,0-.77.61,6.79,6.79,0,0,0-.79,2.4,3.44,3.44,0,0,0-.09,1.47c0,.09.12.1.14.16s0,.32,0,.46S76.18,56.68,76.11,56.94Z"/><path class="cls-3" d="M73.93,55.35c.5,0-.18,1.42-.75,1.35s-.91-.85-1-1.27c-.49-1.78,2.21-1.92,2.17-.28Z"/><path class="cls-3" d="M67.36,52.17c0-.42.46-.68.55-1a1.18,1.18,0,0,0-.29-1c-.18-.24-.53-.62-.86-.55s-.53.52-.78.71c-.53.4-1.45.8-.81,1.59a1.66,1.66,0,0,0,1.1.5,1.49,1.49,0,0,0,1.29-.4Z"/><path class="cls-3" d="M81.09,34.47c.73-.18.67.94.56,1.36a4.35,4.35,0,0,1-1,.24,3,3,0,0,1-1.15-.46A1.35,1.35,0,0,1,79,33.87c.21-.43,1.19-1.07,1.66-.76a2.6,2.6,0,0,1,.63,1.75Z"/><path class="cls-3" d="M25,77.23c.19.36.32.52,0,.8a1,1,0,0,1-.95.15,3.47,3.47,0,0,1-1.29-1.1,2.4,2.4,0,0,1-.51-.9,1.22,1.22,0,0,1,.31-.8,13.49,13.49,0,0,1,1.2-1.19c.57-.59.92-.24,1.39.3s.66.93,1,1.39a4.6,4.6,0,0,1,.4.8,1.15,1.15,0,0,1-.25.75,3.82,3.82,0,0,1-1.5,1.19Z"/><path class="cls-3" d="M20.22,75.64l.17,0a.68.68,0,0,0-.55-1c-.46-.1-1.12.09-1.22.5s.31.79.61,1c.46.34.89.41,1-.31Z"/><path class="cls-3" d="M23.21,24.72c-.06-.2.18-.75.24-.95a9,9,0,0,1,.36-.94,4.54,4.54,0,0,0,.29-1c.07-.37.25-.66.31-1,.14-.75-.73-1.28-1.41-1.11a5.08,5.08,0,0,0-1.63,1c-.32.23-.41.18-.6.59a8,8,0,0,0-.34,1.05,2.82,2.82,0,0,0-.21,1,5.9,5.9,0,0,0,.05,1.19c.46,1.88,2.51.67,2.94-.6Z"/><path class="cls-3" d="M17.24,11.79c.2.71-1.13,1.19-1.59,1.19s-.64-.06-.84-.54a1,1,0,0,1,0-1.15,2.24,2.24,0,0,1,2.28-.68c.83.33.47,1.43-.29,1.58Z"/><path class="cls-3" d="M25.79,26.11a1,1,0,0,1,.61.59c.05.17,0,.37,0,.56a1.75,1.75,0,0,1,.16.44c0,.19-.05.41,0,.6s.18.38.22.6c.07.38-.09.81,0,1.19s.41.77.17,1.15-.63.29-1,.25-.64-.17-1-.25a4.55,4.55,0,0,1-1.28-.55,2.66,2.66,0,0,1-1.31-1.49,6,6,0,0,1,.1-2.29,2.43,2.43,0,0,1,.89-1.5,3.09,3.09,0,0,1,2.2.1Z"/><path class="cls-3" d="M21.22,26.51v.13c.18-1-1-.85-1.2-.14s1,1.07,1.2.21Z"/><path class="cls-3" d="M7.23,32.51A2.59,2.59,0,0,0,7,34.26a14.24,14.24,0,0,0,.75,1.82,2.14,2.14,0,0,1,.07,1.3,4.7,4.7,0,0,0,0,1.83c.13.67.3,1.38.37,2.06a21.17,21.17,0,0,1,0,2.39,3.71,3.71,0,0,0,2.22,3.54,2.86,2.86,0,0,0,1.36.24,1.21,1.21,0,0,0,1.08-.53,5.11,5.11,0,0,0,.78-1.36,6.85,6.85,0,0,0,.55-1.31c.19-.74-.15-1.87.35-2.51a2.82,2.82,0,0,1,.58-.45c.23-.18.41-.4.62-.6a4.11,4.11,0,0,0,.79-1.54,4.72,4.72,0,0,1,.81-1.37c.52-.54,1.23-.86,1.7-1.42a1.94,1.94,0,0,0,.45-1.4,4.34,4.34,0,0,0,0-1.08,4.39,4.39,0,0,1-.29-1.06,3.09,3.09,0,0,1,.16-1.21,3.75,3.75,0,0,0,.31-1.68,8.19,8.19,0,0,0-1.53-3.62,5.15,5.15,0,0,1-.73-1.64,4.85,4.85,0,0,1,.27-2.06,5.92,5.92,0,0,1,1-1.75,6.67,6.67,0,0,1,1.3-1.64,3.68,3.68,0,0,1,1.85-.89,6.55,6.55,0,0,1,.77-.15,7.87,7.87,0,0,1,1,.17c1.35.14,2.5-.72,3.81-.77a2.48,2.48,0,0,1,1.53.37,3.93,3.93,0,0,0,1.29.52c1.09.23,2.51-.38,3.39.48.33.32.39.77.71,1.08a4.22,4.22,0,0,0,2.07.85,25.23,25.23,0,0,1,3.23.75c1,.39,2,1.1,3,1.46a7.25,7.25,0,0,0,3.67-.1,3.33,3.33,0,0,0,1.91-1.13,5,5,0,0,1,.6-1,1.87,1.87,0,0,1,1.07-.4A2.93,2.93,0,0,0,51.93,18c.18-.87.06-1.74.21-2.61A14.71,14.71,0,0,1,53,12.65a4.79,4.79,0,0,0,.39-2.08c-.05-.66-.12-1.71-.77-2.06a3.21,3.21,0,0,0-1.76-.22,7.61,7.61,0,0,1-3,0A2.94,2.94,0,0,1,46.2,6.61c-.57-1-.84-2.18-1.43-3.22a2.57,2.57,0,0,0-2-1.53,1.83,1.83,0,0,0-1.51.78c-.54.63-.87,1.43-1.39,2.08A9.19,9.19,0,0,1,38.36,6.3c-1,.74-2.25.79-3.35,1.21s-2.16,1.31-3.39,1.61c-1.63.39-3.26.08-4.92.26a11.35,11.35,0,0,0-2.86.73,16.72,16.72,0,0,0-2.13,1.14,19.55,19.55,0,0,1-2.17,1.15c-.79.3-1.62.49-2.41.82a16.47,16.47,0,0,1-2.21.94,6.92,6.92,0,0,0-2.47,1.27,6.21,6.21,0,0,0-1.67,2.13c-.26.5-.41,1.06-.68,1.55a7.58,7.58,0,0,1-1,1.35c-.56.62-1.14,1.19-1.67,1.83A14.63,14.63,0,0,0,5.85,25C5.5,25.63,5.33,26.34,5,27a18.19,18.19,0,0,1-1,2.09,3.42,3.42,0,0,0-.58,1.36,1.58,1.58,0,0,0,.12.61c.08.22.24.37.3.58.11.4,0,.93.31,1.26s.55.2.84,0a3.57,3.57,0,0,1,.92-.45A1.7,1.7,0,0,1,7.23,32.51Z"/></g><g class="cls-4"><path class="cls-3" d="M41.47,7.82A7.28,7.28,0,0,0,40.52,9a3.05,3.05,0,0,0,0,.41,2.25,2.25,0,0,1-.09.73,10,10,0,0,1-1,1.83,4.9,4.9,0,0,1-.51.6,5.3,5.3,0,0,1-.46.6,19.4,19.4,0,0,0-1.64,1.75,2.89,2.89,0,0,0-.07,3.7,2.55,2.55,0,0,0,1.16.83,1.75,1.75,0,0,0,.79-.06c.47-.13,1-.17,1.43-.29a2.38,2.38,0,0,1,1.55.16,6,6,0,0,1,.84.31,3.42,3.42,0,0,0,.77.37,2.71,2.71,0,0,0,1.74-.22c.38-.16.76-.35,1.12-.54s1-.36,1.5-.59a6.67,6.67,0,0,0,1.07-.68,4.18,4.18,0,0,0,.67-.78c.59-.67.4-1.7.67-2.49s.82-1.27,1-2a2.41,2.41,0,0,0-.67-1.86,2.72,2.72,0,0,0-2-.88c-.57,0-1.14.05-1.71,0a3.14,3.14,0,0,1-1.15-.39c-.43-.19-.77-.46-1.18-.68s-.65-.47-1-.66a2.56,2.56,0,0,0-1-.37C41.89,7.77,41.69,8,41.47,7.82Z"/><path class="cls-3" d="M28.87,12.24c-.12-.57-.28-1.11-.93-1.23a3.72,3.72,0,0,0-1.2,0,4.52,4.52,0,0,0-1.43.81c-.51.31-1.57.62-1.47,1.38s.82,1,1.3,1.38.87.94,1.64.84a2.32,2.32,0,0,0,1.67-1.35,7.08,7.08,0,0,0,.65-1.25c.1-.29.06-1-.38-1.07Z"/><path class="cls-3" d="M38.18,36.2c-.1-.44-.22-.86-.73-1a2.84,2.84,0,0,0-.92,0,3.43,3.43,0,0,0-1.1.62c-.4.24-1.21.48-1.14,1.07s.64.78,1,1.06.67.73,1.26.65a1.8,1.8,0,0,0,1.29-1,5.29,5.29,0,0,0,.51-1c.07-.23,0-.78-.3-.82Z"/><path class="cls-3" d="M13.37,38.39c-.08-.39-.19-.75-.63-.83a2.69,2.69,0,0,0-.8,0,2.94,2.94,0,0,0-1,.54c-.35.21-1.06.42-1,.93s.56.69.88.94.59.63,1.1.56a1.59,1.59,0,0,0,1.13-.91,5.6,5.6,0,0,0,.44-.84c.06-.2,0-.68-.26-.72Z"/><path class="cls-3" d="M4.34,36.17a1.08,1.08,0,0,0-.48-.67A8,8,0,0,1,3.2,36a3,3,0,0,0-.87,1.57c0,.37,0,.79,0,1.16,0,.54-.14,1-.16,1.57-.05,1-.11,1.94.81,2.6a1.25,1.25,0,0,0,1.73-.09,3.57,3.57,0,0,0,.94-2c.07-.39.07-.79.14-1.19s.15-.65.24-1a2.57,2.57,0,0,0-.2-2.14C5.45,35.81,5.09,35.41,4.34,36.17Z"/><path class="cls-3" d="M59.66,10.44c-.64.15-1.28.32-1.91.52,0,.62-.34,1.15-.09,1.77.32.79,1,1.37,1.29,2.17.51,1.56-.73,2.89-.94,4.38-.3,2.11,2.63,2,3.91,2.1a7,7,0,0,1,2.61.63,9.39,9.39,0,0,0,2.77,1.17,4.31,4.31,0,0,0,2.88-.7,5.09,5.09,0,0,0,2-2.58,3.54,3.54,0,0,0-.16-2.13,5.9,5.9,0,0,0-1.66-2.09c-.47-.48-.82-1.07-1.29-1.57S68,12.84,67.39,12.2a13.24,13.24,0,0,0-3.08-2.76,4.2,4.2,0,0,0-2.73-.51A2,2,0,0,0,59.66,10.44Z"/></g></g></g></svg>