<svg xmlns="http://www.w3.org/2000/svg" viewBox="0 0 893.91 391.46"><defs><style>.cls-1{fill:#cce5ff;}.cls-2{fill:#eaf4ff;}</style></defs><title>snow</title><g id="Layer_2" data-name="Layer 2"><g id="parc"><path class="cls-1" d="M527,190.85a6.83,6.83,0,0,0-2.67-1.54,1.19,1.19,0,0,0-.49-.07,1,1,0,0,0-.7.61,2,2,0,0,0,.47,2.18,2.48,2.48,0,0,0,2.2.58,1.63,1.63,0,0,0,1.08-.67.94.94,0,0,0-.12-1.19.21.21,0,0,0-.1.33Z"/><path class="cls-1" d="M181.37,53.91a6.69,6.69,0,0,0-2.67-1.54,1.17,1.17,0,0,0-.49-.07,1,1,0,0,0-.7.61,2,2,0,0,0,.47,2.18,2.49,2.49,0,0,0,2.21.58,1.71,1.71,0,0,0,1.07-.67.92.92,0,0,0-.12-1.19.2.2,0,0,0-.1.32Z"/><path class="cls-1" d="M683.39,140.47a6.83,6.83,0,0,0-2.67-1.54,1.19,1.19,0,0,0-.49-.07,1,1,0,0,0-.7.61,2,2,0,0,0,.47,2.18,2.45,2.45,0,0,0,2.2.58,1.63,1.63,0,0,0,1.08-.67,1,1,0,0,0-.12-1.19.21.21,0,0,0-.1.33Z"/><path class="cls-1" d="M175.76,138.08a6.72,6.72,0,0,0-2.66-1.54,1.21,1.21,0,0,0-.5-.07,1,1,0,0,0-.7.61,2,2,0,0,0,.47,2.18,2.49,2.49,0,0,0,2.21.57,1.71,1.71,0,0,0,1.08-.66,1,1,0,0,0-.12-1.19.2.2,0,0,0-.11.32Z"/><path class="cls-1" d="M235.68,306.12a6.76,6.76,0,0,0-2.67-1.54,1.17,1.17,0,0,0-.49-.07,1,1,0,0,0-.7.61,2,2,0,0,0,.47,2.18,2.49,2.49,0,0,0,2.21.58,1.71,1.71,0,0,0,1.07-.67.92.92,0,0,0-.12-1.19.2.2,0,0,0-.1.32Z"/><path class="cls-1" d="M529,306.12a6.83,6.83,0,0,0-2.67-1.54,1.19,1.19,0,0,0-.49-.07,1,1,0,0,0-.7.61,2,2,0,0,0,.47,2.18,2.48,2.48,0,0,0,2.2.58,1.71,1.71,0,0,0,1.08-.67,1,1,0,0,0-.12-1.19.2.2,0,0,0-.1.32Z"/><path class="cls-1" d="M627.93,179.92a6.72,6.72,0,0,0-2.66-1.54,1.21,1.21,0,0,0-.5-.07.94.94,0,0,0-.69.61,2,2,0,0,0,.46,2.18,2.5,2.5,0,0,0,2.21.58,1.76,1.76,0,0,0,1.08-.67,1,1,0,0,0-.12-1.19.2.2,0,0,0-.11.32Z"/><path class="cls-1" d="M238.48,252.13a6.76,6.76,0,0,0-2.67-1.54,1,1,0,0,0-.49-.07,1,1,0,0,0-.7.61,2,2,0,0,0,.47,2.17,2.46,2.46,0,0,0,2.21.58,1.63,1.63,0,0,0,1.07-.67.91.91,0,0,0-.12-1.18.2.2,0,0,0-.1.32Z"/><path class="cls-1" d="M335.29,76.4a1.75,1.75,0,0,0-1.68-.28,1.84,1.84,0,0,0,.47,1.64,1.12,1.12,0,0,0,1.58,0c.36-.46,0-1.32-.6-1.27Z"/><path class="cls-1" d="M167.6,57.91a1.76,1.76,0,0,0-1.68-.29,1.85,1.85,0,0,0,.46,1.65,1.12,1.12,0,0,0,1.58,0c.37-.47,0-1.33-.59-1.27Z"/><path class="cls-1" d="M259.61,80.23a3.57,3.57,0,0,0-1.13-.07.22.22,0,0,0-.13,0,.18.18,0,0,0,0,.13c0,.4.53.73.36,1.08,0,.06-.09.12-.08.19s.18.14.29.11a1,1,0,0,0,.58-1.48l.16,0Z"/><path class="cls-1" d="M428.78,181.18c.09.07.22,0,.24-.14s0-.23,0-.34a.39.39,0,0,1,.16-.29.2.2,0,0,1,.19,0,.22.22,0,0,1,.09.1,1.19,1.19,0,0,1,.22.62.58.58,0,0,1-.33.54.43.43,0,0,1-.58-.49Z"/><path class="cls-1" d="M668.38,56.46c1.33-1.43-.48-2.84-1.88-1.92S667.21,57.71,668.38,56.46Z"/><path class="cls-1" d="M184.56,177.73c1.34-1.44-.47-2.84-1.88-1.92S183.4,179,184.56,177.73Z"/><path class="cls-1" d="M204.21,117.79c1.34-1.43-.47-2.84-1.87-1.92S203.05,119,204.21,117.79Z"/><path class="cls-1" d="M235.78,154.8c1.34-1.43-.47-2.84-1.87-1.92S234.62,156.05,235.78,154.8Z"/><path class="cls-1" d="M151.45,308.27c1.34-1.43-.48-2.84-1.88-1.92S150.28,309.52,151.45,308.27Z"/><path class="cls-1" d="M603.23,66.22c1.34-1.43-.47-2.84-1.88-1.92S602.07,67.47,603.23,66.22Z"/><path class="cls-1" d="M579.31,179.22c1.34-1.43-.47-2.84-1.87-1.92S578.15,180.47,579.31,179.22Z"/><path class="cls-1" d="M189.9,235.09c1.34-1.43-.48-2.84-1.88-1.92S188.73,236.34,189.9,235.09Z"/><path class="cls-1" d="M586.81,95.05c1.34-1.43-.48-2.84-1.88-1.92S585.65,96.3,586.81,95.05Z"/><path class="cls-1" d="M524.55,263.45c1.34-1.43-.47-2.84-1.88-1.92S523.39,264.7,524.55,263.45Z"/><path class="cls-1" d="M497.57,271.32c1.34-1.43-.47-2.84-1.87-1.92S496.41,272.57,497.57,271.32Z"/><path class="cls-1" d="M427.86,229.74c1.34-1.44-.48-2.84-1.88-1.92S426.7,231,427.86,229.74Z"/><path class="cls-1" d="M416.62,38.16c1.33-1.43-.48-2.84-1.88-1.92S415.45,39.41,416.62,38.16Z"/><path class="cls-1" d="M711.32,199.88c1.34-1.43-.47-2.84-1.87-1.92S710.16,201.13,711.32,199.88Z"/><path class="cls-1" d="M534.45,8.62c1.33-1.43-.48-2.84-1.88-1.92S533.28,9.87,534.45,8.62Z"/><path class="cls-1" d="M701.93,43.92c1.34-1.43-.48-2.84-1.88-1.92S700.76,45.17,701.93,43.92Z"/><path class="cls-1" d="M129.29,170a1.76,1.76,0,0,0-1.68-.29,1.88,1.88,0,0,0,.46,1.65,1.13,1.13,0,0,0,1.58,0c.37-.47,0-1.33-.59-1.27Z"/><path class="cls-1" d="M331.81,192.19h-.19a.41.41,0,0,0,0,.27c.05.08.19.09.22,0a.21.21,0,0,0,0-.11l-.08-.32Z"/><path class="cls-1" d="M655.2,44.63a.45.45,0,0,1-.31.65,1.11,1.11,0,0,1-.13-.64c0-.21.27-.41.47-.33l.19.34Z"/><path class="cls-1" d="M589.87,33.29a7,7,0,0,0-2.67-1.54,1.19,1.19,0,0,0-.49-.07,1,1,0,0,0-.7.61,2,2,0,0,0,.47,2.18,2.45,2.45,0,0,0,2.2.58,1.63,1.63,0,0,0,1.08-.67.94.94,0,0,0-.12-1.19.21.21,0,0,0-.1.33Z"/><path class="cls-1" d="M450.45,162.22a7,7,0,0,0-2.67-1.54,1.19,1.19,0,0,0-.49-.07,1,1,0,0,0-.7.61,2,2,0,0,0,.47,2.18,2.45,2.45,0,0,0,2.2.58,1.63,1.63,0,0,0,1.08-.67.94.94,0,0,0-.12-1.19.21.21,0,0,0-.1.33Z"/><path class="cls-1" d="M195.26,356a6.83,6.83,0,0,0-2.67-1.54,1,1,0,0,0-.49-.07,1,1,0,0,0-.7.61,2,2,0,0,0,.47,2.17,2.45,2.45,0,0,0,2.2.58,1.63,1.63,0,0,0,1.08-.67.92.92,0,0,0-.12-1.18.2.2,0,0,0-.1.32Z"/><path class="cls-1" d="M422,129.86a6.83,6.83,0,0,0-2.67-1.54,1.19,1.19,0,0,0-.49-.07,1,1,0,0,0-.7.61,2,2,0,0,0,.47,2.18,2.47,2.47,0,0,0,2.2.57,1.66,1.66,0,0,0,1.08-.66.94.94,0,0,0-.12-1.19.2.2,0,0,0-.1.32Z"/><path class="cls-1" d="M554,54.39a1.78,1.78,0,0,0-1.68-.28,1.83,1.83,0,0,0,.46,1.64,1.11,1.11,0,0,0,1.58,0c.37-.46,0-1.32-.59-1.27Z"/><path class="cls-1" d="M583.72,198.38a1.76,1.76,0,0,0-1.68-.29,1.88,1.88,0,0,0,.46,1.65,1.14,1.14,0,0,0,1.59,0c.36-.47,0-1.33-.6-1.27Z"/><path class="cls-1" d="M487.2,310.61a1.76,1.76,0,0,0-1.68-.29A1.88,1.88,0,0,0,486,312a1.13,1.13,0,0,0,1.58,0c.37-.47,0-1.33-.59-1.27Z"/><path class="cls-1" d="M706,220.45a1.8,1.8,0,0,0-1.69-.28,1.83,1.83,0,0,0,.47,1.64,1.12,1.12,0,0,0,1.58,0c.36-.47,0-1.33-.59-1.27Z"/><path class="cls-1" d="M492.23,44.94a1.75,1.75,0,0,0-1.68-.28A1.86,1.86,0,0,0,491,46.3a1.11,1.11,0,0,0,1.58,0c.37-.46,0-1.32-.59-1.27Z"/><path class="cls-1" d="M591,35.57a1.73,1.73,0,0,0-1.68-.28,1.84,1.84,0,0,0,.47,1.64,1.12,1.12,0,0,0,1.58,0c.36-.46,0-1.32-.6-1.27Z"/><path class="cls-1" d="M417.23,187.69a1.78,1.78,0,0,0-1.69-.29A1.83,1.83,0,0,0,416,189a1.12,1.12,0,0,0,1.58,0c.36-.47,0-1.33-.59-1.27Z"/><path class="cls-1" d="M628.58.38A1.78,1.78,0,0,0,626.9.1a1.85,1.85,0,0,0,.46,1.64,1.13,1.13,0,0,0,1.59,0c.36-.47,0-1.33-.6-1.27Z"/><path class="cls-1" d="M276.1,273.06a1.76,1.76,0,0,0-1.68-.28,1.83,1.83,0,0,0,.46,1.64,1.11,1.11,0,0,0,1.58,0c.37-.46,0-1.32-.59-1.27Z"/><path class="cls-1" d="M630.94,30.4c-.16-.08-.32.16-.24.32a.69.69,0,0,0,.43.26.6.6,0,0,0-.13-.66Z"/><path class="cls-1" d="M175.76,112.55A6.72,6.72,0,0,0,173.1,111a1.21,1.21,0,0,0-.5-.07,1,1,0,0,0-.7.61,2,2,0,0,0,.47,2.18,2.49,2.49,0,0,0,2.21.58,1.68,1.68,0,0,0,1.08-.67,1,1,0,0,0-.12-1.19.21.21,0,0,0-.11.33Z"/><path class="cls-1" d="M580.34,94a6.81,6.81,0,0,0-2.67-1.54,1.17,1.17,0,0,0-.49-.07,1,1,0,0,0-.7.61,2,2,0,0,0,.47,2.18,2.46,2.46,0,0,0,2.21.58,1.68,1.68,0,0,0,1.08-.67.94.94,0,0,0-.13-1.19.21.21,0,0,0-.1.33Z"/><path class="cls-1" d="M410.76,273.41a6.72,6.72,0,0,0-2.66-1.54,1.21,1.21,0,0,0-.5-.07,1,1,0,0,0-.69.61,2,2,0,0,0,.47,2.18,2.47,2.47,0,0,0,2.2.58,1.66,1.66,0,0,0,1.08-.67,1,1,0,0,0-.12-1.19.21.21,0,0,0-.11.32Z"/><path class="cls-1" d="M358.83,102a6.83,6.83,0,0,0-2.67-1.54,1.19,1.19,0,0,0-.49-.07,1,1,0,0,0-.7.61,2,2,0,0,0,.47,2.18,2.48,2.48,0,0,0,2.2.58,1.63,1.63,0,0,0,1.08-.67,1,1,0,0,0-.12-1.19.2.2,0,0,0-.1.32Z"/><path class="cls-1" d="M74.7,104.58A6.83,6.83,0,0,0,72,103a1.21,1.21,0,0,0-.5-.07,1,1,0,0,0-.69.61,2,2,0,0,0,.47,2.18,2.48,2.48,0,0,0,2.2.58,1.66,1.66,0,0,0,1.08-.67,1,1,0,0,0-.12-1.19.21.21,0,0,0-.11.32Z"/><path class="cls-1" d="M124,345.52a7,7,0,0,0-2.67-1.55,1.39,1.39,0,0,0-.49-.07,1,1,0,0,0-.7.62,2,2,0,0,0,.47,2.17,2.45,2.45,0,0,0,2.2.58,1.63,1.63,0,0,0,1.08-.67.92.92,0,0,0-.12-1.18.2.2,0,0,0-.1.32Z"/><path class="cls-1" d="M358.88,323.42a6.83,6.83,0,0,0-2.67-1.54,1.19,1.19,0,0,0-.49-.07,1,1,0,0,0-.7.61,2,2,0,0,0,.47,2.17,2.45,2.45,0,0,0,2.2.58,1.63,1.63,0,0,0,1.08-.67.94.94,0,0,0-.12-1.18.2.2,0,0,0-.1.32Z"/><path class="cls-1" d="M621.8,380.67a7,7,0,0,0-2.67-1.55,1.39,1.39,0,0,0-.49-.07,1,1,0,0,0-.7.62,2,2,0,0,0,.47,2.17,2.45,2.45,0,0,0,2.2.58,1.63,1.63,0,0,0,1.08-.67.93.93,0,0,0-.12-1.18.2.2,0,0,0-.1.32Z"/><path class="cls-1" d="M148.31,160.13a6.83,6.83,0,0,0-2.67-1.54,1,1,0,0,0-.49-.07,1,1,0,0,0-.7.61,2,2,0,0,0,.47,2.17,2.45,2.45,0,0,0,2.2.58,1.63,1.63,0,0,0,1.08-.67.93.93,0,0,0-.12-1.18.2.2,0,0,0-.1.32Z"/><path class="cls-1" d="M427.57,48.78c.09.07.22,0,.24-.15a1.82,1.82,0,0,0,0-.33A.4.4,0,0,1,428,48a.18.18,0,0,1,.19,0s.06.06.09.1a1.28,1.28,0,0,1,.21.62.58.58,0,0,1-.32.54.46.46,0,0,1-.44-.07.45.45,0,0,1-.15-.42Z"/><path class="cls-1" d="M542.34,105.5c.09.07.22,0,.24-.14a1.93,1.93,0,0,0,0-.34.37.37,0,0,1,.17-.29.19.19,0,0,1,.19,0s.06.06.09.1a1.28,1.28,0,0,1,.21.62.58.58,0,0,1-.32.54.44.44,0,0,1-.44-.07.45.45,0,0,1-.15-.42Z"/><path class="cls-1" d="M560.77,73.27a1.43,1.43,0,0,0-.17-1,.25.25,0,0,0-.13-.12c-.14,0-.2.16-.27.28s-.39.29-.51.49a.85.85,0,0,0,0,.57c0,.27.18.63.46.6a.55.55,0,0,0,.33-.25,2.84,2.84,0,0,0,.4-.82Z"/><path class="cls-1" d="M528.45,37.44a1.43,1.43,0,0,0-.17-1,.2.2,0,0,0-.13-.11c-.14,0-.2.15-.27.27s-.39.29-.51.49a.92.92,0,0,0,0,.57c0,.28.18.63.46.6a.55.55,0,0,0,.33-.25,2.84,2.84,0,0,0,.4-.82Z"/><path class="cls-1" d="M402.88,311.67a1.41,1.41,0,0,0-.17-1c0-.05-.07-.11-.13-.12s-.2.16-.27.28-.39.28-.51.49a.92.92,0,0,0,0,.57c0,.27.18.62.46.59a.48.48,0,0,0,.33-.25,2.72,2.72,0,0,0,.4-.82Z"/><path class="cls-1" d="M529.13,7.9a1.35,1.35,0,0,0-.16-1c0-.06-.08-.11-.14-.12s-.2.16-.27.28-.39.28-.5.49a.82.82,0,0,0,0,.56c.05.28.19.63.46.6a.5.5,0,0,0,.34-.25,2.81,2.81,0,0,0,.39-.82Z"/><path class="cls-1" d="M497.38,68.21a6.72,6.72,0,0,0-2.66-1.54,1.21,1.21,0,0,0-.5-.07,1,1,0,0,0-.69.61,2,2,0,0,0,.46,2.18,2.5,2.5,0,0,0,2.21.58,1.76,1.76,0,0,0,1.08-.67,1,1,0,0,0-.12-1.19.2.2,0,0,0-.11.32Z"/><path class="cls-1" d="M515.5,369.43a7,7,0,0,0-2.67-1.54,1.17,1.17,0,0,0-.49-.07,1,1,0,0,0-.7.61,2,2,0,0,0,.47,2.18,2.45,2.45,0,0,0,2.2.58,1.63,1.63,0,0,0,1.08-.67.92.92,0,0,0-.12-1.19.21.21,0,0,0-.1.33Z"/><path class="cls-1" d="M468.82,302.43a6.72,6.72,0,0,0-2.66-1.54,1.21,1.21,0,0,0-.5-.07,1,1,0,0,0-.69.61,2,2,0,0,0,.46,2.18,2.5,2.5,0,0,0,2.21.58,1.76,1.76,0,0,0,1.08-.67,1,1,0,0,0-.12-1.19.21.21,0,0,0-.11.32Z"/><path class="cls-1" d="M637,122.2a1.76,1.76,0,0,0-1.68-.29,1.88,1.88,0,0,0,.46,1.65,1.13,1.13,0,0,0,1.58,0c.37-.47,0-1.33-.59-1.27Z"/><path class="cls-1" d="M317.7,261.56a1.78,1.78,0,0,0-1.68-.28,1.83,1.83,0,0,0,.47,1.64,1.12,1.12,0,0,0,1.58,0c.36-.47,0-1.33-.6-1.27Z"/><path class="cls-1" d="M292.9,261.56a1.78,1.78,0,0,0-1.68-.28,1.85,1.85,0,0,0,.46,1.64,1.13,1.13,0,0,0,1.59,0c.36-.47,0-1.33-.6-1.27Z"/><path class="cls-1" d="M303.1,56.74a6.72,6.72,0,0,0-2.66-1.54,1.21,1.21,0,0,0-.5-.07.94.94,0,0,0-.69.61,2,2,0,0,0,.46,2.18,2.49,2.49,0,0,0,2.21.57,1.71,1.71,0,0,0,1.08-.66,1,1,0,0,0-.12-1.19.2.2,0,0,0-.11.32Z"/><path class="cls-1" d="M672.13,213.4a6.83,6.83,0,0,0-2.67-1.54,1.07,1.07,0,0,0-.5-.07.94.94,0,0,0-.69.61,2,2,0,0,0,.47,2.17,2.45,2.45,0,0,0,2.2.58,1.66,1.66,0,0,0,1.08-.67.93.93,0,0,0-.12-1.18.2.2,0,0,0-.11.32Z"/><path class="cls-1" d="M434.59,23.8a6.83,6.83,0,0,0-2.67-1.54,1.19,1.19,0,0,0-.49-.07,1,1,0,0,0-.7.61A2,2,0,0,0,431.2,25a2.45,2.45,0,0,0,2.2.58,1.63,1.63,0,0,0,1.08-.67,1,1,0,0,0-.12-1.19.21.21,0,0,0-.1.33Z"/><path class="cls-2" d="M208.39,152.32a12.28,12.28,0,0,0,3.66-4.25,2.19,2.19,0,0,0,.29-.86,1.79,1.79,0,0,0-.86-1.45,3.63,3.63,0,0,0-4,.11,4.49,4.49,0,0,0-1.78,3.75,3,3,0,0,0,.84,2.15,1.69,1.69,0,0,0,2.16.18.37.37,0,0,0-.54-.29Z"/><path class="cls-2" d="M49,208.11a12.35,12.35,0,0,0,3.65-4.25,2,2,0,0,0,.29-.86,1.76,1.76,0,0,0-.85-1.45,3.63,3.63,0,0,0-4,.11,4.47,4.47,0,0,0-1.78,3.75,3,3,0,0,0,.83,2.15,1.7,1.7,0,0,0,2.17.18.37.37,0,0,0-.55-.29Z"/><path class="cls-2" d="M347.84,272.06a12.42,12.42,0,0,0,3.66-4.26,2.2,2.2,0,0,0,.29-.85,1.8,1.8,0,0,0-.86-1.46,3.63,3.63,0,0,0-4.05.11,4.47,4.47,0,0,0-1.78,3.75,3,3,0,0,0,.83,2.15,1.7,1.7,0,0,0,2.17.18.37.37,0,0,0-.55-.29Z"/><path class="cls-2" d="M2.74,124.42a12.38,12.38,0,0,0,3.66-4.25,2.25,2.25,0,0,0,.29-.86,1.8,1.8,0,0,0-.86-1.46,3.63,3.63,0,0,0-4,.11A4.48,4.48,0,0,0,0,121.71a3,3,0,0,0,.83,2.15,1.72,1.72,0,0,0,2.17.19.37.37,0,0,0-.55-.3Z"/><path class="cls-2" d="M663.64,229.18a12.36,12.36,0,0,0-3-4.72,2.29,2.29,0,0,0-.74-.53,1.76,1.76,0,0,0-1.64.41,3.63,3.63,0,0,0-1.06,3.91,4.52,4.52,0,0,0,3.08,2.78,3.07,3.07,0,0,0,2.31-.18,1.7,1.7,0,0,0,.79-2,.37.37,0,0,0-.44.43Z"/><path class="cls-1" d="M141.3,5.89a6.72,6.72,0,0,0-2.66-1.54,1.21,1.21,0,0,0-.5-.07,1,1,0,0,0-.69.61,2,2,0,0,0,.47,2.18,2.47,2.47,0,0,0,2.2.58A1.66,1.66,0,0,0,141.2,7a1,1,0,0,0-.12-1.19.21.21,0,0,0-.11.32Z"/><path class="cls-1" d="M227.66,47.07a1.73,1.73,0,0,0-1.68-.28,1.85,1.85,0,0,0,.47,1.64,1.12,1.12,0,0,0,1.58,0c.36-.46,0-1.32-.6-1.27Z"/><path class="cls-1" d="M403.37,167.08a3.69,3.69,0,0,0-.6-1,.18.18,0,0,0-.11-.08.17.17,0,0,0-.13,0c-.32.24-.28.85-.67.92-.07,0-.15,0-.2.05s0,.22.08.3a1,1,0,0,0,1.54-.4l.05.17Z"/><path class="cls-1" d="M614,67.06a.33.33,0,0,0-.22.06.39.39,0,0,0-.08.21,3.93,3.93,0,0,1-.19.58l.91-.46a.11.11,0,0,1,.07,0c.1,0,.15.11.23.15s.27,0,.36-.13C615.68,66.69,614.38,67,614,67.06Z"/><path class="cls-1" d="M649.45,45.21c1.34-1.43-.47-2.84-1.88-1.92S648.29,46.46,649.45,45.21Z"/><path class="cls-1" d="M709.91,355.73c1.33-1.43-.48-2.84-1.88-1.92S708.74,357,709.91,355.73Z"/><path class="cls-1" d="M216.67,20.1c1.34-1.43-.47-2.84-1.87-1.92S215.51,21.35,216.67,20.1Z"/><path class="cls-1" d="M661.26,355.73c1.34-1.43-.48-2.84-1.88-1.92S660.1,357,661.26,355.73Z"/><path class="cls-1" d="M642.45,184.48c1.34-1.43-.48-2.84-1.88-1.92S641.28,185.73,642.45,184.48Z"/><path class="cls-1" d="M418.93,23.85c1.34-1.43-.47-2.84-1.87-1.92S417.77,25.1,418.93,23.85Z"/><path class="cls-1" d="M282.54,338.8c1.33-1.43-.48-2.84-1.88-1.92S281.37,340.05,282.54,338.8Z"/><path class="cls-1" d="M395.26,218.12c1.34-1.43-.47-2.84-1.87-1.92S394.1,219.37,395.26,218.12Z"/><path class="cls-1" d="M290.38,93a1.78,1.78,0,0,0-1.68-.28,1.85,1.85,0,0,0,.46,1.64,1.12,1.12,0,0,0,1.58,0c.37-.47,0-1.33-.59-1.27Z"/><path class="cls-1" d="M260.77,323.13a1.73,1.73,0,0,0-1.68-.28,1.81,1.81,0,0,0,.46,1.64,1.12,1.12,0,0,0,1.58,0c.37-.46,0-1.32-.59-1.27Z"/><path class="cls-1" d="M130.4,172.06a1.75,1.75,0,0,0-1.68-.28,1.86,1.86,0,0,0,.46,1.64,1.11,1.11,0,0,0,1.58,0c.37-.46,0-1.32-.59-1.27Z"/><path class="cls-1" d="M142,107.05a1.76,1.76,0,0,0-1.68-.29,1.86,1.86,0,0,0,.47,1.65,1.13,1.13,0,0,0,1.58,0c.36-.47,0-1.33-.6-1.27Z"/><path class="cls-1" d="M181.2,132.44a1.76,1.76,0,0,0-1.68-.29,1.88,1.88,0,0,0,.46,1.65,1.13,1.13,0,0,0,1.59,0c.36-.47,0-1.33-.6-1.27Z"/><path class="cls-1" d="M614.17,72.23a.88.88,0,0,0-.78-.15.86.86,0,0,0,.12.35.3.3,0,0,0,.31.15c.17,0,.24-.23.28-.39l.07.12Z"/><path class="cls-1" d="M303.3,79.61l-.11.14a.21.21,0,0,0,.24.11.16.16,0,0,0,.11-.22.14.14,0,0,0-.23,0Z"/><path class="cls-1" d="M304.07,76.41c.05,0,.13,0,.16.07a.31.31,0,0,1,0,.19.39.39,0,0,1-.08.14.23.23,0,0,1-.28,0,.29.29,0,0,1-.12-.27.21.21,0,0,1,.07-.13.11.11,0,0,1,.14,0Z"/><path class="cls-1" d="M151.77,149.77a6.83,6.83,0,0,0-2.67-1.54,1.17,1.17,0,0,0-.49-.07,1,1,0,0,0-.7.61,2,2,0,0,0,.47,2.18,2.46,2.46,0,0,0,2.21.57,1.66,1.66,0,0,0,1.07-.66.92.92,0,0,0-.12-1.19.2.2,0,0,0-.1.32Z"/><path class="cls-1" d="M235.74,183.36a6.76,6.76,0,0,0-2.67-1.54,1.17,1.17,0,0,0-.49-.07,1,1,0,0,0-.7.61,2,2,0,0,0,.47,2.18,2.46,2.46,0,0,0,2.21.58,1.63,1.63,0,0,0,1.07-.67.92.92,0,0,0-.12-1.19.21.21,0,0,0-.1.33Z"/><path class="cls-1" d="M700.47,31a1.78,1.78,0,0,0-1.68-.28,1.86,1.86,0,0,0,.46,1.64,1.12,1.12,0,0,0,1.58,0c.37-.47,0-1.33-.59-1.27Z"/><path class="cls-1" d="M609.45,60.1a.31.31,0,0,1,.12.32.32.32,0,0,1-.25.23c-.09,0-.19,0-.19-.11a.18.18,0,0,1,0-.1l.24-.38.06,0Z"/><path class="cls-1" d="M609,62.43c-.11.09-.07.28,0,.42s.11.3,0,.42a.13.13,0,0,1-.11.06c-.1,0-.12-.15-.16-.24a1.56,1.56,0,0,0-.16-.2.5.5,0,0,1,0-.56.27.27,0,0,1,.3,0,.3.3,0,0,1,.11.29Z"/><path class="cls-1" d="M521,305.83c-.11.1-.07.28,0,.42s.12.31,0,.43a.13.13,0,0,1-.1.06c-.11,0-.12-.15-.17-.25a.7.7,0,0,0-.16-.19.53.53,0,0,1,0-.57.31.31,0,0,1,.31,0,.27.27,0,0,1,.1.28Z"/><path class="cls-1" d="M685.27,143.36c-.11.1-.07.28,0,.42s.12.31,0,.43a.15.15,0,0,1-.1.06c-.11,0-.13-.15-.17-.24a1.56,1.56,0,0,0-.16-.2.5.5,0,0,1,0-.56.28.28,0,0,1,.41.3Z"/><path class="cls-1" d="M598.22,53.61a1.76,1.76,0,0,0-1.68-.29A1.88,1.88,0,0,0,597,55a1.13,1.13,0,0,0,1.58,0c.37-.47,0-1.33-.59-1.27Z"/><path class="cls-1" d="M358.31,230.38a1.75,1.75,0,0,0-1.68-.28,1.86,1.86,0,0,0,.46,1.64,1.12,1.12,0,0,0,1.58,0c.37-.46,0-1.32-.59-1.27Z"/><path class="cls-1" d="M251.6,61.8a1.78,1.78,0,0,0-1.68-.28,1.86,1.86,0,0,0,.46,1.64,1.11,1.11,0,0,0,1.58,0c.37-.46,0-1.32-.59-1.27Z"/><path class="cls-1" d="M206.25,200.75a1.73,1.73,0,0,0-1.68-.28,1.87,1.87,0,0,0,.46,1.64,1.12,1.12,0,0,0,1.58,0c.37-.46,0-1.32-.59-1.27Z"/><path class="cls-1" d="M539.63,55.42a1.73,1.73,0,0,0-1.68-.28,1.83,1.83,0,0,0,.46,1.64,1.12,1.12,0,0,0,1.58,0c.37-.46,0-1.32-.59-1.27Z"/><path class="cls-1" d="M610.92,67.41l-.3,0a.45.45,0,0,0,0,.23.29.29,0,0,0,.33-.22Z"/><path class="cls-1" d="M245.8,317.41a1.76,1.76,0,0,0-1.68-.29,1.85,1.85,0,0,0,.46,1.65,1.12,1.12,0,0,0,1.58,0c.37-.47,0-1.33-.59-1.27Z"/><path class="cls-1" d="M296.78,295.45a1.73,1.73,0,0,0-1.68-.28,1.83,1.83,0,0,0,.46,1.64,1.12,1.12,0,0,0,1.58,0c.37-.46,0-1.32-.59-1.27Z"/><path class="cls-1" d="M307.46,93.15a.69.69,0,0,0-.25,0,.24.24,0,0,0-.18.16c0,.14.13.24.17.37s0,.3.05.41a.24.24,0,0,0,.36,0,.63.63,0,0,0,.09-.39.83.83,0,0,0-.08-.36.28.28,0,0,0-.32-.12Z"/><path class="cls-1" d="M303.87,78.09a.15.15,0,0,1,0,.21.25.25,0,0,1-.21.1.22.22,0,0,1-.14,0,.2.2,0,0,1-.08-.28.22.22,0,0,1,.29-.07.24.24,0,0,1,.08.3Z"/><path class="cls-1" d="M698.86,55.13a.32.32,0,0,1,.15.36l-.47,0a.35.35,0,0,1,.23-.5Z"/><path class="cls-1" d="M536.41,120.6l.18-.06a1,1,0,0,1-.09.42.36.36,0,0,1-.36.2.21.21,0,0,1-.11-.34.78.78,0,0,1,.38-.2Z"/><path class="cls-1" d="M634,109.48c.09.06.22,0,.24-.15a2,2,0,0,0,0-.34.44.44,0,0,1,.17-.29.19.19,0,0,1,.19,0,.26.26,0,0,1,.09.09,1.2,1.2,0,0,1,.22.63.56.56,0,0,1-.33.53.42.42,0,0,1-.43-.07.43.43,0,0,1-.15-.41Z"/><path class="cls-1" d="M658.65,23.13a1.43,1.43,0,0,0-.17-1.05.2.2,0,0,0-.13-.11c-.14,0-.2.16-.27.28s-.39.28-.51.48a.85.85,0,0,0,0,.57c0,.28.18.63.46.6a.48.48,0,0,0,.33-.25,2.84,2.84,0,0,0,.4-.82Z"/><path class="cls-1" d="M460.6,84.8c.22,0,.28-.3.26-.52s0-.3-.15-.37-.35,0-.49.15l-.36.32c-.06.05-.12.1-.12.17a.25.25,0,0,0,.1.16,2.19,2.19,0,0,0,.82.48Z"/><path class="cls-1" d="M332.2,97.68a.46.46,0,0,1-.31.66,1.06,1.06,0,0,1-.13-.64c0-.22.27-.42.47-.34l.19.35Z"/><path class="cls-1" d="M568.79,124.9a6.83,6.83,0,0,0-2.67-1.54,1.19,1.19,0,0,0-.49-.07,1,1,0,0,0-.7.61,2,2,0,0,0,.47,2.18,2.47,2.47,0,0,0,2.2.57,1.66,1.66,0,0,0,1.08-.66,1,1,0,0,0-.12-1.19.2.2,0,0,0-.1.32Z"/><path class="cls-1" d="M584,268.93a6.69,6.69,0,0,0-2.67-1.54,1.17,1.17,0,0,0-.49-.07,1,1,0,0,0-.7.61,2,2,0,0,0,.47,2.18,2.49,2.49,0,0,0,2.21.58,1.71,1.71,0,0,0,1.07-.67.92.92,0,0,0-.12-1.19.2.2,0,0,0-.1.32Z"/><path class="cls-1" d="M226.06,205.63a.77.77,0,0,0-.26,0,.23.23,0,0,0-.18.16c0,.13.13.24.17.37s0,.3.05.41a.24.24,0,0,0,.36,0,.66.66,0,0,0,.09-.39.71.71,0,0,0-.08-.36.27.27,0,0,0-.32-.12Z"/><path class="cls-1" d="M166.89,61.35c0-.18-.31-.16-.39,0a.34.34,0,1,0,.5,0Z"/><path class="cls-1" d="M350.15,42.36a1.76,1.76,0,0,0-1.68-.29,1.83,1.83,0,0,0,.47,1.64,1.12,1.12,0,0,0,1.58,0c.36-.47,0-1.33-.6-1.27Z"/><path class="cls-1" d="M302.9,32.14a1.75,1.75,0,0,0-1.68-.28,1.86,1.86,0,0,0,.46,1.64,1.12,1.12,0,0,0,1.58,0c.37-.46,0-1.32-.59-1.27Z"/><path class="cls-1" d="M545.86,75.68c0,.11.16.15.26.11s.17-.15.27-.2a.41.41,0,0,1,.34,0,.19.19,0,0,1,.13.14.2.2,0,0,1,0,.13,1.21,1.21,0,0,1-.38.53.58.58,0,0,1-.63.05.44.44,0,0,1-.2-.39.47.47,0,0,1,.25-.37Z"/><path class="cls-1" d="M535.13,278.88c0,.12.16.16.26.11s.18-.14.27-.2a.41.41,0,0,1,.34,0,.2.2,0,0,1,.14.13.24.24,0,0,1,0,.14,1.18,1.18,0,0,1-.38.53.58.58,0,0,1-.63.05.44.44,0,0,1-.19-.4.45.45,0,0,1,.25-.36Z"/><path class="cls-1" d="M372.25,267.42c0,.12.15.16.26.12s.17-.15.27-.21a.38.38,0,0,1,.33,0,.19.19,0,0,1,.14.13.24.24,0,0,1,0,.14,1.18,1.18,0,0,1-.38.53.56.56,0,0,1-.62,0,.43.43,0,0,1,0-.76Z"/><path class="cls-1" d="M631.27,248c0,.11.15.16.26.11s.17-.15.27-.2a.42.42,0,0,1,.33,0c.07,0,.13.07.14.14a.21.21,0,0,1,0,.13,1.21,1.21,0,0,1-.38.54.54.54,0,0,1-.62,0,.44.44,0,0,1-.2-.39.45.45,0,0,1,.25-.37Z"/><path class="cls-1" d="M536.2,200.9c0,.11.15.16.26.11s.17-.14.27-.2a.38.38,0,0,1,.33,0,.19.19,0,0,1,.14.13.19.19,0,0,1,0,.13,1.16,1.16,0,0,1-.38.54.56.56,0,0,1-.62,0,.46.46,0,0,1-.2-.4.43.43,0,0,1,.25-.36Z"/><path class="cls-1" d="M523.47,43.7c0,.11.16.16.26.11s.17-.14.27-.2a.38.38,0,0,1,.33,0,.17.17,0,0,1,.14.13.27.27,0,0,1,0,.13,1.18,1.18,0,0,1-.39.54.56.56,0,0,1-.62,0,.47.47,0,0,1-.2-.4.43.43,0,0,1,.25-.36Z"/><path class="cls-1" d="M357.54,94.73a6.81,6.81,0,0,0-2.67-1.54,1.17,1.17,0,0,0-.49-.07,1,1,0,0,0-.7.61,2,2,0,0,0,.47,2.18,2.46,2.46,0,0,0,2.21.58,1.68,1.68,0,0,0,1.08-.67.94.94,0,0,0-.13-1.19.21.21,0,0,0-.1.33Z"/><path class="cls-1" d="M184.17,140.47a6.72,6.72,0,0,0-2.66-1.54,1.21,1.21,0,0,0-.5-.07,1,1,0,0,0-.7.61,2,2,0,0,0,.47,2.18,2.46,2.46,0,0,0,2.21.58,1.68,1.68,0,0,0,1.08-.67,1,1,0,0,0-.12-1.19.21.21,0,0,0-.11.33Z"/><path class="cls-1" d="M162.43,90.88a7,7,0,0,0-2.67-1.54,1.19,1.19,0,0,0-.49-.07,1,1,0,0,0-.7.61,2,2,0,0,0,.47,2.18,2.45,2.45,0,0,0,2.2.58,1.63,1.63,0,0,0,1.08-.67,1,1,0,0,0-.12-1.19.21.21,0,0,0-.1.33Z"/><path class="cls-1" d="M64.8,86.18a6.83,6.83,0,0,0-2.67-1.54,1.19,1.19,0,0,0-.49-.07,1,1,0,0,0-.7.61,2,2,0,0,0,.47,2.18,2.48,2.48,0,0,0,2.2.58,1.63,1.63,0,0,0,1.08-.67,1,1,0,0,0-.12-1.19.2.2,0,0,0-.1.32Z"/><path class="cls-1" d="M398.12,62.75a.24.24,0,0,0-.3-.29.46.46,0,0,0,0,.26.19.19,0,0,0,.21.14c.08,0,.15-.13.09-.2Z"/><path class="cls-1" d="M497.44,43.73a6.81,6.81,0,0,0-.61,3,1,1,0,0,0,.09.49,1,1,0,0,0,.8.47,2,2,0,0,0,1.91-1.14,2.44,2.44,0,0,0-.15-2.27,1.62,1.62,0,0,0-1-.81.93.93,0,0,0-1.09.49.2.2,0,0,0,.34,0Z"/><path class="cls-1" d="M275.13,88.71c1.34-1.43-.48-2.84-1.88-1.92S274,90,275.13,88.71Z"/><path class="cls-1" d="M308.68,76.16c1.34-1.43-.47-2.84-1.87-1.92S307.52,77.41,308.68,76.16Z"/><path class="cls-1" d="M262,76.87a.46.46,0,0,1-.32.66,1.19,1.19,0,0,1-.13-.64.39.39,0,0,1,.48-.33l.18.34Z"/><path class="cls-1" d="M256.21,77.46c1.33-1.43-.48-2.84-1.88-1.92S255,78.7,256.21,77.46Z"/><path class="cls-1" d="M305.61,87.37a.32.32,0,0,1,.15.37l-.47.05a.37.37,0,0,1,.24-.51Z"/><path class="cls-1" d="M412.79,116.51a6.69,6.69,0,0,0-2.67-1.54,1.17,1.17,0,0,0-.49-.07,1,1,0,0,0-.7.61,2,2,0,0,0,.47,2.18,2.49,2.49,0,0,0,2.21.57,1.71,1.71,0,0,0,1.08-.66,1,1,0,0,0-.12-1.19.2.2,0,0,0-.11.32Z"/><path class="cls-1" d="M368.15,164.46a3.89,3.89,0,0,0-1.13-.07.22.22,0,0,0-.13,0,.21.21,0,0,0,0,.14c0,.39.53.72.36,1.07,0,.07-.09.13-.08.2s.18.13.3.1a1,1,0,0,0,.57-1.48l.16,0Z"/><path class="cls-1" d="M457,78.05c1.34-1.43-.48-2.84-1.88-1.92S455.85,79.3,457,78.05Z"/><path class="cls-1" d="M852.24,169.34a1.73,1.73,0,0,0-1.68-.28,1.86,1.86,0,0,0,.46,1.64,1.12,1.12,0,0,0,1.58,0c.37-.46,0-1.32-.59-1.27Z"/><path class="cls-1" d="M790.49,159.89a1.73,1.73,0,0,0-1.68-.28,1.87,1.87,0,0,0,.46,1.64,1.12,1.12,0,0,0,1.58,0c.37-.46,0-1.32-.59-1.27Z"/><path class="cls-1" d="M878.6,209a6.72,6.72,0,0,0-2.66-1.54,1.21,1.21,0,0,0-.5-.07,1,1,0,0,0-.7.61,2,2,0,0,0,.47,2.18,2.49,2.49,0,0,0,2.21.58,1.68,1.68,0,0,0,1.08-.67,1,1,0,0,0-.12-1.19.21.21,0,0,0-.11.33Z"/><path class="cls-1" d="M725.83,163.73c.09.06.22,0,.25-.15s0-.22,0-.34a.4.4,0,0,1,.17-.29.19.19,0,0,1,.19,0s.06.06.09.1a1.15,1.15,0,0,1,.21.62.55.55,0,0,1-.32.53.44.44,0,0,1-.44-.07.42.42,0,0,1-.15-.41Z"/><path class="cls-1" d="M859,188.22a1.43,1.43,0,0,0-.17-1.05s-.07-.11-.13-.12-.2.16-.27.28-.39.29-.51.49a.92.92,0,0,0,0,.57c0,.27.18.62.46.6a.53.53,0,0,0,.33-.26,2.61,2.61,0,0,0,.4-.82Z"/><path class="cls-1" d="M826.71,152.39a1.38,1.38,0,0,0-.17-1c0-.05-.07-.11-.13-.12s-.2.16-.27.28-.39.29-.51.49a.92.92,0,0,0,0,.57c0,.27.18.62.46.6a.58.58,0,0,0,.34-.26,2.82,2.82,0,0,0,.39-.82Z"/><path class="cls-1" d="M795.64,183.16a6.72,6.72,0,0,0-2.66-1.54,1.21,1.21,0,0,0-.5-.07.94.94,0,0,0-.69.61,2,2,0,0,0,.47,2.17,2.45,2.45,0,0,0,2.2.58,1.66,1.66,0,0,0,1.08-.67.94.94,0,0,0-.12-1.18.2.2,0,0,0-.11.32Z"/><path class="cls-1" d="M19.47,80.2a6.76,6.76,0,0,0-2.67-1.54,1.17,1.17,0,0,0-.49-.07,1,1,0,0,0-.7.61,2,2,0,0,0,.47,2.18,2.46,2.46,0,0,0,2.21.58,1.63,1.63,0,0,0,1.07-.67.92.92,0,0,0-.12-1.19.21.21,0,0,0-.1.33Z"/><path class="cls-1" d="M555.36,239.36a6.83,6.83,0,0,0-2.67-1.54,1,1,0,0,0-.49-.07,1,1,0,0,0-.7.61,2,2,0,0,0,.47,2.17,2.45,2.45,0,0,0,2.2.58,1.63,1.63,0,0,0,1.08-.67.94.94,0,0,0-.12-1.18.2.2,0,0,0-.1.32Z"/><path class="cls-1" d="M837.89,170.37a1.76,1.76,0,0,0-1.68-.29,1.85,1.85,0,0,0,.46,1.65,1.13,1.13,0,0,0,1.58,0c.37-.47,0-1.33-.59-1.27Z"/><path class="cls-1" d="M758.86,199.74c.22,0,.28-.3.26-.51s0-.3-.15-.37-.35,0-.49.15l-.36.32c-.06,0-.12.1-.11.17a.22.22,0,0,0,.09.16,2.43,2.43,0,0,0,.82.48Z"/><path class="cls-1" d="M844.12,190.62c0,.12.16.16.26.11s.17-.14.27-.2a.41.41,0,0,1,.34,0,.23.23,0,0,1,.14.13.35.35,0,0,1,0,.14,1.27,1.27,0,0,1-.38.53.58.58,0,0,1-.63,0,.42.42,0,0,1-.19-.4.43.43,0,0,1,.25-.36Z"/><path class="cls-1" d="M821.73,158.65c0,.11.16.16.26.11s.17-.15.27-.2a.45.45,0,0,1,.34,0,.2.2,0,0,1,.13.14.3.3,0,0,1,0,.13,1.3,1.3,0,0,1-.38.54.56.56,0,0,1-.63,0,.44.44,0,0,1-.2-.39.45.45,0,0,1,.25-.37Z"/><path class="cls-1" d="M795.71,158.68a6.68,6.68,0,0,0-.62,3,1,1,0,0,0,.09.48,1,1,0,0,0,.8.47,2,2,0,0,0,1.91-1.13,2.46,2.46,0,0,0-.14-2.28,1.74,1.74,0,0,0-1-.81,1,1,0,0,0-1.09.49.2.2,0,0,0,.34,0Z"/><path class="cls-1" d="M755.28,193c1.34-1.43-.48-2.84-1.88-1.92S754.12,194.25,755.28,193Z"/><path class="cls-1" d="M889.2,88.49c1.34-1.43-.48-2.84-1.88-1.92S888,89.74,889.2,88.49Z"/><path class="cls-1" d="M892.26,26.73a7,7,0,0,0-2.67-1.54,1.19,1.19,0,0,0-.49-.07,1,1,0,0,0-.7.61,2,2,0,0,0,.47,2.18,2.45,2.45,0,0,0,2.2.58,1.63,1.63,0,0,0,1.08-.67,1,1,0,0,0-.12-1.19.21.21,0,0,0-.1.33Z"/><path class="cls-1" d="M752.84,155.66a7,7,0,0,0-2.67-1.54,1.19,1.19,0,0,0-.49-.07,1,1,0,0,0-.7.61,2,2,0,0,0,.47,2.18,2.45,2.45,0,0,0,2.2.58,1.63,1.63,0,0,0,1.08-.67,1,1,0,0,0-.12-1.19.21.21,0,0,0-.1.33Z"/><path class="cls-1" d="M856.37,47.83a1.8,1.8,0,0,0-1.69-.28,1.84,1.84,0,0,0,.47,1.64,1.11,1.11,0,0,0,1.58,0c.37-.46,0-1.32-.59-1.27Z"/><path class="cls-1" d="M886.11,191.82a1.76,1.76,0,0,0-1.68-.29,1.88,1.88,0,0,0,.46,1.65,1.13,1.13,0,0,0,1.58,0c.37-.47,0-1.33-.59-1.27Z"/><path class="cls-1" d="M794.62,38.38a1.75,1.75,0,0,0-1.68-.28,1.83,1.83,0,0,0,.46,1.64,1.11,1.11,0,0,0,1.58,0c.37-.46,0-1.32-.59-1.27Z"/><path class="cls-1" d="M893.4,29a1.73,1.73,0,0,0-1.68-.28,1.86,1.86,0,0,0,.46,1.64,1.12,1.12,0,0,0,1.58,0c.37-.46,0-1.32-.59-1.27Z"/><path class="cls-1" d="M882.73,87.47a7,7,0,0,0-2.67-1.54,1.17,1.17,0,0,0-.49-.07,1,1,0,0,0-.7.61,2,2,0,0,0,.47,2.18,2.45,2.45,0,0,0,2.2.58,1.63,1.63,0,0,0,1.08-.67.92.92,0,0,0-.12-1.19.21.21,0,0,0-.1.33Z"/><path class="cls-1" d="M844.73,98.94c.09.07.22,0,.24-.14s0-.23,0-.34a.39.39,0,0,1,.16-.29.2.2,0,0,1,.19,0,.32.32,0,0,1,.1.1,1.28,1.28,0,0,1,.21.62.58.58,0,0,1-.32.54.44.44,0,0,1-.44-.07.45.45,0,0,1-.15-.42Z"/><path class="cls-1" d="M863.16,66.71a1.43,1.43,0,0,0-.17-1,.24.24,0,0,0-.14-.12c-.13,0-.19.16-.26.28s-.39.29-.51.49a.85.85,0,0,0,0,.57c.05.27.19.63.47.6a.55.55,0,0,0,.33-.25,2.58,2.58,0,0,0,.39-.82Z"/><path class="cls-1" d="M830.84,30.88a1.43,1.43,0,0,0-.17-1.05.2.2,0,0,0-.13-.11c-.14,0-.2.15-.27.27s-.39.29-.51.49a.8.8,0,0,0,0,.57c0,.28.18.63.46.6a.55.55,0,0,0,.33-.25,2.84,2.84,0,0,0,.4-.82Z"/><path class="cls-1" d="M799.77,61.65a6.69,6.69,0,0,0-2.67-1.54,1.17,1.17,0,0,0-.49-.07,1,1,0,0,0-.7.61,2,2,0,0,0,.47,2.18,2.49,2.49,0,0,0,2.21.58,1.71,1.71,0,0,0,1.07-.67.92.92,0,0,0-.12-1.19.2.2,0,0,0-.1.32Z"/><path class="cls-1" d="M584,389.64a6.69,6.69,0,0,0-2.67-1.54,1.17,1.17,0,0,0-.49-.07,1,1,0,0,0-.7.61,2,2,0,0,0,.47,2.18,2.46,2.46,0,0,0,2.21.58,1.63,1.63,0,0,0,1.07-.67.92.92,0,0,0-.12-1.19.21.21,0,0,0-.1.33Z"/><path class="cls-1" d="M535.47,218.4a6.72,6.72,0,0,0-2.66-1.54,1.07,1.07,0,0,0-.5-.07.94.94,0,0,0-.69.61,2,2,0,0,0,.47,2.17,2.44,2.44,0,0,0,2.2.58,1.66,1.66,0,0,0,1.08-.67.93.93,0,0,0-.12-1.18.2.2,0,0,0-.11.32Z"/><path class="cls-1" d="M842,48.86a1.75,1.75,0,0,0-1.69-.28,1.84,1.84,0,0,0,.47,1.64,1.12,1.12,0,0,0,1.58,0c.36-.46,0-1.32-.59-1.27Z"/><path class="cls-1" d="M838.8,114,839,114a1.12,1.12,0,0,1-.08.42.36.36,0,0,1-.36.2.21.21,0,0,1-.11-.34.78.78,0,0,1,.38-.2Z"/><path class="cls-1" d="M763,78.24c.22,0,.28-.3.26-.52s0-.3-.15-.37-.35,0-.49.15l-.37.32c0,.05-.11.1-.11.17a.21.21,0,0,0,.1.16,2.12,2.12,0,0,0,.82.48Z"/><path class="cls-1" d="M848.93,227.89c.22,0,.28-.29.27-.51a.47.47,0,0,0-.15-.37c-.16-.1-.36,0-.5.15l-.36.32a.22.22,0,0,0-.11.17.24.24,0,0,0,.09.16,2.27,2.27,0,0,0,.82.48Z"/><path class="cls-1" d="M871.17,118.34a6.72,6.72,0,0,0-2.66-1.54,1.21,1.21,0,0,0-.5-.07.94.94,0,0,0-.69.61,2,2,0,0,0,.47,2.18,2.47,2.47,0,0,0,2.2.57,1.68,1.68,0,0,0,1.08-.66,1,1,0,0,0-.12-1.19.2.2,0,0,0-.11.32Z"/><path class="cls-1" d="M825.85,37.14c0,.11.16.16.27.11s.17-.14.27-.2a.38.38,0,0,1,.33,0,.17.17,0,0,1,.14.13.19.19,0,0,1,0,.13,1.16,1.16,0,0,1-.38.54.56.56,0,0,1-.62,0,.47.47,0,0,1-.2-.4.43.43,0,0,1,.25-.36Z"/><path class="cls-1" d="M799.83,37.17a7,7,0,0,0-.62,3,1.37,1.37,0,0,0,.09.49,1,1,0,0,0,.81.47A2,2,0,0,0,802,40a2.44,2.44,0,0,0-.15-2.27,1.62,1.62,0,0,0-1-.81.93.93,0,0,0-1.09.49.2.2,0,0,0,.34,0Z"/><path class="cls-1" d="M692.56,200.56a6.88,6.88,0,0,0-.62,3,1.33,1.33,0,0,0,.09.49,1,1,0,0,0,.8.47,2,2,0,0,0,1.92-1.13,2.49,2.49,0,0,0-.15-2.28,1.67,1.67,0,0,0-1-.81.93.93,0,0,0-1.08.49.21.21,0,0,0,.34,0Z"/><path class="cls-1" d="M759.41,71.49c1.33-1.43-.48-2.84-1.88-1.92S758.24,72.74,759.41,71.49Z"/><path class="cls-1" d="M324.87,364.41c1.34-1.43-.47-2.84-1.87-1.92S323.71,365.66,324.87,364.41Z"/></g></g></svg>