<svg xmlns="http://www.w3.org/2000/svg" xmlns:xlink="http://www.w3.org/1999/xlink" viewBox="0 0 902.53 178.06"><defs><style>.cls-1{isolation:isolate;}.cls-2{fill:url(#Áåçûìÿííûé_ãðàäèåíò_97);}.cls-3{fill:url(#Áåçûìÿííûé_ãðàäèåíò_97-2);}.cls-4{fill:url(#Áåçûìÿííûé_ãðàäèåíò_97-3);}.cls-5{fill:url(#Áåçûìÿííûé_ãðàäèåíò_97-4);}.cls-6{fill:url(#Áåçûìÿííûé_ãðàäèåíò_97-5);}.cls-7{fill:url(#Áåçûìÿííûé_ãðàäèåíò_97-6);}.cls-8{fill:#fff;}.cls-9{fill:none;mix-blend-mode:color-dodge;}</style><linearGradient id="Áåçûìÿííûé_ãðàäèåíò_97" x1="236.07" y1="34.38" x2="1041" y2="34.38" gradientTransform="matrix(-1, 0, 0, 1, 1137.53, 0)" gradientUnits="userSpaceOnUse"><stop offset="0" stop-color="#7c9aff"/><stop offset="0.99" stop-color="#c2c2ff"/></linearGradient><linearGradient id="Áåçûìÿííûé_ãðàäèåíò_97-2" x1="236.07" y1="53.03" x2="1043.9" y2="53.03" xlink:href="#Áåçûìÿííûé_ãðàäèåíò_97"/><linearGradient id="Áåçûìÿííûé_ãðàäèåíò_97-3" x1="235" y1="94" x2="1137.53" y2="94" xlink:href="#Áåçûìÿííûé_ãðàäèåíò_97"/><linearGradient id="Áåçûìÿííûé_ãðàäèåíò_97-4" x1="629.35" y1="177.45" x2="629.35" y2="67.16" xlink:href="#Áåçûìÿííûé_ãðàäèåíò_97"/><linearGradient id="Áåçûìÿííûé_ãðàäèåíò_97-5" x1="625.21" y1="174.84" x2="625.21" y2="67.4" xlink:href="#Áåçûìÿííûé_ãðàäèåíò_97"/><linearGradient id="Áåçûìÿííûé_ãðàäèåíò_97-6" x1="633.13" y1="174.84" x2="633.13" y2="67.4" xlink:href="#Áåçûìÿííûé_ãðàäèåíò_97"/></defs><title>Asset 12</title><g class="cls-1"><g id="Layer_2" data-name="Layer 2"><g id="parc"><path class="cls-2" d="M626.08,68.76c-6.67,0-13.38,0-20.17-.07-96-.6-184.42-5.47-262.91-14.46C244.86,43,162.09,25.21,97,1.42a.73.73,0,0,1-.44-.94A.74.74,0,0,1,97.51,0C244.69,53.86,455.22,66.28,605.92,67.23c163.28,1,293.45-10.83,294.74-11a.74.74,0,0,1,.8.66.73.73,0,0,1-.66.8C899.56,57.85,779.86,68.76,626.08,68.76Z"/><path class="cls-3" d="M736.06,87.11c-32.83,0-64-1.38-90.82-3.21-76-5.17-133.92-14.85-136.48-15.28C386.21,76.16,280,62.65,212.51,50,139.33,36.25,94.56,20.52,94.11,20.37a.73.73,0,0,1-.44-.94A.72.72,0,0,1,94.6,19c.44.16,45.14,15.85,118.22,29.56C280.25,61.2,386.34,74.7,508.75,67.16h.08l.09,0c.58.1,59.2,10,136.43,15.28,71.26,4.84,173.38,6.6,255.21-12.59a.73.73,0,0,1,.34,1.42C849.7,83.29,790.6,87.11,736.06,87.11Z"/><path class="cls-4" d="M751.92,127.66c-4.53,0-9.11-.08-13.71-.22-36.57-1.16-75.16-6.88-114.68-17-64.59-16.56-110.77-39.7-114.79-41.75-71.71,24.77-205.91,21.6-306,14.57C94.31,75.62,1.55,61.94.62,61.81a.73.73,0,0,1,.22-1.45c.92.14,93.64,13.81,202.07,21.43,100,7,234.25,10.21,305.65-14.59l.29-.11.28.15c.47.24,47.66,24.58,114.8,41.78,61.92,15.87,154,28.75,240.78,0A183.1,183.1,0,0,0,901.4,91.84a.73.73,0,1,1,.79,1.23,184.87,184.87,0,0,1-37,17.31C830.54,121.86,792.51,127.66,751.92,127.66Z"/><path class="cls-5" d="M507.56,177.45h0a.72.72,0,0,1-.72-.74l1.23-108.83a.74.74,0,0,1,1.47,0l-1.24,108.83A.73.73,0,0,1,507.56,177.45Z"/><path class="cls-6" d="M514.29,174.84a.74.74,0,0,1-.73-.71l-3.95-106a.74.74,0,0,1,.71-.76.73.73,0,0,1,.75.71l3.95,106a.73.73,0,0,1-.7.76Z"/><path class="cls-7" d="M502.41,174.84h0a.74.74,0,0,1-.71-.76l4-106a.71.71,0,0,1,.76-.71.73.73,0,0,1,.7.76l-4,106A.73.73,0,0,1,502.41,174.84Z"/><path class="cls-8" d="M510.34,110.58a2,2,0,1,0,2-2A2,2,0,0,0,510.34,110.58Z"/><path class="cls-8" d="M509.06,81.45a2,2,0,1,0,2-2A2,2,0,0,0,509.06,81.45Z"/><path class="cls-8" d="M511,139a2,2,0,1,0,2-2A2,2,0,0,0,511,139Z"/><circle class="cls-8" cx="508.18" cy="176.08" r="1.98"/><circle class="cls-8" cx="507.56" cy="142.9" r="1.98"/><circle class="cls-8" cx="508.18" cy="115.36" r="1.98"/><circle class="cls-8" cx="508.18" cy="86.72" r="1.98"/><path class="cls-8" d="M441.05,83.43a2,2,0,1,0,2-2A2,2,0,0,0,441.05,83.43Z"/><circle class="cls-8" cx="384.56" cy="88.69" r="1.98"/><circle class="cls-8" cx="471.75" cy="78.31" r="1.98"/><circle class="cls-8" cx="508.18" cy="65.91" r="1.98"/><circle class="cls-8" cx="581.35" cy="97.82" r="1.98"/><circle class="cls-8" cx="608.87" cy="80.29" r="1.98"/><circle class="cls-8" cx="660.07" cy="83.43" r="1.98"/><circle class="cls-8" cx="618.63" cy="68.61" r="1.98"/><circle class="cls-8" cx="646.72" cy="68.16" r="1.98"/><circle class="cls-8" cx="721.99" cy="85.99" r="1.98"/><circle class="cls-8" cx="702.86" cy="67.83" r="1.98"/><circle class="cls-8" cx="791.27" cy="84.02" r="1.98"/><circle class="cls-8" cx="767.86" cy="65.91" r="1.98"/><path class="cls-8" d="M852.69,79.21a2,2,0,1,0,2-2A2,2,0,0,0,852.69,79.21Z"/><circle class="cls-8" cx="887.09" cy="73.55" r="1.98"/><path class="cls-8" d="M628.68,111.35a2,2,0,1,0,2-2A2,2,0,0,0,628.68,111.35Z"/><circle class="cls-8" cx="689.79" cy="122.53" r="1.98"/><path class="cls-8" d="M742.13,126.27a2,2,0,1,0,2-2A2,2,0,0,0,742.13,126.27Z"/><path class="cls-8" d="M798.85,123a2,2,0,1,0,2-2A2,2,0,0,0,798.85,123Z"/><circle class="cls-8" cx="863.73" cy="109.73" r="1.98"/><circle class="cls-8" cx="558.31" cy="88.69" r="1.98"/><circle class="cls-8" cx="581.35" cy="77.5" r="1.98"/><path class="cls-8" d="M631.66,81.45a2,2,0,1,0,2-2A2,2,0,0,0,631.66,81.45Z"/><path class="cls-8" d="M586.9,68.66a2,2,0,1,0,2-2A2,2,0,0,0,586.9,68.66Z"/><circle class="cls-8" cx="564.36" cy="67.89" r="1.98"/><circle class="cls-8" cx="534.11" cy="66.68" r="1.98"/><circle class="cls-8" cx="693.74" cy="85.4" r="1.98"/><path class="cls-8" d="M674.84,68a2,2,0,1,0,2-2A2,2,0,0,0,674.84,68Z"/><circle class="cls-8" cx="754.41" cy="85.99" r="1.98"/><circle class="cls-8" cx="735.54" cy="66.63" r="1.98"/><circle class="cls-8" cx="822.47" cy="82.26" r="1.98"/><circle class="cls-8" cx="805.17" cy="63.94" r="1.98"/><path class="cls-8" d="M838.6,61.32a2,2,0,1,0,2-2A2,2,0,0,0,838.6,61.32Z"/><path class="cls-8" d="M870.19,59.34a2,2,0,1,0,2-2A2,2,0,0,0,870.19,59.34Z"/><circle class="cls-8" cx="606.9" cy="105.35" r="1.98"/><circle class="cls-8" cx="660.07" cy="117.33" r="1.98"/><circle class="cls-8" cx="718.04" cy="125.47" r="1.98"/><circle class="cls-8" cx="769.84" cy="126.27" r="1.98"/><circle class="cls-8" cx="833.22" cy="118.27" r="1.98"/><path class="cls-8" d="M888.46,98.67a2,2,0,1,0,2-2A2,2,0,0,0,888.46,98.67Z"/><circle class="cls-8" cx="416.71" cy="86.72" r="1.98"/><path class="cls-8" d="M531.31,80.29a2,2,0,1,0,2-2A2,2,0,0,0,531.31,80.29Z"/><path class="cls-8" d="M550.37,73.87a2,2,0,1,0,2-2A2,2,0,0,0,550.37,73.87Z"/><path class="cls-8" d="M306.67,87.9a2,2,0,1,0,2-2A2,2,0,0,0,306.67,87.9Z"/><path class="cls-8" d="M258,86.43a2,2,0,1,0,2-2A2,2,0,0,0,258,86.43Z"/><circle class="cls-8" cx="215.22" cy="84.74" r="1.98"/><circle class="cls-8" cx="138.97" cy="76.84" r="1.98"/><circle class="cls-8" cx="45.96" cy="67.38" r="1.98"/><circle class="cls-8" cx="84.36" cy="71.15" r="1.98"/><path class="cls-8" d="M176.18,80.79a2,2,0,1,0,2-2A2,2,0,0,0,176.18,80.79Z"/><path class="cls-8" d="M191.44,45.51a2,2,0,1,0,2-2A2,2,0,0,0,191.44,45.51Z"/><circle class="cls-8" cx="160" cy="20.65" r="1.98"/><path class="cls-8" d="M222.13,51.36a2,2,0,1,0,2-2A2,2,0,0,0,222.13,51.36Z"/><circle class="cls-8" cx="191.44" cy="28.5" r="1.98"/><circle class="cls-8" cx="253.38" cy="56.33" r="1.98"/><path class="cls-8" d="M220.16,35.05a2,2,0,1,0,2-2A2,2,0,0,0,220.16,35.05Z"/><path class="cls-8" d="M277.79,45.51a2,2,0,1,0,2-2A2,2,0,0,0,277.79,45.51Z"/><circle class="cls-8" cx="285.95" cy="60.98" r="1.98"/><path class="cls-8" d="M248.16,41a2,2,0,1,0,2-2A2,2,0,0,0,248.16,41Z"/><path class="cls-8" d="M309.88,63.94a2,2,0,1,0,2-2A2,2,0,0,0,309.88,63.94Z"/><circle class="cls-8" cx="340.81" cy="65.92" r="1.98"/><path class="cls-8" d="M311.86,50.41a2,2,0,1,0,2-2A2,2,0,0,0,311.86,50.41Z"/><circle class="cls-8" cx="424.08" cy="69.36" r="1.98"/><circle class="cls-8" cx="382.58" cy="58.31" r="1.98"/><path class="cls-8" d="M437.1,62.26a2,2,0,1,0,2-2A2,2,0,0,0,437.1,62.26Z"/><circle class="cls-8" cx="369.31" cy="67.89" r="1.98"/><circle class="cls-8" cx="347.38" cy="54.36" r="1.98"/><circle class="cls-8" cx="395.73" cy="69.36" r="1.98"/><path class="cls-8" d="M407.12,60.28a2,2,0,1,0,2-2A2,2,0,0,0,407.12,60.28Z"/><circle class="cls-8" cx="452.4" cy="69.92" r="1.98"/><circle class="cls-8" cx="475.5" cy="64.23" r="1.98"/><circle class="cls-8" cx="132.13" cy="31.46" r="1.98" transform="translate(-1.9 9.45) rotate(-4.07)"/><circle class="cls-8" cx="165.25" cy="39.02" r="1.98"/><circle class="cls-8" cx="124.85" cy="10.12" r="1.98"/><path class="cls-8" d="M345.4,87.9a2,2,0,1,0,2-2A2,2,0,0,0,345.4,87.9Z"/><path class="cls-8" d="M512.32,174.11a2,2,0,1,0,2-2A2,2,0,0,0,512.32,174.11Z"/><path class="cls-8" d="M500.44,174.74a2,2,0,1,0,2-2A2,2,0,0,0,500.44,174.74Z"/><path class="cls-8" d="M500.44,139a2,2,0,1,0,2-2A2,2,0,0,0,500.44,139Z"/><path class="cls-8" d="M502.43,111.35a2,2,0,1,0,2-2A2,2,0,0,0,502.43,111.35Z"/><path class="cls-8" d="M503.61,81.45a2,2,0,1,0,2-2A2,2,0,0,0,503.61,81.45Z"/><circle class="cls-8" cx="497.18" cy="71.89" r="1.98"/><ellipse class="cls-9" cx="311.86" cy="62.96" rx="48.92" ry="38.51"/></g></g></g></svg>